<?xml version="1.0" encoding="iso-8859-1"?>
<!-- Generator: Adobe Illustrator 16.0.0, SVG Export Plug-In . SVG Version: 6.00 Build 0)  -->
<!DOCTYPE svg PUBLIC "-//W3C//DTD SVG 1.1//EN" "http://www.w3.org/Graphics/SVG/1.1/DTD/svg11.dtd">
<svg version="1.1" id="&#x56FE;&#x5C42;_1" xmlns:sketch="http://www.bohemiancoding.com/sketch/ns"
	 xmlns="http://www.w3.org/2000/svg" xmlns:xlink="http://www.w3.org/1999/xlink" x="0px" y="0px" width="300px" height="300px"
	 viewBox="0 0 300 300" style="enable-background:new 0 0 300 300;" xml:space="preserve">
<title>Disc-play</title>
<style>
	/*<![CDATA[*/
		.rotate{
			animation:rotate 2s infinite linear;
			transform-origin:center center;
			-webkit-transform-origin:center center;
		}	

		@keyframes rotate{
		0%{
			transform:rotateZ(0deg);
			-webkit-transform:rotateZ(0deg);
		}
		100%{
			transform:rotateZ(360deg);
			-webkit-transform:rotateZ(360deg);
		}
		}
	/*]]>*/
</style>
<g id="Page-1" sketch:type="MSPage">
	<g id="Disc-play" transform="translate(1.000000, 1.000000)" sketch:type="MSLayerGroup">
		<g id="Group" sketch:type="MSShapeGroup">
			<circle id="Ova" style="fill:none;stroke:#6B6C6E;stroke-width:2;" cx="149" cy="149" r="140"/>
			<circle id="Oval" style="fill:none;stroke:#6B6C6E;stroke-width:2;" cx="149" cy="149" r="40.646"/>
			<path id="Oval_1_" style="fill:none;stroke:#6B6C6E;stroke-width:2;" d="M149,135.452c7.479,0,13.548,6.065,13.548,13.548
				c0,7.479-6.068,13.548-13.548,13.548c-7.482,0-13.548-6.068-13.548-13.548C135.452,141.518,141.518,135.452,149,135.452z"/>
			<path id="Shape_1_" style="fill:none;stroke:#6B6C6E;stroke-width:2;" d="M149,257.388c-60.062,0-108.387-48.323-108.387-108.388
				"/>
			<path id="Shape_2_" style="fill:none;stroke:#6B6C6E;stroke-width:2;" d="M149,40.613c60.064,0,108.388,48.325,108.388,108.387"
				/>
			<path id="Shape_3_" style="fill:none;stroke:#6B6C6E;stroke-width:2;" d="M149,230.29c-44.709,0-81.291-36.578-81.291-81.29"/>
			<path id="Shape_4_" style="fill:none;stroke:#6B6C6E;stroke-width:2;" d="M149,67.709c44.712,0,81.29,36.582,81.29,81.291"/>
		</g>
	</g>
		<path id="Shape_5_" sketch:type="MSShapeGroup" fill="white" style="stroke:#6B6C6E;stroke-width:2;" d="M225.323,210.417 c0-1.353,0.9-2.707,2.71-2.707l53.743,35.226c1.354,0.902,2.707,1.353,2.707,2.712v4.965c0,0.904-0.902,1.809-2.707,2.709 L228.033,289c-1.354,0-2.71-1.354-2.71-2.707V210.417L225.323,210.417z"/>
</g>
<script type="application/ecmascript">
window.onload = function (){
	var	disc = document.getElementById("Disc-play"); 
	var btn = document.getElementById("Shape_5_");
	var onOff = true;
	btn.addEventListener("click",play);
	function play(){
		if(onOff){
		disc.setAttribute("class","rotate");
		btn.setAttribute("fill","red");	
		btn.setAttribute("fill-opacity","0.8");	
		onOff = false;
	}else{
		disc.setAttribute("class","");
		btn.setAttribute("fill","white");	
		btn.setAttribute("fill-opacity","1");	
		onOff = true;
		};
		};
		};
</script>
</svg>
