<?xml version="1.0" encoding="UTF-8" standalone="no"?>
<!-- Generator: Adobe Illustrator 16.0.0, SVG Export Plug-In . SVG Version: 6.00 Build 0)  -->
<svg xmlns:dc="http://purl.org/dc/elements/1.1/" xmlns:cc="http://creativecommons.org/ns#" xmlns:rdf="http://www.w3.org/1999/02/22-rdf-syntax-ns#" xmlns:svg="http://www.w3.org/2000/svg" xmlns="http://www.w3.org/2000/svg" xmlns:xlink="http://www.w3.org/1999/xlink" xmlns:sodipodi="http://sodipodi.sourceforge.net/DTD/sodipodi-0.dtd" xmlns:inkscape="http://www.inkscape.org/namespaces/inkscape" version="1.1" x="0px" y="0px" width="400px" height="407.003px" viewBox="0 0 400 407.003" style="enable-background:new 0 0 400 407.003;" xml:space="preserve" id="svg7960" inkscape:version="0.91 r13725" sodipodi:docname="素材中国-sccnn.com_201509170909 [转换].svg">
    <metadata id="metadata11584">
        <rdf:RDF>
            <cc:Work rdf:about="">
                <dc:format>image/svg+xml</dc:format>
                <dc:type rdf:resource="http://purl.org/dc/dcmitype/StillImage" />
            </cc:Work>
        </rdf:RDF>
    </metadata>
    <defs id="defs11582" />
    <sodipodi:namedview pagecolor="#ffffff" bordercolor="#666666" borderopacity="1" objecttolerance="10" gridtolerance="10" guidetolerance="10" inkscape:pageopacity="0" inkscape:pageshadow="2" inkscape:window-width="1366" inkscape:window-height="719" id="namedview11580" showgrid="false" inkscape:zoom="10.24" inkscape:cx="185.99661" inkscape:cy="129.58419" inkscape:window-x="0" inkscape:window-y="1" inkscape:window-maximized="1" inkscape:current-layer="hudie" />
    <g id="Layer_2" />
    <g id="canvas">
        <g id="hudie" transform="matrix(2.9948738,0,0,2.5902739,-10.866395,-324.32793)">
          <g id="right">
            <g id="right_n">
                <path style="fill:#040100" d="m 65.208,226.614 c 0,0 -5.31,-8.158 6.503,-20.921 5.147,-5.899 14.574,-16.562 25.949,-10.004 2.904,0.186 9.3,3.774 10.14,5.153 0.747,2.83 1.297,4.588 2.277,5.843 0.98,1.256 0.424,3.737 -2.328,7.406 -2.751,3.667 -4.172,5.166 -8.637,6.604 -4.465,1.438 -14.964,2.603 -22.414,5.735 -9.385,-0.267 -10.406,1.929 -11.49,0.184 z" id="path7968" inkscape:connector-curvature="0" />
                <g id="g7970">
                    <linearGradient id="SVGID_1_" gradientUnits="userSpaceOnUse" x1="7.2612" y1="203.99409" x2="49.454102" y2="203.99409" gradientTransform="matrix(0.8976,-0.4407,0.4407,0.8976,-31.9941,42.4573)">
                        <stop offset="0.3011" style="stop-color:#FF1094" id="stop7973" />
                        <stop offset="0.4138" style="stop-color:#EF0E96" id="stop7975" />
                        <stop offset="0.6333" style="stop-color:#C6099C" id="stop7977" />
                        <stop offset="0.9355" style="stop-color:#8402A6" id="stop7979" />
                        <stop offset="1" style="stop-color:#7500A8" id="stop7981" />
                    </linearGradient>
                    <path style="fill:url(#SVGID_1_)" d="m 69.866,223.199 c -0.747,-1.843 2.104,-7.271 3.909,-9.483 1.804,-2.213 3.096,-2.804 6.865,-2.998 1.13,0.006 5.484,-4.173 11.089,-2.486 0.381,0.29 -0.959,1.137 -3.864,2.881 -2.904,1.743 -8.46,4.726 -11.064,6.609 -3.412,2.47 -6.208,6.588 -6.935,5.477 z m 2.731,-9.398 c 1.993,-2.373 0.31,-4.861 3.51,-10.322 0,0 -5.825,6.018 -7.12,9.132 -1.293,3.116 -1.681,7.771 -0.227,9.704 0.621,-3.579 1.434,-5.656 3.837,-8.514 z m 5.12,-4.954 c 1.305,-1.23 7.008,-6.167 8.218,-7.272 1.209,-1.106 0.293,-1.589 -1.097,-1.765 -2.048,-0.175 -4.299,-0.122 -5.567,0.516 -1.846,0.929 -1.202,1.972 -2.613,4.281 -1.24,2.028 -2.068,6.821 -2.068,6.821 0,0 1.822,-1.35 3.127,-2.581 z m 3.522,0.645 c 1.585,-0.688 3.135,-1.559 4.421,-2.241 2.358,-1.251 7.094,-4.76 8.341,-5.775 1.248,-1.016 1.15,-1.547 0.365,-1.598 -0.785,-0.05 -2.146,-0.005 -3.107,-0.724 -1.311,-0.741 -2.336,-0.456 -2.984,0.773 -0.137,1.192 -8.068,7.815 -11.216,10.462 1.436,-0.64 2.859,-0.325 4.18,-0.897 z m 12.204,-2.707 c 0.366,-0.24 3.979,-1.937 6.416,-3.052 2.437,-1.115 0.66,-2.104 -0.455,-3.183 -1.113,-1.078 -2.161,-1.146 -2.955,-0.364 -1.417,1.618 -5.161,4.665 -9.336,6.939 2.496,-0.673 5.965,-0.101 6.33,-0.34 z m 1.036,2.3 c 2.219,-0.334 6.18,-0.744 7.511,-1.01 1.331,-0.266 1.414,-0.873 1.187,-2.115 -0.228,-1.241 -1,-2.703 -2.286,-1.941 -2.296,1.359 -5.881,2.645 -7.157,3.529 -2.783,1.931 -1.618,1.893 0.745,1.537 z m -3.509,4.61 c 3.878,-0.352 6.343,-2.013 9.216,-1.45 1.559,0.305 2.113,-0.076 2.859,-1.475 0.746,-1.397 0.515,-1.896 -0.671,-1.839 -1.186,0.057 -5.108,0.801 -9.838,1.248 -2.341,0.222 -3.618,1.461 -8.699,4.467 0.419,0.29 5.094,-0.765 7.133,-0.951 z m -17.252,10.449 c 1.485,-0.606 5.709,-2.965 10.718,-4.573 5.009,-1.607 11.489,-2.245 15.111,-2.715 2.25,-0.251 1.516,-1.787 1.337,-3.112 -0.682,-1.665 -5.211,-0.026 -6.899,0.348 -1.688,0.374 -7.639,0.958 -10.746,1.592 -3.107,0.634 -8.315,4.683 -10.989,7.446 -0.842,1.522 0.196,1.72 1.468,1.014 z m 3.811,0.68 c 2.008,-0.573 6.916,-1.968 11.001,-2.847 4.086,-0.877 9.682,-0.695 10.423,-2.006 1.259,-1.892 0.186,-2.222 -1.623,-2.031 -1.809,0.19 -9.459,1.473 -12.695,2.606 -1.816,0.636 -6.161,2.387 -10.417,3.979 -1.666,0.726 1.303,0.871 3.311,0.299 z m -10.518,-6.429 c -0.098,-4.226 2.236,-8.122 2.236,-8.122 0,0 -1.023,0.957 -1.821,2.304 -2.718,5.091 -2.523,8.65 -2.405,10.253 0.119,1.602 1.117,2.902 1.27,2.289 0.455,-1.653 2.261,-2.078 1.691,-2.561 -0.351,-0.297 -0.905,-1.334 -0.971,-4.163 z" id="path7983" inkscape:connector-curvature="0" />
                    <path style="fill:#ffffff" d="m 84.259,197.611 c -0.228,0.568 -0.832,1.097 -1.35,1.18 -0.518,0.084 -0.753,-0.309 -0.525,-0.877 0.227,-0.568 0.831,-1.096 1.349,-1.18 0.518,-0.083 0.753,0.309 0.526,0.877 z" id="path7985" inkscape:connector-curvature="0" />
                    <path style="fill:#ffffff" d="m 88.287,197.761 c -0.38,0.685 -1.233,1.257 -1.903,1.279 -0.671,0.022 -0.907,-0.514 -0.525,-1.198 0.381,-0.685 1.233,-1.257 1.904,-1.279 0.67,-0.022 0.904,0.514 0.524,1.198 z" id="path7987" inkscape:connector-curvature="0" />
                    <path style="fill:#ffffff" d="m 68.627,224.46 c -0.296,0.862 -0.755,0.625 -1.431,0.655 -0.424,0.021 -0.126,-0.613 0.208,-1.062 0.296,-0.396 1.022,-0.872 1.447,-0.887 0.424,-0.012 0.031,0.551 -0.224,1.294 z" id="path7989" inkscape:connector-curvature="0" />
                    <path style="fill:#ffffff" d="m 68.811,224.695 c -0.164,0.534 1.255,0.316 1.917,0.454 0.574,0.12 0.554,-0.346 -0.123,-0.806 -0.578,-0.392 -0.688,-0.566 -1.029,-0.955 -0.199,-0.225 -0.525,0.527 -0.765,1.307 z" id="path7991" inkscape:connector-curvature="0" />
                    <path style="fill:#ffffff" d="m 71.402,225.135 c -0.045,0.256 1.175,0.327 1.468,0.442 0.552,0.219 -0.377,-0.387 -0.693,-0.601 -0.269,-0.183 -0.549,-0.524 -0.725,-0.69 -0.185,-0.174 -0.433,-0.198 -0.201,0.216 0.093,0.165 0.168,0.536 0.151,0.633 z" id="path7993" inkscape:connector-curvature="0" />
                    <path style="fill:#ffffff" d="m 92.596,197.12 c -0.21,0.501 -0.819,0.951 -1.36,1.004 -0.541,0.053 -0.811,-0.31 -0.6,-0.812 0.21,-0.501 0.819,-0.951 1.36,-1.004 0.542,-0.053 0.81,0.31 0.6,0.812 z" id="path7995" inkscape:connector-curvature="0" />
                    <path style="fill:#ffffff" d="m 100.987,199.446 c -0.467,0.279 -1.224,0.279 -1.691,0 -0.467,-0.278 -0.468,-0.73 -0.001,-1.009 0.467,-0.279 1.224,-0.279 1.691,0 0.468,0.279 0.468,0.731 10e-4,1.009 z" id="path7997" inkscape:connector-curvature="0" />
                    <path style="fill:#ffffff" d="m 102.972,201.872 c -0.536,0.093 -1.243,-0.18 -1.578,-0.607 -0.336,-0.428 -0.174,-0.85 0.362,-0.942 0.536,-0.092 1.242,0.18 1.578,0.608 0.335,0.427 0.173,0.849 -0.362,0.941 z" id="path7999" inkscape:connector-curvature="0" />
                    <path style="fill:#ffffff" d="m 104.788,204.639 c -0.516,-0.174 -1.008,-0.75 -1.099,-1.285 -0.092,-0.536 0.25,-0.831 0.766,-0.657 0.515,0.173 1.008,0.749 1.099,1.285 0.092,0.536 -0.251,0.83 -0.766,0.657 z" id="path8001" inkscape:connector-curvature="0" />
                    <path style="fill:#ffffff" d="m 104.524,207.993 c -0.286,-0.367 -0.365,-1.011 -0.177,-1.438 0.188,-0.427 0.573,-0.474 0.858,-0.105 0.287,0.367 0.366,1.011 0.178,1.438 -0.188,0.427 -0.572,0.473 -0.859,0.105 z" id="path8003" inkscape:connector-curvature="0" />
                    <path style="fill:#ffffff" d="m 104.354,211.116 c -0.1,-0.383 0.053,-0.913 0.343,-1.184 0.289,-0.27 0.605,-0.179 0.706,0.204 0.101,0.383 -0.053,0.912 -0.342,1.182 -0.29,0.271 -0.605,0.18 -0.707,-0.202 z" id="path8005" inkscape:connector-curvature="0" />
                    <path style="fill:#ffffff" d="m 102.553,213.838 c -0.089,-0.342 0.047,-0.812 0.305,-1.053 0.258,-0.241 0.539,-0.16 0.628,0.181 0.09,0.341 -0.047,0.812 -0.304,1.053 -0.258,0.24 -0.539,0.16 -0.629,-0.181 z" id="path8007" inkscape:connector-curvature="0" />
                    <path style="fill:#ffffff" d="m 106.159,212.58 c -0.031,-0.32 0.133,-0.717 0.366,-0.886 0.233,-0.168 0.447,-0.047 0.478,0.272 0.031,0.32 -0.133,0.716 -0.367,0.886 -0.233,0.169 -0.447,0.047 -0.477,-0.272 z" id="path8009" inkscape:connector-curvature="0" />
                    <path style="fill:#ffffff" d="m 107.474,209.362 c -0.163,-0.357 -0.13,-0.882 0.073,-1.17 0.203,-0.289 0.5,-0.233 0.662,0.124 0.163,0.358 0.13,0.883 -0.072,1.171 -0.203,0.289 -0.499,0.233 -0.663,-0.125 z" id="path8011" inkscape:connector-curvature="0" />
                    <path style="fill:#ffffff" d="m 107.271,205.595 c -0.194,-0.167 -0.319,-0.484 -0.279,-0.71 0.04,-0.226 0.229,-0.274 0.424,-0.108 0.195,0.166 0.319,0.484 0.279,0.708 -0.04,0.226 -0.23,0.275 -0.424,0.11 z" id="path8013" inkscape:connector-curvature="0" />
                    <path style="fill:#ffffff" d="m 105.884,201.524 c -0.223,-0.043 -0.458,-0.234 -0.527,-0.426 -0.068,-0.192 0.058,-0.313 0.281,-0.27 0.223,0.043 0.458,0.234 0.526,0.426 0.068,0.192 -0.058,0.314 -0.28,0.27 z" id="path8015" inkscape:connector-curvature="0" />
                    <path style="fill:#ffffff" d="m 103.304,199.549 c -0.146,-0.015 -0.308,-0.125 -0.363,-0.244 -0.055,-0.119 0.019,-0.205 0.165,-0.189 0.146,0.015 0.309,0.124 0.363,0.244 0.055,0.119 -0.019,0.204 -0.165,0.189 z" id="path8017" inkscape:connector-curvature="0" />
                    <path style="fill:#ffffff" d="m 102.079,216.012 c -0.06,-0.227 0.031,-0.539 0.202,-0.698 0.171,-0.16 0.358,-0.106 0.417,0.12 0.06,0.226 -0.031,0.539 -0.202,0.698 -0.17,0.16 -0.357,0.106 -0.417,-0.12 z" id="path8019" inkscape:connector-curvature="0" />
                    <path style="fill:#ffffff" d="m 104.356,214.854 c -0.018,-0.232 0.128,-0.523 0.325,-0.65 0.197,-0.126 0.371,-0.04 0.389,0.194 0.017,0.232 -0.128,0.524 -0.325,0.65 -0.197,0.127 -0.371,0.04 -0.389,-0.194 z" id="path8021" inkscape:connector-curvature="0" />
                    <path style="fill:#ffffff" d="m 100.977,218.199 c 0.055,-0.228 0.284,-0.459 0.51,-0.519 0.226,-0.06 0.365,0.077 0.31,0.304 -0.055,0.228 -0.283,0.46 -0.51,0.52 -0.226,0.058 -0.365,-0.077 -0.31,-0.305 z" id="path8023" inkscape:connector-curvature="0" />
                    <path style="fill:#ffffff" d="m 103.011,217.28 c 0.024,-0.233 0.218,-0.494 0.434,-0.584 0.216,-0.09 0.373,0.025 0.349,0.259 -0.023,0.232 -0.218,0.495 -0.434,0.584 -0.217,0.089 -0.373,-0.026 -0.349,-0.259 z" id="path8025" inkscape:connector-curvature="0" />
                    <path style="fill:#ffffff" d="m 95.926,198.012 c -0.394,0.485 -1.21,0.785 -1.825,0.668 -0.614,-0.116 -0.793,-0.604 -0.4,-1.088 0.394,-0.485 1.21,-0.785 1.825,-0.668 0.614,0.116 0.793,0.603 0.4,1.088 z" id="path8027" inkscape:connector-curvature="0" />
                    <path style="fill:#ffffff" d="m 81.14,198.556 c -0.16,0.295 -0.521,0.545 -0.808,0.559 -0.287,0.013 -0.391,-0.215 -0.232,-0.51 0.16,-0.295 0.521,-0.545 0.808,-0.559 0.287,-0.013 0.39,0.215 0.232,0.51 z" id="path8029" inkscape:connector-curvature="0" />
                    <path style="fill:#ffffff" d="m 86.011,196.277 c -0.181,0.336 -0.591,0.62 -0.918,0.635 -0.326,0.016 -0.444,-0.244 -0.263,-0.58 0.181,-0.335 0.592,-0.62 0.918,-0.635 0.326,-0.014 0.444,0.245 0.263,0.58 z" id="path8031" inkscape:connector-curvature="0" />
                    <path style="fill:#ffffff" d="m 90.416,195.927 c -0.181,0.336 -0.592,0.62 -0.918,0.635 -0.326,0.015 -0.444,-0.244 -0.263,-0.58 0.181,-0.335 0.592,-0.62 0.918,-0.635 0.326,-0.015 0.444,0.245 0.263,0.58 z" id="path8033" inkscape:connector-curvature="0" />
                    <path style="fill:#ffffff" d="m 97.959,198.37 c -0.309,0.223 -0.803,0.299 -1.103,0.17 -0.3,-0.128 -0.293,-0.414 0.016,-0.637 0.309,-0.223 0.803,-0.299 1.104,-0.17 0.299,0.129 0.292,0.414 -0.017,0.637 z" id="path8035" inkscape:connector-curvature="0" />
                    <path style="fill:#ffffff" d="m 94.42,195.908 c -0.221,0.218 -0.609,0.341 -0.867,0.274 -0.257,-0.066 -0.287,-0.296 -0.066,-0.514 0.221,-0.218 0.609,-0.341 0.867,-0.274 0.257,0.066 0.287,0.296 0.066,0.514 z" id="path8037" inkscape:connector-curvature="0" />
                </g>
            </g>
            <g id="right_f">
                <g id="g8041">
                    <g id="g8043">
                        <path style="fill:#040100" d="m 64.965,232.038 c -0.225,0.185 -1.97,-0.821 -2.935,-1.26 -13.892,-6.315 -24.857,-16.454 -28.16,-28.735 -2.484,-9.238 -6.406,-27.335 3.485,-34.966 4.152,0.468 13.599,10.97 14.107,14.532 8.56,9.841 20.572,7.872 19.561,13.91 -5.927,12.219 -11.593,21.908 -6.61,35.141 0.171,0.455 1.275,0.788 0.552,1.378 z" id="path8045" inkscape:connector-curvature="0" />
                        <linearGradient id="SVGID_2_" gradientUnits="userSpaceOnUse" x1="5.3569002" y1="210.2119" x2="6.9201002" y2="151.2018" gradientTransform="matrix(0.8976,-0.4407,0.4407,0.8976,-31.9941,42.4573)">
                            <stop offset="0.3011" style="stop-color:#FF1094" id="stop8048" />
                            <stop offset="0.4138" style="stop-color:#EF0E96" id="stop8050" />
                            <stop offset="0.6333" style="stop-color:#C6099C" id="stop8052" />
                            <stop offset="0.9355" style="stop-color:#8402A6" id="stop8054" />
                            <stop offset="1" style="stop-color:#7500A8" id="stop8056" />
                        </linearGradient>
                        <path style="fill:url(#SVGID_2_)" d="m 63.294,230.32 c -0.205,0.203 -21.892,-12.173 -22.643,-24.229 0.439,-3.099 2.094,-6.801 5.401,-3.196 1.662,1.846 2.49,2.354 2.49,2.354 0,0 0.786,5.071 5.37,8.691 0.785,2.256 9.382,16.38 9.382,16.38 z M 50.145,197.315 c 0.523,-1.956 1.17,-2.952 0.589,-3.422 -2.779,-3.7 -4.679,-2.477 -5.374,-0.886 -2.117,5.993 1.297,9.897 3.229,11.424 0.364,-1.715 1.105,-5.432 1.556,-7.116 z m 0.865,-0.01 c -0.53,1.775 -1.941,6.943 -1.761,7.862 1.791,6.936 4.84,7.969 5.009,6.864 0.338,-2.21 2.729,-10.746 3.763,-14.313 1.033,-3.567 -2.36,-3.15 -4.315,-3.804 -1.794,-0.6 -2.165,1.616 -2.696,3.391 z m 7.962,1.515 c -0.617,1.983 -3.498,11.219 -3.932,13.546 -0.435,2.326 0.738,4.21 1.736,6.199 1.249,2.486 3.675,5.738 6.967,11.202 -1.261,-2.936 -1.66,-4.787 -2.086,-6.885 -0.896,-8.756 1.573,-13.356 3.753,-17.561 2.18,-4.204 1.649,-5.426 1.212,-7.229 -1.079,-3.308 -3.392,-2.642 -4.965,-2.312 -1.286,0.272 -2.069,1.057 -2.685,3.04 z M 37.065,187.644 c 0.675,-3.09 0.998,-6.365 1.618,-8.523 1,-3 -3.312,-3.364 -4.084,0.471 -0.608,3.023 -0.782,6.653 0.455,9.074 0.333,0.651 0.881,1.337 1.439,1.054 0.389,-0.198 0.402,-1.295 0.572,-2.076 z m 4.231,-0.295 c -0.14,-2.142 0.521,-2.604 1.171,-5.605 0.649,-3.002 -2.639,-3.372 -3.332,-1.208 -0.692,2.165 -1.338,7.748 -1.528,8.917 -0.141,0.865 1.046,-0.336 1.888,-0.436 1.103,-0.129 2.001,1.381 1.801,-1.668 z m 1.533,-0.399 c 0.481,-1.446 1.455,-2.287 2.944,-2.794 2.539,-0.864 -1.812,-3.402 -2.735,-1.136 -0.982,2.41 -0.963,3.766 -0.963,3.766 -0.025,0.323 0.579,0.687 0.754,0.164 z" id="path8058" inkscape:connector-curvature="0" />
                        <path style="fill:#ffffff" d="m 39.187,169.898 c 0.139,0.491 -0.155,1.022 -0.656,1.185 -0.5,0.162 -1.014,-0.108 -1.152,-0.6 -0.139,-0.492 0.151,-1.018 0.649,-1.179 0.498,-0.16 1.019,0.104 1.159,0.594 z" id="path8060" inkscape:connector-curvature="0" />
                        <path style="fill:#ffffff" d="m 41.514,171.244 c 0.118,0.424 -0.14,0.887 -0.575,1.03 -0.435,0.143 -0.878,-0.089 -0.995,-0.516 -0.116,-0.426 0.138,-0.885 0.571,-1.026 0.433,-0.141 0.881,0.088 0.999,0.512 z" id="path8062" inkscape:connector-curvature="0" />
                        <path style="fill:#ffffff" d="m 43.563,172.784 c 0.092,0.341 -0.118,0.714 -0.468,0.831 -0.351,0.117 -0.707,-0.067 -0.797,-0.41 -0.091,-0.343 0.117,-0.713 0.465,-0.829 0.348,-0.115 0.707,0.067 0.8,0.408 z" id="path8064" inkscape:connector-curvature="0" />
                        <path style="fill:#ffffff" d="m 45.2,174.847 c 0.074,0.284 -0.104,0.595 -0.397,0.696 -0.293,0.1 -0.588,-0.051 -0.661,-0.337 -0.073,-0.286 0.104,-0.597 0.396,-0.695 0.291,-0.098 0.587,0.051 0.662,0.336 z" id="path8066" inkscape:connector-curvature="0" />
                        <path style="fill:#ffffff" d="m 46.773,176.467 c 0.072,0.286 -0.11,0.601 -0.406,0.704 -0.296,0.103 -0.592,-0.047 -0.663,-0.334 -0.071,-0.288 0.11,-0.602 0.404,-0.703 0.295,-0.101 0.593,0.048 0.665,0.333 z" id="path8068" inkscape:connector-curvature="0" />
                        <path style="fill:#ffffff" d="m 48.156,178.409 c 0.084,0.347 -0.142,0.733 -0.504,0.862 -0.362,0.128 -0.72,-0.052 -0.802,-0.401 -0.082,-0.349 0.142,-0.734 0.501,-0.861 0.36,-0.125 0.721,0.053 0.805,0.4 z" id="path8070" inkscape:connector-curvature="0" />
                        <path style="fill:#ffffff" d="m 50.787,182.87 c 0.078,0.353 -0.163,0.752 -0.536,0.892 -0.373,0.139 -0.735,-0.038 -0.811,-0.394 -0.076,-0.356 0.164,-0.754 0.534,-0.89 0.37,-0.136 0.734,0.04 0.813,0.392 z" id="path8072" inkscape:connector-curvature="0" />
                        <path style="fill:#ffffff" d="m 52.542,184.586 c 0.068,0.313 -0.148,0.67 -0.482,0.797 -0.335,0.126 -0.659,-0.027 -0.725,-0.342 -0.066,-0.315 0.149,-0.671 0.481,-0.796 0.332,-0.125 0.657,0.027 0.726,0.341 z" id="path8074" inkscape:connector-curvature="0" />
                        <path style="fill:#ffffff" d="m 54.262,186.071 c 0.069,0.313 -0.149,0.672 -0.487,0.802 -0.338,0.13 -0.666,-0.021 -0.731,-0.336 -0.066,-0.315 0.151,-0.674 0.487,-0.801 0.335,-0.128 0.662,0.022 0.731,0.335 z" id="path8076" inkscape:connector-curvature="0" />
                        <path style="fill:#ffffff" d="m 56.405,187.467 c 0.071,0.312 -0.147,0.67 -0.488,0.802 -0.34,0.132 -0.671,-0.015 -0.739,-0.33 -0.067,-0.314 0.152,-0.674 0.489,-0.803 0.337,-0.129 0.667,0.019 0.738,0.331 z" id="path8078" inkscape:connector-curvature="0" />
                        <path style="fill:#ffffff" d="m 58.498,188.651 c 0.053,0.23 -0.106,0.495 -0.358,0.591 -0.252,0.098 -0.5,-0.01 -0.552,-0.241 -0.052,-0.231 0.109,-0.498 0.36,-0.593 0.251,-0.095 0.495,0.013 0.55,0.243 z" id="path8080" inkscape:connector-curvature="0" />
                        <path style="fill:#ffffff" d="m 60.456,189.657 c 0.049,0.196 -0.086,0.422 -0.302,0.504 -0.216,0.083 -0.43,-0.009 -0.477,-0.207 -0.047,-0.198 0.09,-0.425 0.304,-0.506 0.216,-0.081 0.427,0.013 0.475,0.209 z" id="path8082" inkscape:connector-curvature="0" />
                        <path style="fill:#ffffff" d="m 62.803,190.757 c 0.042,0.137 -0.054,0.298 -0.214,0.36 -0.16,0.062 -0.323,0.001 -0.363,-0.138 -0.04,-0.139 0.058,-0.302 0.216,-0.363 0.159,-0.06 0.321,0.003 0.361,0.141 z" id="path8084" inkscape:connector-curvature="0" />
                        <path style="fill:#ffffff" d="m 49.31,180.891 c 0.113,0.491 -0.217,1.045 -0.733,1.233 -0.516,0.188 -1.017,-0.064 -1.124,-0.56 -0.107,-0.497 0.218,-1.045 0.728,-1.229 0.511,-0.184 1.017,0.064 1.129,0.556 z" id="path8086" inkscape:connector-curvature="0" />
                        <path style="fill:#ffffff" d="m 45.664,178.404 c 0.102,0.439 -0.184,0.927 -0.635,1.085 -0.452,0.158 -0.895,-0.075 -0.993,-0.517 -0.099,-0.442 0.182,-0.924 0.629,-1.08 0.448,-0.155 0.897,0.073 0.999,0.512 z" id="path8088" inkscape:connector-curvature="0" />
                        <path style="fill:#ffffff" d="m 42.521,175.574 c 0.165,0.672 -0.261,1.411 -0.942,1.641 -0.681,0.229 -1.354,-0.141 -1.514,-0.817 -0.16,-0.677 0.251,-1.401 0.926,-1.626 0.676,-0.226 1.364,0.13 1.53,0.802 z" id="path8090" inkscape:connector-curvature="0" />
                        <path style="fill:#ffffff" d="m 51.051,187.559 c 0.123,1.208 -0.587,2.432 -1.565,2.714 -0.977,0.283 -1.851,-0.484 -1.971,-1.696 -0.119,-1.211 0.562,-2.408 1.535,-2.687 0.972,-0.278 1.876,0.462 2.001,1.669 z" id="path8092" inkscape:connector-curvature="0" />
                        <path style="fill:#ffffff" d="m 46.666,186.423 c 0.161,0.843 -0.408,1.784 -1.25,2.08 -0.842,0.297 -1.639,-0.16 -1.802,-1.002 -0.163,-0.842 0.375,-1.754 1.218,-2.052 0.843,-0.298 1.672,0.13 1.834,0.974 z" id="path8094" inkscape:connector-curvature="0" />
                        <path style="fill:#ffffff" d="m 54.505,189.956 c 0.154,0.755 -0.389,1.631 -1.208,1.952 -0.818,0.321 -1.596,-0.041 -1.744,-0.8 -0.148,-0.76 0.386,-1.628 1.198,-1.944 0.813,-0.316 1.6,0.038 1.754,0.792 z" id="path8096" inkscape:connector-curvature="0" />
                        <path style="fill:#ffffff" d="m 58.25,191.171 c 0.148,0.664 -0.331,1.44 -1.072,1.737 -0.74,0.296 -1.455,-0.007 -1.594,-0.679 -0.139,-0.671 0.344,-1.452 1.077,-1.74 0.733,-0.289 1.443,0.018 1.589,0.682 z" id="path8098" inkscape:connector-curvature="0" />
                        <path style="fill:#ffffff" d="m 61.64,192.27 c 0.143,0.522 -0.248,1.15 -0.875,1.413 -0.628,0.263 -1.243,0.045 -1.372,-0.494 -0.129,-0.54 0.27,-1.186 0.883,-1.431 0.614,-0.246 1.221,-0.011 1.364,0.512 z" id="path8100" inkscape:connector-curvature="0" />
                        <path style="fill:#ffffff" d="m 64.583,192.881 c 0.134,0.403 -0.174,0.898 -0.692,1.114 -0.518,0.216 -1.038,0.06 -1.158,-0.357 -0.121,-0.417 0.194,-0.927 0.698,-1.13 0.505,-0.202 1.018,-0.031 1.152,0.373 z" id="path8102" inkscape:connector-curvature="0" />
                        <path style="fill:#ffffff" d="m 67.26,193.831 c 0.121,0.31 -0.124,0.696 -0.547,0.869 -0.424,0.174 -0.858,0.061 -0.967,-0.259 -0.109,-0.32 0.139,-0.718 0.552,-0.882 0.413,-0.164 0.842,-0.038 0.962,0.272 z" id="path8104" inkscape:connector-curvature="0" />
                        <path style="fill:#ffffff" d="m 38.39,173.981 c 0.17,0.667 -0.455,2.08 -1.118,2.294 -0.663,0.213 -1.099,-0.577 -1.286,-1.519 -0.135,-0.679 0.225,-1.377 0.889,-1.591 0.663,-0.213 1.345,0.148 1.515,0.816 z" id="path8106" inkscape:connector-curvature="0" />
                        <path style="fill:#ffffff" d="m 44.941,190.911 c 0.2,0.994 -0.701,3.042 -1.737,3.327 -1.036,0.286 -1.628,-0.847 -1.783,-2.224 -0.112,-0.994 0.458,-2.014 1.409,-2.322 0.952,-0.309 1.911,0.224 2.111,1.219 z" id="path8108" inkscape:connector-curvature="0" />
                        <path style="fill:#ffffff" d="m 42.602,197.698 c 0.253,1.062 -0.834,3.187 -1.982,3.474 -1.147,0.287 -1.811,-0.932 -2.005,-2.407 -0.141,-1.063 0.542,-2.152 1.618,-2.453 1.076,-0.301 2.117,0.324 2.369,1.386 z" id="path8110" inkscape:connector-curvature="0" />
                        <path style="fill:#ffffff" d="m 40.291,192.294 c -0.042,1.166 -1.192,3.153 -1.967,3.218 -0.776,0.066 -0.886,-1.351 -0.705,-2.953 0.13,-1.155 0.736,-2.166 1.45,-2.246 0.714,-0.08 1.264,0.815 1.222,1.981 z" id="path8112" inkscape:connector-curvature="0" />
                        <path style="fill:#ffffff" d="m 35.93,193.273 c 0.231,0.93 -0.089,2.683 -0.612,2.851 -0.522,0.168 -0.976,-0.938 -1.234,-2.229 -0.187,-0.932 0.02,-1.821 0.521,-1.996 0.5,-0.174 1.094,0.445 1.325,1.374 z" id="path8114" inkscape:connector-curvature="0" />
                        <path style="fill:#ffffff" d="m 39.315,203.218 c 0.25,0.722 -0.318,2.227 -1.047,2.463 -0.729,0.234 -1.312,-0.599 -1.602,-1.613 -0.209,-0.732 0.146,-1.501 0.876,-1.736 0.73,-0.236 1.522,0.164 1.773,0.886 z" id="path8116" inkscape:connector-curvature="0" />
                        <path style="fill:#ffffff" d="m 39.119,208.048 c 0.308,0.709 0.184,2.115 -0.313,2.296 -0.497,0.183 -1.131,-0.657 -1.541,-1.66 -0.295,-0.725 -0.14,-1.443 0.375,-1.616 0.515,-0.173 1.171,0.271 1.479,0.98 z" id="path8118" inkscape:connector-curvature="0" />
                        <path style="fill:#ffffff" d="m 37.151,198.746 c 0.228,0.739 -0.092,2.186 -0.616,2.357 -0.524,0.171 -0.995,-0.699 -1.261,-1.73 -0.191,-0.745 0.025,-1.48 0.539,-1.655 0.514,-0.175 1.111,0.288 1.338,1.028 z" id="path8120" inkscape:connector-curvature="0" />
                        <path style="fill:#ffffff" d="m 32.873,175.497 c -0.27,0.78 0.199,3.026 0.741,3.265 0.353,0.155 0.754,-0.681 1.12,-1.847 0.317,-1.013 0.228,-2.103 -0.343,-2.29 -0.571,-0.187 -1.249,0.093 -1.518,0.872 z" id="path8122" inkscape:connector-curvature="0" />
                        <path style="fill:#ffffff" d="m 35.375,170.788 c -0.392,0.444 -1.151,2.213 -0.856,2.52 0.191,0.2 0.481,-0.568 1.19,-1.086 0.859,-0.628 1.241,-1.318 0.914,-1.598 -0.328,-0.281 -0.856,-0.28 -1.248,0.164 z" id="path8124" inkscape:connector-curvature="0" />
                        <path style="fill:#ffffff" d="m 32.875,181.156 c -0.124,0.726 0.153,2.157 0.453,2.208 0.195,0.034 0.41,-0.767 0.569,-1.835 0.138,-0.927 -0.005,-1.609 -0.287,-1.63 -0.283,-0.023 -0.611,0.533 -0.735,1.257 z" id="path8126" inkscape:connector-curvature="0" />
                    </g>
                    <path style="fill:#ffffff" d="m 34.063,187.753 c 0.117,0.263 0.145,0.77 -0.218,0.925 -0.26,0.111 -0.578,-0.19 -0.692,-0.453 -0.114,-0.263 -0.126,-0.51 0.117,-0.655 0.408,-0.244 0.676,-0.081 0.793,0.183 z" id="path8128" inkscape:connector-curvature="0" />
                    <path style="fill:#ffffff" d="m 34.503,190.043 c 0.008,0.223 -0.112,0.607 -0.401,0.643 -0.207,0.025 -0.339,-0.271 -0.346,-0.494 -0.006,-0.223 0.052,-0.412 0.256,-0.466 0.345,-0.09 0.483,0.094 0.491,0.317 z" id="path8130" inkscape:connector-curvature="0" />
                </g>
            </g>
          </g>
            <g id="d_body">
                <image sodipodi:absref="/Users/jonny/Sites/svg-store/animate/5B89A04A04A2A2A9.png" xlink:href="5B89A04A04A2A2A9.png" id="image8134" transform="matrix(0.24,0,0,0.24,84.1328,236.4756)" height="20" width="32" style="overflow:visible" />
                <g id="g8136">
                    <image sodipodi:absref="/Users/jonny/Sites/svg-store/animate/5B89A04A04A2A2AB.png" xlink:href="5B89A04A04A2A2AB.png" id="image8138" transform="matrix(0.24,0,0,0.24,87.6055,244.7344)" height="9" width="21" style="overflow:visible" />
                    <image sodipodi:absref="/Users/jonny/Sites/svg-store/animate/5B89A04A04A2A2AE.png" xlink:href="5B89A04A04A2A2AE.png" id="image8140" transform="matrix(0.24,0,0,0.24,77.0718,235.9297)" height="23" width="22" style="overflow:visible" />
                    <image sodipodi:absref="/Users/jonny/Sites/svg-store/animate/5B89A04A04A2A2AF.png" xlink:href="5B89A04A04A2A2AF.png" id="image8142" transform="matrix(0.24,0,0,0.24,81.9219,241.1152)" height="17" width="25" style="overflow:visible" />
                    <image sodipodi:absref="/Users/jonny/Sites/svg-store/animate/5B89A04A04A2A2AA.png" xlink:href="5B89A04A04A2A2AA.png" id="image8144" transform="matrix(0.24,0,0,0.24,71.7607,233.4453)" height="12" width="24" style="overflow:visible" />
                </g>
                <g id="g8146">
                    <image sodipodi:absref="/Users/jonny/Sites/svg-store/animate/5B89A04A04A2A2A5.png" xlink:href="5B89A04A04A2A2A5.png" id="image8148" transform="matrix(0.24,0,0,0.24,65.8213,245.1436)" height="18" width="4" style="overflow:visible" />
                    <image sodipodi:absref="/Users/jonny/Sites/svg-store/animate/5B89A04A04A2A2A6.png" xlink:href="5B89A04A04A2A2A6.png" id="image8150" transform="matrix(0.24,0,0,0.24,64.106,233.29)" height="30" width="11" style="overflow:visible" />
                    <image sodipodi:absref="/Users/jonny/Sites/svg-store/animate/5B89A04A04A2A2A7.png" xlink:href="5B89A04A04A2A2A7.png" id="image8152" transform="matrix(0.24,0,0,0.24,66.3105,240.0898)" height="22" width="3" style="overflow:visible" />
                    <image sodipodi:absref="/Users/jonny/Sites/svg-store/animate/5B89A04A04A2A2B9.png" xlink:href="5B89A04A04A2A2B9.png" id="image8154" transform="matrix(0.24,0,0,0.24,64.1152,232.7422)" height="7" width="28" style="overflow:visible" />
                </g>
                <image sodipodi:absref="/Users/jonny/Sites/svg-store/animate/3AE42AB2AB818272.png" xlink:href="3AE42AB2AB818272.png" id="image8156" transform="matrix(0.24,0,0,0.24,27.77,227.666)" height="23" width="130" style="overflow:visible" />
                <image sodipodi:absref="/Users/jonny/Sites/svg-store/animate/3AE42AB2AB818275.png" xlink:href="3AE42AB2AB818275.png" id="image8158" transform="matrix(0.24,0,0,0.24,31.9526,223.0615)" height="42" width="127" style="overflow:visible" />
                <image sodipodi:absref="/Users/jonny/Sites/svg-store/animate/3AE42AB2AB818276.png" xlink:href="3AE42AB2AB818276.png" id="image8160" transform="matrix(0.24,0,0,0.24,58.6987,230.2393)" height="24" width="24" style="overflow:visible" />
                <image sodipodi:absref="/Users/jonny/Sites/svg-store/animate/3AE42AB2AB818274.png" xlink:href="3AE42AB2AB818274.png" id="image8162" transform="matrix(0.24,0,0,0.24,58.7588,231.8281)" height="13" width="12" style="overflow:visible" />
                <image sodipodi:absref="/Users/jonny/Sites/svg-store/animate/3AE42AB2AB818273.png" xlink:href="3AE42AB2AB818273.png" id="image8164" transform="matrix(0.24,0,0,0.24,72.2031,232.6221)" height="21" width="32" style="overflow:visible" />
                <image sodipodi:absref="/Users/jonny/Sites/svg-store/animate/3AE42AB2AB81826D.png" xlink:href="3AE42AB2AB81826D.png" id="image8166" transform="matrix(0.24,0,0,0.24,63.4941,231.6689)" height="17" width="43" style="overflow:visible" />
                <g id="g8168">
                    <image sodipodi:absref="/Users/jonny/Sites/svg-store/animate/3AE42AB2AB81826E.png" xlink:href="3AE42AB2AB81826E.png" id="image8170" transform="matrix(0.24,0,0,0.24,60.7861,248.1406)" height="19" width="9" style="overflow:visible" />
                    <image sodipodi:absref="/Users/jonny/Sites/svg-store/animate/3AE42AB2AB81826C.png" xlink:href="3AE42AB2AB81826C.png" id="image8172" transform="matrix(0.24,0,0,0.24,62.3823,234.3291)" height="36" width="6" style="overflow:visible" />
                    <image sodipodi:absref="/Users/jonny/Sites/svg-store/animate/3AE42AB2AB818292.png" xlink:href="3AE42AB2AB818292.png" id="image8174" transform="matrix(0.24,0,0,0.24,62.5166,242.4307)" height="25" width="5" style="overflow:visible" />
                    <image sodipodi:absref="/Users/jonny/Sites/svg-store/animate/3AE42AB2AB818295.png" xlink:href="3AE42AB2AB818295.png" id="image8176" transform="matrix(0.24,0,0,0.24,62.3809,234.3906)" height="10" width="31" style="overflow:visible" />
                </g>
                <g id="g8178">
                    <image sodipodi:absref="/Users/jonny/Sites/svg-store/animate/3AE42AB2AB818289.png" xlink:href="3AE42AB2AB818289.png" id="image8180" transform="matrix(0.24,0,0,0.24,84.3784,252.6816)" height="18" width="19" style="overflow:visible" />
                    <image sodipodi:absref="/Users/jonny/Sites/svg-store/animate/3AE42AB2AB81828B.png" xlink:href="3AE42AB2AB81828B.png" id="image8182" transform="matrix(0.24,0,0,0.24,76.6011,238.7041)" height="34" width="15" style="overflow:visible" />
                    <image sodipodi:absref="/Users/jonny/Sites/svg-store/animate/3AE42AB2AB818288.png" xlink:href="3AE42AB2AB818288.png" id="image8184" transform="matrix(0.24,0,0,0.24,79.7222,246.3623)" height="28" width="21" style="overflow:visible" />
                    <image sodipodi:absref="/Users/jonny/Sites/svg-store/animate/3AE42AB2AB8182B7.png" xlink:href="3AE42AB2AB8182B7.png" id="image8186" transform="matrix(0.24,0,0,0.24,71.4639,233.8936)" height="22" width="23" style="overflow:visible" />
                </g>
                <image sodipodi:absref="/Users/jonny/Sites/svg-store/animate/3AE42AB2AB8182B9.png" xlink:href="3AE42AB2AB8182B9.png" id="image8188" transform="matrix(0.24,0,0,0.24,77.1465,234.3555)" height="21" width="34" style="overflow:visible" />
            </g>
            <g id="left">
              <g id="left_f">
                <g id="g8192">
                    <g id="g8194">
                        <path style="fill:#040100" d="m 64.615,232.378 c -0.314,0.101 -1.737,-1.771 -2.573,-2.677 -12.028,-13.054 -19.355,-28.964 -17.679,-43.795 1.261,-11.158 4.73,-32.592 18.398,-36.492 4.192,2.357 9.76,17.988 8.798,22.089 4.909,14.517 18.437,17.719 14.826,23.838 -11.408,10.658 -21.474,18.677 -21.774,35.292 -0.01,0.572 1.017,1.426 0.004,1.745 z" id="path8196" inkscape:connector-curvature="0" />
                        <linearGradient id="SVGID_3_" gradientUnits="userSpaceOnUse" x1="7.4633999" y1="211.7256" x2="32.084" y2="146.3313" gradientTransform="matrix(0.8976,-0.4407,0.4407,0.8976,-31.9941,42.4573)">
                            <stop offset="0.3011" style="stop-color:#FF1094" id="stop8199" />
                            <stop offset="0.4138" style="stop-color:#EF0E96" id="stop8201" />
                            <stop offset="0.6333" style="stop-color:#C6099C" id="stop8203" />
                            <stop offset="0.9355" style="stop-color:#8402A6" id="stop8205" />
                            <stop offset="1" style="stop-color:#7500A8" id="stop8207" />
                        </linearGradient>
                        <path style="fill:url(#SVGID_3_)" d="m 63.571,229.766 c -0.301,0.131 -18.022,-22.987 -13.742,-36.438 1.768,-3.176 5.076,-6.468 7.056,-1.074 0.979,2.748 1.642,3.668 1.642,3.668 0,0 -1.303,5.868 2.019,11.846 -0.121,2.803 3.025,21.998 3.025,21.998 z m -0.012,-41.762 c 1.375,-1.895 2.479,-2.691 2.062,-3.461 -1.38,-5.263 -3.904,-4.777 -5.308,-3.355 -4.76,5.578 -2.793,11.345 -1.393,13.866 1.105,-1.705 3.454,-5.419 4.639,-7.05 z m 0.919,0.373 c -1.308,1.695 -4.975,6.69 -5.171,7.77 -1.026,8.343 1.764,10.824 2.408,9.697 1.287,-2.252 7.407,-10.476 10.001,-13.898 2.594,-3.421 -1.17,-4.477 -2.961,-6.058 -1.645,-1.451 -2.969,0.795 -4.277,2.489 z m 7.779,5.193 c -1.486,1.883 -8.418,10.648 -9.857,12.987 -1.439,2.339 -0.992,4.911 -0.773,7.519 0.274,3.261 1.471,7.878 2.653,15.287 -0.099,-3.753 0.258,-5.945 0.691,-8.418 2.737,-9.926 7.282,-13.833 11.356,-17.436 4.074,-3.603 4.027,-5.169 4.323,-7.324 0.251,-4.08 -2.475,-4.384 -4.275,-4.725 -1.475,-0.279 -2.632,0.227 -4.118,2.11 z M 53.8,171.66 c 2.014,-3.061 3.734,-6.48 5.297,-8.553 2.32,-2.82 -2.085,-5.134 -4.516,-1.305 -1.916,3.018 -3.626,6.89 -3.338,10.075 0.078,0.857 0.369,1.847 1.079,1.787 0.494,-0.042 0.97,-1.229 1.478,-2.004 z m 4.597,1.563 c 0.753,-2.394 1.647,-2.602 3.597,-5.578 1.949,-2.977 -1.372,-4.843 -3.014,-2.796 -1.643,2.046 -4.675,7.834 -5.368,9.021 -0.513,0.878 1.248,0.099 2.18,0.367 1.219,0.349 1.534,2.392 2.605,-1.014 z m 1.789,0.247 c 1.117,-1.359 2.5,-1.841 4.288,-1.729 3.048,0.19 -0.484,-4.507 -2.414,-2.454 -2.052,2.186 -2.602,3.669 -2.602,3.669 -0.163,0.342 0.323,1.006 0.728,0.514 z" id="path8209" inkscape:connector-curvature="0" />
                        <path style="fill:#ffffff" d="m 62.531,153.431 c -0.059,0.596 -0.594,1.043 -1.191,0.998 -0.597,-0.046 -1.027,-0.569 -0.966,-1.166 0.061,-0.597 0.588,-1.041 1.182,-0.994 0.595,0.046 1.033,0.566 0.975,1.162 z" id="path8211" inkscape:connector-curvature="0" />
                        <path style="fill:#ffffff" d="m 65.404,155.798 c -0.054,0.514 -0.521,0.902 -1.041,0.864 -0.519,-0.037 -0.891,-0.487 -0.834,-1.003 0.057,-0.516 0.519,-0.901 1.035,-0.862 0.516,0.038 0.894,0.486 0.84,1.001 z" id="path8213" inkscape:connector-curvature="0" />
                        <path style="fill:#ffffff" d="m 66.922,158.385 c -0.045,0.413 -0.424,0.724 -0.844,0.696 -0.42,-0.029 -0.719,-0.388 -0.67,-0.801 0.048,-0.414 0.423,-0.724 0.84,-0.695 0.417,0.03 0.72,0.387 0.674,0.8 z" id="path8215" inkscape:connector-curvature="0" />
                        <path style="fill:#ffffff" d="m 67.785,161.357 c -0.042,0.342 -0.361,0.603 -0.712,0.581 -0.352,-0.021 -0.6,-0.317 -0.557,-0.66 0.044,-0.343 0.361,-0.603 0.71,-0.58 0.349,0.022 0.6,0.317 0.559,0.659 z" id="path8217" inkscape:connector-curvature="0" />
                        <path style="fill:#ffffff" d="m 68.767,163.821 c -0.044,0.343 -0.369,0.605 -0.725,0.585 -0.356,-0.02 -0.606,-0.315 -0.56,-0.659 0.046,-0.344 0.37,-0.606 0.723,-0.585 0.353,0.022 0.605,0.316 0.562,0.659 z" id="path8219" inkscape:connector-curvature="0" />
                        <path style="fill:#ffffff" d="m 69.411,166.549 c -0.057,0.415 -0.458,0.735 -0.895,0.714 -0.437,-0.021 -0.74,-0.377 -0.679,-0.794 0.061,-0.417 0.46,-0.735 0.893,-0.713 0.432,0.023 0.738,0.378 0.681,0.793 z" id="path8221" inkscape:connector-curvature="0" />
                        <path style="fill:#ffffff" d="m 70.315,172.573 c -0.066,0.419 -0.488,0.747 -0.941,0.731 -0.453,-0.015 -0.761,-0.368 -0.691,-0.789 0.07,-0.421 0.489,-0.747 0.938,-0.73 0.449,0.017 0.759,0.37 0.694,0.788 z" id="path8223" inkscape:connector-curvature="0" />
                        <path style="fill:#ffffff" d="m 71.449,175.222 c -0.06,0.371 -0.438,0.663 -0.845,0.652 -0.407,-0.011 -0.686,-0.322 -0.623,-0.695 0.063,-0.373 0.44,-0.665 0.844,-0.652 0.404,0.012 0.683,0.323 0.624,0.695 z" id="path8225" inkscape:connector-curvature="0" />
                        <path style="fill:#ffffff" d="m 72.643,177.603 c -0.059,0.371 -0.441,0.664 -0.853,0.655 -0.412,-0.009 -0.695,-0.318 -0.632,-0.691 0.063,-0.373 0.445,-0.666 0.853,-0.655 0.408,0.011 0.69,0.32 0.632,0.691 z" id="path8227" inkscape:connector-curvature="0" />
                        <path style="fill:#ffffff" d="m 74.321,180.075 c -0.057,0.371 -0.438,0.664 -0.854,0.656 -0.415,-0.008 -0.703,-0.316 -0.642,-0.688 0.061,-0.372 0.444,-0.666 0.855,-0.657 0.412,0.01 0.698,0.319 0.641,0.689 z" id="path8229" inkscape:connector-curvature="0" />
                        <path style="fill:#ffffff" d="m 76.035,182.294 c -0.04,0.274 -0.32,0.49 -0.628,0.484 -0.308,-0.006 -0.523,-0.234 -0.481,-0.509 0.042,-0.274 0.325,-0.492 0.63,-0.485 0.304,0.008 0.518,0.236 0.479,0.51 z" id="path8231" inkscape:connector-curvature="0" />
                        <path style="fill:#ffffff" d="m 77.682,184.261 c -0.032,0.235 -0.269,0.419 -0.532,0.414 -0.263,-0.006 -0.45,-0.202 -0.416,-0.438 0.034,-0.236 0.273,-0.421 0.534,-0.415 0.261,0.006 0.446,0.204 0.414,0.439 z" id="path8233" inkscape:connector-curvature="0" />
                        <path style="fill:#ffffff" d="m 79.701,186.501 c -0.014,0.168 -0.184,0.3 -0.378,0.297 -0.196,-0.003 -0.342,-0.142 -0.326,-0.311 0.017,-0.169 0.188,-0.303 0.381,-0.299 0.193,0.004 0.338,0.146 0.323,0.313 z" id="path8235" inkscape:connector-curvature="0" />
                        <path style="fill:#ffffff" d="m 69.587,169.763 c -0.088,0.584 -0.669,1.04 -1.294,1.015 -0.624,-0.025 -1.048,-0.522 -0.953,-1.11 0.095,-0.587 0.67,-1.04 1.287,-1.013 0.617,0.029 1.048,0.524 0.96,1.108 z" id="path8237" inkscape:connector-curvature="0" />
                        <path style="fill:#ffffff" d="m 66.778,165.435 c -0.077,0.523 -0.584,0.926 -1.127,0.898 -0.544,-0.029 -0.914,-0.479 -0.832,-1.004 0.082,-0.525 0.581,-0.925 1.12,-0.895 0.538,0.03 0.916,0.477 0.839,1.001 z" id="path8239" inkscape:connector-curvature="0" />
                        <path style="fill:#ffffff" d="m 64.646,160.957 c -0.108,0.805 -0.869,1.419 -1.686,1.366 -0.816,-0.053 -1.373,-0.756 -1.257,-1.563 0.116,-0.808 0.854,-1.413 1.664,-1.357 0.809,0.055 1.387,0.749 1.279,1.554 z" id="path8241" inkscape:connector-curvature="0" />
                        <path style="fill:#ffffff" d="m 68.621,177.792 c -0.376,1.368 -1.644,2.384 -2.796,2.257 -1.152,-0.128 -1.753,-1.351 -1.37,-2.722 0.384,-1.371 1.607,-2.37 2.752,-2.24 1.147,0.13 1.791,1.337 1.414,2.705 z" id="path8243" inkscape:connector-curvature="0" />
                        <path style="fill:#ffffff" d="m 64.463,174.604 c -0.184,0.99 -1.182,1.759 -2.197,1.708 -1.015,-0.052 -1.666,-0.904 -1.483,-1.893 0.182,-0.988 1.134,-1.741 2.151,-1.69 1.017,0.05 1.713,0.886 1.529,1.875 z" id="path8245" inkscape:connector-curvature="0" />
                        <path style="fill:#ffffff" d="m 71.265,181.938 c -0.154,0.889 -1.098,1.601 -2.098,1.586 -1,-0.015 -1.669,-0.754 -1.506,-1.647 0.163,-0.893 1.093,-1.599 2.084,-1.581 0.991,0.017 1.674,0.752 1.52,1.642 z" id="path8247" inkscape:connector-curvature="0" />
                        <path style="fill:#ffffff" d="m 74.713,184.926 c -0.124,0.789 -0.957,1.42 -1.864,1.413 -0.908,-0.008 -1.535,-0.655 -1.4,-1.448 0.135,-0.792 0.975,-1.426 1.871,-1.415 0.895,0.013 1.516,0.663 1.393,1.45 z" id="path8249" inkscape:connector-curvature="0" />
                        <path style="fill:#ffffff" d="m 77.834,187.63 c -0.069,0.632 -0.746,1.142 -1.52,1.148 -0.775,0.006 -1.333,-0.504 -1.243,-1.148 0.091,-0.645 0.784,-1.17 1.536,-1.164 0.753,0.006 1.296,0.532 1.227,1.164 z" id="path8251" inkscape:connector-curvature="0" />
                        <path style="fill:#ffffff" d="m 80.689,189.605 c -0.028,0.499 -0.562,0.9 -1.2,0.904 -0.639,0.004 -1.122,-0.397 -1.074,-0.904 0.048,-0.506 0.596,-0.922 1.213,-0.918 0.619,0.004 1.089,0.419 1.061,0.918 z" id="path8253" inkscape:connector-curvature="0" />
                        <path style="fill:#ffffff" d="m 83.119,191.83 c -0.003,0.391 -0.424,0.702 -0.945,0.702 -0.521,0 -0.933,-0.316 -0.914,-0.712 0.02,-0.396 0.449,-0.719 0.955,-0.713 0.506,0.005 0.908,0.332 0.904,0.723 z" id="path8255" inkscape:connector-curvature="0" />
                        <path style="fill:#ffffff" d="m 60.95,157.386 c -0.101,0.802 -1.357,2.061 -2.148,1.998 -0.791,-0.063 -0.919,-1.117 -0.72,-2.224 0.143,-0.799 0.817,-1.399 1.608,-1.336 0.791,0.062 1.362,0.759 1.26,1.562 z" id="path8257" inkscape:connector-curvature="0" />
                        <path style="fill:#ffffff" d="m 60.751,178.72 c -0.207,1.171 -2.02,2.998 -3.236,2.847 -1.215,-0.151 -1.365,-1.646 -0.949,-3.214 0.3,-1.13 1.331,-1.987 2.467,-1.899 1.136,0.088 1.926,1.095 1.718,2.266 z" id="path8259" inkscape:connector-curvature="0" />
                        <path style="fill:#ffffff" d="m 55.423,185.063 c -0.18,1.268 -2.223,3.097 -3.557,2.897 -1.334,-0.199 -1.522,-1.82 -1.108,-3.511 0.299,-1.219 1.479,-2.101 2.743,-1.949 1.265,0.153 2.102,1.295 1.922,2.563 z" id="path8261" inkscape:connector-curvature="0" />
                        <path style="fill:#ffffff" d="m 55.253,178.155 c -0.536,1.249 -2.587,2.9 -3.435,2.626 -0.847,-0.273 -0.367,-1.864 0.498,-3.526 0.625,-1.199 1.69,-2.029 2.479,-1.799 0.788,0.231 0.994,1.45 0.458,2.699 z" id="path8263" inkscape:connector-curvature="0" />
                        <path style="fill:#ffffff" d="m 50.23,177.28 c -0.147,1.114 -1.224,2.879 -1.846,2.829 -0.624,-0.05 -0.637,-1.455 -0.367,-2.975 0.195,-1.096 0.788,-1.973 1.391,-1.939 0.602,0.034 0.969,0.972 0.822,2.085 z" id="path8265" inkscape:connector-curvature="0" />
                        <path style="fill:#ffffff" d="m 49.625,189.605 c -0.039,0.897 -1.273,2.282 -2.143,2.213 -0.87,-0.068 -1.135,-1.234 -1.015,-2.467 0.087,-0.89 0.786,-1.568 1.657,-1.499 0.87,0.069 1.54,0.857 1.501,1.753 z" id="path8267" inkscape:connector-curvature="0" />
                        <path style="fill:#ffffff" d="m 47.385,194.773 c 0.027,0.909 -0.696,2.383 -1.298,2.359 -0.601,-0.023 -0.919,-1.219 -0.93,-2.493 -0.007,-0.918 0.459,-1.632 1.077,-1.591 0.618,0.042 1.124,0.817 1.151,1.725 z" id="path8269" inkscape:connector-curvature="0" />
                        <path style="fill:#ffffff" d="m 49.22,183.777 c -0.07,0.905 -1.018,2.337 -1.644,2.291 -0.625,-0.046 -0.758,-1.203 -0.604,-2.444 0.111,-0.895 0.649,-1.599 1.266,-1.561 0.616,0.039 1.053,0.809 0.982,1.714 z" id="path8271" inkscape:connector-curvature="0" />
                        <path style="fill:#ffffff" d="m 54.479,156.58 c -0.613,0.728 -1.063,3.38 -0.591,3.881 0.308,0.326 1.084,-0.405 1.961,-1.512 0.762,-0.96 1.126,-2.186 0.602,-2.644 -0.524,-0.457 -1.36,-0.453 -1.972,0.275 z" id="path8273" inkscape:connector-curvature="0" />
                        <path style="fill:#ffffff" d="m 58.195,153.181 c -0.498,0.258 -1.343,1.601 -1.198,1.98 0.094,0.248 0.682,0.024 1.409,-0.38 0.632,-0.351 1.108,-0.937 0.926,-1.304 -0.182,-0.367 -0.639,-0.554 -1.137,-0.296 z" id="path8275" inkscape:connector-curvature="0" />
                        <path style="fill:#ffffff" d="m 52.099,162.737 c -0.436,0.733 -0.745,2.415 -0.45,2.603 0.192,0.123 0.755,-0.653 1.373,-1.744 0.536,-0.948 0.672,-1.752 0.383,-1.902 -0.288,-0.148 -0.869,0.31 -1.306,1.043 z" id="path8277" inkscape:connector-curvature="0" />
                    </g>
                    <path style="fill:#ffffff" d="m 50.581,170.443 c 0.013,0.339 -0.17,0.902 -0.62,0.91 -0.323,0.005 -0.532,-0.464 -0.542,-0.801 -0.01,-0.336 0.081,-0.611 0.399,-0.662 0.535,-0.083 0.75,0.214 0.763,0.553 z" id="path8279" inkscape:connector-curvature="0" />
                    <path style="fill:#ffffff" d="m 50.082,173.131 c -0.085,0.246 -0.375,0.61 -0.695,0.521 -0.229,-0.064 -0.244,-0.446 -0.157,-0.69 0.087,-0.246 0.228,-0.425 0.466,-0.393 0.403,0.054 0.471,0.315 0.386,0.562 z" id="path8281" inkscape:connector-curvature="0" />
                </g>
            </g>
            <g id="left_n">
                <path style="fill:#040100" d="m 63.763,231.466 c 0,0 -4.65,-10.366 11.279,-22.953 7.001,-5.874 19.8,-16.469 31.735,-6.852 3.315,0.738 10.045,6.032 10.764,7.774 0.351,3.4 0.667,5.526 1.571,7.15 0.904,1.626 -0.186,4.388 -4.022,8.12 -3.836,3.732 -5.774,5.045 -11.155,6.058 -7.525,1.417 -19.185,-1.696 -33.341,2.077 -2.735,0.665 -5.896,0.835 -6.831,-1.374 z" id="path8285" inkscape:connector-curvature="0" />
                <g id="g8287">
                    <linearGradient id="SVGID_4_" gradientUnits="userSpaceOnUse" x1="4.2656002" y1="211.7715" x2="54.158001" y2="212.42281" gradientTransform="matrix(0.8976,-0.4407,0.4407,0.8976,-31.9941,42.4573)">
                        <stop offset="0.3011" style="stop-color:#FF1094" id="stop8290" />
                        <stop offset="0.4138" style="stop-color:#EF0E96" id="stop8292" />
                        <stop offset="0.6333" style="stop-color:#C6099C" id="stop8294" />
                        <stop offset="0.9355" style="stop-color:#8402A6" id="stop8296" />
                        <stop offset="1" style="stop-color:#7500A8" id="stop8298" />
                    </linearGradient>
                    <path style="fill:url(#SVGID_4_)" d="m 69.751,228.369 c -0.529,-2.262 3.74,-8.006 6.221,-10.231 2.48,-2.227 4.077,-2.675 8.459,-2.218 1.303,0.21 7.079,-3.823 13.239,-0.865 0.386,0.404 -1.313,1.139 -4.978,2.624 -3.666,1.486 -10.612,3.922 -13.955,5.627 -4.379,2.232 -8.348,6.475 -8.986,5.063 z m 4.847,-10.347 c 2.728,-2.376 1.236,-5.551 5.914,-11.271 0,0 -7.805,5.888 -9.86,9.247 -2.055,3.359 -3.342,8.658 -2.015,11.149 1.362,-4.012 2.674,-6.262 5.961,-9.125 z m 6.8,-4.788 c 1.728,-1.184 9.197,-5.848 10.792,-6.903 1.595,-1.058 0.626,-1.78 -0.945,-2.234 -2.33,-0.572 -4.936,-0.917 -6.514,-0.41 -2.296,0.736 -1.742,2.056 -3.787,4.465 -1.796,2.115 -3.618,7.494 -3.618,7.494 0,0 2.345,-1.228 4.072,-2.412 z m 3.947,1.38 c 1.952,-0.506 3.896,-1.23 5.503,-1.786 2.945,-1.017 9.042,-4.208 10.664,-5.154 1.623,-0.946 1.606,-1.577 0.709,-1.776 -0.897,-0.2 -2.475,-0.395 -3.454,-1.397 -1.378,-1.091 -2.612,-0.947 -3.582,0.353 -0.373,1.35 -10.717,7.557 -14.826,10.039 1.774,-0.477 3.359,0.143 4.986,-0.279 z m 14.564,-0.919 c 0.465,-0.209 4.938,-1.515 7.95,-2.36 3.012,-0.846 1.141,-2.308 0.051,-3.753 -1.09,-1.445 -2.285,-1.711 -3.343,-0.953 -1.927,1.61 -6.793,4.448 -12.02,6.316 3.001,-0.326 6.897,0.961 7.362,0.75 z m 0.779,2.841 c 2.621,0.015 7.263,0.258 8.846,0.191 1.583,-0.066 1.789,-0.752 1.75,-2.225 -0.038,-1.472 -0.665,-3.298 -2.285,-2.651 -2.894,1.153 -7.261,1.986 -8.892,2.777 -3.559,1.726 -2.208,1.892 0.581,1.908 z m -4.879,4.685 c 4.537,0.295 7.68,-1.178 10.891,-0.01 1.743,0.634 2.451,0.294 3.564,-1.184 1.113,-1.478 0.936,-2.093 -0.442,-2.242 -1.378,-0.15 -6.037,0.001 -11.573,-0.338 -2.739,-0.167 -4.437,1.031 -10.839,3.58 0.431,0.411 6.013,0.037 8.399,0.194 z m -21.785,8.932 c 1.821,-0.432 7.12,-2.389 13.187,-3.338 6.067,-0.95 13.657,-0.515 17.919,-0.402 2.64,0.117 2.07,-1.787 2.104,-3.349 -0.486,-2.043 -6.005,-0.971 -8.021,-0.844 -2.016,0.127 -8.984,-0.274 -12.682,-0.105 -3.698,0.17 -10.436,3.898 -14.019,6.604 -1.245,1.605 -0.082,2.02 1.512,1.434 z m 4.139,0.701 c 2.419,-0.299 8.465,-0.247 13.337,-0.522 4.871,-0.275 11.292,0.945 12.383,-0.433 1.794,-1.952 0.615,-2.529 -1.505,-2.635 -2.12,-0.106 -11.175,-0.01 -15.112,0.713 -2.209,0.406 -7.537,1.641 -12.732,2.708 -2.055,0.537 1.21,0.467 3.629,0.169 z m -10.836,-8.542 c 0.65,-4.891 4.045,-8.963 4.045,-8.963 0,0 -1.353,0.918 -2.516,2.328 -4.054,5.381 -4.473,9.521 -4.626,11.391 -0.152,1.869 0.764,3.55 1.052,2.869 0.823,-1.823 2.983,-1.988 2.413,-2.647 -0.351,-0.406 -0.803,-1.702 -0.368,-4.978 z" id="path8300" inkscape:connector-curvature="0" />
                    <path style="fill:#ffffff" d="m 90.974,201.457 c -0.365,0.614 -1.157,1.114 -1.77,1.118 -0.612,0.002 -0.813,-0.493 -0.448,-1.106 0.365,-0.614 1.157,-1.114 1.769,-1.118 0.613,-0.003 0.813,0.491 0.449,1.106 z" id="path8302" inkscape:connector-curvature="0" />
                    <path style="fill:#ffffff" d="m 95.592,202.357 c -0.562,0.72 -1.649,1.227 -2.427,1.131 -0.778,-0.096 -0.952,-0.756 -0.389,-1.477 0.563,-0.721 1.649,-1.227 2.427,-1.132 0.777,0.097 0.951,0.758 0.389,1.478 z" id="path8304" inkscape:connector-curvature="0" />
                    <path style="fill:#ffffff" d="m 68.095,229.599 c -0.498,0.941 -0.984,0.584 -1.769,0.499 -0.493,-0.054 -0.035,-0.731 0.431,-1.188 0.414,-0.404 1.336,-0.821 1.829,-0.761 0.493,0.061 -0.063,0.639 -0.491,1.45 z" id="path8306" inkscape:connector-curvature="0" />
                    <path style="fill:#ffffff" d="m 68.265,229.904 c -0.285,0.586 1.39,0.592 2.128,0.87 0.641,0.243 0.702,-0.3 0.003,-0.951 -0.596,-0.557 -0.69,-0.778 -1.014,-1.286 -0.188,-0.298 -0.699,0.511 -1.117,1.367 z" id="path8308" inkscape:connector-curvature="0" />
                    <path style="fill:#ffffff" d="m 71.174,230.879 c -0.099,0.286 1.296,0.59 1.613,0.777 0.597,0.351 -0.365,-0.516 -0.69,-0.819 -0.278,-0.26 -0.539,-0.705 -0.711,-0.928 -0.181,-0.233 -0.463,-0.307 -0.271,0.213 0.076,0.207 0.096,0.649 0.059,0.757 z" id="path8310" inkscape:connector-curvature="0" />
                    <path style="fill:#ffffff" d="m 100.678,202.396 c -0.333,0.54 -1.117,0.949 -1.75,0.912 -0.635,-0.036 -0.879,-0.504 -0.546,-1.044 0.333,-0.541 1.116,-0.949 1.751,-0.913 0.634,0.037 0.878,0.504 0.545,1.045 z" id="path8312" inkscape:connector-curvature="0" />
                    <path style="fill:#ffffff" d="m 109.935,206.595 c -0.589,0.237 -1.462,0.101 -1.95,-0.305 -0.489,-0.405 -0.408,-0.927 0.181,-1.165 0.589,-0.237 1.462,-0.101 1.951,0.305 0.488,0.406 0.407,0.927 -0.182,1.165 z" id="path8314" inkscape:connector-curvature="0" />
                    <path style="fill:#ffffff" d="m 111.786,209.751 c -0.634,0.01 -1.401,-0.432 -1.71,-0.985 -0.311,-0.555 -0.047,-1.012 0.587,-1.021 0.635,-0.01 1.4,0.432 1.711,0.985 0.309,0.554 0.046,1.011 -0.588,1.021 z" id="path8316" inkscape:connector-curvature="0" />
                    <path style="fill:#ffffff" d="m 113.381,213.271 c -0.562,-0.294 -1.026,-1.046 -1.036,-1.681 -0.009,-0.636 0.439,-0.913 1.002,-0.619 0.563,0.293 1.027,1.045 1.036,1.68 0.009,0.635 -0.439,0.912 -1.002,0.62 z" id="path8318" inkscape:connector-curvature="0" />
                    <path style="fill:#ffffff" d="m 112.472,217.092 c -0.264,-0.476 -0.239,-1.233 0.054,-1.691 0.294,-0.458 0.747,-0.443 1.01,0.032 0.263,0.476 0.239,1.232 -0.055,1.69 -0.294,0.459 -0.746,0.444 -1.009,-0.031 z" id="path8320" inkscape:connector-curvature="0" />
                    <path style="fill:#ffffff" d="m 111.712,220.661 c -0.047,-0.459 0.226,-1.042 0.608,-1.302 0.383,-0.259 0.73,-0.097 0.777,0.362 0.047,0.46 -0.226,1.042 -0.608,1.303 -0.383,0.259 -0.73,0.097 -0.777,-0.363 z" id="path8322" inkscape:connector-curvature="0" />
                    <path style="fill:#ffffff" d="m 109.143,223.477 c -0.042,-0.41 0.201,-0.929 0.541,-1.16 0.341,-0.23 0.651,-0.086 0.692,0.323 0.041,0.409 -0.201,0.928 -0.541,1.158 -0.341,0.231 -0.651,0.087 -0.692,-0.321 z" id="path8324" inkscape:connector-curvature="0" />
                    <path style="fill:#ffffff" d="m 113.527,222.676 c 0.022,-0.374 0.283,-0.802 0.583,-0.955 0.3,-0.152 0.524,0.026 0.502,0.401 -0.022,0.374 -0.283,0.802 -0.583,0.955 -0.299,0.152 -0.524,-0.026 -0.502,-0.401 z" id="path8326" inkscape:connector-curvature="0" />
                    <path style="fill:#ffffff" d="m 115.626,219.203 c -0.124,-0.442 0.009,-1.041 0.295,-1.338 0.286,-0.295 0.618,-0.178 0.741,0.265 0.123,0.442 -0.009,1.041 -0.295,1.338 -0.286,0.296 -0.617,0.178 -0.741,-0.265 z" id="path8328" inkscape:connector-curvature="0" />
                    <path style="fill:#ffffff" d="m 116.072,214.82 c -0.194,-0.228 -0.281,-0.615 -0.194,-0.869 0.087,-0.252 0.314,-0.274 0.509,-0.047 0.194,0.226 0.28,0.615 0.194,0.867 -0.087,0.254 -0.314,0.275 -0.509,0.049 z" id="path8330" inkscape:connector-curvature="0" />
                    <path style="fill:#ffffff" d="m 115.208,209.875 c -0.25,-0.089 -0.487,-0.353 -0.53,-0.586 -0.044,-0.234 0.123,-0.351 0.372,-0.261 0.25,0.091 0.487,0.354 0.53,0.587 0.044,0.235 -0.123,0.351 -0.372,0.26 z" id="path8332" inkscape:connector-curvature="0" />
                    <path style="fill:#ffffff" d="m 112.589,207.131 c -0.166,-0.044 -0.333,-0.199 -0.375,-0.347 -0.042,-0.147 0.059,-0.232 0.225,-0.188 0.166,0.044 0.333,0.199 0.375,0.347 0.041,0.148 -0.059,0.233 -0.225,0.188 z" id="path8334" inkscape:connector-curvature="0" />
                    <path style="fill:#ffffff" d="m 108.203,225.897 c -0.028,-0.271 0.133,-0.616 0.359,-0.77 0.226,-0.153 0.432,-0.058 0.459,0.214 0.028,0.272 -0.133,0.616 -0.359,0.77 -0.226,0.155 -0.432,0.059 -0.459,-0.214 z" id="path8336" inkscape:connector-curvature="0" />
                    <path style="fill:#ffffff" d="m 111.038,224.975 c 0.022,-0.272 0.243,-0.582 0.493,-0.692 0.25,-0.109 0.435,0.021 0.413,0.294 -0.021,0.272 -0.242,0.582 -0.492,0.691 -0.251,0.11 -0.436,-0.021 -0.414,-0.293 z" id="path8338" inkscape:connector-curvature="0" />
                    <path style="fill:#ffffff" d="m 106.537,228.222 c 0.105,-0.253 0.41,-0.479 0.682,-0.506 0.271,-0.028 0.407,0.154 0.302,0.406 -0.104,0.252 -0.41,0.479 -0.682,0.506 -0.272,0.028 -0.407,-0.155 -0.302,-0.406 z" id="path8340" inkscape:connector-curvature="0" />
                    <path style="fill:#ffffff" d="m 109.048,227.529 c 0.069,-0.265 0.34,-0.53 0.605,-0.596 0.266,-0.063 0.425,0.099 0.356,0.361 -0.07,0.265 -0.341,0.53 -0.606,0.596 -0.265,0.065 -0.424,-0.097 -0.355,-0.361 z" id="path8342" inkscape:connector-curvature="0" />
                    <path style="fill:#ffffff" d="m 104.357,204.026 c -0.542,0.489 -1.538,0.687 -2.225,0.442 -0.688,-0.245 -0.806,-0.84 -0.265,-1.328 0.542,-0.488 1.538,-0.687 2.225,-0.441 0.687,0.244 0.806,0.839 0.265,1.327 z" id="path8344" inkscape:connector-curvature="0" />
                    <path style="fill:#ffffff" d="m 87.205,201.983 c -0.237,0.312 -0.699,0.535 -1.032,0.499 -0.333,-0.037 -0.412,-0.319 -0.175,-0.63 0.237,-0.311 0.699,-0.535 1.032,-0.498 0.333,0.035 0.411,0.317 0.175,0.629 z" id="path8346" inkscape:connector-curvature="0" />
                    <path style="fill:#ffffff" d="m 93.235,200.235 c -0.27,0.354 -0.795,0.608 -1.174,0.566 -0.379,-0.042 -0.468,-0.362 -0.199,-0.716 0.269,-0.354 0.795,-0.608 1.174,-0.566 0.379,0.041 0.468,0.362 0.199,0.716 z" id="path8348" inkscape:connector-curvature="0" />
                    <path style="fill:#ffffff" d="m 98.379,200.626 c -0.27,0.354 -0.795,0.608 -1.174,0.566 -0.379,-0.041 -0.468,-0.362 -0.199,-0.716 0.269,-0.354 0.795,-0.607 1.174,-0.566 0.379,0.042 0.468,0.362 0.199,0.716 z" id="path8350" inkscape:connector-curvature="0" />
                    <path style="fill:#ffffff" d="m 106.637,204.806 c -0.396,0.201 -0.98,0.2 -1.303,-0.003 -0.323,-0.203 -0.263,-0.53 0.134,-0.731 0.397,-0.201 0.98,-0.2 1.303,0.003 0.323,0.202 0.263,0.53 -0.134,0.731 z" id="path8352" inkscape:connector-curvature="0" />
                    <path style="fill:#ffffff" d="m 103,201.328 c -0.294,0.211 -0.764,0.283 -1.049,0.16 -0.285,-0.123 -0.278,-0.394 0.017,-0.605 0.294,-0.211 0.765,-0.283 1.049,-0.161 0.285,0.124 0.277,0.395 -0.017,0.606 z" id="path8354" inkscape:connector-curvature="0" />
                </g>
            </g>
            </g>
        </g>
    </g>
    <script type="application/ecmascript" xlink:href="//cdn.bootcss.com/snap.svg/0.4.1/snap.svg-min.js"></script>
    <script type="application/ecmascript" xlink:href="hudie.js"></script>
</svg>
