<?xml version="1.0" encoding="iso-8859-1"?>
<!-- Generator: Adobe Illustrator 16.0.0, SVG Export Plug-In . SVG Version: 6.00 Build 0)  -->
<!DOCTYPE svg PUBLIC "-//W3C//DTD SVG 1.1//EN" "http://www.w3.org/Graphics/SVG/1.1/DTD/svg11.dtd">
<svg version="1.1" id="&#x56FE;&#x5C42;_1" xmlns="http://www.w3.org/2000/svg" xmlns:xlink="http://www.w3.org/1999/xlink" x="0px"
	 y="0px" width="300px" height="300px" viewBox="0 0 300 300" style="enable-background:new 0 0 300 300;" xml:space="preserve">
<g id="widget" transform="matrix(1,0,0,1,150,150)">
	<path style="fill:#9D9D9C;" d="M30.357,29.27l-30.71-2.836c-0.236,0-0.708,0-0.945,0c1.181,1.654,1.89,3.78,1.89,5.906v8.977
		c0,2.363-0.708,4.488-2.126,6.143c0.236,0,0.709,0,0.945,0l31.183-3.071c7.087-1.653,9.213-5.197,9.213-7.087v-0.945
		C39.807,33.285,36.5,29.741,30.357,29.27z"/>
	<path style="fill:#AFDCE0;" d="M0.828,32.34c0-2.126-0.708-4.252-1.89-5.906c-5.197,0.473-6.378,4.725-6.378,10.158v0.945
		c0,5.197,0.945,9.449,6.142,10.158c1.417-1.654,2.126-3.779,2.126-6.143V32.34z"/>
	<path style="fill:#EDEDED;" d="M118-2.15c0-0.709,0-1.181,0-1.89c-0.945-10.867-10.395-14.174-15.119-14.174c0,0-0.236,0-0.472,0
		c3.307-7.323,8.976-20.316,11.339-25.75c2.598-6.851,2.598-12.048-4.016-8.977c-2.6,1.182-17.246,9.686-17.246,9.686
		c-6.142,3.544-4.725,4.016-8.268,8.977l-9.213,12.993C27.522-26.482-65.317-36.168-76.656-34.514
		c-7.795,1.181-17.481,11.339-20.316,20.08c-7.56,1.89-21.261,12.756-21.025,18.663c0.472,11.339,17.481,12.992,24.096,12.992
		h79.611l58.113,32.601c5.434,3.071,11.34,4.017,15.592,4.017c11.34,0,34.49,1.416,39.688-2.6c4.016-2.834-2.127-6.378-5.434-8.268
		L45.949,16.276l52.68-4.489C98.393,11.552,118,9.662,118-2.15z"/>
	<path style="fill:#5DC1D6;" d="M102.881-18.214c0,0-0.236,0-0.472,0c1.181-2.599,2.598-5.669,4.016-8.977
		c0.236-0.708,0.472-1.181,0.708-1.89c0.236-0.473,0.473-0.945,0.709-1.417c1.417-3.543,3.071-6.851,4.252-9.686
		c0.709-1.654,1.182-2.835,1.654-4.016c2.598-6.851,2.598-12.048-4.016-8.977c-2.6,1.182-17.246,9.686-17.246,9.686
		c-6.142,3.543-4.725,4.016-8.268,8.977l-9.213,12.993C27.522-26.718-65.317-36.404-76.656-34.75
		c-2.599,0.473-5.197,1.654-7.795,3.78c-5.434,4.016-10.395,10.631-12.521,16.3c0,0,9.213,1.181,25.041,2.835
		C-33.898-7.82,41.697-1.441,118-4.512C116.818-14.907,107.369-18.214,102.881-18.214z"/>
	<path style="fill:#193B53;" d="M-84.688-30.734c-5.434,4.016-10.395,10.63-12.521,16.3c1.181,0.708,2.599,1.181,3.78,1.653
		c0.708,0.236,1.417,0.473,2.362,0.709C-80.672-9.001-71.932-11.6-71.932-11.6s1.89-1.89,4.016-6.851
		c1.417-3.78,2.362-8.977,2.362-8.977C-75.002-27.191-81.617-29.317-84.688-30.734z"/>
	<path style="fill:#50777F;" d="M-79.019-21.285c-0.236-0.472-0.945-0.472-1.417-0.236l-13.229,8.977
		c0.709,0.236,1.417,0.473,2.362,0.709l12.048-8.032C-78.782-20.34-78.546-21.049-79.019-21.285z"/>
	<path style="fill:#50777F;" d="M-70.514-25.064l-11.812,8.032c-0.236,0.236-0.473,0.708-0.236,0.945s0.708,0.473,0.945,0.236
		l11.812-8.032c0.236-0.236,0.472-0.709,0.236-0.945C-69.805-25.301-70.278-25.301-70.514-25.064z"/>
	<path style="fill:#193B53;" d="M-52.561-26.01c-2.599-0.236-4.961,1.654-5.197,4.489l-0.709,6.851v0.472c0,0.473,0,0.709,0,1.182
		c0,0.236,0,0.236,0,0.472s0.236,0.473,0.236,0.709c0.708,1.417,2.126,2.598,4.016,2.834c2.598,0.236,4.961-1.653,5.197-4.488
		l0.709-7.56C-47.836-23.411-49.726-25.773-52.561-26.01z"/>
	<path style="fill:#50777F;" d="M-50.198-19.159c-0.236-0.236-0.708-0.473-0.945-0.236l-7.087,4.725v0.472c0,0.473,0,0.709,0,1.182
		l7.796-5.434C-50.198-18.45-49.962-18.923-50.198-19.159z"/>
	<path style="fill:#50777F;" d="M-52.561-15.615c0-0.236-0.236-0.236-0.472,0l-5.197,3.543c0,0.236,0.236,0.472,0.236,0.708
		l5.197-3.543C-52.561-15.379-52.561-15.615-52.561-15.615z"/>
	<path style="fill:#193B53;" d="M-27.992-19.868c0-0.472-0.236-0.945-0.473-1.417c-0.708-1.653-2.362-2.598-4.016-2.834
		c-2.599-0.236-4.961,1.89-5.197,4.488l-0.473,7.56c-0.236,2.599,1.89,4.961,4.489,5.197c2.834,0,4.961-2.126,5.197-4.725
		l0.473-6.851v-0.708v-0.236C-27.992-19.631-27.992-19.868-27.992-19.868z"/>
	<path style="fill:#50777F;" d="M-36.26-16.088c-0.236,0.236-0.473,0.709-0.236,0.945c0.236,0.236,0.709,0.473,0.945,0.236
		l7.56-4.961c0-0.472-0.236-0.945-0.473-1.417L-36.26-16.088z"/>
	<path style="fill:#50777F;" d="M-32.48-15.852c0,0.236,0.236,0.236,0.472,0l4.016-2.599v-0.708v-0.236l-4.488,3.071
		C-32.48-16.324-32.48-16.088-32.48-15.852z"/>
	<path style="fill:#193B53;" d="M-7.44-17.742c0-2.598-1.89-4.96-4.725-4.96c-2.599,0-4.961,1.89-4.961,4.725l-0.236,7.087v0.473
		c0,0.472,0,0.945,0.236,1.181c0,0.236,0,0.236,0,0.473s0.236,0.473,0.236,0.709c0.708,1.417,2.362,2.598,4.016,2.598
		c2.599,0,4.961-1.89,4.961-4.725l0.236-4.252v-0.945v-0.473L-7.44-17.742L-7.44-17.742z"/>
	<path style="fill:#50777F;" d="M-7.44-17.742L-7.44-17.742l-9.922,6.615v0.473c0,0.472,0,0.945,0.236,1.181l9.922-6.615
		L-7.44-17.742z"/>
	<path style="fill:#50777F;" d="M-16.889-8.292L-16.889-8.292l9.449-6.378v-0.945l-9.686,6.614
		C-17.125-8.528-17.125-8.292-16.889-8.292z"/>
	<path style="fill:#BE1622;" d="M83.273-27.191l24.568-3.071c1.417-3.543,3.071-6.851,4.252-9.686l-20.315,2.362L83.273-27.191z"/>
	<path style="fill:#BE1622;" d="M82.328-24.12l24.097-3.071c0.236-0.708,0.472-1.181,0.708-1.89L83.273-26.01L82.328-24.12z"/>
</g>
</svg>
