<?xml version="1.0" encoding="iso-8859-1"?>
<!-- Generator: Adobe Illustrator 16.0.0, SVG Export Plug-In . SVG Version: 6.00 Build 0)  -->
<!DOCTYPE svg PUBLIC "-//W3C//DTD SVG 1.1//EN" "http://www.w3.org/Graphics/SVG/1.1/DTD/svg11.dtd">
<svg version="1.1" id="&#x56FE;&#x5C42;_1" xmlns="http://www.w3.org/2000/svg" xmlns:xlink="http://www.w3.org/1999/xlink" x="0px"
	 y="0px" width="640px" height="400px" viewBox="-169.5 654.5 640 400" style="enable-background:new -169.5 654.5 640 400;"
	 xml:space="preserve">
<g>
	<path style="fill:#8C6239;" d="M68.356,992.635c-5.861-0.532-9.723-1.333-11.988-1.734c-0.931,1.469-1.867,2.799-2.93,4
		l-0.266-0.269c1.33,1.598,2.132,3.598,2.132,5.73c0,1.197-0.268,2.396-0.667,3.463l3.33,31.305v0.133l0,0h4.13h3.463l-3.596-4.132
		l-0.266-9.989l2.532-23.045C65.825,996.496,67.159,994.632,68.356,992.635z"/>
	<path style="fill:#A67C52;" d="M157.607,962.13c0-0.135,0-0.135-0.133-0.269c0,0,0-0.133-0.134-0.133
		c-1.598-4.795-1.198-16.783-0.664-19.182c0.132-0.665,0.266-1.332,0.266-1.997c0-3.196-2.133-5.861-5.063-6.661
		c-0.266-0.532-0.398-0.668-0.665-1.2c0.533-1.73,0.799-3.462,0.799-5.06c-1.597,0.933-3.196,2.528-4.529,4.396
		c-0.133,0-0.133,0-0.266-0.134c-0.134-2.266-0.667-4.396-1.466-5.993c-0.398,0.664-0.798,1.463-1.199,2.396v0.136
		c-0.266,0.798-0.531,1.596-0.801,2.396c0,0.133,0,0.266-0.132,0.266c-0.532-0.133-1.197-0.133-1.864-0.133
		c-0.665,0-1.2-0.133-1.864-0.133c-12.388,0-22.78,7.991-26.508,19.181c-0.934,2.931-3.333,4.931-6.264,5.862
		c-0.8,0.132-1.464,0.4-2.263,0.533c-0.8,0.267-1.733,0.399-2.531,0.665l0,0c-7.459,1.466-13.988,1.865-19.45,1.599
		c-0.398,0-0.665,0-1.063,0c-2.266-0.133-4.398-0.266-6.26-0.532l0,0c-1.335-0.133-2.399-0.398-2.93-0.531
		c-2.931-0.535-5.197-0.934-6.529-1.2c-2.931-0.667-6.129-0.667-9.326,0.267c-7.726,2.396-13.454,9.326-13.855,17.317
		c-0.133,2.396,0.268,4.661,0.936,6.794c0.133,0.665,0.133,1.33,0.133,2.13c0,7.727-5.063,14.388-11.991,16.785
		c-1.332,0.399-2.263,1.599-2.396,2.932l-4.531,32.504h0.933h3.997h3.729l-2.93-4.266l4.265-22.646
		c0.266-1.464,1.33-2.529,2.795-2.662c7.994-0.801,14.655-5.729,18.251-12.523c1.465,0.532,3.329,1.067,4.93,1.2
		c13.318,1.73,48.62,5.595,60.877-1.864c0,0,0,0,0.132,0l6.128,9.19c1.731,2.665,2.665,5.728,2.665,8.791v24.779h1.197h3.999h3.595
		l-3.595-4.133v-40.761v-2.532c3.462-0.664,6.658-2.13,9.323-4.26c0.531-0.535,1.465,0,1.329,0.798l-2.661,14.786l-2.398,2.664
		l5.728,5.063v-5.728l7.991-19.184c0.401-0.931,0.134-1.998-0.532-2.798l-3.196-3.196c-0.532-0.532-1.333-0.932-2.266-0.932h-13.052
		c0.797-2.664,1.196-5.462,1.196-8.26c0-4.93-1.196-9.592-3.462-13.589c-0.266-0.931-0.532-1.864-0.532-2.93
		c0-0.931,0.133-1.731,0.398-2.532v-0.132c0.134-0.533,0.532-0.799,1.064-0.799c0.534,0,0.934,0.266,1.069,0.799v0.132
		c0.664,3.333,2.931,5.997,5.993,7.063c1.864,1.33,6.393,7.593,7.191,10.122c0.667,1.601,2.133,2.797,3.997,2.797
		c2.13,0,3.997-1.595,4.263-3.728C158.007,963.462,158.007,962.795,157.607,962.13z"/>
	<path style="fill:#379B98;" d="M84.478,972.653h8.791c4.928,0,9.058-3.995,9.058-9.059v-6.528
		c-7.459,1.466-13.988,1.865-19.45,1.599c-0.398,0-0.665,0-1.063,0c-2.266-0.133-4.398-0.266-6.26-0.532v5.462
		C75.417,968.523,79.414,972.653,84.478,972.653z"/>
	<path style="fill:#379B98;" d="M136.562,920.036c1.463-1.066,1.864-3.197,0.798-4.664c-1.063-1.463-3.196-1.864-4.662-0.799
		c-3.465,2.399-6.661,11.457-2.797,16.919C129.9,928.694,129.634,924.964,136.562,920.036z"/>
	<path style="fill:#379B98;" d="M106.722,935.753c7.991-2.932,10.922-0.532,13.32,1.066c-2.266-6.261-11.59-8.659-15.583-7.327
		c-1.734,0.665-2.665,2.532-1.999,4.264C103.124,935.486,104.99,936.286,106.722,935.753z"/>
	<path style="fill:#8C6239;" d="M35.854,958.399c7.994-2.931,10.924-0.532,13.32,1.065c-2.263-6.262-11.589-8.658-15.586-7.326
		c-1.731,0.665-2.665,2.531-1.997,4.263C32.259,958.133,34.121,958.932,35.854,958.399z"/>
	<path style="fill:#379B98;" d="M124.438,933.221c-1.332-2.263-4.529-7.858-2.529-15.982l0,0c0.132-0.399,0.132-0.801,0.132-1.199
		c0-1.997-1.733-3.73-3.729-3.73c-1.864,0-3.465,1.465-3.731,3.196l0,0C114.181,918.568,114.979,927.228,124.438,933.221z"/>
	<path style="fill:#FBC132;" d="M125.372,928.562L125.372,928.562c0.398,0,0.664-0.269,0.664-0.668v-10.256
		c0-0.399-0.266-0.665-0.664-0.665l0,0c-0.399,0-0.666,0.266-0.666,0.665v10.256C124.706,928.293,125.105,928.562,125.372,928.562z"
		/>
	<path style="fill:#FBC132;" d="M117.776,931.625c0.134,0.133,0.269,0.133,0.401,0.133c0.134,0,0.399-0.133,0.535-0.266
		c0.266-0.266,0.266-0.667,0-0.934l-7.462-7.061c-0.267-0.266-0.665-0.266-0.931,0c-0.27,0.267-0.27,0.666,0,0.931L117.776,931.625z
		"/>
	<path style="fill:#FBC132;" d="M84.344,975.185h8.792c6.526,0,11.722-5.329,11.722-11.723v-7.061
		c-0.8,0.267-1.733,0.399-2.531,0.665v6.528c0,5.063-4.13,9.059-9.058,9.059h-8.791c-5.064,0-9.061-4.13-8.925-9.059v-5.462
		c-1.335-0.133-2.399-0.398-2.93-0.531v5.86C72.622,969.988,77.948,975.185,84.344,975.185z"/>
	<path style="fill:none;" d="M153.612,943.88c0,0.735-0.599,1.332-1.333,1.332c-0.737,0-1.331-0.597-1.331-1.332
		c0-0.737,0.594-1.333,1.331-1.333C153.014,942.547,153.612,943.143,153.612,943.88z"/>
	<path style="fill:#666666;" d="M144.021,999.028l3.329,1.999v5.728l-5.728-5.063L144.021,999.028z"/>
	<path style="fill:#666666;" d="M136.03,1030.997h-5.196v4.133h8.791L136.03,1030.997z"/>
	<path style="fill:#666666;" d="M30.792,1030.864H25.73l-0.667,4.266h8.658L30.792,1030.864z"/>
	<path style="fill:#4D4D4D;" d="M61.831,1031.131h-4.396l0.399,4.132h7.592L61.831,1031.131z"/>
</g>
<path style="fill:#FFFFFF;" d="M53.728,808.825c0.102,0,0.303,0,0.403-0.1c0.505-0.202,0.706-0.808,0.505-1.312
	c-3.127-6.758-0.404-12.405,1.814-16.138c0.303-0.504,0.202-1.109-0.303-1.412c-0.504-0.302-1.109-0.201-1.411,0.303
	c-3.934,6.455-4.538,12.305-1.917,18.054C53.021,808.624,53.324,808.825,53.728,808.825z"/>
<path style="fill:#FFFFFF;" d="M359.115,782.703c0.102,0,0.303,0,0.403-0.1c0.505-0.202,0.706-0.808,0.505-1.312
	c-3.127-6.758-0.404-12.405,1.814-16.138c0.303-0.504,0.202-1.109-0.303-1.412c-0.504-0.302-1.109-0.201-1.411,0.303
	c-3.934,6.455-4.538,12.305-1.917,18.054C358.409,782.502,358.712,782.703,359.115,782.703z"/>
<path style="fill:#FFFFFF;" d="M419.635,795.159c0.102,0,0.303,0,0.403-0.1c0.505-0.202,0.706-0.808,0.505-1.312
	c-3.127-6.758-0.404-12.405,1.814-16.138c0.303-0.504,0.202-1.109-0.303-1.412c-0.504-0.302-1.109-0.201-1.411,0.303
	c-3.934,6.455-4.538,12.305-1.917,18.054C418.929,794.958,419.231,795.159,419.635,795.159z"/>
<g>
	<path style="fill:#DB350F;" d="M312.539,828.943c-0.738-2.655-2.951-4.573-5.606-5.162c-15.937-2.805-39.248-19.773-46.626-29.806
		c-1.032-1.329-2.949-1.329-3.834,0c-7.38,10.182-30.691,27.15-46.628,29.952c-2.655,0.442-4.868,2.509-5.604,5.165
		c-5.312,17.114-19.624,63.004-19.624,63.004h73.771h73.775C332.163,892.097,317.851,846.207,312.539,828.943z"/>
	<path style="fill:#FBC132;" d="M258.979,794.271c4.132,8.116,18.003,23.165,25.526,28.329c1.621,1.182,2.803,2.803,3.099,4.723
		c2.803,14.459,18.146,64.774,18.146,64.774h-23.607c0,0-14.163-53.561-15.641-67.873
		C263.405,814.188,263.405,813.599,258.979,794.271z"/>
	<path style="fill:#FBC132;" d="M257.801,794.271c-4.133,8.264-18.003,23.165-25.677,28.477c-1.621,1.181-2.802,2.805-3.098,4.722
		c-2.803,14.46-18.147,64.772-18.147,64.772h23.755c0,0,14.165-53.558,15.64-67.871
		C253.372,814.188,253.372,813.599,257.801,794.271z"/>
	<path style="fill:none;" d="M258.388,840.157l-13.572,51.939h13.572h13.576L258.388,840.157z"/>
	<path style="fill:#FBC132;" d="M222.979,823.189c0,6.492-5.312,11.807-11.806,11.807c-6.49,0-11.801-5.314-11.801-11.807"/>
	<path style="fill:#DB350F;" d="M246.586,823.189c0,6.492-5.311,11.807-11.806,11.807c-6.49,0-11.802-5.314-11.802-11.807"/>
	<path style="fill:#FBC132;" d="M317.558,823.189c0,6.492-5.313,11.807-11.807,11.807c-6.489,0-11.804-5.314-11.804-11.807"/>
	<path style="fill:#DB350F;" d="M293.801,823.189c0,6.492-5.312,11.807-11.804,11.807c-6.493,0-11.804-5.314-11.804-11.807"/>
	<path style="fill:#FBC132;" d="M270.193,823.189c0,6.492-5.311,11.807-11.806,11.807c-6.49,0-11.802-5.314-11.802-11.807"/>
	<path style="fill:none;" d="M259.718,773.319c0-0.738-0.59-1.328-1.33-1.328c-0.736,0-1.327,0.59-1.327,1.328
		c0,0.442,0.297,0.736,0.591,1.031v18.592c0,0.443,0.294,0.737,0.736,0.737c0.444,0,0.74-0.294,0.74-0.737v-18.592
		C259.422,774.056,259.718,773.762,259.718,773.319z"/>
	<path style="fill:#DB350F;" d="M284.063,787.778c-0.591,0-1.328,0.147-1.92,0.147c-4.72,0-9.147-1.622-12.689-4.278
		c-0.295-0.295-0.885-0.148-1.031,0.294c-1.181,2.656-2.951,4.869-5.312,6.64c-0.295,0.149-0.295,0.592,0,0.738
		c2.507,1.181,5.312,1.771,8.261,1.771c4.725,0,9.15-1.624,12.691-4.426C284.8,788.368,284.506,787.778,284.063,787.778z"/>
	<path style="fill:#DB350F;" d="M265.768,786.304c1.475-2.213,2.506-4.868,2.802-7.673c0-0.442-0.146-0.736-0.589-1.035
		c-2.509-1.472-5.312-2.213-8.409-2.213c-1.035,0-1.92,0.149-2.954,0.296c-0.588,0.147-0.886,0.59-0.886,1.182
		c0.149,1.328,0.149,2.655,0.149,3.982c0,1.182,0,2.51-0.149,3.69c0,0.442,0.443,0.886,0.886,0.736
		c0.885-0.294,1.919-0.442,2.805-0.442c2.066,0,3.836,0.592,5.461,1.623C265.324,786.598,265.618,786.598,265.768,786.304z"/>
	<path style="fill:#DB350F;" d="M264.586,787.778c0.147-0.146,0.147-0.442,0-0.442c-0.442-0.296-1.031-0.738-1.77-0.886
		c-0.147,0-0.443,0-0.443,0.296l-0.589,2.36c0,0.146,0,0.146,0,0.146l0,0c0,0.442,0.293,0.738,0.735,0.738
		c0.149,0,0.443-0.146,0.592-0.296C263.555,789.106,264.144,788.517,264.586,787.778z"/>
</g>
<g>
	<g>
		<path style="fill:#FCC48D;" d="M440.544,965.147v-7.298c0-19.969-16.322-36.29-36.293-36.29s-36.293,16.321-36.293,36.29v7.298
			c-4.032,0-7.295,3.265-7.295,7.297c0,4.033,3.263,7.298,7.295,7.298v14.595c0,19.969,16.322,36.291,36.293,36.291
			s36.293-16.322,36.293-36.291v-14.595c4.032,0,7.297-3.265,7.297-7.298C447.841,968.412,444.576,965.147,440.544,965.147z"/>
		<path style="fill:#BF1500;" d="M403.867,911.188c-15.555,0-28.229,0.96-28.229,2.306l1.346,18.241
			c0,0.384,11.904,0.768,26.69,0.768c14.787,0,26.69-0.384,26.69-0.768l1.346-18.241
			C432.095,912.148,419.422,911.188,403.867,911.188z"/>
		<path style="fill:#141416;" d="M435.359,937.497l6.53-74.507c0-3.841-15.938-7.873-38.022-7.873s-38.406,4.032-38.406,7.873
			l6.914,74.507c-18.625,0.576-31.109,1.92-31.109,3.263c0,2.113,28.038,3.841,62.409,3.841c34.372,0,62.41-1.728,62.41-3.841
			C466.276,939.417,453.793,938.073,435.359,937.497z M403.867,932.503c-14.787,0-26.69-0.384-26.69-0.768l-1.346-18.241
			c0-1.346,12.673-2.306,28.228-2.306s28.229,0.96,28.229,2.306l-1.729,18.434C430.558,932.312,418.653,932.503,403.867,932.503z"/>
		<path style="fill:#1A1A1A;" d="M424.03,960.539c0,2.651-2.149,4.8-4.801,4.8s-4.803-2.148-4.803-4.8s2.151-4.8,4.803-4.8
			S424.03,957.888,424.03,960.539z"/>
		<path style="fill:#1A1A1A;" d="M394.074,960.539c0,2.651-2.15,4.8-4.802,4.8s-4.8-2.148-4.8-4.8s2.148-4.8,4.8-4.8
			S394.074,957.888,394.074,960.539z"/>
		<path style="fill:#1F272A;" d="M370.646,989.534c1.92,0,3.264,1.536,3.264,3.266c0,1.921-1.535,3.265-3.264,3.265
			c-1.918,0-3.264,1.535-3.264,3.265c0,1.919,1.537,3.265,3.264,3.265h6.723c3.646,0,6.719-3.072,6.719-6.722
			c0-3.648,3.648-6.722,6.723-6.722h26.884c3.454,0,6.72,3.266,6.72,6.722c0,3.649,3.072,6.722,6.722,6.722h6.719
			c1.922,0,3.268-1.537,3.268-3.265c0-1.922-1.538-3.265-3.268-3.265c-1.919,0-3.263-1.535-3.263-3.265
			c0-1.922,1.536-3.266,3.263-3.266c5.57,0,9.986,4.61,9.986,9.987c0,5.567-4.416,9.986-9.986,9.986h-26.882
			c-2.497,0-4.994-0.962-6.722-2.5c-1.728,1.538-4.225,2.5-6.722,2.5h-26.883c-2.688,0-5.186-1.154-7.105-2.884
			c-1.727-1.728-2.878-4.222-2.878-7.103C360.663,993.953,365.077,989.534,370.646,989.534L370.646,989.534z"/>
		<path style="fill:#C1966F;" d="M393.883,985.118c0,7.873,4.605,11.521,10.368,11.521c5.762,0,10.368-3.456,10.368-11.521
			s-4.606-17.09-10.368-17.09C398.488,968.028,393.883,977.247,393.883,985.118z"/>
		<path style="fill:#BF1500;" d="M397.913,1036.006v-1.535c0-1.729,0.771-3.459,2.113-4.419c0.576-0.384,0.384-1.151-0.191-1.535
			c-4.033-1.919-9.987-4.608-13.058-4.608c-2.497,0-4.416,1.922-4.416,4.416c0,0.192,0,0.384,0,0.384
			c0.191,2.689,2.688,4.417,2.688,6.914c0,1.535-0.77,3.263-1.153,4.608c-0.191,0.575-0.384,1.921-0.384,2.881
			c0,2.111,1.729,3.838,3.841,3.838c2.303,0,7.105-2.687,12.097-5.376c0.576-0.384,0.576-1.151,0.192-1.535
			C398.684,1039.269,397.913,1037.733,397.913,1036.006z"/>
		<path style="fill:#BF1500;" d="M425.951,1028.324c0-2.494-1.921-4.416-4.419-4.416c-3.07,0-9.024,2.689-13.057,4.608
			c-0.576,0.191-0.576,1.151-0.192,1.535c1.154,1.151,2.113,2.689,2.113,4.419v1.535c0,1.728-0.768,3.263-1.921,4.225
			c-0.384,0.384-0.384,1.151,0.191,1.535c4.992,2.689,9.795,5.376,12.098,5.376c2.111,0,3.841-1.728,3.841-3.839
			c0-0.959-0.191-2.305-0.384-2.881c-0.384-1.537-1.151-3.265-1.151-4.608c0-2.497,2.497-4.224,2.688-6.913
			C425.951,1028.708,425.951,1028.517,425.951,1028.324z"/>
		<path style="fill:#BF1500;" d="M408.861,1034.662c0-2.497-2.115-4.61-4.61-4.61s-4.608,2.113-4.608,4.61v1.151
			c0,2.495,2.113,4.608,4.608,4.608s4.61-2.113,4.61-4.608V1034.662z"/>
	</g>
	<g>
		<path style="fill:none;stroke:#000000;stroke-width:0.3362;stroke-linecap:square;" d="M282.359,932.214
			c-1.321,1.32-2.853,3.328,0.527,6.285c3.381,2.958,2.694,6.127,2.694,6.127s-0.476,4.226-5.44,6.866"/>
		<g>
			<path style="fill:#FFFFFF;stroke:#545454;stroke-miterlimit:10;" d="M311.925,943.729c-0.32,0.853,0.106,1.812,0.958,2.131
				c0.854,0.32,1.814-0.105,2.135-0.958c1.705-4.586,6.61-5.971,9.382-5.013c0.854,0.32,1.813-0.105,2.133-0.958
				c0.321-0.854-0.105-1.813-0.96-2.135C320.988,934.985,314.271,937.438,311.925,943.729z"/>
			<path style="fill:none;stroke:#545454;stroke-miterlimit:10;" d="M307.553,1003.439c-1.706,0-3.625,0.64-4.799,1.601
				c0.961-11.304,8.211-29.645,10.664-33.27l-0.854-0.64c-2.346,3.412-7.571,16.527-9.918,27.403v-35.827h-1.065v36.36
				c-1.28-6.184-4.052-14.395-9.809-18.766l-0.641,0.853c7.464,5.652,9.704,18.447,10.236,23.778
				c-1.173-0.96-2.985-1.601-4.585-1.601c-2.664,0-4.372,1.493-4.372,3.946c0,2.452,1.708,3.945,4.372,3.945
				c1.813,0,3.625-0.64,4.798-1.706c0,5.012,0.429,11.515,4.053,15.248c0.106,0.106,0.213,0.211,0.426,0.211
				c0.106,0,0.321-0.104,0.427-0.211c0.213-0.215,0.213-0.533,0-0.746c-3.412-3.414-3.732-9.705-3.732-14.502
				c1.174,1.066,3.093,1.706,4.905,1.706c2.56,0,4.266-1.493,4.266-3.945C311.925,1004.825,310.111,1003.439,307.553,1003.439z
				 M296.783,1010.158c-2.027,0-3.199-1.067-3.199-2.773c0-1.707,1.279-2.772,3.199-2.772c2.347,0,4.798,1.386,4.798,2.772l0,0
				C301.581,1008.665,299.13,1010.158,296.783,1010.158z M307.553,1010.158c-2.452,0-4.906-1.388-4.906-2.773
				c0-1.387,2.454-2.772,4.906-2.772c2.026,0,3.199,1.065,3.199,2.772C310.752,1009.091,309.579,1010.158,307.553,1010.158z"/>
			<path style="fill:#4AD8D9;stroke:#545454;stroke-miterlimit:10;" d="M326.427,934.878c-7.038-2.559-15.036,1.918-17.595,8.851
				c-4.371,12.155-1.493,23.776,4.905,26.123c6.291,2.346,15.993-4.798,20.473-16.954
				C336.769,945.859,333.355,937.33,326.427,934.878z"/>
			<path style="fill:#FFFFFF;stroke:#545454;stroke-miterlimit:10;" d="M322.693,940.741c1.066-0.105,1.92-0.958,1.92-2.025
				c0-1.065-0.958-1.92-2.026-1.92c-5.97,0.321-12.368,6.291-11.942,14.182c0.107,1.067,0.96,1.92,2.027,1.92
				c1.065,0,1.92-0.959,1.92-2.025C314.271,944.794,319.068,940.956,322.693,940.741z"/>
			<path style="fill:#FBC132;stroke:#545454;stroke-miterlimit:10;" d="M301.688,960.895l-1.493,1.813
				c-0.32,0.427,0,0.96,0.426,0.96h2.88c0.533,0,0.746-0.533,0.427-0.96l-1.387-1.813
				C302.328,960.576,301.902,960.576,301.688,960.895z"/>
			<path style="fill:#FBC132;stroke:#545454;stroke-miterlimit:10;" d="M302.115,918.244c-8.531,0-15.46,7.89-15.46,16.421
				c0,14.928,7.782,26.229,15.46,26.229c7.677,0,15.46-11.302,15.46-26.229C317.575,926.134,310.645,918.244,302.115,918.244z"/>
			<path style="fill:#FFFFFF;stroke:#545454;stroke-miterlimit:10;" d="M299.448,926.134c0.96-0.427,1.494-1.599,1.173-2.558
				c-0.32-0.961-1.599-1.601-2.557-1.173c-5.546,2.239-9.705,9.916-6.827,17.272c0.428,0.96,1.602,1.493,2.562,1.173
				c0.957-0.318,1.491-1.6,1.172-2.56C292.731,932.64,296.037,927.414,299.448,926.134z"/>
			<path style="fill:#DB350F;stroke:#545454;stroke-miterlimit:10;" d="M292.731,947.032c-3.945-7.995-14.182-12.262-22.285-8.209
				c-8.103,4.053-10.77,14.607-6.824,22.605c6.932,14.074,19.619,21.112,26.87,17.485
				C297.743,975.289,299.663,961.002,292.731,947.032z"/>
			<path style="fill:#FFFFFF;stroke:#545454;stroke-miterlimit:10;" d="M273.752,944.581c0.959-0.532,1.386-1.705,0.959-2.667
				c-0.427-0.958-1.705-1.384-2.665-0.958c-5.331,2.665-8.851,10.663-5.331,17.807c0.531,0.96,1.704,1.386,2.666,0.96
				c0.958-0.427,1.385-1.707,0.958-2.665C267.675,951.619,270.554,946.18,273.752,944.581z"/>
		</g>
	</g>
</g>
<g>
	<g>
		<path style="fill:#E6E6E6;" d="M8.232,656.002c-1.068-1.426-3.207-1.96-4.632-0.891c-1.426,1.069-3.029,1.96-4.455,3.029
			c-23.699,15.324-51.14,23.521-79.473,23.521c-30.292,0-59.337-9.088-83.927-26.551c-1.426-1.069-3.564-0.713-4.633,0.891
			c-1.069,1.426-0.713,3.564,0.891,4.633c25.66,17.997,56.13,27.62,87.669,27.62c29.58,0,58.269-8.375,83.037-24.412
			c1.603-1.069,3.207-2.139,4.632-3.208C8.946,659.566,9.302,657.606,8.232,656.002z"/>
		<path style="fill:#DB350F;" d="M-117.57,689.857l-25.66-8.909c-1.781-0.533-3.563,0.714-3.563,2.674l1.782,39.201
			c0,1.604,2.139,2.317,3.207,1.069l25.481-29.936C-115.253,692.709-115.788,690.393-117.57,689.857z"/>
		<path style="fill:#4AD8D9;" d="M-17.249,680.948l-25.66,8.909c-1.781,0.535-2.316,2.852-1.247,4.277l25.481,29.936
			c1.069,1.248,3.029,0.536,3.208-1.068l1.781-39.202C-13.685,681.662-15.466,680.415-17.249,680.948z"/>
		<path style="fill:#FBC132;" d="M-66.607,693.422h-27.264c-1.96,0-3.207,1.961-2.494,3.742l14.433,36.529
			c0.535,1.426,2.672,1.426,3.386,0l14.434-36.529C-63.578,695.383-64.825,693.422-66.607,693.422z"/>
	</g>
	<g>
		<path style="fill:#E6E6E6;" d="M131.117,671.675c-0.857-1.145-2.574-1.573-3.718-0.715c-1.144,0.858-2.431,1.573-3.575,2.432
			c-19.02,12.299-41.042,18.876-63.779,18.876c-24.31,0-47.62-7.294-67.355-21.308c-1.144-0.858-2.86-0.571-3.718,0.715
			c-0.858,1.144-0.572,2.86,0.715,3.718c20.593,14.443,45.046,22.166,70.358,22.166c23.739,0,46.762-6.722,66.64-19.592
			c1.287-0.857,2.574-1.715,3.717-2.574C131.688,674.535,131.976,672.962,131.117,671.675z"/>
		<path style="fill:#DB350F;" d="M30.156,698.846l-20.593-7.15c-1.429-0.429-2.86,0.572-2.86,2.146l1.431,31.46
			c0,1.288,1.716,1.86,2.573,0.858l20.45-24.023C32.015,701.134,31.586,699.274,30.156,698.846z"/>
		<path style="fill:#4AD8D9;" d="M110.667,691.695l-20.592,7.15c-1.429,0.429-1.859,2.288-1.001,3.432l20.449,24.025
			c0.858,1,2.431,0.43,2.575-0.858l1.43-31.461C113.528,692.268,112.098,691.267,110.667,691.695z"/>
		<path style="fill:#FBC132;" d="M71.055,701.706H49.176c-1.573,0-2.574,1.573-2.002,3.003l11.583,29.315
			c0.43,1.145,2.145,1.145,2.717,0l11.583-29.315C73.486,703.279,72.485,701.706,71.055,701.706z"/>
	</g>
	<g>
		<path style="fill:#E6E6E6;" d="M353.896,659.144c-1.52-2.028-4.562-2.788-6.589-1.267c-2.028,1.521-4.309,2.787-6.337,4.309
			c-33.713,21.798-72.746,33.457-113.048,33.457c-43.088,0-84.403-12.927-119.382-37.766c-2.028-1.521-5.069-1.015-6.59,1.267
			c-1.521,2.027-1.014,5.069,1.267,6.589c36.499,25.601,79.841,39.289,124.705,39.289c42.077,0,82.886-11.914,118.118-34.726
			c2.28-1.521,4.562-3.04,6.589-4.563C354.91,664.213,355.418,661.424,353.896,659.144z"/>
		<path style="fill:#DB350F;" d="M174.947,707.302l-36.498-12.672c-2.534-0.761-5.069,1.013-5.069,3.801l2.535,55.763
			c0,2.282,3.042,3.295,4.562,1.521l36.245-42.582C178.242,711.357,177.482,708.063,174.947,707.302z"/>
		<path style="fill:#4AD8D9;" d="M317.65,694.63l-36.5,12.672c-2.533,0.761-3.295,4.056-1.774,6.084l36.246,42.582
			c1.522,1.774,4.309,0.762,4.564-1.521l2.533-55.764C322.72,695.643,320.187,693.869,317.65,694.63z"/>
		<path style="fill:#FBC132;" d="M247.439,712.372h-38.78c-2.788,0-4.563,2.789-3.549,5.323l20.53,51.961
			c0.762,2.027,3.803,2.027,4.816,0l20.531-51.961C251.749,715.161,249.974,712.372,247.439,712.372z"/>
	</g>
	<g>
		<path style="fill:#E6E6E6;" d="M470.041,678.439c-0.801-1.07-2.404-1.471-3.473-0.668c-1.07,0.8-2.271,1.468-3.341,2.271
			c-17.771,11.49-38.346,17.636-59.59,17.636c-22.712,0-44.489-6.813-62.928-19.906c-1.069-0.803-2.672-0.535-3.474,0.668
			c-0.802,1.068-0.535,2.671,0.668,3.473c19.24,13.495,42.086,20.71,65.733,20.71c22.18,0,43.691-6.281,62.262-18.305
			c1.203-0.801,2.405-1.603,3.474-2.405C470.576,681.11,470.844,679.64,470.041,678.439z"/>
		<path style="fill:#DB350F;" d="M375.716,703.823l-19.241-6.679c-1.335-0.401-2.672,0.533-2.672,2.004l1.337,29.393
			c0,1.203,1.604,1.738,2.403,0.803l19.106-22.447C377.452,705.962,377.051,704.226,375.716,703.823z"/>
		<path style="fill:#4AD8D9;" d="M450.936,697.145l-19.239,6.679c-1.337,0.402-1.736,2.139-0.936,3.208l19.105,22.445
			c0.803,0.936,2.271,0.402,2.406-0.802l1.337-29.394C453.609,697.678,452.272,696.743,450.936,697.145z"/>
		<path style="fill:#FBC132;" d="M413.927,706.496h-20.442c-1.47,0-2.403,1.471-1.87,2.807l10.82,27.39
			c0.402,1.067,2.006,1.067,2.54,0l10.822-27.39C416.197,707.967,415.263,706.496,413.927,706.496z"/>
	</g>
</g>
<g>
	<path style="fill:#379B98;" d="M-67.445,771.885h6.915v28.35h-6.915V771.885z"/>
	<path style="fill:#379B98;" d="M-110.081,784.959l5.989-3.453l14.171,24.551l-5.985,3.457L-110.081,784.959z"/>
	<path style="fill:#379B98;" d="M-140.154,817.938l3.461-5.989l24.551,14.179l-3.458,5.988L-140.154,817.938z"/>
	<path style="fill:#379B98;" d="M-149.967,854.406h28.354v6.915h-28.354V854.406z"/>
	<path style="fill:#379B98;" d="M-140.068,897.925l24.554-14.172l3.454,5.986l-24.551,14.175L-140.068,897.925z"/>
	<path style="fill:#379B98;" d="M-109.803,930.647l14.179-24.555l5.989,3.457l-14.178,24.551L-109.803,930.647z"/>
	<path style="fill:#379B98;" d="M-67.445,915.258h6.915v28.351h-6.915V915.258z"/>
	<path style="fill:#379B98;" d="M-38.351,909.461l5.989-3.453l14.175,24.55l-5.989,3.458L-38.351,909.461z"/>
	<path style="fill:#379B98;" d="M-15.99,889.688l3.458-5.988l24.554,14.175l-3.461,5.989L-15.99,889.688z"/>
	<path style="fill:#379B98;" d="M-6.362,854.406h28.354v6.915H-6.362V854.406z"/>
	<path style="fill:#379B98;" d="M-15.894,826.042L8.66,811.863l3.457,5.989l-24.55,14.179L-15.894,826.042z"/>
	<path style="fill:#379B98;" d="M-38.027,806.088l14.178-24.554l5.989,3.461l-14.179,24.551L-38.027,806.088z"/>
	<path style="fill:#379B98;" d="M-67.445,771.885h6.915v28.35h-6.915V771.885z"/>
	<path style="fill:#379B98;" d="M-63.988,919.175c-33.887,0-61.546-27.659-61.546-61.543c0-33.883,27.659-61.546,61.546-61.546
		c33.883,0,61.546,27.663,61.546,61.546C-2.441,891.516-30.104,919.175-63.988,919.175z M-63.988,803.464
		c-29.966,0-54.168,24.202-54.168,54.168c0,29.967,24.202,54.165,54.168,54.165c29.963,0,54.168-24.198,54.168-54.165
		C-9.819,827.666-34.025,803.464-63.988,803.464z"/>
	<path style="fill:#379B98;" d="M-63.988,947.297c-49.326,0-89.668-40.107-89.668-89.665c0-49.329,40.342-89.437,89.668-89.437
		s89.665,40.107,89.665,89.665C25.677,907.189-14.662,947.297-63.988,947.297z M-63.988,775.573
		c-45.409,0-82.291,36.882-82.291,82.287c0,45.412,36.881,82.29,82.291,82.29s82.291-36.878,82.291-82.29
		C18.303,812.455-18.579,775.573-63.988,775.573z"/>
	<path style="fill:#DB350F;" d="M-50.39,771.885c0,7.513-6.089,13.602-13.598,13.602s-13.598-6.089-13.598-13.602
		s6.089-13.602,13.598-13.602S-50.39,764.372-50.39,771.885z"/>
	<path style="fill:#FBC132;" d="M-111.013,797.009c0,7.513-6.085,13.602-13.595,13.602c-7.513,0-13.602-6.089-13.602-13.602
		c0-7.51,6.088-13.599,13.602-13.599C-117.099,783.41-111.013,789.499-111.013,797.009z"/>
	<path style="fill:#DB350F;" d="M-136.365,857.632c0,7.51-6.089,13.599-13.602,13.599c-7.51,0-13.598-6.089-13.598-13.599
		c0-7.513,6.088-13.602,13.598-13.602C-142.454,844.03-136.365,850.119-136.365,857.632z"/>
	<path style="fill:#FBC132;" d="M-111.013,918.484c0,7.513-6.085,13.602-13.595,13.602c-7.513,0-13.602-6.089-13.602-13.602
		c0-7.514,6.088-13.603,13.602-13.603C-117.099,904.882-111.013,910.971-111.013,918.484z"/>
	<path style="fill:#DB350F;" d="M-50.39,943.608c0,7.513-6.089,13.602-13.598,13.602s-13.598-6.089-13.598-13.602
		c0-7.51,6.089-13.599,13.598-13.599S-50.39,936.099-50.39,943.608z"/>
	<path style="fill:#FBC132;" d="M10.234,918.484c0,7.513-6.089,13.602-13.602,13.602c-7.51,0-13.599-6.089-13.599-13.602
		c0-7.514,6.089-13.603,13.599-13.603C4.146,904.882,10.234,910.971,10.234,918.484z"/>
	<path style="fill:#DB350F;" d="M35.59,857.632c0,7.51-6.093,13.599-13.599,13.599c-7.513,0-13.602-6.089-13.602-13.599
		c0-7.513,6.089-13.602,13.602-13.602C29.497,844.03,35.59,850.119,35.59,857.632z"/>
	<path style="fill:#FBC132;" d="M10.234,797.009c0,7.513-6.089,13.602-13.602,13.602c-7.51,0-13.599-6.089-13.599-13.602
		c0-7.51,6.089-13.599,13.599-13.599C4.146,783.41,10.234,789.499,10.234,797.009z"/>
	<path style="fill:#FBC132;" d="M-3.827,980.952l-55.322-127.699c-1.844-4.152-7.833-4.152-9.678,0l-55.326,127.699
		c-1.609,3.454,1.154,7.374,4.843,7.374H-8.666C-4.749,988.326-2.214,984.406-3.827,980.952z M-27.11,976.109h-73.759
		c-3.685,0-5.993-3.688-4.611-7.146l36.881-85.053c1.844-4.152,7.605-4.152,9.222,0l36.881,85.053
		C-20.886,972.421-23.421,976.109-27.11,976.109z"/>
	<path style="fill:#FFFFFF;" d="M-63.988,860.63c2.767,0,4.839,2.301,4.839,4.84c0,2.535-2.304,4.839-4.839,4.839
		s-4.839-2.304-4.839-4.839C-68.827,862.931-66.754,860.63-63.988,860.63z"/>
</g>
<path style="fill:#FDC034;" d="M-16.095,927.204c0.177,5.817,2.644,11.809,6.871,16.745c4.057,4.934,9.521,8.458,15.335,9.691
	c1.586,0.353,3.347,0.529,4.934,0.529c1.41,0,2.82-0.177,4.054-0.529c0-30.137-22.732-37.011-27.846-38.421
	C-15.039,918.744-16.272,922.624-16.095,927.204z"/>
<path style="fill:#FDC034;" d="M-93.996,971.615h28.553c1.41,2.467,2.817,4.938,4.583,7.404c0.877,1.233,2.114,1.763,3.347,1.763
	c0.88,0,1.587-0.177,2.29-0.706c1.94-1.233,2.293-3.877,1.057-5.817c-7.931-11.454-11.984-24.672-11.984-38.594
	c0-4.23,0.53-8.461,1.233-12.69l0,0c-36.304-1.94-51.108,9.341-56.749,14.274v6.523
	C-121.841,959.104-109.327,971.615-93.996,971.615z"/>
<path style="fill:none;" d="M-19.799,949.764c0,1.362-1.104,2.467-2.467,2.467s-2.467-1.104-2.467-2.467
	c0-1.363,1.104-2.468,2.467-2.468S-19.799,948.4-19.799,949.764z"/>
<path style="fill:#DD3711;" d="M-93.996,962.805h20.445c1.94,0,3.347-1.764,2.644-3.7c-2.467-7.578-3.7-15.509-3.7-23.439
	c0-2.82,0.703-9.167,1.233-12.867c-19.562,0-31.9,4.229-39.657,8.46l0,0c0,0.704,0,6.168,0,12.515
	C-113.03,954.347-104.57,962.805-93.996,962.805z"/>
<path style="fill:#DD3711;" d="M14.568,946.767c-2.291-17.802-13.395-25.732-21.149-29.079c-1.76,2.116-2.644,4.937-2.467,8.283
	c0.177,4.407,2.114,9.164,5.464,13.042c3.35,3.877,7.578,6.697,11.811,7.754C10.517,947.296,12.631,947.296,14.568,946.767z"/>
</svg>
