<?xml version="1.0" encoding="iso-8859-1"?>
<!-- Generator: Adobe Illustrator 16.0.0, SVG Export Plug-In . SVG Version: 6.00 Build 0)  -->
<!DOCTYPE svg PUBLIC "-//W3C//DTD SVG 1.1//EN" "http://www.w3.org/Graphics/SVG/1.1/DTD/svg11.dtd">
<svg version="1.1" id="&#x56FE;&#x5C42;_1" xmlns="http://www.w3.org/2000/svg" xmlns:xlink="http://www.w3.org/1999/xlink" x="0px"
	 y="0px" width="300px" height="300px" viewBox="0 0 300 300" style="enable-background:new 0 0 300 300;" xml:space="preserve">
<g>
	<ellipse style="opacity:0.2;fill:#040000;enable-background:new    ;" cx="150.798" cy="283.316" rx="134.104" ry="3.779"/>
	<polygon style="fill:#F7CBAC;" points="115.725,250.074 118.317,242.541 128.629,245.104 125.725,252.032 	"/>
	<path style="fill:#0D4A71;" d="M110.134,139.601c0,0,26.208,51.941,27.978,55.18c1.769,3.238-22.888,50.752-22.888,50.752
		l15.283,3.507c0,0,21.185-49.825,21.483-52.963c0.3-3.14-15.653-53.401-15.653-53.401L110.134,139.601z"/>
	<polygon style="fill:#9D978F;" points="112.642,253.477 115.608,247.757 127.561,250.323 126.174,254.675 116.784,257.316 	"/>
	<g>
		<path style="fill:#5C2F16;" d="M111.597,263.615h36.477c0,0-0.16-4.963-2.079-6.299s-15.676-4.724-17.594-5.058
			c-1.919-0.335-5.482,2.839-9.458,2.839c-3.975,0-4.765-2.977-5.894-4.008C111.953,250.089,109.758,260.006,111.597,263.615z"/>
		<rect x="111.597" y="263.615" style="fill:#B3805E;" width="36.477" height="1.494"/>
	</g>
	<path style="fill:#CBE0E0;" d="M73.004,178.111c-28.465,0-51.541,23.449-51.541,52.373c0,28.925,23.076,52.371,51.541,52.371
		s51.541-23.446,51.541-52.371C124.545,201.561,101.469,178.111,73.004,178.111z M73.004,271.952
		c-22.539,0-40.809-18.565-40.809-41.468c0-22.9,18.271-41.469,40.809-41.469s40.809,18.567,40.809,41.469
		C113.813,253.387,95.542,271.952,73.004,271.952z"/>
	<path id="lun-left" style="fill:#2A2B2B;" d="M73.004,176.764c-29.199,0-52.869,24.053-52.869,53.721c0,29.672,23.67,53.724,52.869,53.724
		c29.199,0,52.869-24.052,52.869-53.724C125.873,200.814,102.203,176.764,73.004,176.764z M73.004,275.146
		c-24.274,0-43.953-19.998-43.953-44.662c0-24.666,19.679-44.661,43.953-44.661s43.953,19.995,43.953,44.661
		C116.957,255.148,97.278,275.146,73.004,275.146z M54.427,188.613l-2.573-0.134l-1.819,1.825l-0.379-2.235l-2.343-0.785
		l2.339-1.248l0.371-2.31l1.825,1.464l2.572-0.643l-1.211,2.152L54.427,188.613z" transform="rotate(0,73.004,230.483)" >
	<animateTransform  id="rotateLeft" fill="freeze" restart="always" calcMode="linear" additive="replace" accumulate="none" repeatDur="indefinite" dur="1s" begin="0s" attributeType="XML" attributeName="transform" to="360,73.004,230.483" from="0,73.004,230.483" type="rotate">
				</animateTransform>
		</path>
	<g>
		<path style="fill:#BC2321;" d="M201.053,159.095c-0.814,0-1.582-0.502-1.893-1.319c-0.926-2.447-3.037-9.955-4.172-13.987
			c-0.559-1.982-0.596-4.842,0.964-6.941c0.821-1.104,2.399-2.421,5.278-2.421h10.022c1.119,0,2.026,0.922,2.026,2.06
			c0,1.138-0.907,2.059-2.026,2.059H201.23c-1.463,0-1.899,0.589-2.043,0.783c-0.527,0.712-0.653,2.078-0.304,3.322
			c1.039,3.696,3.197,11.37,4.06,13.648c0.402,1.062-0.121,2.252-1.164,2.66C201.541,159.052,201.295,159.095,201.053,159.095z"/>
	</g>
	<path style="fill:#2A2B2B;" d="M228.593,219.418c-5.899,0-10.683,4.955-10.683,11.066s4.781,11.065,10.683,11.065
		c5.898,0,10.681-4.954,10.681-11.065C239.271,224.373,234.491,219.418,228.593,219.418z"/>
	<g transform="rotate(0,228.592,230.483)" style="opacity:0.4;">
		
			<animateTransform  id="rotateRight" fill="freeze" restart="always" calcMode="linear" additive="replace" accumulate="none" repeatDur="indefinite" dur="1s" begin="0s" attributeType="XML" attributeName="transform" to="360,228.592,230.483" from="0,228.592,230.483" type="rotate">
			</animateTransform>
		<g>
			<g>
				<path style="fill:#CBE0E0;" d="M226.973,238.836c-0.068,0-0.138-0.008-0.207-0.023c-0.168-0.041-0.338-0.086-0.502-0.137
					c-0.484-0.148-0.765-0.677-0.621-1.181c0.144-0.503,0.652-0.792,1.14-0.644c0.129,0.041,0.262,0.075,0.396,0.106
					c0.494,0.119,0.803,0.629,0.688,1.14C227.768,238.538,227.391,238.836,226.973,238.836z M230.643,238.725
					c-0.397,0-0.765-0.271-0.879-0.685c-0.144-0.504,0.137-1.032,0.621-1.179c0.133-0.041,0.262-0.084,0.387-0.131
					c0.478-0.181,1.004,0.076,1.176,0.569c0.172,0.494-0.075,1.039-0.551,1.218c-0.164,0.061-0.33,0.115-0.496,0.168
					C230.814,238.711,230.727,238.725,230.643,238.725z M223.375,236.753c-0.236,0-0.475-0.096-0.654-0.286
					c-0.121-0.129-0.238-0.262-0.353-0.396c-0.331-0.397-0.291-0.997,0.093-1.341c0.385-0.345,0.962-0.301,1.293,0.096
					c0.09,0.105,0.182,0.21,0.275,0.313c0.354,0.373,0.351,0.976-0.012,1.342C223.84,236.661,223.607,236.753,223.375,236.753z
					 M234.111,236.422c-0.213,0-0.428-0.076-0.603-0.232c-0.382-0.347-0.421-0.944-0.087-1.342c0.088-0.104,0.174-0.214,0.256-0.324
					c0.309-0.418,0.885-0.494,1.287-0.176c0.4,0.318,0.477,0.916,0.169,1.332c-0.106,0.144-0.217,0.282-0.331,0.418
					C234.623,236.313,234.368,236.422,234.111,236.422z M221.434,232.986c-0.426,0-0.808-0.309-0.896-0.756
					c-0.035-0.178-0.064-0.354-0.09-0.533c-0.071-0.521,0.277-1.002,0.777-1.075c0.496-0.067,0.967,0.287,1.039,0.808
					c0.02,0.139,0.041,0.277,0.068,0.413c0.104,0.517-0.215,1.019-0.712,1.124C221.559,232.98,221.495,232.986,221.434,232.986z
					 M235.838,232.547c-0.045,0-0.091-0.004-0.136-0.011c-0.501-0.076-0.847-0.56-0.772-1.077c0.02-0.139,0.034-0.279,0.045-0.42
					c0.043-0.521,0.484-0.91,0.991-0.867c0.505,0.044,0.88,0.504,0.836,1.025c-0.015,0.182-0.034,0.359-0.059,0.537
					C236.677,232.208,236.285,232.547,235.838,232.547z M221.766,228.732c-0.109,0-0.222-0.02-0.33-0.063
					c-0.473-0.188-0.709-0.736-0.526-1.229c0.063-0.168,0.13-0.334,0.202-0.496c0.211-0.479,0.754-0.688,1.216-0.469
					c0.459,0.217,0.662,0.78,0.45,1.258c-0.055,0.129-0.106,0.258-0.155,0.39C222.48,228.502,222.133,228.732,221.766,228.732z
					 M235.264,228.32c-0.35,0-0.683-0.209-0.837-0.56c-0.055-0.129-0.114-0.254-0.178-0.378c-0.239-0.463-0.067-1.038,0.379-1.283
					c0.446-0.246,1.002-0.07,1.24,0.393c0.081,0.158,0.157,0.32,0.229,0.486c0.209,0.478,0.004,1.039-0.457,1.256
					C235.52,228.292,235.391,228.32,235.264,228.32z M224.264,225.339c-0.281,0-0.559-0.133-0.736-0.384
					c-0.303-0.421-0.217-1.018,0.189-1.328c0.141-0.107,0.285-0.211,0.432-0.311c0.428-0.282,0.994-0.154,1.269,0.285
					c0.274,0.441,0.151,1.03-0.274,1.313c-0.113,0.075-0.225,0.153-0.332,0.235C224.645,225.279,224.452,225.339,224.264,225.339z
					 M232.574,225.084c-0.172,0-0.344-0.05-0.498-0.152c-0.112-0.076-0.229-0.149-0.346-0.218c-0.441-0.256-0.6-0.835-0.353-1.293
					c0.246-0.458,0.806-0.621,1.248-0.364c0.153,0.09,0.304,0.183,0.449,0.28c0.425,0.286,0.545,0.876,0.269,1.313
					C233.169,224.934,232.875,225.084,232.574,225.084z M228.133,223.881c-0.479,0-0.883-0.385-0.914-0.89
					c-0.031-0.523,0.352-0.976,0.856-1.011c0.173-0.01,0.347-0.017,0.522-0.017c0.506,0,0.932,0.427,0.932,0.951
					s-0.396,0.951-0.901,0.951c-0.013,0-0.056-0.001-0.067-0.001c-0.099,0-0.233,0.004-0.367,0.013
					C228.173,223.881,228.152,223.881,228.133,223.881z"/>
			</g>
		</g>
	</g>
	<path style="fill:#CBE0E0;" d="M228.593,178.111c-28.466,0-51.542,23.449-51.542,52.373c0,28.925,23.076,52.371,51.542,52.371
		s51.54-23.446,51.54-52.371C280.133,201.561,257.059,178.111,228.593,178.111z M228.593,271.952
		c-22.538,0-40.811-18.565-40.811-41.468c0-22.9,18.272-41.469,40.811-41.469c22.537,0,40.808,18.567,40.808,41.469
		C269.4,253.387,251.13,271.952,228.593,271.952z"/>
	<path id="right-lun" style="fill:#2A2B2B;" d="M228.593,176.764c-29.198,0-52.87,24.053-52.87,53.721c0,29.672,23.672,53.724,52.87,53.724
		s52.867-24.052,52.867-53.724C281.46,200.814,257.791,176.764,228.593,176.764z M228.593,275.146
		c-24.274,0-43.952-19.998-43.952-44.662c0-24.666,19.678-44.661,43.952-44.661s43.952,19.995,43.952,44.661
		C272.545,255.148,252.867,275.146,228.593,275.146z M231.216,185.035l-2.344-1.373l-2.46,1.152l0.582-2.653l-1.856-1.983
		l2.703-0.267l1.313-2.378l1.089,2.488l2.668,0.514l-2.03,1.805L231.216,185.035z" transform="rotate(0,228.592,230.483)">
		<animateTransform  id="rotateRight" fill="freeze" restart="always" calcMode="linear" additive="replace" accumulate="none" repeatDur="indefinite" dur="1s" begin="0s" attributeType="XML" attributeName="transform" to="360,228.592,230.483" from="0,228.592,230.483" type="rotate">
					</animateTransform>
		</path>
	<ellipse style="fill:#788686;" cx="134.366" cy="240.532" rx="3.063" ry="3.113"/>
	<path style="fill:#BC2321;" d="M201.715,162.359c0.785,0,1.422,0.646,1.422,1.441v2.124c0,0.798-0.637,1.442-1.422,1.442h-88.048
		c-0.784,0-1.419-0.646-1.419-1.442v-2.124c0-0.797,0.636-1.441,1.419-1.441H201.715z"/>
	<path style="fill:#BC2321;" d="M198.563,162.988c0.526-0.59,1.426-0.635,2.006-0.1l1.55,1.426c0.58,0.537,0.624,1.449,0.097,2.039
		l-59.152,66.271c-0.527,0.59-1.425,0.634-2.006,0.1l-1.548-1.427c-0.582-0.536-0.625-1.448-0.098-2.04L198.563,162.988z"/>
	<path style="fill:#BC2321;" d="M136.136,239.632c0.201,0.771-0.25,1.56-1.009,1.765l-2.02,0.545
		c-0.758,0.205-1.536-0.254-1.737-1.024l-26.028-94.902c-0.201-0.77,0.25-1.561,1.008-1.765l2.021-0.544
		c0.758-0.204,1.536,0.255,1.737,1.025L136.136,239.632z"/>
	<path style="fill:#9F1F24;" d="M115.44,159.271c0.322,1.234-0.402,2.502-1.617,2.828l-3.238,0.873
		c-1.215,0.327-2.461-0.408-2.784-1.644l-4.684-17.95c-0.323-1.235,0.401-2.501,1.617-2.829l3.238-0.873
		c1.215-0.327,2.461,0.408,2.783,1.643L115.44,159.271z"/>
	<path style="fill:#BC2321;" d="M230.921,230.098c0.277,0.745-0.093,1.577-0.827,1.86l-1.953,0.75
		c-0.734,0.282-1.555-0.095-1.832-0.841l-26.949-72.514c-0.278-0.746,0.094-1.58,0.826-1.86l1.955-0.75
		c0.733-0.282,1.553,0.094,1.83,0.839L230.921,230.098z"/>
	<path style="fill:#9F1F24;" d="M209.168,169.042c0.443,1.194-0.148,2.529-1.324,2.979l-3.134,1.205
		c-1.176,0.451-2.489-0.151-2.935-1.348l-4.896-14.916c-0.444-1.195,0.147-2.529,1.326-2.982l3.133-1.2
		c1.175-0.452,2.489,0.149,2.935,1.346L209.168,169.042z"/>
	<path style="fill:#0D0D0D;" d="M129.699,144.513c-6.673,0-13.458,5.305-21.578,5.305c-8.121,0-16.755-5.185-17.933-9.571
		c-1.177-4.387,4.317-7.179,8.374-5.051c4.055,2.126,6.934,4.519,13.213,4.519c6.28,0,13.197-0.399,16.018,0.267
		C130.614,140.646,130.614,143.33,129.699,144.513z"/>
	<path style="fill:#CBE0E0;" d="M228.593,225.686c-2.559,0-4.633,2.148-4.633,4.799c0,2.652,2.074,4.801,4.633,4.801
		c2.558,0,4.632-2.146,4.632-4.801C233.225,227.834,231.15,225.686,228.593,225.686z"/>
	<path style="fill:#292E2E;" d="M228.593,228.084c-1.278,0-2.317,1.075-2.317,2.4c0,1.324,1.039,2.398,2.317,2.398
		s2.316-1.074,2.316-2.398C230.909,229.159,229.871,228.084,228.593,228.084z"/>
	<path style="fill:#272B2B;" d="M153.948,213.372c0,0.649-0.519,1.176-1.158,1.176h-18.467c-0.64,0-1.158-0.524-1.158-1.176v-1.5
		c0-0.649,0.519-1.179,1.158-1.179h18.467c0.64,0,1.158,0.527,1.158,1.179V213.372z"/>
	<path style="fill:#272B2B;" d="M138.685,267.786c0,0.651-0.518,1.178-1.158,1.178H119.06c-0.64,0-1.158-0.526-1.158-1.178v-1.5
		c0-0.647,0.519-1.177,1.158-1.177h18.467c0.64,0,1.158,0.527,1.158,1.177V267.786z"/>
	<polygon style="fill:#191B1C;" points="128.613,267.053 126.122,267.053 133.08,241.882 135.57,241.882 	"/>
	<polygon style="fill:#191B1C;" points="136.363,239.07 133.872,239.07 140.829,213.9 143.32,213.9 	"/>
	<path style="fill:#BC2321;" d="M75.049,232.227c-0.423,0.67-1.302,0.865-1.962,0.437l-1.76-1.146
		c-0.66-0.43-0.853-1.324-0.43-1.994l40.007-64.936c0.423-0.671,1.302-0.865,1.962-0.438l1.76,1.146
		c0.661,0.43,0.853,1.322,0.43,1.993L75.049,232.227z"/>
	<g>
		<g>
			<path style="fill:#535C5C;" d="M74.238,222.914c-0.032,0-0.065-0.001-0.097-0.004l-0.577-0.055
				c-0.478-0.043-0.83-0.473-0.786-0.959c0.044-0.483,0.464-0.842,0.944-0.799l0.577,0.055c0.478,0.045,0.83,0.475,0.786,0.959
				C75.044,222.564,74.674,222.906,74.238,222.914z"/>
		</g>
		<g>
			<path style="fill:#535C5C;" d="M134.873,228.534c-0.032,0.001-0.064,0-0.097-0.004l-1.166-0.105
				c-0.225-0.021-0.422-0.128-0.563-0.284c-0.167,0.127-0.379,0.196-0.604,0.176l-1.166-0.107c-0.224-0.021-0.421-0.128-0.563-0.285
				c-0.166,0.129-0.379,0.195-0.604,0.178l-1.167-0.107c-0.225-0.021-0.421-0.128-0.562-0.286c-0.167,0.131-0.379,0.194-0.604,0.178
				l-1.166-0.108c-0.225-0.021-0.422-0.125-0.563-0.282c-0.166,0.128-0.377,0.194-0.603,0.175l-1.166-0.107
				c-0.225-0.021-0.422-0.127-0.563-0.283c-0.167,0.129-0.379,0.195-0.604,0.175l-1.166-0.106c-0.224-0.021-0.421-0.128-0.562-0.283
				c-0.167,0.127-0.38,0.191-0.604,0.175l-1.167-0.108c-0.225-0.021-0.421-0.126-0.562-0.283c-0.167,0.129-0.379,0.194-0.604,0.176
				l-1.166-0.108c-0.225-0.021-0.422-0.126-0.563-0.283c-0.167,0.129-0.378,0.196-0.604,0.177l-1.166-0.108
				c-0.225-0.021-0.421-0.126-0.563-0.283c-0.166,0.128-0.378,0.194-0.603,0.177l-1.166-0.107c-0.225-0.022-0.422-0.129-0.563-0.285
				c-0.167,0.129-0.378,0.195-0.604,0.178l-1.166-0.107c-0.225-0.023-0.421-0.129-0.563-0.287c-0.166,0.132-0.378,0.197-0.604,0.179
				l-1.167-0.108c-0.224-0.021-0.421-0.126-0.562-0.283c-0.166,0.129-0.379,0.193-0.604,0.177l-1.166-0.108
				c-0.225-0.021-0.421-0.128-0.563-0.283c-0.167,0.129-0.378,0.194-0.603,0.176l-1.167-0.108c-0.225-0.021-0.421-0.126-0.562-0.283
				c-0.167,0.128-0.378,0.195-0.604,0.175l-1.166-0.107c-0.225-0.021-0.421-0.126-0.563-0.283c-0.167,0.129-0.38,0.195-0.604,0.176
				l-1.166-0.107c-0.225-0.021-0.421-0.127-0.562-0.284c-0.167,0.129-0.38,0.194-0.604,0.176l-1.166-0.108
				c-0.225-0.021-0.422-0.125-0.563-0.283c-0.167,0.129-0.376,0.197-0.604,0.176l-1.166-0.107c-0.225-0.021-0.421-0.127-0.563-0.283
				c-0.166,0.129-0.377,0.197-0.603,0.178l-1.166-0.108c-0.225-0.021-0.422-0.128-0.563-0.285c-0.167,0.128-0.377,0.197-0.604,0.177
				l-1.166-0.107c-0.225-0.021-0.422-0.128-0.563-0.285c-0.167,0.129-0.379,0.195-0.604,0.178l-1.166-0.107
				c-0.225-0.021-0.421-0.129-0.563-0.284c-0.167,0.129-0.38,0.194-0.604,0.176l-1.166-0.108c-0.224-0.021-0.421-0.125-0.563-0.282
				c-0.166,0.129-0.376,0.192-0.603,0.175l-1.166-0.107c-0.225-0.021-0.422-0.127-0.563-0.283c-0.167,0.129-0.379,0.194-0.604,0.176
				l-1.166-0.108c-0.225-0.021-0.421-0.128-0.563-0.284c-0.167,0.129-0.378,0.195-0.604,0.176l-1.166-0.107
				c-0.225-0.021-0.422-0.126-0.563-0.283c-0.167,0.129-0.38,0.194-0.604,0.176l-1.166-0.107c-0.479-0.044-0.83-0.475-0.787-0.96
				c0.044-0.485,0.464-0.841,0.944-0.8l1.167,0.108c0.224,0.021,0.42,0.128,0.562,0.284c0.166-0.129,0.379-0.195,0.604-0.176
				l1.166,0.107c0.224,0.021,0.421,0.127,0.563,0.284c0.167-0.13,0.378-0.196,0.604-0.177l1.166,0.107
				c0.225,0.021,0.421,0.127,0.563,0.283c0.167-0.127,0.379-0.19,0.603-0.175l1.166,0.108c0.225,0.021,0.422,0.126,0.563,0.283
				c0.167-0.129,0.379-0.192,0.604-0.176l1.166,0.108c0.225,0.021,0.421,0.126,0.563,0.283c0.166-0.13,0.379-0.195,0.604-0.177
				l1.167,0.108c0.224,0.021,0.421,0.126,0.562,0.283c0.167-0.129,0.378-0.195,0.604-0.175l1.166,0.107
				c0.225,0.021,0.422,0.127,0.563,0.283c0.167-0.128,0.38-0.193,0.603-0.176l1.167,0.107c0.225,0.021,0.422,0.127,0.562,0.283
				c0.167-0.128,0.38-0.193,0.604-0.177l1.166,0.108c0.225,0.021,0.422,0.127,0.563,0.285c0.167-0.129,0.38-0.194,0.603-0.178
				l1.167,0.108c0.225,0.022,0.422,0.128,0.562,0.284c0.167-0.131,0.379-0.197,0.604-0.178l1.166,0.108
				c0.225,0.021,0.421,0.126,0.563,0.284c0.167-0.131,0.379-0.196,0.604-0.176l1.166,0.106c0.225,0.021,0.421,0.127,0.563,0.284
				c0.167-0.128,0.38-0.193,0.603-0.175l1.166,0.106c0.225,0.021,0.422,0.127,0.563,0.283c0.167-0.128,0.38-0.191,0.604-0.175
				l1.166,0.108c0.225,0.021,0.421,0.125,0.563,0.283c0.166-0.13,0.378-0.195,0.604-0.177l1.167,0.108
				c0.225,0.021,0.421,0.127,0.562,0.283c0.167-0.129,0.379-0.195,0.604-0.176l1.166,0.108c0.224,0.021,0.421,0.126,0.563,0.282
				c0.167-0.127,0.38-0.194,0.603-0.174l1.167,0.105c0.225,0.021,0.421,0.128,0.563,0.285c0.166-0.128,0.379-0.195,0.603-0.178
				l1.166,0.107c0.225,0.021,0.422,0.128,0.563,0.284c0.167-0.127,0.38-0.194,0.604-0.176l1.166,0.108
				c0.225,0.021,0.421,0.127,0.562,0.284c0.167-0.131,0.379-0.198,0.604-0.178l1.166,0.108c0.225,0.021,0.422,0.127,0.563,0.283
				c0.167-0.129,0.378-0.195,0.604-0.176l1.166,0.108c0.225,0.021,0.421,0.126,0.563,0.282c0.167-0.127,0.379-0.191,0.604-0.174
				l1.166,0.106c0.225,0.021,0.422,0.127,0.563,0.284c0.167-0.129,0.381-0.192,0.604-0.176l1.166,0.107
				c0.225,0.021,0.421,0.127,0.563,0.284c0.166-0.129,0.378-0.195,0.604-0.177l1.167,0.108c0.225,0.021,0.421,0.126,0.562,0.283
				c0.167-0.129,0.38-0.196,0.604-0.176l1.166,0.108c0.225,0.021,0.422,0.127,0.563,0.283c0.167-0.129,0.378-0.195,0.603-0.176
				l1.167,0.105c0.478,0.045,0.83,0.476,0.786,0.961C135.68,228.186,135.31,228.525,134.873,228.534z"/>
		</g>
		<g>
			<path style="fill:#535C5C;" d="M136.616,228.695c-0.032,0-0.065,0-0.098-0.004l-0.577-0.053c-0.478-0.045-0.83-0.474-0.785-0.959
				c0.042-0.484,0.466-0.842,0.944-0.801l0.577,0.055c0.478,0.045,0.83,0.476,0.786,0.959
				C137.422,228.348,137.053,228.688,136.616,228.695z"/>
		</g>
	</g>
	<g>
		<g>
			<path style="fill:#535C5C;" d="M68.76,239.299c-0.031-0.004-0.063-0.011-0.095-0.019l-0.563-0.138
				c-0.466-0.115-0.753-0.593-0.641-1.064c0.113-0.475,0.581-0.768,1.048-0.65l0.563,0.137c0.466,0.115,0.753,0.592,0.64,1.064
				C69.608,239.07,69.193,239.354,68.76,239.299z"/>
		</g>
		<g>
			<path style="fill:#535C5C;" d="M127.953,253.794c-0.032-0.005-0.063-0.009-0.095-0.019l-1.138-0.277
				c-0.22-0.055-0.399-0.188-0.517-0.363c-0.183,0.102-0.403,0.139-0.622,0.084l-1.138-0.279c-0.219-0.054-0.399-0.188-0.516-0.362
				c-0.183,0.103-0.403,0.138-0.623,0.086l-1.138-0.28c-0.219-0.054-0.399-0.188-0.516-0.363c-0.184,0.104-0.403,0.139-0.623,0.088
				l-1.138-0.281c-0.22-0.055-0.399-0.188-0.516-0.362c-0.184,0.103-0.401,0.14-0.623,0.084l-1.138-0.276
				c-0.22-0.056-0.4-0.189-0.517-0.364c-0.183,0.103-0.403,0.14-0.622,0.085l-1.139-0.279c-0.219-0.054-0.399-0.188-0.516-0.361
				c-0.184,0.102-0.404,0.135-0.623,0.084l-1.138-0.279c-0.22-0.055-0.398-0.188-0.516-0.363c-0.184,0.104-0.403,0.135-0.623,0.084
				l-1.138-0.277c-0.219-0.055-0.399-0.188-0.516-0.363c-0.183,0.104-0.402,0.137-0.622,0.084l-1.138-0.278
				c-0.22-0.054-0.4-0.188-0.517-0.363c-0.184,0.104-0.402,0.138-0.622,0.084l-1.139-0.276c-0.219-0.055-0.399-0.188-0.516-0.364
				c-0.184,0.104-0.402,0.138-0.623,0.084l-1.138-0.277c-0.219-0.054-0.398-0.188-0.516-0.364c-0.183,0.104-0.402,0.138-0.623,0.086
				l-1.138-0.278c-0.22-0.054-0.399-0.188-0.516-0.365c-0.183,0.104-0.403,0.138-0.623,0.086l-1.139-0.278
				c-0.22-0.054-0.399-0.188-0.516-0.363c-0.184,0.103-0.402,0.139-0.622,0.085l-1.139-0.279c-0.219-0.054-0.399-0.188-0.516-0.362
				c-0.183,0.104-0.401,0.139-0.623,0.084L94.84,245.7c-0.22-0.054-0.399-0.188-0.516-0.363c-0.183,0.104-0.404,0.138-0.623,0.085
				l-1.138-0.279c-0.22-0.053-0.399-0.188-0.516-0.363c-0.183,0.104-0.404,0.138-0.623,0.086l-1.139-0.278
				c-0.219-0.054-0.399-0.188-0.516-0.364c-0.183,0.104-0.401,0.141-0.622,0.086l-1.139-0.279c-0.219-0.053-0.399-0.188-0.516-0.362
				c-0.183,0.103-0.402,0.139-0.622,0.085l-1.138-0.279c-0.219-0.054-0.399-0.188-0.516-0.363c-0.183,0.104-0.402,0.14-0.623,0.086
				l-1.139-0.279c-0.218-0.055-0.398-0.188-0.515-0.363c-0.184,0.102-0.404,0.139-0.623,0.084l-1.139-0.277
				c-0.219-0.054-0.398-0.188-0.516-0.363c-0.183,0.104-0.404,0.137-0.623,0.084l-1.138-0.277c-0.22-0.054-0.399-0.188-0.516-0.363
				c-0.183,0.103-0.401,0.137-0.622,0.084l-1.139-0.277c-0.219-0.055-0.399-0.188-0.516-0.365c-0.184,0.104-0.403,0.139-0.623,0.086
				l-1.139-0.277c-0.219-0.056-0.398-0.188-0.516-0.365c-0.184,0.104-0.403,0.137-0.623,0.086l-1.138-0.278
				c-0.219-0.054-0.399-0.188-0.516-0.364c-0.183,0.103-0.404,0.137-0.623,0.086l-1.138-0.277c-0.467-0.115-0.753-0.594-0.641-1.065
				c0.112-0.476,0.579-0.765,1.048-0.651l1.138,0.278c0.22,0.054,0.399,0.188,0.516,0.364c0.183-0.104,0.403-0.141,0.623-0.086
				l1.138,0.279c0.22,0.054,0.399,0.188,0.516,0.363c0.183-0.104,0.403-0.14,0.623-0.087l1.139,0.28
				c0.219,0.054,0.399,0.188,0.516,0.363c0.184-0.103,0.402-0.135,0.622-0.086l1.139,0.279c0.219,0.055,0.398,0.188,0.517,0.363
				c0.183-0.102,0.402-0.137,0.622-0.085l1.138,0.279c0.22,0.054,0.398,0.188,0.516,0.362c0.183-0.104,0.403-0.139,0.623-0.086
				l1.139,0.279c0.219,0.055,0.398,0.188,0.515,0.362c0.184-0.103,0.402-0.136,0.623-0.084L85,241.479
				c0.219,0.055,0.398,0.188,0.516,0.363c0.183-0.102,0.404-0.136,0.622-0.085l1.139,0.279c0.22,0.054,0.399,0.188,0.516,0.362
				c0.183-0.102,0.404-0.136,0.622-0.084l1.138,0.278c0.219,0.054,0.399,0.188,0.516,0.362c0.183-0.102,0.404-0.135,0.623-0.083
				l1.138,0.278c0.22,0.053,0.399,0.188,0.517,0.363c0.183-0.104,0.401-0.139,0.623-0.085l1.138,0.277
				c0.219,0.054,0.398,0.188,0.516,0.364c0.183-0.104,0.403-0.139,0.623-0.086l1.138,0.278c0.22,0.054,0.399,0.188,0.516,0.365
				c0.184-0.104,0.404-0.137,0.622-0.086l1.139,0.278c0.22,0.054,0.399,0.188,0.517,0.365c0.183-0.104,0.403-0.138,0.622-0.086
				l1.139,0.277c0.219,0.055,0.398,0.188,0.516,0.364c0.183-0.103,0.402-0.138,0.623-0.085l1.138,0.279
				c0.219,0.054,0.399,0.188,0.516,0.362c0.183-0.104,0.402-0.138,0.623-0.085l1.138,0.279c0.22,0.054,0.399,0.188,0.516,0.363
				c0.184-0.104,0.404-0.138,0.622-0.086l1.139,0.278c0.22,0.054,0.399,0.188,0.517,0.364c0.183-0.104,0.403-0.139,0.621-0.086
				l1.139,0.279c0.219,0.054,0.399,0.188,0.517,0.362c0.183-0.102,0.403-0.138,0.622-0.085l1.139,0.279
				c0.219,0.054,0.398,0.188,0.516,0.363c0.184-0.104,0.402-0.14,0.623-0.086l1.138,0.279c0.22,0.055,0.399,0.188,0.516,0.363
				c0.183-0.104,0.401-0.139,0.623-0.085l1.138,0.278c0.219,0.054,0.399,0.188,0.516,0.363c0.183-0.103,0.403-0.137,0.622-0.084
				l1.138,0.277c0.22,0.055,0.4,0.188,0.517,0.364c0.184-0.104,0.405-0.136,0.623-0.085l1.138,0.277
				c0.219,0.055,0.398,0.188,0.515,0.363c0.184-0.104,0.403-0.136,0.623-0.084l1.139,0.278c0.22,0.055,0.399,0.188,0.516,0.364
				c0.183-0.104,0.403-0.139,0.623-0.086l1.138,0.278c0.22,0.054,0.399,0.188,0.517,0.364c0.184-0.104,0.402-0.137,0.622-0.085
				l1.138,0.278c0.466,0.113,0.753,0.592,0.641,1.063C128.801,253.566,128.386,253.85,127.953,253.794z"/>
		</g>
		<g>
			<path style="fill:#535C5C;" d="M129.655,254.211c-0.032-0.004-0.064-0.01-0.096-0.018l-0.563-0.141
				c-0.466-0.113-0.753-0.59-0.641-1.063s0.582-0.763,1.048-0.65l0.563,0.138c0.466,0.114,0.753,0.592,0.641,1.064
				C130.502,253.982,130.088,254.268,129.655,254.211z"/>
		</g>
	</g>
	<path style="fill:#2A2B2B;" d="M73.004,219.418c-5.899,0-10.682,4.955-10.682,11.066s4.783,11.065,10.682,11.065
		s10.681-4.954,10.681-11.065S78.903,219.418,73.004,219.418z"/>
	<g transform="rotate(0,73.004,230.483)" style="opacity:0.4;">
		
			<animateTransform  id="rotateLeft" fill="freeze" restart="always" calcMode="linear" additive="replace" accumulate="none" repeatDur="indefinite" dur="1s" begin="0s" attributeType="XML" attributeName="transform" to="360,73.004,230.483" from="0,73.004,230.483" type="rotate">
			</animateTransform>
		<g>
			<g>
				<path style="fill:#CBE0E0;" d="M71.384,238.836c-0.068,0-0.137-0.008-0.207-0.023c-0.169-0.041-0.337-0.086-0.502-0.137
					c-0.486-0.148-0.764-0.677-0.621-1.181c0.143-0.503,0.652-0.792,1.139-0.644c0.13,0.041,0.262,0.075,0.396,0.106
					c0.493,0.119,0.801,0.629,0.688,1.14C72.18,238.538,71.802,238.836,71.384,238.836z M75.054,238.725
					c-0.397,0-0.763-0.271-0.88-0.685c-0.142-0.504,0.137-1.032,0.624-1.179c0.131-0.041,0.26-0.084,0.387-0.131
					c0.477-0.181,1.002,0.076,1.174,0.569c0.172,0.494-0.075,1.039-0.55,1.218c-0.164,0.061-0.329,0.115-0.497,0.168
					C75.226,238.711,75.139,238.725,75.054,238.725z M67.788,236.753c-0.238,0-0.476-0.096-0.655-0.286
					c-0.122-0.129-0.239-0.262-0.353-0.396c-0.331-0.397-0.29-0.997,0.093-1.341c0.384-0.345,0.961-0.301,1.293,0.096
					c0.089,0.105,0.181,0.21,0.276,0.313c0.355,0.373,0.349,0.976-0.013,1.342C68.251,236.661,68.019,236.753,67.788,236.753z
					 M78.524,236.422c-0.214,0-0.429-0.076-0.603-0.232c-0.382-0.347-0.42-0.944-0.088-1.342c0.089-0.104,0.175-0.214,0.258-0.324
					c0.308-0.418,0.884-0.494,1.286-0.176c0.401,0.318,0.477,0.916,0.169,1.332c-0.107,0.144-0.217,0.282-0.331,0.418
					C79.034,236.313,78.78,236.422,78.524,236.422z M65.845,232.986c-0.425,0-0.807-0.309-0.897-0.756
					c-0.036-0.178-0.064-0.354-0.089-0.533c-0.072-0.521,0.277-1.002,0.778-1.075c0.496-0.067,0.966,0.287,1.037,0.808
					c0.019,0.139,0.042,0.277,0.07,0.413c0.103,0.517-0.215,1.019-0.711,1.124C65.97,232.98,65.907,232.986,65.845,232.986z
					 M80.249,232.547c-0.044,0-0.089-0.004-0.135-0.011c-0.501-0.076-0.847-0.56-0.773-1.077c0.02-0.139,0.035-0.279,0.046-0.42
					c0.043-0.521,0.484-0.91,0.991-0.867c0.504,0.044,0.879,0.504,0.837,1.025c-0.014,0.182-0.034,0.359-0.06,0.537
					C81.088,232.208,80.696,232.547,80.249,232.547z M66.177,228.732c-0.109,0-0.221-0.02-0.329-0.063
					c-0.473-0.188-0.709-0.736-0.527-1.229c0.062-0.168,0.129-0.334,0.201-0.496c0.21-0.479,0.754-0.688,1.215-0.469
					c0.46,0.217,0.664,0.78,0.453,1.258c-0.057,0.129-0.109,0.258-0.158,0.39C66.892,228.502,66.545,228.732,66.177,228.732z
					 M79.676,228.32c-0.35,0-0.683-0.209-0.836-0.56c-0.056-0.129-0.116-0.254-0.18-0.378c-0.237-0.463-0.068-1.038,0.38-1.283
					c0.447-0.246,1.002-0.07,1.24,0.393c0.082,0.158,0.159,0.32,0.231,0.486c0.208,0.478,0.003,1.039-0.458,1.256
					C79.931,228.292,79.802,228.32,79.676,228.32z M68.675,225.339c-0.281,0-0.558-0.133-0.737-0.384
					c-0.302-0.421-0.216-1.018,0.191-1.328c0.14-0.107,0.285-0.211,0.432-0.311c0.425-0.282,0.994-0.154,1.267,0.285
					c0.274,0.441,0.151,1.03-0.275,1.313c-0.113,0.075-0.224,0.153-0.332,0.235C69.057,225.279,68.864,225.339,68.675,225.339z
					 M76.987,225.084c-0.171,0-0.345-0.05-0.499-0.152c-0.113-0.076-0.227-0.149-0.345-0.218c-0.442-0.256-0.6-0.835-0.352-1.293
					c0.247-0.458,0.805-0.621,1.248-0.364c0.153,0.09,0.302,0.183,0.449,0.28c0.424,0.286,0.544,0.876,0.269,1.313
					C77.581,224.934,77.287,225.084,76.987,225.084z M72.545,223.881c-0.48,0-0.883-0.385-0.915-0.89
					c-0.033-0.523,0.351-0.976,0.857-1.011c0.172-0.01,0.346-0.017,0.521-0.017c0.506,0,0.933,0.427,0.933,0.951
					s-0.395,0.951-0.901,0.951c-0.013,0-0.056-0.001-0.069-0.001c-0.098,0-0.233,0.004-0.367,0.013
					C72.584,223.881,72.564,223.881,72.545,223.881z"/>
			</g>
		</g>
	</g>
	<path style="fill:#BC2321;" d="M71.366,233.387c-0.774-0.127-1.301-0.867-1.176-1.654l0.333-2.096
		c0.125-0.787,0.854-1.322,1.628-1.195l62.816,9.67c0.774,0.127,1.301,0.867,1.176,1.654l-0.334,2.096
		c-0.125,0.789-0.854,1.322-1.629,1.195L71.366,233.387z"/>
	<path style="fill:#CBE0E0;" d="M73.004,225.686c-2.559,0-4.633,2.148-4.633,4.799c0,2.652,2.074,4.801,4.633,4.801
		s4.633-2.146,4.633-4.801C77.637,227.834,75.563,225.686,73.004,225.686z"/>
	<path style="fill:#292E2E;" d="M73.004,228.084c-1.279,0-2.316,1.075-2.316,2.4c0,1.324,1.037,2.398,2.316,2.398
		c1.28,0,2.316-1.074,2.316-2.398C75.32,229.159,74.284,228.084,73.004,228.084z"/>
	<g>
		<polygon style="fill:#CBE0E0;" points="145.23,235.471 143.48,232.718 135.48,237.973 135.48,228.293 132.256,228.293 
			132.256,237.973 124.257,232.718 122.507,235.471 130.899,240.98 122.507,246.491 124.257,249.244 132.256,243.99 
			132.256,253.669 135.48,253.669 135.48,243.99 143.48,249.244 145.23,246.491 136.839,240.98 		"/>
		<path id="mid" style="fill:#4D5757;" d="M148.575,237.102c-0.284-0.354-0.636-0.793-0.71-1.025c-0.085-0.268-0.057-0.833-0.032-1.334
			c0.054-1.102,0.123-2.475-0.706-3.633c-0.835-1.166-2.147-1.521-3.201-1.81c-0.471-0.129-1.005-0.274-1.219-0.433
			c-0.205-0.151-0.515-0.639-0.763-1.028c-0.596-0.937-1.338-2.104-2.704-2.555c-0.345-0.112-0.713-0.17-1.094-0.17
			c-0.912,0-1.75,0.325-2.488,0.61c-0.469,0.182-1,0.389-1.293,0.389c-0.291,0-0.823-0.207-1.292-0.389
			c-0.739-0.285-1.576-0.61-2.488-0.61c-0.381,0-0.75,0.058-1.095,0.17c-1.365,0.45-2.107,1.618-2.703,2.555
			c-0.249,0.392-0.557,0.877-0.763,1.028c-0.214,0.158-0.748,0.304-1.219,0.433c-1.054,0.287-2.365,0.644-3.201,1.81
			c-0.829,1.158-0.761,2.529-0.706,3.633c0.025,0.501,0.053,1.066-0.032,1.334c-0.075,0.232-0.427,0.672-0.71,1.025
			c-0.697,0.869-1.565,1.953-1.565,3.432s0.868,2.563,1.565,3.433c0.283,0.353,0.635,0.793,0.709,1.025
			c0.085,0.267,0.057,0.833,0.032,1.334c-0.055,1.103-0.123,2.474,0.706,3.632c0.835,1.167,2.147,1.523,3.201,1.811
			c0.471,0.129,1.005,0.273,1.218,0.433c0.205,0.151,0.515,0.638,0.763,1.028c0.596,0.936,1.338,2.104,2.704,2.555
			c0.344,0.111,0.712,0.17,1.094,0.17c0.912,0,1.75-0.325,2.488-0.611c0.469-0.182,1.001-0.388,1.292-0.388
			c0.292,0,0.824,0.206,1.293,0.388c0.739,0.286,1.576,0.611,2.488,0.611c0.381,0,0.749-0.059,1.094-0.17
			c1.365-0.451,2.107-1.617,2.704-2.555c0.249-0.392,0.557-0.877,0.763-1.028c0.214-0.158,0.748-0.304,1.219-0.433
			c1.053-0.287,2.364-0.644,3.2-1.811c0.829-1.158,0.76-2.529,0.706-3.632c-0.025-0.501-0.054-1.067,0.032-1.334
			c0.074-0.232,0.426-0.673,0.709-1.025c0.697-0.87,1.565-1.954,1.565-3.433C150.14,239.055,149.272,237.971,148.575,237.102z
			 M134.366,251.061c-5.721,0-10.358-4.715-10.358-10.527c0-5.813,4.638-10.526,10.358-10.526c5.721,0,10.359,4.714,10.359,10.526
			S140.087,251.061,134.366,251.061z" transform="rotate(0,134.366,240.532)">
		<animateTransform  id="rotateLeft" fill="freeze" restart="always" calcMode="linear" additive="replace" accumulate="none" repeatDur="indefinite" dur="1s" begin="0s" attributeType="XML" attributeName="transform" to="360,134.366,240.532" from="0,134.366,240.532" type="rotate">
					</animateTransform>
			</path>
		<ellipse style="fill:#4B5454;" cx="134.366" cy="240.532" rx="6.723" ry="6.833"/>
		<ellipse style="fill:#5C6968;" cx="134.366" cy="240.532" rx="4.386" ry="4.458"/>
		<ellipse style="fill:#343B3B;" cx="134.366" cy="240.532" rx="1.982" ry="2.014"/>
	</g>
	<polygon style="fill:#F7CBAC;" points="180.844,50.14 170.018,54.121 172.529,68.268 187.883,60.254 	"/>
	<path style="fill:#E0AF8D;" d="M213.852,122.052c-0.875,0.105-9.74-0.986-10.879-1.046c-1.141-0.06-30.742-3.567-34.695-3.313
		c0,0,3.072-27.146,2.707-35.525l-16.478,0.508c0,0,0.392,27.978,1.481,34.423c1.094,6.445,1.951,7.73,5.771,8.678
		c3.823,0.947,40.971,2.138,40.971,2.138s0.813,4.894,3.934,5.513c3.118,0.619,6.066,0.458,6.066,0.458s4.141,1.028,5.047-1.316
		C218.684,130.226,214.727,121.946,213.852,122.052z"/>
	<path style="fill:#141413;" d="M154.104,88.802l18.023-2.437c0,0,3.439-25.592-9.787-23.597
		C149.114,64.764,154.104,88.802,154.104,88.802z"/>
	<polygon style="fill:#F7CBAC;" points="132.597,196.65 136.839,189.245 147.872,191.684 143.32,198.382 	"/>
	<polygon style="fill:#9D978F;" points="131.064,198.406 133.165,193.725 145.23,196.609 143.557,199.844 135.206,202.248 	"/>
	<g>
		<path style="fill:#5C2F16;" d="M129.002,209.201h36.479c0,0-0.16-4.965-2.08-6.299c-1.918-1.336-15.675-4.725-17.593-5.06
			c-1.919-0.333-5.482,2.841-9.458,2.841s-4.765-2.978-5.895-4.01C129.358,195.674,127.163,205.591,129.002,209.201z"/>
		<rect x="129.002" y="209.201" style="fill:#B3805E;" width="36.479" height="1.492"/>
	</g>
	<path style="fill:#175F92;" d="M132.384,190.707l15.669,5.37c0,0,36.444-33.907,41.372-39.429
		c4.929-5.521,5.209-11.082,0.03-12.958c-5.184-1.879-54.185-21.522-56.964-21.779c-2.78-0.257-40.706,5.392-40.706,5.392
		s0.425,11.572,7.202,14.838c21.751,10.487,65.449,14.507,65.449,14.507L132.384,190.707z"/>
	<path style="fill:#232424;" d="M133.84,122.25c0,0-21.066,7.88-41.732,7.671c-7.466-0.077-12.082-5.733-12.082-5.733
		c0.176-2.143,12.352-37.162,48.185-57.4c11.148-6.296,25.934-11.516,41.63-13.417c0,0,5.146,20.525,0,28.658
		C164.695,90.16,154.611,86.22,133.84,122.25z"/>
	<path style="fill:#303030;" d="M167.663,53.37l2.755-0.598c0,0,2.111,7.456,2.756,15.289l-1.047,1.933L167.663,53.37z"/>
	<path style="fill:#F7CBAC;" d="M181.854,56.305c0,0,4.776,5.738,8.107,7.65c3.33,1.912,13.754,5.737,14.477,4.854
		c0.726-0.882,4.345-9.415,5.068-13.976c0,0,4.053,0.883,4.633,1.03c0,0-0.725-9.563-1.593-14.564c0,0,1.593-7.944-0.726-13.093
		c-2.314-5.149-24.276-12.357-32.334-3.383C171.43,33.797,181.854,56.305,181.854,56.305z"/>
	<path style="fill:#602815;" d="M192.605,50.624c0,0-1.822-6.289,0.392-9.198c2.212-2.91,6.636-3.968,6.767-9.39
		c0.131-5.421,11.121,1.616,13.239,1.337c2.117-0.279,7.254-10.594,0-16.016c0,0,1.716,2.645,1.136,5.951
		c0,0,0.332-5.819-7.998-9.257c0,0,2.084,2.446,2.342,6.513c0,0-3.254-6.513-11.191-6.513c0,0,2.863,1.322,4.035,3.306
		c0,0-5.727-3.306-18.87,0.925c-13.146,4.232-6.845,20.63-6.024,23.804c0.817,3.174,0.689,7.052-1.783,7.581
		c0,0,4.477,3.216,5.908,0.967c1.43-2.248,2.551-7.093,2.551-7.093s3.904-0.661,4.293-0.132c0.392,0.529,0.132,7.214,0.132,7.214
		L192.605,50.624L192.605,50.624z"/>
	<path style="fill:#F7CBAC;" d="M187.966,39.174c1.112,2.447,0.412,5.183-1.563,6.108c-1.977,0.927-4.479-0.306-5.588-2.753
		c-1.112-2.447-0.414-5.183,1.563-6.109C184.352,35.494,186.854,36.727,187.966,39.174z"/>
	<g>
		<ellipse style="fill:#1B1B1A;" cx="205.926" cy="43.838" rx="1.85" ry="1.879"/>
		<ellipse style="fill:#FFFFFF;" cx="205.925" cy="43.35" rx="0.64" ry="0.649"/>
	</g>
	<path style="fill:#602815;" d="M208.95,39.46c0,0.437-0.349,0.792-0.778,0.792h-5.354c-0.432,0-0.778-0.354-0.778-0.792l0,0
		c0-0.438,0.349-0.792,0.778-0.792h5.354C208.604,38.668,208.95,39.022,208.95,39.46L208.95,39.46z"/>
	<path style="fill:#FFFFFF;" d="M202.04,56.918c0,0,2.175,1.446,6.495,2.184c0,0-0.383,1.294-0.727,2.28
		C207.811,61.382,204.232,60.377,202.04,56.918z"/>
	<path style="fill:#946225;" d="M91.663,111.215l6.012,1.813c15.889-47.215,57.755-56.96,57.755-56.96
		c4.776-1.104,8.911-1.892,8.911-1.892C135.196,56.021,104.28,68.341,91.663,111.215z"/>
	<path style="fill:#946225;" d="M132.586,122.676c0,0,7.981-7.324,14.515-20.27c2.659-3.433,4.625-5.281,4.625-5.281l3.289-2.86
		c0,0-4.219,16.835-15.561,30.669L132.586,122.676z"/>
	<g>
		<g>
			<g>
				<polygon style="fill:#7F5323;" points="98.278,112.862 91.767,110.955 89.683,118.305 96.195,120.211 				"/>
				<polygon style="fill:#7F5323;" points="138.885,124.753 132.373,122.847 130.289,130.195 136.8,132.102 				"/>
			</g>
			<path style="fill:#946225;" d="M128.681,160.729c-0.14,0.494-0.648,0.779-1.134,0.639L82.19,148.084
				c-0.486-0.143-0.767-0.658-0.627-1.153l8.667-30.557c0.14-0.494,0.648-0.779,1.135-0.638l45.356,13.282
				c0.486,0.143,0.767,0.66,0.627,1.153L128.681,160.729z"/>
			<path style="fill:#A56E23;" d="M129.945,150.212c-0.42,1.483-1.945,2.337-3.404,1.911l-38.658-11.32
				c-1.459-0.428-2.301-1.976-1.88-3.458l5.98-21.087c0.421-1.482,1.945-2.338,3.404-1.911l38.658,11.32
				c1.459,0.427,2.301,1.976,1.88,3.458L129.945,150.212z"/>
			<path style="fill:#CAB134;" d="M112.644,149.596c-0.14,0.494-0.647,0.779-1.134,0.636l-9.911-2.902
				c-0.486-0.143-0.767-0.659-0.627-1.153l1.033-3.641c0.141-0.494,0.648-0.779,1.135-0.638l9.911,2.903
				c0.487,0.143,0.767,0.658,0.627,1.153L112.644,149.596z"/>
			<path style="fill:#A79022;" d="M111.45,148.201c-0.07,0.248-0.324,0.39-0.567,0.319l-7.855-2.301
				c-0.243-0.07-0.383-0.329-0.313-0.576l0.479-1.688c0.07-0.248,0.324-0.391,0.567-0.319l7.855,2.3
				c0.243,0.072,0.384,0.331,0.313,0.577L111.45,148.201z"/>
		</g>
		<path style="fill:#6B471F;" d="M99.042,113.756c-0.07,0.248-0.324,0.39-0.567,0.319l-7.509-2.199
			c-0.243-0.072-0.383-0.329-0.314-0.577l0.336-1.185c0.07-0.248,0.324-0.39,0.567-0.319l7.509,2.199
			c0.244,0.072,0.383,0.329,0.314,0.577L99.042,113.756z"/>
		<path style="fill:#6B471F;" d="M139.648,125.648c-0.07,0.246-0.324,0.389-0.566,0.317l-7.51-2.199
			c-0.243-0.072-0.384-0.329-0.313-0.577l0.336-1.185c0.07-0.248,0.324-0.39,0.567-0.319l7.509,2.2
			c0.243,0.07,0.383,0.329,0.313,0.575L139.648,125.648z"/>
	</g>
	<path style="fill:#F7CBAC;" d="M150.869,84.484c0,0,1.867,30.459,3.337,37.418c1.466,6.96,2.42,8.312,6.425,9.126
		c4.004,0.814,42.506,0,42.506,0s1.098,5.286,4.357,5.782c3.261,0.497,6.302,0.154,6.302,0.154s4.339,0.884,5.153-1.721
		s-3.711-11.401-4.612-11.235c-0.897,0.166-10.13-0.52-11.313-0.52c-1.183,0-31.998-2.141-36.071-1.638c0,0,1.758-29.75,0.94-38.858
		L150.869,84.484z"/>
	<ellipse style="fill:#2A2B2B;" cx="210.896" cy="135.939" rx="4.832" ry="4.911"/>
	<ellipse style="fill:#CBE0E0;" cx="210.895" cy="135.939" rx="2.506" ry="2.546"/>
	<path style="fill:#303030;" d="M149.514,89.908l19.429-2.211c0,0,5.394-25.192-7.973-24.876
		C147.602,63.136,149.514,89.908,149.514,89.908z"/>
	<line style="fill:none;" x1="45.613" y1="199.747" x2="45.612" y2="199.746"/>
	<line style="fill:none;" x1="72.774" y1="230.4" x2="72.104" y2="229.658"/>
</g>
</svg>
