<?xml version="1.0" encoding="iso-8859-1"?>
<!-- Generator: Adobe Illustrator 16.0.0, SVG Export Plug-In . SVG Version: 6.00 Build 0)  -->
<!DOCTYPE svg PUBLIC "-//W3C//DTD SVG 1.1//EN" "http://www.w3.org/Graphics/SVG/1.1/DTD/svg11.dtd">
<svg version="1.1" id="Capa_1" xmlns="http://www.w3.org/2000/svg" xmlns:xlink="http://www.w3.org/1999/xlink" x="0px" y="0px"
	 width="300px" height="300px" viewBox="0 0 300 300" style="enable-background:new 0 0 300 300;" xml:space="preserve">
<path id="c1" d="M149.998,19.659C78.126,19.659,19.665,78.127,19.665,150c0,71.865,58.461,130.341,130.333,130.341
	c4.441,0,8.034-3.602,8.034-8.025c0-4.443-3.593-8.043-8.034-8.043c-63.008,0-114.253-51.262-114.253-114.265
	C35.745,87,86.99,35.74,149.998,35.74c63.012,0,114.257,51.261,114.257,114.269c0,26.332-14.012,52.437-34.069,63.486
	c-7.278,4.006-15.181,5.986-23.611,6.063c5.064-3.008,9.443-7.074,12.701-12.219c0.64-0.967,1.474-1.793,1.895-2.867
	c2.618-6.297,2.844-13.436,4.434-20.074c1.934-8.51-37.17-25.076-40.567-14.479c-1.231,3.928-3.117,16.332-5.58,19.605
	c-2.205,2.914-7.604,1.543-10.987-1.34c-8.914-7.592-18.874-18.766-27.604-27.588h0.016c-0.223-0.232-0.495-0.496-0.732-0.73
	c-0.25-0.234-0.495-0.5-0.745-0.732l0,0c-8.825-8.721-19.996-18.661-27.586-27.598c-2.871-3.383-4.258-8.779-1.34-10.98
	c3.272-2.474,15.69-4.332,19.614-5.57c10.582-3.391-5.985-42.521-14.491-40.569c-6.639,1.56-13.782,1.797-20.078,4.407
	c-1.068,0.443-1.897,1.278-2.864,1.913c-22.334,14.167-25.217,48.541-3.413,74.144c8.303,9.805,16.973,19.279,25.892,28.537
	l-0.047,0.031c0.245,0.248,0.502,0.482,0.76,0.717c0.237,0.248,0.467,0.498,0.701,0.764l0.047-0.047
	c9.258,8.914,20.229,22.055,38.056,33.945c37.529,25.061,66.339,18.063,83.296,8.758c29.284-16.131,42.385-50.574,42.385-77.552
	C280.331,78.127,221.861,19.659,149.998,19.659z" fill="transparent" stroke-width="5" stroke="green" stroke-opacity="0.5"/>
<circle style="fill:green;" cx="0" cy="0" r="10" >
	<animateMotion dur="8s" begin="0s" fill="freeze" repeatDur="indefinite">
		<mpath xlink:href="#c1"></mpath>
	</animateMotion>
</circle>
</svg>
