<?xml version="1.0" encoding="iso-8859-1"?>
<!-- Generator: Adobe Illustrator 16.0.0, SVG Export Plug-In . SVG Version: 6.00 Build 0)  -->
<!DOCTYPE svg PUBLIC "-//W3C//DTD SVG 1.1//EN" "http://www.w3.org/Graphics/SVG/1.1/DTD/svg11.dtd">
<svg version="1.1" id="&#x56FE;&#x5C42;_1" xmlns="http://www.w3.org/2000/svg" xmlns:xlink="http://www.w3.org/1999/xlink" x="0px"
	 y="0px" width="50px" height="50px" viewBox="0 0 50 50" style="enable-background:new 0 0 50 50;" xml:space="preserve">

<g stroke-dasharray="140" stroke="white">
	<animate id="c1" attributeName="stroke-dashoffset" values="140;0;-140" begin="0s" dur="5s" fill="freeze" repeatDur="indefinite"></animate>
	<path style="fill:#C7CAC7;" d="M24.736,22.819c-0.333,0.097-0.525,0.446-0.429,0.781c0.017,0.058,1.699,6.042,1.235,19.337
		c-0.012,0.348,0.26,0.641,0.609,0.65c0.007,0.001,0.014,0.001,0.021,0.001c0.34,0,0.617-0.268,0.629-0.608
		c0.472-13.492-1.211-19.483-1.283-19.731C25.422,22.914,25.074,22.725,24.736,22.819z"/>
	<path style="fill:#C7CAC7;" d="M40.583,16.795c-2.669-6.307-8.818-10.384-15.67-10.384c-2.259,0-4.464,0.442-6.55,1.312
		c-1.155,0.483-2.248,1.056-3.247,1.705c-0.291,0.19-0.374,0.58-0.185,0.872c0.19,0.292,0.581,0.375,0.872,0.185
		c0.935-0.606,1.958-1.145,3.045-1.598c1.932-0.807,3.973-1.215,6.065-1.215c6.341,0,12.038,3.774,14.508,9.615
		c1.027,2.429,1.584,6.9,1.821,9.351c0.032,0.325,0.307,0.567,0.627,0.567c0.021,0,0.041-0.001,0.063-0.003
		c0.347-0.034,0.601-0.341,0.565-0.688C42.197,23.435,41.621,19.249,40.583,16.795z"/>
	<path style="fill:#C7CAC7;" d="M13.249,12.531c0.249-0.245,0.25-0.644,0.007-0.892c-0.245-0.248-0.644-0.25-0.891-0.006
		C8.975,14.972,5.6,21.18,8.762,31.796c0.082,0.274,0.332,0.451,0.604,0.451c0.059,0,0.12-0.01,0.179-0.027
		c0.334-0.1,0.524-0.448,0.424-0.783C7.607,23.508,8.741,16.971,13.249,12.531z"/>
	<path style="fill:#C7CAC7;" d="M25.397,10.201c-1.928-0.075-3.804,0.272-5.578,1.012c-6.18,2.578-9.465,9.373-7.642,15.807
		c0.182,0.644,0.369,1.327,0.468,2.01c0.226,1.543,0.238,4.383,0.238,8.888c0,0.349,0.281,0.629,0.63,0.629
		c0.348,0,0.63-0.28,0.63-0.629c0-4.7-0.012-7.438-0.251-9.071c-0.11-0.759-0.309-1.488-0.503-2.171
		c-1.649-5.819,1.323-11.967,6.915-14.299c1.606-0.67,3.313-0.975,5.048-0.917c4.481,0.161,9.561,4.112,11.093,8.627
		c1.325,3.906,1.336,10.561,1.171,16.554c-0.008,0.348,0.267,0.639,0.614,0.648c0.342-0.008,0.637-0.266,0.648-0.615
		c0.166-6.104,0.148-12.899-1.241-16.994C35.926,14.634,30.435,10.381,25.397,10.201z"/>
	<path style="fill:#C7CAC7;" d="M20.233,16.706c0.285-0.199,0.354-0.592,0.154-0.878c-0.198-0.284-0.593-0.354-0.878-0.154
		c-3.245,2.279-4.656,6.657-3.506,10.899c0.013,0.044,1.292,4.701,1.292,11.976c0,0.348,0.282,0.63,0.63,0.63
		c0.348,0,0.629-0.282,0.629-0.63c0-7.444-1.284-12.119-1.337-12.311C16.208,22.512,17.421,18.681,20.233,16.706z"/>
	<path style="fill:#C7CAC7;" d="M24.913,13.974c-0.684,0-1.366,0.073-2.027,0.22c-0.34,0.075-0.554,0.41-0.479,0.75
		c0.076,0.34,0.408,0.55,0.751,0.48c0.572-0.126,1.163-0.191,1.756-0.191c3.297,0,6.26,1.962,7.544,5
		c1.53,3.617,1.632,9.423,1.276,19.553c-0.011,0.348,0.26,0.641,0.608,0.652c0.008,0.001,0.014,0.001,0.022,0.001
		c0.339,0,0.618-0.27,0.629-0.607c0.368-10.54,0.258-16.232-1.376-20.091C32.135,16.237,28.72,13.974,24.913,13.974z"/>
	<path style="fill:#C7CAC7;" d="M31.157,36.662c0.003-0.349-0.275-0.632-0.624-0.635c-0.001,0-0.006,0-0.006,0
		c-0.346,0-0.628,0.278-0.629,0.626c-0.004,0.474,0.013,1.166,0.029,1.913c0.025,1.088,0.053,2.318,0.025,3.111
		c-0.014,0.349,0.26,0.64,0.608,0.65c0.007,0,0.014,0,0.021,0c0.339,0,0.618-0.268,0.629-0.608c0.029-0.828,0.001-2.079-0.024-3.183
		C31.17,37.805,31.155,37.127,31.157,36.662z"/>
	<path style="fill:#C7CAC7;" d="M24.913,18.384c-0.669,0-1.321,0.131-1.94,0.39c-2.453,1.023-3.645,3.791-2.773,6.435
		c0.476,1.443,0.876,8.996,0.876,16.49c0,0.349,0.282,0.63,0.631,0.63s0.629-0.281,0.629-0.63c0-6.747-0.359-15.12-0.938-16.883
		c-0.665-2.014,0.222-4.112,2.06-4.879c0.465-0.194,0.954-0.292,1.455-0.292c1.521,0,2.888,0.907,3.485,2.313
		c1.177,2.785,1.524,7.825,1.609,11.564c0.01,0.342,0.289,0.616,0.632,0.616c0.004,0,0.01,0,0.014,0
		c0.35-0.009,0.623-0.296,0.616-0.645c-0.088-3.848-0.458-9.059-1.713-12.032C28.765,19.592,26.944,18.384,24.913,18.384z"/>
</g>
<circle style="fill:none;stroke:white;stroke-miterlimit:10;" cx="25" cy="25" r="0">
		<animate attributeName="r" attributetype="XML" begin="0s" dur="1s" values="0;20" repeatDur="indefinite"></animate>
</circle>
</svg>
