<?xml version="1.0" encoding="utf-8"?>
<!-- Generator: Adobe Illustrator 16.0.0, SVG Export Plug-In . SVG Version: 6.00 Build 0)  -->
<!DOCTYPE svg PUBLIC "-//W3C//DTD SVG 1.1//EN" "http://www.w3.org/Graphics/SVG/1.1/DTD/svg11.dtd">
<svg version="1.1" id="图层_1" xmlns="http://www.w3.org/2000/svg" xmlns:xlink="http://www.w3.org/1999/xlink" x="0px" y="0px"
	 width="640px" height="640px" viewBox="0 0 640 640" enable-background="new 0 0 640 640" xml:space="preserve">
<g id="h1">
	<path fill="#8C6239" d="M429.785,385.568c0,0,0,0,0.504,0l23.066,34.599c6.518,10.032,10.033,21.559,10.033,33.09v93.271h4.511
		h15.041h13.538l-13.538-15.545V377.54v-9.528c13.538-41.689,0.997-48.143,0.997-48.143
		C486.951,309.846,379.026,326.321,429.785,385.568z"/>
	<path fill="#8C6239" d="M239.827,355.239c-22.062-2.003-36.606-5.017-45.129-6.517c-3.505,5.52-7.021,10.526-11.029,15.041
		l-1-1.007c5.019,6.013,8.02,13.538,8.02,21.556c0,4.513-1.007,9.024-2.508,13.035l12.531,117.837v0.505l0,0h15.543h13.034
		l-13.539-15.547l-1.006-37.603l9.529-86.747C230.307,369.788,235.314,362.766,239.827,355.239z"/>
	<path fill="#A67C52" d="M575.778,240.414c0-0.503,0-0.503-0.504-1.006c0,0,0-0.502-0.505-0.502
		c-6.013-18.051-4.515-63.181-2.508-72.207c0.505-2.506,1.007-5.015,1.007-7.521c0-12.038-8.027-22.062-19.057-25.074
		c-1-2.003-1.502-2.506-2.51-4.513c2.004-6.516,3.012-13.031,3.012-19.05c-6.014,3.508-12.039,9.529-17.043,16.552
		c-0.506,0-0.506,0-1.009-0.503c-0.501-8.523-2.507-16.551-5.521-22.564c-1.501,2.51-3.011,5.519-4.511,9.026v0.502
		c-1.008,3.013-2.005,6.014-3.013,9.026c0,0.503,0,1.007-0.503,1.007c-2.005-0.503-4.514-0.503-7.021-0.503
		s-4.513-0.503-7.021-0.503c-46.628,0-85.743,30.091-99.787,72.207c-3.504,11.028-12.529,18.555-23.569,22.058
		c-3.011,0.507-5.51,1.504-8.521,2.006c-3.014,1.006-6.52,1.501-9.529,2.506c-28.084,5.522-52.651,7.023-73.203,6.018
		c-1.502,0-2.507,0-4.01,0c-8.521-0.507-16.549-1.01-23.57-2.007c-5.015-0.502-9.025-1.5-11.031-2.002
		c-11.029-2.008-19.551-3.507-24.567-4.514c-11.031-2.509-23.067-2.509-35.096,1.006c-29.082,9.026-50.646,35.097-52.149,65.184
		c-0.502,9.026,0.998,17.549,3.505,25.577c0.505,2.505,0.505,5.015,0.505,8.016c0,29.084-19.049,54.155-45.13,63.181
		c-5.015,1.5-8.52,6.014-9.025,11.028L76.854,515.193h3.505H95.4h14.041L98.41,499.145l16.047-85.237
		c1.007-5.52,5.018-9.528,10.527-10.023c30.088-3.013,55.161-21.56,68.699-47.132c5.51,2.003,12.531,4.01,18.555,4.512
		c50.143,6.516,183.019,21.062,229.143-7.021c0,0,0,0,0.505,0l52.652-17.545l0,0c13.034-2.51,25.07-8.021,35.096-16.049
		c2.003-2.002,5.52,0,5.017,3.013l-10.033,55.655l-9.026,10.031l21.568,19.057V386.85l30.087-72.206
		c1.503-3.516,0.504-7.526-2.005-10.526l-12.036-12.039c-2.005-2.002-5.016-3.515-8.523-3.515h-49.136
		c3.011-10.023,4.513-20.558,4.513-31.084c0-18.558-4.513-36.103-13.033-51.141c-0.998-3.516-2.006-7.023-2.006-11.033
		c0-3.503,0.504-6.516,1.5-9.528v-0.503c0.506-2.002,2.005-3.013,4.01-3.013c2.006,0,3.506,0.998,4.011,3.013v0.503
		c2.508,12.533,11.029,22.564,22.563,26.574c7.021,5.017,24.064,28.578,27.076,38.107c2.508,6.013,8.019,10.525,15.041,10.525
		c8.02,0,15.039-6.013,16.046-14.042C577.289,245.434,577.289,242.924,575.778,240.414z"/>
	<path fill="#379B98" d="M300.498,280.032h33.091c18.553,0,34.098-15.039,34.098-34.095v-24.572
		c-28.083,5.523-52.652,7.023-73.202,6.017c-1.502,0-2.511,0-4.01,0c-8.523-0.503-16.549-1.005-23.57-2.007v20.562
		C266.41,264.491,281.449,280.032,300.498,280.032z"/>
	<path fill="#8C6239" d="M117.486,226.373c30.088-11.029,41.119-2.004,50.145,4.009c-8.522-23.57-43.626-32.596-58.665-27.58
		c-6.518,2.51-10.033,9.528-7.525,16.048C103.948,225.375,110.961,228.388,117.486,226.373z"/>
	<path fill="#FBC132" d="M300.003,289.553h33.089c24.571,0,44.121-20.055,44.121-44.119V218.86
		c-3.011,1.005-6.517,1.499-9.527,2.505v24.572c0,19.056-15.545,34.095-34.098,34.095h-33.091
		c-19.049,0-34.099-15.541-33.594-34.095v-20.562c-5.018-0.503-9.025-1.5-11.031-2.003v22.062
		C255.874,270,275.928,289.553,300.003,289.553z"/>
	<path fill="none" d="M560.74,171.727c0,2.774-2.246,5.016-5.02,5.016s-5.016-2.241-5.016-5.016c0-2.774,2.241-5.015,5.016-5.015
		C558.494,166.712,560.74,168.953,560.74,171.727z"/>
	<path fill="#666666" d="M524.636,379.316l12.542,7.521v21.56l-21.559-19.057L524.636,379.316z"/>
	<path fill="#666666" d="M474.996,499.647v15.546"/>
	<path fill="#666666" d="M98.429,499.157H79.37l-2.508,16.044h32.598L98.429,499.157z"/>
	<path fill="#4D4D4D" d="M215.258,500.154h-16.55l1.501,15.542h28.58L215.258,500.154z"/>
	<path fill="#4D4D4D" d="M482.94,530.973l-19.552,0.025v15.076l33.09,0.44L482.94,530.973z"/>
</g>
<g id="h2">
	<path fill="#A67C52" d="M429.783,385.568c0,0,0,0,0.506,0l23.068,34.599c6.516,10.036,10.03,21.559,10.03,33.09v93.271h4.515
		h15.037h13.539l-13.539-15.547V377.548v-9.528c13.539-41.685,1.006-48.138,1.006-48.138
		C486.951,309.859,379.029,326.327,429.783,385.568z"/>
	<path fill="#8C6239" d="M239.827,355.252c-22.063-2.007-36.607-5.016-45.125-6.52c-3.508,5.521-7.023,10.529-11.033,15.043
		l-1.006-1.01c5.016,6.017,8.016,13.539,8.016,21.559c0,4.513-1.006,9.025-2.506,13.035l12.529,117.836v0.502l0,0h15.547h13.031
		l-13.535-15.542l-1.006-37.604l9.529-86.75C230.309,369.788,235.313,362.766,239.827,355.252z"/>
	<g>
		<path fill="#A67C52" d="M575.779,240.426c0-0.502,0-0.502-0.502-1.005c0,0,0-0.503-0.504-0.503
			c-6.019-18.052-4.517-63.181-2.511-72.207c0.504-2.51,1.006-5.016,1.006-7.526c0-12.034-8.024-22.058-19.057-25.07
			c-0.998-2.007-1.504-2.51-2.51-4.513c2.006-6.52,3.012-13.036,3.012-19.058c-6.012,3.503-12.037,9.529-17.041,16.547
			c-0.504,0-0.504,0-1.01-0.503c-0.504-8.523-2.51-16.547-5.521-22.564c-1.5,2.51-3.012,5.523-4.514,9.026v0.503
			c-1.008,3.013-2.006,6.017-3.012,9.026c0,0.503,0,1.01-0.502,1.01c-2.004-0.507-4.515-0.507-7.023-0.507
			c-2.506,0-4.508-0.503-7.02-0.503c-46.629,0-85.744,30.09-99.781,72.207c-3.508,11.029-12.533,18.555-23.576,22.062
			c-3.008,0.503-5.508,1.5-8.521,2.003c-3.011,1.006-6.517,1.5-9.529,2.51c-28.074,5.518-52.65,7.019-73.203,6.013
			c-1.5,0-2.506,0-4.006,0c-8.523-0.503-16.551-1.006-23.574-2.008c-5.012-0.502-9.027-1.5-11.029-2.002
			c-11.029-2.003-19.551-3.507-24.568-4.513c-11.033-2.51-23.066-2.51-35.094,1.006c-29.078,9.026-50.65,35.098-52.15,65.184
			c-0.504,9.026,0.996,17.549,3.506,25.577c0.504,2.51,0.504,5.016,0.504,8.029c0,29.08-19.049,54.15-45.125,63.176
			c-5.02,1.504-8.523,6.017-9.025,11.032L76.854,515.203h3.504h15.043h14.037l-11.029-16.045l16.049-85.242
			c1.006-5.52,5.016-9.529,10.525-10.023c30.086-3.008,55.162-21.555,68.699-47.132c5.52,2.007,12.535,4.011,18.555,4.513
			c50.146,6.521,183.017,21.064,229.144-7.019c0,0,0,0,0.504,0l52.654-17.548l0,0c13.035-2.51,25.074-8.02,35.098-16.044
			c2.002-2.007,5.519,0,5.013,3.008l-10.031,55.655l-9.027,10.023l21.568,19.058v-21.556l30.09-72.207
			c1.5-3.516,0.504-7.521-2.004-10.526l-12.041-12.039c-2.004-2.003-5.012-3.503-8.521-3.503h-49.139
			c3.012-10.023,4.518-20.562,4.518-31.088c0-18.554-4.518-36.104-13.041-51.142c-0.997-3.516-2.002-7.019-2.002-11.028
			c0-3.516,0.502-6.52,1.5-9.529v-0.507c0.502-2.003,2.007-3.009,4.011-3.009c2.008,0,3.506,0.998,4.01,3.009v0.507
			c2.506,12.529,11.029,22.564,22.563,26.57c7.021,5.02,24.064,28.578,27.072,38.11c2.517,6.013,8.021,10.526,15.043,10.526
			c8.021,0,15.041-6.013,16.052-14.042C577.287,245.434,577.287,242.924,575.779,240.426z"/>
	</g>
	<path fill="#8C6239" d="M489.586,338.344c0.008,0.219,4.953-1.646,4.953-1.646l0,0c13.035-2.51,25.074-8.021,35.098-16.049
		c2.002-2.002,5.519,0,5.013,3.014l-10.031,55.654l-9.027,10.023l21.568,19.057v-21.555l30.09-72.207
		c1.5-3.516,0.504-7.525-2.004-10.526l-12.041-12.039c-2.004-2.003-5.012-3.507-8.521-3.507h-49.139
		C495.537,288.556,488.873,321.575,489.586,338.344z"/>
	<path fill="#379B98" d="M300.497,280.033h33.095c18.556,0,34.092-15.039,34.092-34.096V221.37
		c-28.069,5.519-52.646,7.019-73.199,6.013c-1.502,0-2.512,0-4.012,0c-8.521-0.503-16.551-1.005-23.57-2.002v20.557
		C266.409,264.491,281.448,280.033,300.497,280.033z"/>
	<path fill="#8C6239" d="M117.487,226.385c30.09-11.029,41.119-2.007,50.145,4.01c-8.523-23.562-43.627-32.587-58.668-27.58
		c-6.516,2.506-10.031,9.529-7.52,16.044C103.948,225.379,110.963,228.388,117.487,226.385z"/>
	<path fill="#FBC132" d="M300.002,289.561h33.095c24.563,0,44.119-20.054,44.119-44.119v-26.574c-3.014,1.01-6.516,1.504-9.533,2.51
		v24.567c0,19.058-15.536,34.096-34.092,34.096h-33.095c-19.049,0-34.096-15.542-33.594-34.096v-20.557
		c-5.016-0.507-9.025-1.504-11.031-2.007v22.062C255.872,270.001,275.93,289.561,300.002,289.561z"/>
	<path fill="none" d="M560.736,171.727c0,2.774-2.236,5.016-5.013,5.016c-2.772,0-5.02-2.242-5.02-5.016
		c0-2.766,2.246-5.016,5.02-5.016C558.5,166.711,560.736,168.953,560.736,171.727z"/>
	<path fill="#666666" d="M524.637,379.316l12.541,7.525v21.555l-21.565-19.057L524.637,379.316z"/>
	<path fill="#666666" d="M474.996,499.662v15.542"/>
	<path fill="#666666" d="M98.426,499.158H79.368l-2.504,16.045h32.596L98.426,499.158z"/>
	<path fill="#4D4D4D" d="M215.258,500.156h-16.551l1.5,15.542h28.578L215.258,500.156z"/>
	<path fill="#4D4D4D" d="M482.939,530.975l-19.552,0.029v15.076l33.091,0.438L482.939,530.975z"/>
</g>
</svg>
