<?xml version="1.0" encoding="iso-8859-1"?>
<!-- Generator: Adobe Illustrator 16.0.0, SVG Export Plug-In . SVG Version: 6.00 Build 0)  -->
<!DOCTYPE svg PUBLIC "-//W3C//DTD SVG 1.1//EN" "http://www.w3.org/Graphics/SVG/1.1/DTD/svg11.dtd">
<svg version="1.1" id="&#x56FE;&#x5C42;_1" xmlns="http://www.w3.org/2000/svg" xmlns:xlink="http://www.w3.org/1999/xlink" x="0px"
	 y="0px" width="332px" height="707px" viewBox="0 0 332 707" style="enable-background:new 0 0 332 707;" xml:space="preserve">
	 <path
     style="fill:none;stroke:red;stroke-width:5"
     d="M 247.74243,694.12952 C 244.73411,693.95909 241.74987,693.38569 241.1108,692.85531 C 240.36398,692.23551 236.78048,692.25397 231.08049,692.90699 C 226.20289,693.46579 216.24962,693.92668 208.96212,693.9312 C 196.79681,694.36305 191.12611,692.81134 190.68988,680.0644 C 190.67558,677.09009 189.99267,674.56107 188.77645,672.97844 C 186.96761,670.62464 186.21742,670.48279 171.54869,669.72103 C 163.11358,669.28299 151.93712,668.5459 146.71212,668.08307 C 139.58274,667.45154 136.33874,667.56887 133.71212,668.55327 C 130.16632,669.88216 105.25416,671.9394 92.707759,671.9394 C 85.993819,671.9394 85.787599,671.86068 81.957919,667.83579 C 78.641339,664.35015 77.312339,663.6643 73.132729,663.28139 C 48.249976,662.61531 38.336962,653.42828 26.212119,643.47442 C 24.012119,642.55011 20.974619,641.26676 19.462119,640.62252 C 17.949619,639.97828 16.712119,638.89279 16.712119,638.21031 C 16.712119,637.06282 19.805639,631.49919 25.203139,622.9394 C 36.945709,604.31709 48.797579,582.64303 54.763739,568.88059 C 58.683819,559.83793 62.918279,550.1894 64.173639,547.4394 C 65.428989,544.6894 68.362629,537.9394 70.692829,532.4394 C 73.023029,526.9394 75.780629,520.55159 76.820839,518.24426 C 77.861049,515.93694 78.712119,513.6041 78.712119,513.06018 C 78.712119,512.51626 79.790159,509.45407 81.107759,506.25531 C 82.425359,503.05656 84.497189,497.9644 85.711819,494.9394 C 86.926449,491.9144 88.527389,488.0894 89.269459,486.4394 C 90.011529,484.7894 91.597439,480.5144 92.793719,476.9394 C 93.989989,473.3644 96.001039,468.1894 97.262699,465.4394 C 98.524369,462.6894 100.06541,458.503 100.68723,456.13628 C 101.30905,453.76957 103.81726,445.66957 106.26103,438.13628 C 113.28753,414.92703 116.11575,408.38623 118.63378,381.9394 C 118.80423,380.17984 118.6958,379.53664 116.84319,378.481 C 114.9766,377.88857 114.85736,377.15948 115.20961,368.49265 C 115.50026,361.34127 116.4245,356.47468 119.14109,347.79139 C 124.08358,331.99327 124.74919,325.74747 125.2531,290.4394 C 125.78045,253.48888 126.04665,250.28234 129.51593,239.09181 C 132.0961,230.76918 132.1986,229.56278 132.20523,207.4394 C 132.21065,189.35591 131.79799,181.93781 130.27477,172.73667 C 128.58893,162.55319 128.47947,159.66429 129.43162,150.48348 C 131.18862,133.54219 135.1971,129.08267 154.21212,122.91461 C 163.12903,120.02216 172.41742,115.55897 175.50928,112.68106 C 178.7242,109.68862 188.57692,88.925302 189.77181,82.624643 C 190.70537,77.701989 189.76744,72.450515 187.36979,69.17577 C 186.34374,67.774371 188.41727,56.239653 189.85498,55.351105 C 190.3264,55.059745 190.71212,53.554495 190.71212,52.006104 C 190.71212,47.455667 193.46618,40.947546 197.47433,36.026294 C 204.37427,27.55449 208.19867,23.942693 210.27099,23.941038 C 212.95747,23.938893 214.89738,22.291617 217.64811,17.676744 C 220.1453,13.487252 221.68747,12.454072 228.51612,10.395716 C 233.06311,8.6558035 236.66004,11.247313 240.71561,13.310372 C 244.98746,15.785198 246.7858,17.619224 248.78689,21.541814 C 250.20302,24.317734 252.35693,27.584207 253.57337,28.800642 C 255.97074,34.320241 260.5635,38.970279 260.36031,45.137772 C 260.31969,50.738167 261.15012,53.481218 260.6593,60.157444 C 262.28919,65.597509 262.31847,79.157926 260.71281,84.939394 C 260.02545,87.414394 259.41436,93.643845 259.35484,98.782618 C 258.13717,113.03 257.87841,110.75852 256.33611,114.22608 C 254.01382,116.96327 249.20931,118.55288 248.19908,116.91829 C 247.84949,116.35265 247.93441,115.99015 248.38779,116.11275 C 251.95992,117.07867 257.20802,111.0353 254.84722,108.6745 C 253.88124,107.70852 252.92831,108.27715 250.33337,111.36802 C 248.52422,113.52292 246.06933,115.35783 244.87806,115.44559 C 242.04313,115.65445 242.13659,115.29456 245.69477,112.30055 C 248.66153,109.80418 249.73329,104.61031 247.07084,105.63199 C 245.3946,106.27522 242.42346,100.22974 242.9814,97.311068 C 243.23076,96.006648 243.34846,94.939398 243.24297,94.939398 C 243.13747,94.939398 241.55622,97.076898 239.72908,99.689398 C 237.90193,102.3019 234.56483,106.36935 232.31329,108.72818 C 228.92622,112.27666 228.47786,113.18214 229.71585,113.9739 C 232.53081,115.77422 251.20502,122.66127 256.71212,123.93014 C 261.12246,124.9463 263.13221,126.13999 266.85622,129.9552 C 270.82402,134.02016 271.73419,135.74125 273.10622,141.77362 C 275.15437,150.77862 275.1557,165.9026 273.10936,177.4394 C 272.10035,183.12794 271.73027,188.83101 272.10352,192.9394 C 272.42832,196.5144 272.16538,205.31896 271.51922,212.50509 C 270.48086,224.05292 270.55351,226.78295 272.14466,236.00509 C 274.77678,251.26054 275.30374,279.61124 273.32374,299.4394 C 271.42557,318.44808 271.0791,336.46356 272.54486,339.9394 C 273.12469,341.3144 274.97393,346.79919 276.65428,352.12781 C 279.07411,359.80146 279.50177,362.36246 278.71079,364.44291 C 278.16152,365.88759 277.71212,368.58316 277.71212,370.43307 C 277.71212,372.28298 276.95813,374.55053 276.03659,375.47208 C 274.68723,376.82144 274.58989,377.51404 275.53659,379.02994 C 276.18313,380.06522 276.71212,381.97169 276.71212,383.26654 C 276.71212,384.56139 277.55737,389.85499 278.59045,395.0301 C 279.62353,400.20522 280.99342,407.5894 281.63464,411.4394 C 282.27587,415.2894 283.70891,423.6144 284.81917,429.9394 C 285.92943,436.2644 287.73114,447.9644 288.82297,455.9394 C 291.01264,471.93337 292.55982,480.67596 295.72481,494.9394 C 296.88421,500.1644 298.21514,507.8144 298.68243,511.9394 C 299.14971,516.0644 300.92531,528.15073 302.62818,538.79791 C 304.33106,549.44509 306.13495,561.59509 306.63682,565.79791 C 307.13869,570.00073 309.3898,585.1394 311.63928,599.4394 C 313.88876,613.7394 316.42933,630.3894 317.28499,636.4394 C 318.14065,642.4894 319.51846,651.19524 320.34679,655.78571 C 321.17512,660.37618 321.70868,664.24405 321.53248,664.38098 C 321.35628,664.51791 317.38712,665.17827 312.71212,665.84845 C 292.62029,668.72868 290.18211,669.15268 288.48328,670.06187 C 287.32438,670.6821 286.85212,671.79793 287.14268,673.22941 C 287.3894,674.4449 287.8468,677.71029 288.15913,680.48582 C 288.72114,685.48019 288.69266,685.54466 285.39856,686.73582 C 283.56792,687.39779 281.49243,687.9394 280.78635,687.9394 C 280.08027,687.9394 277.18722,689.13316 274.35735,690.5922 C 268.9112,693.40014 258.73682,694.7524 247.74243,694.12952 z M 253.71212,293.1828 C 253.71212,292.21667 253.2408,289.85417 252.66475,287.9328 C 251.20321,283.05797 248.55061,269.23648 248.15594,264.4394 C 247.97493,262.2394 247.63168,247.6144 247.39315,231.9394 C 246.95181,202.93749 246.18298,191.9394 244.5969,191.9394 C 231.8246,229.96907 242.90913,257.61244 251.71212,293.1394 C 251.71212,294.1294 252.16212,294.9394 252.71212,294.9394 C 253.26212,294.9394 253.71212,294.14893 253.71212,293.1828 z M 247.00508,100.1894 C 246.59525,98.676898 246.24917,96.201898 246.23603,94.689398 C 246.20231,90.810893 245.05989,91.27208 244.2699,95.483108 C 243.46587,99.768948 244.32847,102.9394 246.29856,102.9394 C 247.39617,102.9394 247.56849,102.26868 247.00508,100.1894 z M 256.2086,94.959938 C 256.87093,91.098641 257.03017,87.939394 256.56248,87.939394 C 256.09478,87.939394 255.71212,88.600271 255.71212,89.408009 C 255.71212,90.244653 255.11928,90.649129 254.33443,90.347956 C 253.39637,89.987989 252.81343,90.795769 252.50763,92.879341 C 252.26061,94.562368 252.48305,95.939398 253.00194,95.939398 C 253.52084,95.939398 253.69868,96.882798 253.39715,98.035848 C 252.82079,100.23986 253.58743,103.39742 254.48178,102.50308 C 254.7692,102.21566 255.54626,98.821248 256.2086,94.959938 z M 250.71212,96.484888 C 250.71212,94.034898 251.79557,89.045492 253.11979,85.397305 L 255.52747,78.764238 L 253.02478,81.101816 C 251.6483,82.387484 249.88985,84.654547 249.11711,86.139734 C 247.69076,88.881118 247.15936,99.053308 248.37879,100.27273 C 249.96406,101.85801 250.71212,100.64364 250.71212,96.484888 z M 249.07556,83.064348 C 250.52567,79.833073 251.68041,76.345573 251.64166,75.314348 C 251.6029,74.283123 250.92421,75.239394 250.13344,77.439394 C 249.34267,79.639394 247.82287,82.167502 246.75611,83.057412 C 244.98157,84.537755 244.25738,88.939394 245.78836,88.939394 C 246.14621,88.939394 247.62545,86.295623 249.07556,83.064348 z M 254.99651,76.035102 C 257.21922,72.272356 257.16603,71.007934 254.81093,71.623807 C 253.52771,71.959375 252.78036,73.229132 252.51173,75.530187 C 252.02455,79.703209 252.74342,79.849285 254.99651,76.035102 z"
     id="path" />
	 <script xlink:href="//cdn.bootcss.com/snap.svg/0.4.1/snap.svg-min.js" type="application/ecmascript"></script>
	 <script>
	 	var p1 = Snap("#path");
	 	var m = "M 227.82143,443.01442 C 226.03393,443.49082 223.10893,443.76626 221.32143,443.6265 C 219.53393,443.48674 218.07143,443.71076 218.07143,444.12432 C 218.07143,444.53787 215.03393,444.64776 211.32143,444.36851 C 199.54899,443.483 197.07143,442.9156 197.07143,441.10501 C 197.07143,440.19025 195.54554,438.62007 193.68056,437.61571 C 190.45642,435.8794 190.11221,435.87382 186.68056,437.50225 C 184.69554,438.4442 183.07143,439.61362 183.07143,440.10095 C 175.8512,442.35326 175.59078,438.58022 169.12183,440.98701 C 165.9716,440.98701 164.07143,442.10676 164.07143,443.96316 C 164.07143,445.22258 163.00156,445.90216 160.32143,446.34516 C 155.1845,447.19424 145.56373,447.14597 144.68446,446.26671 C 144.28829,445.87054 142.38917,445.6821 140.46418,445.84794 C 134.73307,446.34171 123.07143,443.89705 123.07143,442.20186 C 119.44353,439.02393 108.57872,440.98066 104.16111,443.79207 C 103.81146,444.32828 100.59985,444.28841 96.271068,443.69413 C 90.709508,442.9306 89.097768,442.36075 89.504208,441.3016 C 89.801428,440.52705 89.270118,439.6592 88.304568,439.34209 C 87.351338,439.02903 85.153418,438.14606 83.420298,437.37995 C 81.687178,436.61383 79.639678,435.98701 78.870298,435.98701 C 75.990738,435.98701 75.197238,433.92987 76.919378,430.92922 C 78.477658,428.21408 78.460138,427.99172 76.579538,426.6166 C 75.488978,425.81916 72.882338,424.89258 70.787008,424.55752 C 68.672998,424.21948 67.247068,423.51183 67.583378,422.96767 C 67.916728,422.42831 67.318008,421.98701 66.252888,421.98701 C 63.528518,421.98701 61.299988,419.22027 63.381098,418.42167 C 64.225308,418.09772 65.654678,415.98659 66.557478,413.73028 C 68.489628,408.90134 70.134578,400.82995 69.049938,401.50029 C 68.070208,402.1058 67.206058,396.27514 68.125128,395.26039 C 69.326408,393.93405 72.244638,384.07629 71.697888,383.19163 C 71.412258,382.72946 72.054448,381.72001 73.124988,380.94841 C 74.195528,380.1768 75.071428,378.74483 75.071428,377.76625 C 75.071428,375.69426 75.009658,375.6798 71.636528,376.96226 C 69.345148,377.83344 69.071428,377.69275 69.071428,375.64376 C 69.071428,374.3822 69.805348,370.90584 70.702358,367.91851 C 71.599368,364.93119 72.887168,360.13796 73.564128,357.2669 C 74.940758,351.42847 74.572638,350.74843 68.321428,347.58192 C 64.761898,345.77886 64.216968,343.94103 66.644518,341.92635 C 69.124118,339.86846 72.290728,332.93363 71.729968,330.78927 C 71.441818,329.68737 72.576538,326.27395 74.342278,322.93106 L 77.464038,317.02096 L 75.875488,312.05347 L 74.286948,307.08598 L 77.929188,303.24058 C 79.932418,301.1256 82.174648,297.69627 82.911928,295.61983 C 84.111508,292.24134 84.063128,291.63532 82.451688,289.8547 C 81.253778,288.53102 81.012788,287.63427 81.731828,287.17596 C 82.326308,286.79704 84.731868,283.33701 87.077538,279.48701 C 89.423198,275.63701 93.306408,269.47346 95.706898,265.79023 C 98.107388,262.107 100.07143,258.20164 100.07143,257.11166 C 100.07143,256.02167 100.85491,254.34639 101.8125,253.3888 C 103.29905,251.90225 103.33559,251.57602 102.0625,251.15723 C 101.24241,250.88746 99.137238,249.10677 97.384328,247.20013 C 94.315188,243.86182 94.212698,243.47266 94.615238,236.68504 C 95.010898,230.01335 95.243818,229.43423 98.972338,225.85154 C 101.13883,223.76977 103.22565,221.03612 103.60971,219.77676 C 103.99376,218.5174 105.04226,216.652 105.93971,215.63142 C 107.32944,214.05103 107.57875,210.78831 107.62077,193.63142 C 107.66922,173.85172 108.71213,161.41006 111.15349,151.48701 C 111.97608,148.14354 112.41474,136.54784 112.47753,116.48701 C 112.52918,99.987014 112.89061,87.288961 114.26742,85.222724 C 115.45523,81.59606 120.01558,82.191492 121.61366,79.055345 C 121.32304,78.585104 122.17129,77.927782 123.49868,77.594629 C 125.11521,77.188907 126.12063,76.039471 126.54364,74.113538 C 126.89098,72.53209 128.24433,70.233762 129.55107,69.006143 C 130.85781,67.778524 131.70306,66.19064 131.42941,65.477513 C 131.15576,64.764385 131.88028,62.321856 133.03947,60.049669 C 135.41822,55.386923 135.09482,53.955774 131.82043,54.655114 C 129.86829,55.072051 129.77281,54.960661 131.09707,53.811234 C 132.07967,52.958362 132.61358,50.767587 132.59707,47.656403 C 132.57857,44.170737 133.0635,42.465978 134.3388,41.533458 C 135.31085,40.822675 135.85499,39.586552 135.54799,38.786518 C 134.93527,37.189793 135.62646,35.432169 140.38243,26.493173 C 144.46792,18.814349 149.43477,15.638734 155.94798,16.541142 C 158.35508,16.874647 163.0503,17.134478 166.3818,17.118544 C 175.14245,17.076643 181.26628,19.982525 186.0426,26.447988 C 191.43566,33.748308 194.39058,40.641259 193.67051,44.241637 C 193.25735,46.30743 193.67846,48.03077 195.07602,49.993454 C 196.17349,51.53472 197.07143,53.318372 197.07143,53.957126 C 197.07143,54.59588 195.16877,64.180338 195.8485,65.38168 C 196.25111,71.472382 196.17839,75.64511 195.03826,81.876392 C 193.28019,86.264904 197.73244,89.414571 200.85004,94.258596 C 203.81359,97.316203 204.16103,98.337084 204.72439,105.64254 C 205.18051,111.5575 204.87769,115.74748 203.57274,121.57734 C 201.01375,133.00957 201.98104,153.07823 205.98667,171.65981 C 208.807,184.74291 209.70901,189.62088 212.14937,204.98701 C 213.65534,214.46966 217.20131,229.29706 218.297,230.69321 C 218.81763,231.35661 218.99026,232.30934 218.6806,232.81037 C 218.37094,233.3114 219.80236,236.14362 221.86152,239.10417 C 224.32607,242.64759 226.03482,246.59681 226.86196,250.66109 C 228.03018,256.40132 227.96683,257.1261 225.96043,260.97547 C 223.24692,266.18145 224.35645,268.79929 230.70355,272.16642 C 234.83013,274.35556 236.32444,277.09457 234.13158,278.44983 C 233.57448,278.79414 233.77811,280.43408 234.63158,282.47673 C 236.5447,287.05548 236.44809,289.67364 234.32143,290.88184 C 232.83391,291.72694 232.76202,292.18729 233.84214,293.95112 C 234.92762,295.72371 234.8183,296.34234 233.09214,298.19516 C 230.74051,300.71933 230.49658,303.26503 232.45092,304.88699 C 233.20963,305.51667 234.08753,307.31753 234.40181,308.8889 C 234.71608,310.46027 235.55781,312.36954 236.27232,313.13173 C 236.98683,313.89391 238.3981,316.13931 239.40847,318.12149 C 241.21544,321.66644 241.2102,321.79468 239.08869,325.95319 C 237.01184,330.02414 236.99344,330.33482 238.59241,334.33104 C 239.50571,336.61361 240.54961,338.70748 240.91219,338.98409 C 244.92101,346.2479 255.9459,363.42445 252.03327,368.02517 C 250.48422,369.57422 250.13971,370.83408 250.59767,373.27517 C 251.22064,376.59589 250.98468,378.62476 250.01317,378.30092 C 248.48328,377.79096 249.28731,386.79287 251.54921,395.49847 C 254.08449,405.25622 254.08602,405.28849 252.08162,406.69242 C 250.97602,407.46682 250.07143,409.08883 250.07143,410.2969 C 250.07143,413.30654 253.45333,424.89105 255.47097,428.79275 C 256.49535,430.77367 256.70605,431.98701 256.02568,431.98701 C 253.89357,431.98701 252.24157,434.53965 253.2303,436.30641 C 253.74758,437.23074 254.03595,438.02451 253.87112,438.07034 C 250.75754,438.93612 248.95862,438.38571 248.46426,436.41603 C 248.15504,435.184 247.04903,433.95291 246.00647,433.68027 C 241.52424,434.32449 244.30847,440.51175 240.14327,442.32264 C 226.09383,452.91648 235.20798,441.21091 227.82143,443.01442 z M 104.30964,239.73701 C 104.561,237.94951 105.10838,235.69951 105.52604,234.73701 C 106.05621,233.51521 105.83733,232.98701 104.80086,232.98701 C 102.18696,232.98701 100.7986,235.71914 101.5034,239.47605 C 102.32913,243.87757 103.70934,244.00592 104.30964,239.73701 z M 115.67938,231.23701 C 116.41003,230.27451 117.02213,228.71534 117.03963,227.77219 C 117.05712,226.82904 117.90971,225.60874 118.93428,225.06041 C 121.94178,223.45084 122.87882,219.31978 123.55048,204.70917 C 123.89883,197.13135 124.83246,188.80635 125.62521,186.20917 C 127.58761,179.77998 128.67339,167.98701 127.30293,167.98701 C 121.87129,182.60524 117.81488,200.49068 116.99745,216.31303 C 118.33666,217.65224 118.40342,221.6638 117.0999,222.46941 C 116.28157,222.97517 112.07143,231.46894 112.07143,232.61413 C 112.07143,233.69147 114.52794,232.75385 115.67938,231.23701 z M 196.55135,197.73701 C 196.19117,196.49951 194.34507,191.27183 192.4489,186.11994 C 189.05383,176.89557 188.99267,176.44615 188.43436,156.61994 C 188.12254,145.54683 187.92046,135.24951 187.9853,133.73701 C 188.05015,132.22451 187.75855,130.99115 187.33731,130.99622 C 186.37037,131.00785 179.05291,146.95329 179.06354,149.02557 C 179.06788,149.87178 178.17143,152.32942 177.07143,154.48701 C 174.93862,158.67039 174.44368,163.481 176.0443,164.47024 C 176.57938,164.80094 177.88533,167.865 178.94642,171.27926 C 180.00751,174.69352 182.04472,179.80236 183.47355,182.63224 C 184.90239,185.46211 186.07832,188.61211 186.08674,189.63224 C 186.10593,191.95663 186.66883,192.71575 191.35623,196.73871 C 195.81448,200.565 197.46684,200.88252 196.55135,197.73701z"
	 	setTimeout(fn1,1000);	
	 	function fn1(){
	 	p1.animate({
	 	"d":m
	 	},1000,mina.easeinout);
	 	};
	 
	 </script>
</svg>















