<?xml version="1.0" encoding="UTF-8" standalone="no"?>
<!-- Generator: Adobe Illustrator 16.0.0, SVG Export Plug-In . SVG Version: 6.00 Build 0)  -->
<svg xmlns:dc="http://purl.org/dc/elements/1.1/" xmlns:xlink="http://www.w3.org/1999/xlink" xmlns:cc="http://creativecommons.org/ns#" xmlns:rdf="http://www.w3.org/1999/02/22-rdf-syntax-ns#" xmlns:svg="http://www.w3.org/2000/svg" xmlns="http://www.w3.org/2000/svg" xmlns:sodipodi="http://sodipodi.sourceforge.net/DTD/sodipodi-0.dtd" xmlns:inkscape="http://www.inkscape.org/namespaces/inkscape" version="1.1" id="Layer_1" x="0px" y="0px" width="841.89px" height="595.275px" viewBox="0 0 841.89 595.275" style="enable-background:new 0 0 841.89 595.275;" xml:space="preserve" inkscape:version="0.91 r13725" sodipodi:docname="剪影动画.svg">
    <metadata id="metadata41">
        <rdf:RDF>
            <cc:Work rdf:about="">
                <dc:format>image/svg+xml</dc:format>
                <dc:type rdf:resource="http://purl.org/dc/dcmitype/StillImage" />
            </cc:Work>
        </rdf:RDF>
    </metadata>
    <defs id="defs39" />
    <sodipodi:namedview pagecolor="#ffffff" bordercolor="#666666" borderopacity="1" objecttolerance="10" gridtolerance="10" guidetolerance="10" inkscape:pageopacity="0" inkscape:pageshadow="2" inkscape:window-width="1366" inkscape:window-height="719" id="namedview37" showgrid="false" inkscape:zoom="0.72846696" inkscape:cx="420.94501" inkscape:cy="297.63751" inkscape:window-x="0" inkscape:window-y="1" inkscape:window-maximized="1" inkscape:current-layer="Layer_1" />
    <rect style="fill:#386B12;" width="841.89" height="595.275" id="rect3" />
    <path style="fill:#ffffff" d="m 77.56,127.221 c 0,0 0.202,4.242 -3.233,4.646 0,0 -7.678,2.627 -8.89,3.436 0,0 -7.072,-0.404 -5.658,2.627 0,0 -2.222,3.232 -3.03,4.849 -0.809,1.617 -5.052,10.911 -6.466,13.133 -1.415,2.223 -3.637,4.445 -4.647,5.051 0,0 -1.011,1.819 -0.405,3.435 0,0 1.01,3.233 0.809,5.254 -0.202,2.02 3.839,5.657 5.455,2.828 0,0 0.202,-2.828 -1.616,-4.243 0,0 -1.212,-4.647 -0.809,-5.455 0,0 10.709,-18.185 15.356,-19.6 l 10.103,-1.818 c 0,0 -0.203,2.021 1.414,2.424 0,0 5.253,14.145 7.679,17.982 0,0 4.041,3.839 6.061,1.617 2.021,-2.223 0,-2.829 -1.819,-3.436 -1.818,-0.606 -6.263,-12.729 -6.869,-15.355 -0.606,-2.627 -2.626,-3.839 -1.01,-4.243 0,0 22.428,-5.254 22.831,-13.941 0,0 1.617,-1.212 5.052,1.212 3.435,2.425 26.873,8.891 41.218,4.041 0,0 4.042,2.626 6.668,1.01 0,0 15.557,1.616 17.78,3.031 2.223,1.415 8.082,10.507 8.688,13.74 0.606,3.233 2.021,8.89 2.627,12.729 0.606,3.839 3.638,5.051 4.243,1.01 0,0 -0.606,-2.829 -2.021,-4.445 -1.415,-1.616 -4.445,-21.619 -9.294,-25.861 0,0 -1.01,-2.83 -10.305,-3.839 0,0 7.072,0 8.891,-0.809 0,0 3.232,-0.202 4.243,0.606 1.011,0.809 3.031,3.03 3.839,3.636 0,0 6.87,10.507 7.88,15.357 0,0 2.02,5.253 3.839,3.637 0,0 4.444,-1.212 -0.607,-5.052 0,0 -4.243,-6.465 -6.263,-9.294 -2.021,-2.829 -2.627,-5.859 -3.233,-8.082 -0.606,-2.223 -1.212,-3.435 -4.041,-4.042 -2.829,-0.605 -6.062,-3.838 -7.88,-3.838 0,0 9.093,-5.254 11.315,-11.72 2.223,-6.464 3.637,-8.283 7.071,-8.89 3.436,-0.606 5.658,-0.808 6.466,-0.404 0.809,0.404 1.818,1.213 3.031,0.808 0,0 4.243,2.223 5.86,1.011 0,0 3.233,-2.222 -3.233,-4.243 0,0 -1.819,-2.829 3.839,-0.404 0,0 4.647,0.808 5.657,-1.011 0,0 2.626,-2.021 0.404,-3.232 0,0 -3.637,-3.031 -8.486,-4.244 0,0 -2.424,-6.465 -5.456,-7.273 0,0 0.606,-1.818 -0.201,-2.627 0,0 -0.405,-0.808 0.201,-1.415 0,0 -3.232,-0.404 -3.03,1.617 0,0 -5.052,-2.829 -6.668,-1.415 0,0 0.808,-4.849 -4.041,-7.476 0,0 -3.232,-3.637 -3.435,-6.061 0,0 -2.425,-4.446 -4.445,1.211 0,0 -2.425,10.709 1.212,13.133 l 3.636,2.829 c 0,0 -14.952,17.982 -15.76,20.407 0,0 -0.808,0.808 -3.232,0 0,0 -5.859,-1.819 -14.144,-1.414 -8.284,0.403 -8.485,1.01 -12.122,1.212 -3.637,0.202 -12.932,-2.223 -18.185,-1.617 -5.254,0.606 -8.688,0.808 -13.538,-0.201 -4.849,-1.011 -13.538,-0.809 -18.588,1.616 l -4.041,2.02 -7.476,0.607 c 0,0 -7.88,5.454 -6.465,6.869 0,0 1.818,0.606 6.465,-4.445 0,0 3.233,-1.818 4.041,0.404 0,0 0.606,2.424 -2.02,4.85 -2.626,2.426 -6.062,11.518 -1.212,15.56 z" id="path0" inkscape:connector-curvature="0" />
    <path style="fill:transparent" d="m 249.372,133.89 c 0,0 -5.455,-0.606 -5.253,3.637 0,0 0.202,1.414 -2.021,2.222 0,0 -3.637,3.839 -4.849,6.264 -1.212,2.425 -6.465,7.88 -7.274,8.891 -0.808,1.01 -2.626,1.414 -3.637,1.414 -1.01,0 -7.678,2.425 -6.465,5.052 1.213,2.627 4.849,1.212 6.668,0 1.818,-1.212 4.041,-0.605 4.849,-1.01 0.808,-0.404 1.212,-0.808 2.021,-2.425 0.808,-1.616 6.87,-10.102 9.496,-11.314 2.627,-1.212 7.477,-2.222 7.477,-2.222 0,0 0.404,1.414 0,3.435 -0.404,2.02 -2.424,6.263 -3.638,9.496 -1.212,3.232 -3.435,7.274 -2.626,9.092 0.808,1.819 0.808,6.465 4.243,-0.606 0,0 -0.203,-2.829 0.606,-4.647 0.808,-1.818 4.041,-6.263 4.849,-9.698 0.808,-3.435 1.212,-7.88 2.829,-8.688 1.616,-0.808 8.688,-1.617 12.931,-4.85 0,0 9.092,0.202 16.366,-3.838 0,0 9.496,-5.86 13.134,-3.435 0,0 24.65,7.072 35.357,2.424 0,0 3.637,3.84 7.478,2.83 0,0 4.242,3.03 5.858,4.849 1.616,1.818 3.233,3.637 6.062,6.263 2.829,2.627 8.891,6.87 10.91,9.092 2.021,2.223 4.85,4.243 5.253,5.658 0.405,1.414 4.446,6.466 6.87,8.889 2.424,2.426 5.253,4.244 6.87,4.647 1.617,0.405 7.274,-0.605 3.233,-3.435 0,0 -2.828,-1.818 -5.051,-2.424 -2.223,-0.606 -5.657,-4.042 -7.072,-6.062 -1.414,-2.021 -1.212,-4.445 -4.444,-6.668 -3.233,-2.223 -6.87,-7.879 -9.496,-9.496 -2.627,-1.616 -8.891,-9.295 -9.093,-10.708 -0.202,-1.415 1.212,-2.627 3.233,-2.021 0,0 8.89,4.445 12.527,5.456 3.637,1.011 5.253,2.424 6.667,3.232 1.415,0.809 15.356,12.729 15.356,12.729 0,0 3.031,3.233 4.849,4.85 1.818,1.616 2.627,1.616 4.647,0.403 2.02,-1.212 0.605,-2.828 -3.031,-4.445 -3.637,-1.616 -5.657,-4.445 -8.486,-6.667 -2.829,-2.223 -10.709,-7.88 -11.315,-8.891 -0.606,-1.009 -1.415,-4.646 -5.658,-5.252 0,0 -4.849,-1.819 -7.071,-3.435 -2.223,-1.617 -5.253,-4.85 -5.253,-4.85 0,0 -0.203,-2.021 3.03,-2.829 0,0 8.082,-4.243 12.528,-8.688 0,0 2.626,-7.88 9.698,-8.284 0,0 2.425,-0.809 5.454,0 3.032,0.808 8.892,2.02 7.073,-0.809 0,0 -3.233,-1.818 -4.446,-2.424 0,0 -2.828,-2.223 3.032,-0.808 0,0 4.849,2.021 6.062,-0.606 0,0 2.222,-1.617 0,-3.031 0,0 -4.849,-3.435 -7.476,-3.838 0,0 -4.042,-7.072 -6.668,-8.284 0,0 1.212,-2.828 -0.202,-4.041 l -2.626,1.616 c 0,0 -3.031,-1.212 -4.041,-1.01 0,0 -1.819,-5.253 -4.646,-6.667 -2.83,-1.415 -2.425,-1.011 -2.83,-3.435 -0.403,-2.424 -2.424,-6.062 -4.041,-4.445 -1.616,1.616 -1.616,5.859 -1.415,8.89 0.203,3.03 3.233,7.273 3.839,8.486 0,0 -4.444,7.678 -6.465,10.102 -2.02,2.425 -4.445,3.839 -6.062,6.062 -1.616,2.223 -3.03,3.839 -4.243,3.839 -1.213,0 -6.869,-3.233 -11.112,-3.839 -4.243,-0.606 -11.921,1.011 -16.771,0.606 -4.848,-0.403 -8.889,-1.818 -14.95,-2.222 -6.062,-0.405 -9.094,-0.809 -13.739,-0.606 -4.648,0.202 -11.114,-2.627 -15.155,-2.223 -4.041,0.405 -8.284,2.223 -11.112,3.232 -2.829,1.011 -3.435,1.617 -5.859,2.425 -2.425,0.808 -5.455,2.021 -2.626,2.223 l 4.445,-0.809 c 0,0 -0.202,1.011 -1.617,2.829 -1.414,1.819 -6.062,6.264 -6.062,9.497 0,3.233 2.223,8.486 2.627,10.507 0.405,2.021 -0.404,3.232 -3.435,3.435 -3.033,0.199 -9.095,1.411 -9.095,1.411 z" id="path1" inkscape:connector-curvature="0" />
    <path style="fill:#ffffff" d="m 454.052,133.082 c 0,0 -3.637,3.637 -3.637,5.859 0,2.222 -0.403,3.031 -1.212,4.647 -0.81,1.617 -4.445,7.072 -4.849,8.284 -0.405,1.213 -3.032,4.445 -4.243,5.456 -1.213,1.01 -4.447,1.818 -4.043,2.829 0,0 -2.222,1.616 -2.019,2.828 0.2,1.212 1.818,2.021 2.424,1.617 0.607,-0.404 2.627,-1.819 4.849,-4.244 2.223,-2.424 6.265,-5.657 7.679,-8.889 1.414,-3.233 3.838,-7.88 5.859,-9.295 2.02,-1.414 3.84,-2.222 6.265,-3.636 2.424,-1.415 3.636,-1.415 7.273,-1.818 3.637,-0.405 16.77,0 22.427,-3.84 5.657,-3.838 8.89,-4.041 12.326,-2.424 3.436,1.616 12.729,7.072 28.083,4.243 0,0 2.829,0 4.445,2.021 0,0 0,1.011 5.052,6.465 5.053,5.456 5.456,11.315 8.484,14.548 3.032,3.232 3.234,6.465 4.648,9.496 1.415,3.031 4.042,11.72 5.658,13.337 1.616,1.616 5.052,2.828 4.444,-0.204 -0.605,-3.029 -1.414,-2.021 -3.837,-3.232 0,0 -2.426,-3.435 -2.627,-6.263 -0.202,-2.83 -2.224,-8.689 -2.628,-11.113 -0.405,-2.425 -1.414,-3.637 -3.032,-6.87 -1.616,-3.232 -5.655,-11.516 -4.039,-13.537 0,0 2.222,-2.223 5.05,0 2.829,2.222 8.688,5.455 12.326,7.273 3.636,1.819 9.092,3.84 11.113,5.658 2.02,1.818 10.506,7.476 14.346,10.103 3.839,2.627 4.646,1.415 5.859,2.021 1.212,0.606 3.03,2.424 4.039,2.021 1.013,-0.404 4.043,-3.031 1.416,-3.637 -2.627,-0.607 -2.021,-0.607 -5.052,-1.212 -3.03,-0.607 -2.424,-1.819 -6.263,-3.839 -3.84,-2.02 -6.669,-4.646 -9.9,-6.465 -3.232,-1.818 -3.232,-4.849 -8.083,-6.87 -4.849,-2.02 -9.294,-6.263 -11.313,-9.092 -2.021,-2.828 -1.416,-4.243 -1.416,-4.243 0,0 3.436,-3.435 4.849,-5.252 1.416,-1.818 10.508,-6.062 12.527,-11.921 0,0 0.204,-2.021 5.659,0.202 0,0 2.426,-0.404 6.667,-0.202 4.243,0.202 6.466,1.414 6.466,-0.809 0,-2.222 -1.212,-3.636 -3.436,-4.445 0,0 0,-1.211 3.436,0.202 3.435,1.415 4.241,1.011 5.051,0 0,0 2.828,-2.02 0.405,-3.435 0,0 -4.041,-2.424 -6.872,-3.232 0,0 -2.02,-3.031 -3.03,-4.647 -1.009,-1.616 -3.636,-3.84 -3.636,-3.84 0,0 0.403,-2.626 0.809,-3.636 0.403,-1.011 2.02,-1.617 1.616,-2.425 -0.405,-0.808 -1.009,1.01 -2.425,1.211 -1.415,0.203 -3.435,0.607 -3.232,2.223 0,0 -3.234,-2.021 -4.646,-1.415 0,0 2.02,-6.263 -4.445,-9.092 -6.467,-2.829 -3.436,-2.627 -4.041,-4.849 -0.605,-2.223 -3.84,-2.829 -3.638,1.818 0.201,4.647 -1.616,9.092 5.657,13.538 0,0 -5.859,8.082 -8.284,10.91 -2.426,2.829 -4.849,3.435 -6.87,6.265 -2.02,2.828 -2.222,3.232 -5.051,1.818 -2.828,-1.416 -7.071,-4.243 -16.771,-4.445 -9.699,-0.203 -7.273,0.202 -13.738,-1.011 -6.467,-1.212 -7.881,-3.031 -14.348,-3.232 -6.464,-0.202 -10.103,-2.021 -15.354,-3.233 -5.254,-1.212 -14.346,-2.828 -19.801,1.617 -5.456,4.445 -6.87,2.627 -10.91,5.051 0,0 -2.223,2.424 3.84,1.01 0,0 2.22,-0.606 1.211,1.414 0,0 -8.282,10.305 -2.627,17.982 0,0 1.416,1.819 -2.222,0.808 -3.638,-1.01 -5.052,-0.808 -7.881,-1.414 -2.829,-0.606 -7.072,-0.809 -7.072,2.424 0,3.232 -2.826,7.476 -4.444,10.708 -1.616,3.232 -3.03,6.465 -4.648,9.295 -1.614,2.828 -4.038,4.849 -5.25,6.061 -1.215,1.212 -2.831,3.637 -3.84,4.041 -1.011,0.404 -2.021,3.031 -1.618,4.647 0,0 2.021,1.616 4.648,-2.021 0,0 4.041,-3.839 5.657,-5.657 1.616,-1.818 1.818,-1.414 3.838,-5.859 2.021,-4.444 6.87,-12.931 7.68,-13.739 0.807,-0.811 3.029,-1.822 4.242,-1.417 z" id="path2" inkscape:connector-curvature="0" />
    <path style="fill:#ffffff" d="m 688.034,131.265 c 0,0 0,5.456 -12.728,5.051 0,0 -9.499,0.202 -12.529,-0.605 -3.03,-0.809 -10.304,0.201 -10.304,0.201 0,0 -5.454,2.627 -5.454,4.85 0,2.223 -1.414,7.274 -3.638,11.719 -2.224,4.445 -11.517,15.558 -13.942,18.791 -2.425,3.233 -4.646,-0.807 -2.828,-3.233 1.817,-2.425 0.403,-0.605 0.403,-0.605 l 3.234,-3.436 c 0,0 -3.435,-4.242 -1.213,-5.858 0,0 2.627,0.201 4.243,-1.213 1.616,-1.415 4.646,-4.042 5.857,-7.274 1.214,-3.233 2.425,-11.719 3.436,-13.537 1.011,-1.819 2.224,-4.849 2.224,-4.849 0,0 -1.818,-3.233 1.616,-3.637 0,0 0.403,-7.476 5.657,-4.849 l 9.296,2.223 c 0,0 -10.71,-9.294 1.21,-20.812 0,0 -9.495,0.606 -0.807,-2.627 0,0 11.517,-4.849 15.558,-4.849 4.04,0 4.647,1.01 9.697,2.424 5.052,1.415 13.942,3.435 19.397,3.637 5.456,0.203 7.678,0.404 13.539,1.617 5.857,1.212 14.142,3.839 17.376,4.041 3.232,0.203 8.282,3.839 11.515,6.062 0,0 1.414,0.403 4.445,-3.233 3.032,-3.637 12.527,-12.73 10.102,-16.367 0,0 -7.271,-7.476 -2.018,-16.367 0,0 1.211,-1.616 2.827,2.83 1.616,4.446 2.425,5.657 5.052,6.263 0,0 1.213,-2.424 4.042,-3.031 2.828,-0.606 1.011,-0.202 1.011,-0.202 0,0 3.837,6.87 2.221,9.901 0,0 7.881,5.051 8.486,10.304 0,0 4.042,3.638 6.265,4.445 0,0 6.667,3.031 -0.201,4.849 0,0 -2.021,2.626 -5.053,2.626 0,0 -4.243,-0.606 -5.858,0 -1.616,0.606 -7.274,-0.201 -9.092,0.405 -1.82,0.605 -7.881,13.739 -15.559,14.346 0,0 -2.627,1.818 -1.819,5.252 0.809,3.436 1.819,5.254 4.243,7.073 2.425,1.818 4.648,4.848 7.273,6.667 2.629,1.818 5.052,4.243 7.073,7.274 2.021,3.03 8.486,7.677 11.921,9.901 3.434,2.222 5.454,2.829 1.213,4.04 0,0 -3.84,-1.212 -5.051,-3.233 -1.215,-2.02 -5.254,-4.849 -7.881,-7.071 -2.627,-2.222 -5.859,-4.243 -8.284,-6.465 -2.426,-2.223 -11.113,-6.062 -12.729,-7.072 -1.616,-1.011 -5.657,-6.062 -8.083,-6.264 -2.423,-0.202 -11.719,0.808 -13.941,0 0,0 -1.415,10.102 -1.213,13.133 0.204,3.031 2.224,12.324 3.234,15.558 1.011,3.232 0.403,8.082 1.414,11.314 1.011,3.233 0.202,3.232 -3.032,1.01 0,0 -1.818,-2.423 -1.009,-4.648 0.809,-2.221 0,-6.262 -0.202,-7.474 -0.201,-1.213 -2.425,-11.114 -3.436,-14.144 -1.009,-3.031 -7.07,-16.568 -5.857,-19.599 0,0 -0.204,-0.404 -2.629,-0.202 -2.424,0.202 -17.578,-1.617 -23.637,-5.253 -6.062,-3.638 -4.851,-1.01 -5.053,0.202 z" id="path3" inkscape:connector-curvature="0" />
    <path style="fill:#ffffff" d="m 65.155,261.578 c 0,0 -13.335,-5.051 -11.113,2.02 0,0 -1.212,2.83 -0.606,4.446 0,0 -1.213,9.899 -1.011,14.345 0.202,4.446 0,8.892 -1.415,12.124 -1.414,3.232 -3.636,4.443 -4.849,6.262 -1.212,1.82 -2.02,3.436 -0.202,4.041 1.818,0.605 4.042,-1.211 5.051,-2.828 1.01,-1.617 3.839,-5.656 4.445,-9.09 0.606,-3.435 0.808,-10.914 1.212,-11.519 0,0 0.809,10.306 0.404,11.72 -0.405,1.414 -4.243,2.828 -4.243,2.828 l -1.819,3.232 c 0,0 5.052,0.404 7.678,-1.617 2.627,-2.02 2.829,-3.434 3.031,-6.261 0.202,-2.83 -0.808,-11.115 -0.404,-14.348 0.404,-3.232 -1.212,-5.858 1.01,-5.656 2.223,0.202 7.476,-1.818 10.708,1.212 3.233,3.029 11.921,2.625 18.387,0.403 6.465,-2.221 7.476,-2.829 10.708,0.808 0,0 11.113,4.042 15.356,3.638 0,0 0,15.355 -0.606,17.578 -0.606,2.221 -1.616,8.484 -2.425,10.709 -0.808,2.223 -3.839,10.506 -3.232,12.121 0.605,1.619 3.637,2.426 4.243,3.232 0.606,0.809 0.404,-3.029 0.202,-5.656 -0.202,-2.627 -0.202,-4.043 0.809,-6.871 1.01,-2.826 2.626,-10.303 3.232,-11.92 0.606,-1.615 2.223,-3.635 2.223,-6.262 0,-2.628 1.818,-9.295 4.243,-11.519 2.424,-2.222 11.719,3.437 18.387,3.232 0,0 10.102,10.507 15.962,14.347 5.86,3.838 6.667,4.85 8.082,6.668 1.414,1.816 8.688,11.516 10.506,12.527 1.819,1.008 1.818,1.414 3.233,2.627 1.415,1.213 3.031,1.213 4.243,0.807 1.212,-0.404 1.819,-1.615 0.404,-2.627 -1.415,-1.01 -4.243,-2.627 -6.062,-3.84 -1.819,-1.213 -4.243,-3.232 -7.678,-7.678 -3.435,-4.446 -6.263,-8.283 -6.263,-8.283 0,0 1.01,1.012 -0.606,-0.605 -1.617,-1.615 -6.264,-6.262 -7.881,-8.688 -1.616,-2.426 -5.051,-8.284 -4.849,-9.9 0.202,-1.616 1.818,-3.636 2.425,-5.252 0.605,-1.616 9.699,-5.053 16.972,-13.337 0,0 3.435,-2.829 6.87,-2.423 3.435,0.404 5.052,1.009 8.082,2.02 3.031,1.009 3.839,0 4.647,-2.02 0,0 7.88,-3.033 2.222,-6.669 0,0 -5.455,-3.838 -6.264,-5.252 -0.808,-1.415 -5.859,-8.892 -8.082,-10.508 -2.223,-1.616 -0.606,-0.807 -0.606,-0.807 0,0 -1.414,-4.647 0.203,-6.667 0,0 -5.254,-0.608 -5.86,3.232 0,0 -2.424,-2.829 -4.647,-5.457 -2.223,-2.627 -1.01,-4.244 -3.031,-4.849 -2.02,-0.605 -3.435,1.616 -3.637,4.849 -0.202,3.233 1.011,7.477 5.455,11.922 0,0 -4.85,5.252 -8.082,9.09 -3.232,3.84 -5.456,7.073 -7.88,6.871 -2.424,-0.202 -3.838,-0.81 -9.091,-3.435 -5.254,-2.627 -13.74,-4.243 -21.014,-5.658 -7.274,-1.415 -13.739,-3.031 -18.386,-4.445 -4.648,-1.415 -17.579,-4.445 -23.842,-3.031 -6.264,1.415 -9.9,4.042 -12.123,4.445 -2.223,0.404 -13.134,1.818 -9.497,3.637 0,0 6.061,-0.807 8.082,0 0.003,0.001 -7.271,7.477 -1.411,17.985 z" id="path4" inkscape:connector-curvature="0" />
    <path style="fill:#ffffff" d="m 289.963,271.682 c -0.212,0.566 -9.9,3.233 -15.961,1.413 -6.062,-1.818 -9.092,-1.818 -11.315,-1.21 -2.222,0.605 -4.041,0.807 -3.637,2.423 0.404,1.616 12.325,17.377 13.537,19.803 1.213,2.422 1.011,2.828 0,2.828 -1.01,0 -4.04,-0.203 -4.04,-0.203 0,0 -0.203,-3.436 -0.606,-4.041 -0.404,-0.607 -1.011,9.295 -2.627,10.102 0,0 -3.637,-2.223 -2.021,-5.455 0,0 3.233,-3.838 1.212,-7.878 -2.021,-4.042 -5.051,-7.274 -7.476,-10.709 -2.424,-3.435 -5.455,-7.476 -3.637,-8.688 0,0 -4.041,-6.871 1.415,-5.658 l 7.072,0.403 c 0,0 -6.062,-6.667 -1.818,-14.143 0,0 2.021,-4.04 -1.212,-4.648 0,0 -10.708,0.406 0.202,-3.232 0,0 3.435,0.202 7.274,-2.625 3.839,-2.829 8.89,-4.445 17.78,-3.638 8.89,0.809 16.567,1.616 19.598,2.425 3.031,0.807 6.87,2.627 14.952,4.647 8.083,2.02 15.761,1.818 17.983,4.04 2.222,2.224 4.445,3.84 6.87,4.647 2.425,0.809 3.637,1.011 4.444,1.616 0,0 3.233,0.406 9.295,-8.889 0,0 4.646,-7.275 6.465,-7.679 0,0 -9.698,-10.305 -3.232,-17.578 0,0 4.244,0 7.072,6.062 0,0 2.02,2.424 4.243,3.838 0,0 2.828,0.404 4.445,0.404 1.616,0 0.404,0.607 0.404,0.607 0,0 1.212,2.827 -0.606,4.647 0,0 2.83,2.827 5.657,5.051 0,0 1.213,0.202 2.829,5.656 0,0 2.627,1.818 4.849,3.435 0,0 7.073,3.034 -1.413,5.457 0,0 -5.658,-1.415 -3.233,0.604 0,0 3.839,3.031 0.403,3.639 0,0 -2.222,0.202 -5.656,-1.011 -3.436,-1.213 -8.285,-1.818 -9.901,0 -1.616,1.818 -13.537,17.578 -22.427,17.578 0,0 -2.829,3.232 -4.446,4.244 0,0 3.031,11.718 4.244,13.537 1.212,1.818 2.627,2.627 3.839,5.859 1.212,3.232 5.657,12.123 7.88,14.951 2.222,2.83 6.263,4.244 7.072,6.67 0.808,2.422 1.211,3.23 0.403,4.041 -0.808,0.807 -4.445,0.402 -4.243,-2.225 0.203,-2.627 -2.829,-1.008 -4.849,-3.838 -2.021,-2.83 -4.041,-8.689 -6.061,-11.316 -2.021,-2.625 -3.032,-5.252 -4.648,-6.668 -1.616,-1.414 -4.444,-4.646 -4.444,-4.646 0,0 0.404,-1.414 -1.414,-3.637 -1.82,-2.221 -6.668,-9.496 -8.486,-10.302 -1.819,-0.81 -8.285,-2.426 -9.699,-1.215 -1.414,1.215 -5.455,4.851 -6.263,6.467 -0.808,1.616 -5.051,7.273 -6.264,9.091 -1.212,1.818 -5.253,6.061 -6.869,8.285 -1.617,2.223 -6.466,8.484 -7.072,10.506 -0.607,2.021 -3.84,9.498 -5.052,10.506 -1.211,1.012 -3.636,-0.807 -2.626,-3.031 1.01,-2.221 1.819,-3.232 3.031,-5.453 1.212,-2.223 0.202,-2.629 2.425,-5.658 2.223,-3.031 12.123,-15.76 12.123,-15.76 0,0 0.405,-0.605 0.606,-1.213 0.202,-0.605 3.435,-7.676 4.445,-9.9 1.01,-2.222 1.616,-5.86 1.01,-7.073 -0.606,-1.21 -15.961,-3.028 -18.588,-7.272 -0.003,-0.001 -2.63,-0.609 -3.237,1.01 z" id="path5" inkscape:connector-curvature="0" />
    <path style="fill:#ffffff" d="m 492.22,268.855 c 0,0 -6.467,3.838 -10.103,4.242 0,0 -5.859,6.871 -11.314,7.882 0,0 -0.605,2.02 2.425,4.039 3.03,2.019 14.344,12.931 16.163,20.205 0,0 -1.819,3.232 -3.839,0.607 0,0 -6.465,2.828 -4.849,-1.014 0,0 2.423,-4.039 -0.605,-7.271 -3.032,-3.232 -8.69,-8.686 -11.922,-11.314 -3.232,-2.627 -13.337,-10.911 -8.081,-13.134 0,0 7.071,-4.04 8.484,-4.444 0,0 -11.921,-11.113 -7.271,-21.62 0,0 -8.486,1.818 1.009,-3.031 0,0 5.252,-9.093 20.003,-7.678 14.749,1.415 18.992,2.83 29.097,5.252 10.102,2.426 16.564,3.639 19.598,3.84 3.03,0.202 7.879,3.031 11.92,6.667 4.041,3.637 5.05,2.83 7.881,-1.009 2.829,-3.84 11.315,-14.952 12.527,-15.558 0,0 -7.071,-10.708 -2.223,-17.174 0,0 3.436,2.829 5.052,5.454 1.616,2.627 4.645,3.233 5.05,5.457 0,0 2.021,-0.809 3.437,-1.011 1.412,-0.202 2.625,2.83 1.009,5.659 0,0 5.254,2.827 7.072,9.494 0,0 1.817,3.437 5.858,5.053 0,0 4.649,1.414 2.831,4.04 0,0 -1.82,2.425 -4.245,2.627 0,0 0.204,3.031 -4.851,2.424 -5.05,-0.606 -6.263,-2.222 -9.696,-1.413 -3.435,0.807 -5.658,-0.406 -7.879,3.435 -2.224,3.837 -9.296,13.942 -13.74,16.163 0,0 -7.072,3.637 -10.104,4.244 -3.029,0.605 -6.06,2.222 -7.678,1.818 0,0 -3.03,6.869 -1.212,11.515 1.817,4.648 2.627,12.326 2.83,14.348 0.202,2.02 2.02,10.506 3.232,13.537 1.211,3.029 2.222,2.828 -1.011,3.029 -3.234,0.203 -3.636,-1.211 -3.03,-3.029 0.606,-1.818 -0.403,-5.861 -1.213,-8.486 -0.809,-2.627 -1.414,-7.477 -2.021,-9.094 -0.605,-1.615 -2.829,-4.646 -2.222,-7.678 0.605,-3.029 -3.232,-9.496 -3.638,-11.716 -0.403,-2.225 -2.222,0.403 -2.222,4.647 0,4.241 1.616,10.504 -0.405,11.516 -2.02,1.008 -20.404,5.252 -22.83,7.475 -2.425,2.223 -2.828,-4.85 -0.405,-5.053 0,0 7.68,-0.402 10.71,-1.818 3.03,-1.414 4.646,-1.012 5.455,-3.635 0.808,-2.629 1.011,-8.689 0.605,-11.718 -0.403,-3.03 -1.212,-6.467 -0.605,-7.072 -10e-4,-10e-4 -14.752,-1.617 -23.034,-9.699 z" id="path6" inkscape:connector-curvature="0" />
    <path style="fill:#ffffff" d="m 783.988,245.215 c -2.627,-1.616 -4.041,-1.82 -5.05,-4.851 -1.011,-3.029 -0.607,-4.04 -3.234,-5.455 -2.625,-1.414 -5.456,-5.051 -5.456,-5.051 1.618,-3.84 -1.817,-9.093 -1.817,-9.093 -2.426,0.404 -3.637,4.042 -3.637,4.042 0,0 -0.809,-0.608 -3.032,-2.426 -2.222,-1.818 -3.03,-4.849 -3.03,-4.849 -1.414,-5.051 -3.03,-0.606 -3.03,-0.606 -5.658,8.889 3.638,15.558 3.638,15.558 -0.81,0.203 -3.638,4.04 -5.657,6.869 -2.022,2.83 -4.243,7.071 -6.87,10.102 -2.625,3.032 -4.042,2.627 -4.042,2.627 -1.009,-1.414 -5.252,-1.616 -7.677,-3.233 -2.426,-1.616 -5.053,-3.232 -8.486,-3.839 -3.435,-0.606 -12.124,-1.617 -16.164,-2.424 -4.041,-0.809 -8.688,-3.233 -13.135,-3.84 -4.442,-0.606 -15.354,-1.818 -23.84,-1.009 -8.486,0.807 -9.497,2.423 -11.518,5.454 -2.02,3.031 -5.859,3.437 -5.859,3.437 -13.336,5.454 0.404,4.645 0.404,4.645 -2.224,13.942 12.931,17.376 12.931,17.376 0,0 2.224,2.426 3.232,5.457 1.011,3.031 -0.202,6.465 -2.827,10.507 -2.629,4.04 4.241,5.051 4.241,5.051 0,1.817 2.831,6.262 8.285,8.887 5.455,2.629 9.698,5.053 12.527,8.084 2.829,3.029 3.84,7.676 3.84,7.676 4.039,1.619 4.241,-1.816 4.241,-1.816 l -3.232,-4.244 c 1.817,0.201 3.84,-1.818 3.84,-1.818 -0.808,-4.445 -22.023,-15.151 -22.023,-15.151 -1.213,-1.012 -1.616,-4.245 -1.616,-4.245 2.627,-2.02 8.89,-13.334 8.89,-13.334 3.637,7.475 24.043,5.455 25.256,5.657 1.212,0.204 2.223,2.223 1.817,3.839 -0.403,1.617 -2.423,9.9 -2.423,12.931 0,0.658 -0.086,1.484 -0.233,2.404 -2.604,0.555 -5.182,0.926 -6.635,1.029 -2.831,0.203 -1.013,-1.414 -3.64,-0.402 -2.627,1.008 0.607,5.252 1.819,4.443 0.512,-0.342 3.961,-1.047 7.766,-1.744 -0.624,2.576 -1.456,5.256 -2.108,6.998 -1.212,3.232 -1.615,4.848 -2.627,7.881 -1.011,3.029 1.213,5.453 2.426,1.816 1.211,-3.637 3.434,-12.324 3.838,-14.143 0.152,-0.684 0.418,-1.766 0.725,-2.961 4.486,-0.795 8.772,-1.486 8.772,-1.486 l 1.817,-0.402 c 0,0 4.041,-0.809 5.254,-3.232 1.211,-2.422 -6.263,-12.121 -6.061,-14.951 0.201,-2.828 9.091,-1.01 12.728,-2.425 3.638,-1.415 5.254,-2.625 5.254,-2.625 6.668,-2.426 18.792,-15.561 21.417,-19.802 2.627,-4.244 3.84,-3.84 6.666,-4.446 2.831,-0.605 6.467,1.011 9.497,1.818 3.033,0.81 3.435,-2.627 3.435,-2.627 2.021,0.204 3.638,-1.818 3.638,-1.818 2.625,-2.018 -0.608,-2.624 -3.235,-4.24 z m -64.252,51.32 c -1.031,0.516 -2.453,0.988 -4.004,1.402 0.213,-0.783 0.411,-1.482 0.569,-2.01 0.605,-2.018 4.241,-7.878 4.241,-7.878 l 3.638,6.06 c 0.001,0 -1.211,0.809 -4.444,2.426 z" id="path7" inkscape:connector-curvature="0" />
    <path style="fill:#ffffff" d="m 185.94,405.556 c -3.637,-1.818 -5.456,-6.668 -5.456,-6.668 -0.606,-2.425 -8.082,-6.062 -8.082,-6.062 1.01,-3.031 -1.818,-9.093 -1.818,-9.093 -1.212,0 -1.617,6.265 -2.223,4.244 -0.606,-2.02 -4.243,-2.83 -5.86,-6.668 -1.616,-3.837 -2.829,-3.03 -2.829,-3.03 -5.859,5.454 2.021,17.376 2.021,17.376 -1.818,0.403 -5.051,8.689 -7.678,11.923 -2.626,3.231 -6.869,7.877 -6.869,7.877 -1.617,-2.222 -3.436,-1.412 -9.901,-4.241 -6.466,-2.83 -9.9,-1.616 -14.548,-2.424 -4.646,-0.809 -15.153,-3.233 -20.407,-4.851 -5.253,-1.616 -8.082,-0.808 -13.335,-1.21 -5.253,-0.404 -10.911,0.2 -10.911,0.2 -6.668,0.605 -11.112,3.839 -12.932,6.06 -1.818,2.225 -3.03,2.628 -3.03,2.628 -13.941,6.062 -0.809,4.446 -0.809,4.446 -4.646,16.566 18.791,21.418 18.791,21.418 0,0 0.606,0.806 0.405,2.827 -0.201,2.021 0.202,0.809 0.202,0.809 0,0 3.637,7.071 -1.01,12.729 -4.647,5.656 1.213,4.444 2.223,5.456 1.01,1.01 1.617,2.627 3.03,3.231 1.415,0.607 6.87,5.658 10.507,8.082 3.637,2.426 9.294,6.266 10.507,8.285 0.073,0.122 0.154,0.235 0.239,0.337 -0.176,0.988 -0.239,1.684 -0.239,1.684 0.606,4.244 5.052,1.011 5.052,1.011 -0.332,-0.803 -0.373,-1.84 -0.235,-2.975 0.01,-0.02 0.024,-0.036 0.032,-0.057 0.027,-0.062 0.027,-0.141 0.006,-0.234 0.146,-1.002 0.424,-2.073 0.761,-3.126 0.332,0.238 0.559,0.421 0.647,0.532 0.808,1.011 4.243,2.627 6.062,0.402 1.818,-2.222 -1.01,-2.827 -3.839,-4.849 -0.241,-0.172 -0.595,-0.405 -1.04,-0.69 0.362,-0.782 0.667,-1.393 0.837,-1.732 0.207,-0.413 0.53,-1.127 0.922,-1.99 0.03,-0.01 0.06,-0.021 0.089,-0.029 0,0 5.253,-2.225 8.485,-3.233 3.233,-1.011 13.336,-4.445 17.781,-8.084 4.446,-3.636 -2.223,-7.272 -3.03,-8.687 -0.808,-1.415 -1.01,-5.86 2.424,-5.86 3.435,0 9.294,-5.859 15.356,-8.891 6.062,-3.032 8.284,-7.881 12.123,-13.335 3.839,-5.457 5.859,-3.436 8.083,-3.838 2.222,-0.406 5.05,0.199 8.283,1.211 3.233,1.011 3.435,-3.233 3.435,-3.233 2.02,0.403 2.829,-1.414 2.829,-1.414 4.446,-3.839 -5.051,-6.264 -5.051,-6.264 z m -77.991,68.496 c -0.181,0.271 -0.346,0.567 -0.497,0.881 -3.471,-3.15 -8.394,-6.943 -8.394,-6.943 0,0 5.08,2.914 8.931,5.269 0.111,0.068 0.219,0.134 0.327,0.201 -0.128,0.219 -0.252,0.418 -0.367,0.592 z M 91.38,457.685 c -2.02,-1.415 -2.626,-3.839 -2.626,-3.839 1.617,-2.224 7.072,-14.748 7.072,-14.748 3.839,3.838 23.64,5.658 23.64,5.658 -3.031,3.435 -2.829,11.92 -4.85,15.758 -0.328,0.624 -0.683,1.339 -1.053,2.106 -1.854,0.151 -1.978,1.128 -1.978,1.128 -1.04,2.639 -1.064,3.851 -0.566,4.305 -0.174,0.373 -0.347,0.742 -0.518,1.102 -6.315,-3.838 -17.557,-10.375 -19.121,-11.47 z m 43.442,-1.819 c -2.223,1.011 -9.092,4.041 -13.335,5.254 -3.51,1.004 -2.599,1.866 -4.351,1.793 0.705,-1.44 1.4,-2.73 1.927,-3.408 1.414,-1.817 5.455,-14.346 5.455,-14.346 0,0 2.627,1.009 4.243,2.424 1.618,1.414 8.083,3.639 9.093,5.456 1.008,1.818 -0.81,1.818 -3.032,2.827 z" id="path8" inkscape:connector-curvature="0" />
    <path style="fill:#ffffff" d="m 388.184,401.715 c -1.818,-0.807 -6.062,-3.837 -6.062,-3.837 -1.212,-7.274 -7.678,-9.497 -7.678,-9.497 1.819,-3.03 2.627,-11.113 2.627,-11.113 0,0 1.213,-0.604 -0.607,-0.201 -1.818,0.404 -4.849,2.222 -6.061,3.637 -1.212,1.414 -1.415,1.212 -3.03,-0.807 -1.617,-2.021 -3.233,-4.244 -5.859,-8.286 -2.627,-4.04 -3.637,-1.009 -3.637,-1.009 -0.404,2.222 -0.404,1.817 -2.021,7.07 -1.617,5.255 3.637,12.123 3.637,12.123 -1.213,3.839 -13.941,20.609 -14.346,21.218 -0.404,0.604 -4.647,-0.406 -9.9,-1.619 -5.253,-1.211 -9.901,-0.404 -14.548,-0.605 -4.647,-0.201 -15.558,-3.435 -20.205,-4.444 -4.648,-1.01 -11.921,0 -20.003,-0.203 -8.082,-0.201 -12.325,3.03 -14.952,5.253 -2.626,2.224 -5.456,3.438 -5.456,3.438 -13.941,7.07 -0.808,4.441 -0.808,4.441 -1.616,15.761 15.355,24.854 15.355,24.854 -0.404,2.627 -5.253,8.082 -9.294,10.71 -4.041,2.624 0.404,3.03 0.606,5.859 0.202,2.826 4.849,8.283 6.668,10.911 1.818,2.625 7.476,8.889 8.486,11.516 1.01,2.627 2.02,3.031 4.243,3.436 2.223,0.403 5.657,-1.214 1.617,-3.839 -4.042,-2.627 -10.507,-13.74 -12.729,-16.973 -2.223,-3.232 -4.647,-3.639 -1.212,-5.051 3.434,-1.415 11.315,-9.295 11.315,-9.295 0.605,2.627 2.828,6.06 0.808,9.293 -2.021,3.232 5.86,5.658 7.072,7.274 1.212,1.618 10.305,7.274 13.335,9.497 3.031,2.223 7.274,3.638 8.284,5.859 1.011,2.222 5.657,3.233 6.062,0.807 0.404,-2.423 -6.87,-5.857 -10.912,-8.283 -1.452,-0.87 -3.505,-2.316 -5.585,-3.933 2.962,-1.042 28.215,-10.009 28.215,-10.009 5.052,-4.04 1.616,-16.567 1.616,-16.567 2.425,0.809 11.719,0.201 11.719,0.201 l 0,2.021 c 0.203,2.425 -2.829,5.657 -6.263,9.092 -3.435,3.435 -7.072,6.466 -8.486,9.093 -1.415,2.625 1.211,6.667 5.051,0.807 3.838,-5.857 11.315,-10.303 14.144,-14.143 2.828,-3.839 3.031,-9.295 3.031,-9.295 -2.626,-1.412 -8.083,-5.253 -8.083,-5.253 7.476,-2.02 19.195,-17.174 21.62,-20.608 2.425,-3.434 4.445,-4.042 6.264,-4.85 1.819,-0.807 6.667,0.202 10.304,0.608 3.638,0.402 3.839,-2.426 3.839,-2.426 2.222,0 4.647,-2.426 4.647,-2.426 2.426,-2.628 -2.828,-4.446 -2.828,-4.446 z m -60.615,55.16 c -0.809,0 -5.457,2.427 -7.88,3.841 -2.424,1.413 -9.901,3.231 -14.144,4.445 -3.231,0.922 -4.937,0.794 -6.104,1.481 -2.115,-1.884 -3.791,-3.649 -4.201,-4.717 -1.009,-2.624 0.607,-7.676 0,-10.908 -0.605,-3.233 2.627,-10.103 2.627,-10.103 4.243,2.828 26.671,3.029 26.671,3.029 -1.212,1.617 2.828,12.124 2.828,12.124 0,0 1.01,0.808 0.203,0.808 z" id="path9" inkscape:connector-curvature="0" />
    <path style="fill:#ffffff" d="m 476.709,451.622 c 0,0 -14.749,2.427 -14.749,5.658 0,3.233 0,6.466 1.009,10.911 1.011,4.445 1.819,10.304 3.839,13.133 2.022,2.829 2.627,4.039 0.404,4.646 -2.222,0.605 -3.838,0.203 -4.443,-2.222 -0.607,-2.425 -2.829,-7.476 -3.84,-11.719 -1.011,-4.244 -1.214,-7.679 -3.032,-11.923 -1.817,-4.241 -2.625,-5.656 -1.614,-6.869 0,0 -0.403,-1.817 1.414,-2.828 1.818,-1.01 5.253,-1.616 8.484,-3.435 3.232,-1.819 3.84,-3.232 3.84,-3.232 0,0 -8.688,-8.892 -5.657,-22.428 0,0 -1.011,-4.849 -6.868,-1.616 0,0 -6.063,-2.829 6.666,-4.244 0,0 1.818,0 3.232,-1.21 1.414,-1.214 2.224,-2.628 7.072,-3.639 4.849,-1.009 8.486,-2.223 11.314,-2.424 2.829,-0.203 11.315,-1.616 16.973,-0.809 5.657,0.809 12.122,1.615 15.559,2.02 3.434,0.405 13.334,-0.201 15.961,-0.404 2.627,-0.201 6.465,0.81 10.103,1.617 3.636,0.809 6.667,1.616 9.699,-4.445 3.03,-6.062 9.495,-17.578 11.92,-19.194 0,0 -4.849,-11.314 -3.638,-14.144 1.213,-2.829 -2.828,-4.446 1.213,-2.829 4.041,1.616 9.499,5.456 10.911,11.518 0,0 2.627,-5.859 4.243,-5.657 1.616,0.2 2.222,8.283 1.011,10.305 0,0 6.465,3.029 7.273,7.677 0,0 2.627,4.444 5.859,5.052 3.232,0.605 6.465,2.626 4.04,5.456 0,0 -3.435,2.827 -5.051,2.223 0,0 -0.807,3.232 -4.849,2.423 -4.041,-0.807 -8.082,-2.221 -9.698,-1.615 -1.618,0.607 -3.232,3.03 -5.254,5.457 -2.02,2.423 -12.324,18.991 -15.76,19.799 0,0 6.87,9.093 6.668,15.962 -0.203,6.871 0.605,0.607 0.605,0.607 0,0 -15.559,21.214 -21.418,25.458 0,0 -4.646,4.042 -3.03,-4.042 0,0 1.213,-1.212 4.648,-2.827 3.435,-1.618 6.06,-4.851 9.697,-8.892 3.638,-4.042 5.456,-5.453 4.849,-8.891 -0.605,-3.435 -5.051,-9.294 -6.261,-9.9 -1.213,-0.604 -4.044,-0.201 -2.629,3.233 1.416,3.435 3.434,5.86 2.021,8.082 -1.414,2.221 -8.69,5.051 -13.133,8.081 -4.447,3.031 -12.932,3.639 -17.782,5.659 -4.848,2.02 -4.242,-2.224 -0.807,-5.054 0,0 2.018,-0.605 4.445,0.204 2.423,0.808 6.464,-1.213 9.495,-2.627 3.03,-1.415 11.72,-5.253 11.72,-6.466 0,-1.213 -6.062,-3.636 -6.466,-6.263 -0.404,-2.626 -0.404,-0.606 -0.404,-0.606 0,0 -29.701,3.839 -39.4,-1.213 0,0 -7.476,7.273 -10.506,11.517 -3.03,4.244 -6.062,11.314 -3.84,13.941 2.224,2.627 4.849,4.85 6.265,6.062 1.415,1.212 8.081,6.062 9.495,7.477 1.415,1.412 3.638,2.221 -0.201,3.031 -3.84,0.806 -4.646,-0.407 -5.053,-2.83 -0.403,-2.425 -4.444,-3.232 -8.484,-6.062 -4.041,-2.829 -8.284,-6.465 -9.497,-7.477 -1.212,-1.009 -3.638,-1.211 -2.223,-4.647 1.416,-3.432 3.64,-12.526 3.64,-12.526 z" id="path10" inkscape:connector-curvature="0" />
    <path style="fill:#ffffff" d="m 690.863,442.936 c 0,0 -12.528,11.718 -25.862,15.152 0,0 -3.031,2.224 -0.605,5.255 2.423,3.03 12.122,16.971 14.344,21.012 2.223,4.042 -3.838,1.415 -5.859,0 -2.02,-1.414 -0.605,-1.008 -1.211,-3.434 -0.607,-2.426 -8.284,-10.306 -9.699,-12.729 -1.416,-2.424 -6.265,-11.314 -1.819,-13.337 l 2.629,-2.423 -9.499,3.838 c -1.213,1.818 -3.636,13.942 -4.241,17.376 -0.607,3.435 -3.638,7.679 -1.416,11.315 2.223,3.638 -6.262,1.414 -5.454,-2.827 0.807,-4.244 1.011,-3.639 1.817,-6.668 0.81,-3.03 2.022,-11.921 2.426,-16.367 0.403,-4.445 0,-7.274 1.211,-8.485 0,0 -0.808,-3.03 1.212,-3.232 2.021,-0.204 12.731,-1.011 14.953,-5.051 0,0 -6.265,-17.58 -1.416,-23.236 0,0 -12.122,1.009 0.203,-3.03 0,0 2.224,-0.405 4.243,-1.818 2.02,-1.414 5.053,-3.436 10.305,-4.042 5.254,-0.605 8.08,-1.214 15.558,-0.808 7.476,0.403 13.74,0 19.194,0.808 5.457,0.81 12.729,-0.404 17.579,-0.404 4.849,0 7.072,-0.201 10.708,0.605 3.638,0.81 6.669,1.011 8.89,-1.009 2.224,-2.021 10.104,-19.601 14.749,-22.023 0,0 -5.857,-11.113 -4.847,-13.941 1.01,-2.829 -0.606,-6.062 1.615,-4.851 2.223,1.212 5.254,3.638 7.477,6.87 2.224,3.232 3.838,2.829 4.241,4.446 0.405,1.615 0.607,0 0.607,0 0,0 1.213,0 3.638,-0.606 2.424,-0.607 1.818,2.222 0,5.455 -1.819,3.232 4.646,6.667 6.667,10.504 2.021,3.842 14.549,4.244 7.679,8.894 0,0 -7.881,-0.607 -4.648,1.211 0,0 2.224,2.225 1.616,2.829 -0.605,0.605 -3.03,0.201 -6.667,-0.403 -3.638,-0.608 -2.223,-3.436 -7.475,0.604 -5.254,4.042 -4.243,3.233 -7.072,8.69 -2.829,5.454 -5.859,7.272 -7.476,8.485 -1.618,1.212 -10.508,4.647 -8.083,5.453 2.424,0.81 13.74,4.246 13.74,4.246 0,0 1.213,3.031 2.222,8.284 1.011,5.252 0,14.145 -0.605,16.163 -0.605,2.021 -0.201,4.647 -2.02,6.667 -1.817,2.021 -7.071,0 -3.638,-3.434 3.436,-3.435 1.82,-2.426 2.425,-5.457 0.605,-3.028 -0.201,-11.92 -0.201,-11.92 0,0 -0.204,-6.465 -1.213,-7.07 -1.011,-0.607 -15.356,24.041 -24.448,26.669 0,0 -8.082,1.011 -5.659,-1.818 2.428,-2.829 0.81,-3.436 4.648,-3.031 0,0 4.243,-1.415 7.072,-4.445 2.829,-3.03 8.486,-10.102 9.697,-13.132 0,0 -15.759,3.231 -17.981,0.607 0,0 -32.732,4.039 -40.208,-1.416 -0.002,-0.001 -4.852,-1.417 -4.043,1.009 z" id="path11" inkscape:connector-curvature="0" />
    <script type="application/ecmascript" xlink:href="http://www.jonnypeng.com/js/snap.svg-min.js"></script>
    <script type="application/ecmascript" xlink:href="js/jianying.js"></script> 
</svg>
