<?xml version="1.0" encoding="iso-8859-1"?>
<!-- Generator: Adobe Illustrator 16.0.0, SVG Export Plug-In . SVG Version: 6.00 Build 0)  -->
<!DOCTYPE svg PUBLIC "-//W3C//DTD SVG 1.1//EN" "http://www.w3.org/Graphics/SVG/1.1/DTD/svg11.dtd">
<svg version="1.1" id="&#x592E;&#x94CB;_1" xmlns="http://www.w3.org/2000/svg" xmlns:xlink="http://www.w3.org/1999/xlink" x="0px"
	 y="0px" width="625px" height="625px" viewBox="0 0 625 625" style="enable-background:new 0 0 625 625;" xml:space="preserve">
<polygon style="fill:#00368E;" points="0,0 8,313 28,200 "/>
<polygon style="fill:#001C70;" points="8,313 0,625 30,429 "/>
<polygon style="fill:#004097;" points="0,0 28,200 93,99 "/>
<polygon style="fill:#00196D;" points="30,429 0,625 98,527 "/>
<polygon style="fill:#013490;" points="28,200 8,313 107,231 "/>
<polygon style="fill:#0244A2;" points="93,99 28,200 107,231 "/>
<polygon style="fill:#00227C;" points="30,429 98,527 109,399 "/>
<polygon style="fill:#01267F;" points="8,313 30,429 109,399 "/>
<polygon style="fill:#003B9F;" points="107,231 8,313 150,312 "/>
<polygon style="fill:#003293;" points="8,313 109,399 150,312 "/>
<polygon style="fill:#0B59AC;" points="0,0 93,99 194,31 "/>
<polygon style="fill:#095FC2;" points="107,231 150,312 195,199 "/>
<polygon style="fill:#0C61BE;" points="93,99 107,231 195,199 "/>
<polygon style="fill:#001C70;" points="98,527 0,625 197,595 "/>
<polygon style="fill:#0041A9;" points="150,312 109,399 200,426 "/>
<polygon style="fill:#012D8E;" points="109,399 98,527 200,426 "/>
<polygon style="fill:#288CD7;" points="194,31 93,99 227,107 "/>
<polygon style="fill:#2085D7;" points="93,99 195,199 227,107 "/>
<polygon style="fill:#012885;" points="98,527 197,595 230,516 "/>
<polygon style="fill:#003293;" points="200,426 98,527 230,516 "/>
<polygon style="fill:#67C8F3;" points="194,31 227,107 309,9 "/>
<polygon style="fill:#2D8ED5;" points="0,0 194,31 309,9 "/>
<polygon style="fill:#00338F;" points="230,516 197,595 313,618 "/>
<polygon style="fill:#00247C;" points="197,595 0,625 313,618 "/>
<polygon style="fill:#50BBF1;" points="227,107 195,199 314,149 "/>
<polygon style="fill:#87DBF7;" points="309,9 227,107 314,149 "/>
<polygon style="fill:#4DBAF3;" points="314,149 195,199 316,314 "/>
<polygon style="fill:#1C86DE;" points="195,199 150,312 316,314 "/>
<polygon style="fill:#106ACB;" points="150,312 200,426 316,314 "/>
<polygon style="fill:#044CB0;" points="200,426 230,516 317,473 "/>
<polygon style="fill:#126FCE;" points="316,314 200,426 317,473 "/>
<polygon style="fill:#0244A4;" points="230,516 313,618 317,473 "/>
<polygon style="fill:#B5EFFD;" points="309,9 314,149 396,103 "/>
<polygon style="fill:#0750AC;" points="317,473 313,618 399,515 "/>
<polygon style="fill:#2487D8;" points="316,314 317,473 426,428 "/>
<polygon style="fill:#156DC4;" points="317,473 399,515 426,428 "/>
<polygon style="fill:#DAF7FD;" points="309,9 396,103 429,26 "/>
<polygon style="fill:#83D9FA;" points="314,149 316,314 430,196 "/>
<polygon style="fill:#B6EEFD;" points="396,103 314,149 430,196 "/>
<polygon style="fill:#044BA3;" points="399,515 313,618 433,593 "/>
<polygon style="fill:#4EAEEA;" points="316,314 426,428 477,310 "/>
<polygon style="fill:#7BD0F5;" points="430,196 316,314 477,310 "/>
<polygon style="fill:#51AAE6;" points="477,310 426,428 520,397 "/>
<polygon style="fill:#A3E1F8;" points="430,196 477,310 520,224 "/>
<polygon style="fill:#D5F6FD;" points="396,103 430,196 529,94 "/>
<polygon style="fill:#CDF2FB;" points="430,196 520,224 529,94 "/>
<polygon style="fill:#E6F9FD;" points="429,26 396,103 529,94 "/>
<polygon style="fill:#0F5BAF;" points="399,515 433,593 532,526 "/>
<polygon style="fill:#1C71C1;" points="426,428 399,515 532,526 "/>
<polygon style="fill:#3286CF;" points="520,397 426,428 532,526 "/>
<polygon style="fill:#0E55A7;" points="532,526 433,593 587,623 "/>
<polygon style="fill:#044AA0;" points="433,593 313,618 587,623 "/>
<polygon style="fill:#D5F3FB;" points="529,94 520,224 597,193 "/>
<polygon style="fill:#3D8CCE;" points="520,397 532,526 597,426 "/>
<polygon style="fill:#B8E7F9;" points="597,193 520,224 620,307 "/>
<polygon style="fill:#68B2E1;" points="520,397 597,426 620,307 "/>
<polygon style="fill:#79C4EC;" points="477,310 520,397 620,307 "/>
<polygon style="fill:#9ADAF5;" points="520,224 477,310 620,307 "/>
<polygon style="fill:#DAF5FC;" points="597,193 620,307 625,0 "/>
<polygon style="fill:#EDFBFC;" points="529,94 597,193 625,0 "/>
<polygon style="fill:#F3FDFE;" points="429,26 529,94 625,0 "/>
<polygon style="fill:#F2FCFD;" points="309,9 429,26 625,0 "/>
<polygon style="fill:#418DCB;" points="620,307 597,426 625,625 "/>
<polygon style="fill:#1156A3;" points="532,526 587,623 625,625 "/>
<polygon style="fill:#2169B3;" points="597,426 532,526 625,625 "/>
<rect style="fill:none;" width="625" height="625"/>
<g>
	<path style="fill-rule:evenodd;clip-rule:evenodd;fill:#231F20;" d="M185.01,328.513l16.47,35.371l216.163-35.778L185.01,328.513
		L185.01,328.513z M220.413,291.314l-26.192,0.028l0.026,23.976l29.853-0.031l0.002,1.935l-31.788,0.033l-0.056-52.237l31.788-0.033
		l0.002,1.935l-29.854,0.031l0.024,22.458l26.192-0.028L220.413,291.314L220.413,291.314z M236.055,295.142l0.024,22.068h-1.935
		l-0.057-52.236l16.323-0.018c5.338-0.006,9.479,1.336,12.433,4.027c2.967,2.678,4.439,6.424,4.443,11.199
		c0.006,4.74-1.434,8.403-4.31,10.989c-2.875,2.586-6.976,3.901-12.278,3.956L236.055,295.142L236.055,295.142z M236.053,293.208
		l14.388-0.016c4.714-0.004,8.374-1.148,10.992-3.416c2.619-2.281,3.926-5.453,3.92-9.519c-0.004-4.212-1.317-7.493-3.941-9.842
		c-2.623-2.359-6.285-3.532-11-3.526l-14.389,0.015L236.053,293.208L236.053,293.208z M309.547,304.615
		c-0.002-2.229-0.531-4.113-1.574-5.655c-1.04-1.542-2.671-2.898-4.914-4.084c-2.243-1.172-5.624-2.382-10.144-3.626
		c-4.519-1.231-7.912-2.489-10.167-3.76c-2.266-1.259-3.921-2.727-4.977-4.403c-1.054-1.677-1.583-3.709-1.585-6.097
		c-0.004-3.807,1.597-6.883,4.802-9.237c3.193-2.367,7.368-3.546,12.511-3.553c3.355-0.002,6.356,0.642,9.026,1.951
		c2.671,1.294,4.73,3.129,6.191,5.479c1.459,2.35,2.196,5.018,2.2,7.982l-1.935,0c-0.003-3.906-1.44-7.125-4.32-9.668
		c-2.869-2.544-6.592-3.813-11.16-3.809c-4.592,0.005-8.301,1.037-11.14,3.085c-2.827,2.048-4.244,4.608-4.241,7.695
		c0.003,3.134,1.244,5.655,3.707,7.575c2.463,1.908,6.529,3.594,12.201,5.056c5.67,1.465,9.823,3.174,12.459,5.106
		c3.346,2.458,5.027,5.75,5.03,9.889c0.003,2.632-0.742,4.959-2.222,6.981c-1.479,2.022-3.583,3.58-6.3,4.685
		c-2.73,1.104-5.791,1.659-9.183,1.662c-3.783,0.004-7.175-0.618-10.189-1.873c-3.026-1.248-5.293-3.032-6.814-5.357
		c-1.521-2.313-2.283-5.055-2.286-8.214l1.946-0.002c0.005,4.286,1.6,7.602,4.811,9.974c3.211,2.361,7.388,3.543,12.53,3.538
		c4.567-0.006,8.326-1.05,11.286-3.147C308.073,310.691,309.551,307.959,309.547,304.615L309.547,304.615z M432.83,356.849
		c0.467,2.816-3.46,3.924-4.839,1.11c-0.958-2.083-2-4.104-2.928-6.178l-0.662-1.367c-0.267,0.338-3.74,6.322-4.274,7.201
		c-0.548,0.902-1.487,0.759-1.893,0.242c-0.378-0.477-0.412-2.002-0.489-2.738l-1.257-24.901c-0.31-2.942,1.058-2.582,2.646-1.102
		c1.879,1.751,3.831,3.748,5.721,5.523l2.856,2.738c1.365,1.307,3.129,2.952,4.422,4.259c0.979,0.988,2.562,2.388,3.512,3.363
		c0.451,0.467,2.407,2.159,2.551,2.657c0.151,0.539-0.062,0.992-0.384,1.233c-0.57,0.426-2.13,0.104-2.866,0.052l-5.947-0.481
		c0.145,0.424,0.484,1.089,0.766,1.681c0.535,1.126,1.019,2.218,1.58,3.342C431.624,354.043,432.747,356.357,432.83,356.849
		L432.83,356.849z M204.37,354.515l2.117-13.737l4.287-0.579l-3.907,19.33l-3.598,0.485l-8.944-17.592l4.299-0.582L204.37,354.515
		L204.37,354.515z M224.033,357.559c-2.627,0.355-4.871-0.186-6.725-1.619c-1.862-1.438-2.975-3.53-3.346-6.285l-0.069-0.513
		c-0.25-1.839-0.116-3.535,0.399-5.084c0.515-1.546,1.364-2.811,2.541-3.794c1.172-0.983,2.55-1.579,4.135-1.792
		c2.511-0.34,4.564,0.201,6.149,1.617c1.592,1.417,2.581,3.595,2.977,6.531l0.226,1.672l-12.062,1.632
		c0.334,1.506,1.004,2.651,2.015,3.415c1.017,0.771,2.196,1.062,3.553,0.878c1.898-0.256,3.344-1.235,4.33-2.933l2.525,1.829
		c-0.589,1.206-1.464,2.195-2.618,2.969C226.911,356.86,225.571,357.351,224.033,357.559L224.033,357.559z M221.399,341.801
		c1.148-0.156,2.092,0.076,2.841,0.701c0.742,0.621,1.257,1.625,1.532,3.001l0.042,0.309l-7.897,1.066
		c0-1.448,0.298-2.62,0.89-3.512C219.396,342.474,220.264,341.953,221.399,341.801L221.399,341.801z M241.793,351.789
		c1.038-0.14,1.853-0.559,2.459-1.251c0.6-0.697,0.86-1.492,0.786-2.39l3.909-0.529c0.109,1.16-0.102,2.28-0.642,3.367
		c-0.535,1.086-1.338,1.995-2.407,2.732c-1.076,0.732-2.277,1.191-3.605,1.371c-2.581,0.349-4.744-0.213-6.484-1.681
		c-1.734-1.466-2.805-3.677-3.203-6.623l-0.057-0.426c-0.379-2.808,0.067-5.165,1.335-7.055c1.274-1.895,3.211-3.014,5.803-3.366
		c2.195-0.296,4.071,0.104,5.625,1.199c1.558,1.088,2.508,2.673,2.859,4.75l-3.909,0.527c-0.189-1.053-0.669-1.878-1.437-2.469
		c-0.767-0.59-1.676-0.817-2.724-0.676c-1.34,0.181-2.311,0.81-2.908,1.882c-0.596,1.07-0.765,2.595-0.508,4.576l0.091,0.671
		c0.27,2.003,0.833,3.445,1.688,4.332C239.321,351.618,240.431,351.973,241.793,351.789L241.793,351.789z M254.999,329.649
		l0.607,4.489l3.257-0.438l0.414,3.069l-3.255,0.439l1.393,10.309c0.096,0.706,0.305,1.198,0.626,1.471
		c0.316,0.278,0.838,0.366,1.555,0.271c0.478-0.064,0.953-0.188,1.427-0.364l0.434,3.207c-0.909,0.392-1.799,0.642-2.68,0.762
		c-3.186,0.43-5.014-1.114-5.489-4.633l-1.413-10.461l-3.042,0.411l-0.415-3.07l3.041-0.41l-0.607-4.492L254.999,329.649
		L254.999,329.649z M262.475,342.44c-0.244-1.812-0.104-3.492,0.417-5.039c0.521-1.546,1.377-2.796,2.571-3.751
		c1.188-0.955,2.626-1.549,4.31-1.775c2.492-0.337,4.623,0.193,6.394,1.587c1.767,1.397,2.893,3.41,3.379,6.043l0.149,0.969
		c0.246,1.824,0.117,3.496-0.39,5.025c-0.51,1.533-1.357,2.772-2.555,3.735c-1.199,0.965-2.648,1.558-4.355,1.787
		c-2.604,0.354-4.806-0.233-6.607-1.758c-1.796-1.525-2.895-3.731-3.286-6.62L262.475,342.44L262.475,342.44z M266.671,342.235
		c-0.289-2.139-0.105-3.8,0.541-4.984c0.653-1.187,1.658-1.868,3.01-2.05c1.374-0.187,2.537,0.216,3.489,1.194
		c0.951,0.986,1.553,2.413,1.806,4.282c0.284,2.104,0.111,3.756-0.522,4.958c-0.633,1.193-1.648,1.889-3.046,2.079
		c-1.398,0.188-2.565-0.201-3.497-1.173C267.524,345.57,266.928,344.14,266.671,342.235L266.671,342.235z M292.103,333.062
		c-0.559-0.013-1.125,0.017-1.707,0.094c-1.898,0.258-3.082,1.159-3.544,2.705l1.708,12.628l-4.147,0.559l-2.495-18.463l3.961-0.534
		l0.377,2.047c0.785-1.737,2.069-2.729,3.839-2.968c0.595-0.081,1.095-0.064,1.5,0.041L292.103,333.062z"/>
	<path style="fill-rule:evenodd;clip-rule:evenodd;fill:#FFFFFF;" d="M184.176,327.473l16.47,35.371l216.164-35.779L184.176,327.473
		L184.176,327.473z M219.58,290.273l-26.191,0.028l0.025,23.977l29.854-0.034l0.002,1.937l-31.788,0.033l-0.056-52.236l31.788-0.035
		l0.002,1.935l-29.854,0.031l0.024,22.458l26.193-0.028L219.58,290.273L219.58,290.273z M235.221,294.102l0.023,22.064l-1.935,0.004
		l-0.056-52.237l16.323-0.019c5.339-0.004,9.479,1.337,12.433,4.028c2.966,2.679,4.439,6.423,4.444,11.199
		c0.005,4.739-1.436,8.402-4.31,10.988c-2.875,2.586-6.976,3.902-12.278,3.956L235.221,294.102L235.221,294.102z M235.22,292.167
		l14.387-0.016c4.714-0.004,8.375-1.147,10.992-3.416c2.618-2.28,3.925-5.453,3.921-9.519c-0.005-4.212-1.318-7.492-3.94-9.84
		c-2.625-2.361-6.287-3.533-11.001-3.528l-14.387,0.015L235.22,292.167L235.22,292.167z M308.713,303.574
		c-0.001-2.228-0.529-4.113-1.573-5.655c-1.042-1.542-2.671-2.899-4.914-4.085c-2.243-1.173-5.623-2.381-10.143-3.625
		c-4.52-1.232-7.913-2.49-10.167-3.761c-2.267-1.259-3.923-2.727-4.978-4.403c-1.055-1.676-1.583-3.709-1.586-6.096
		c-0.004-3.809,1.597-6.885,4.803-9.239c3.193-2.366,7.368-3.547,12.511-3.551c3.354-0.004,6.355,0.641,9.026,1.949
		c2.671,1.295,4.73,3.13,6.189,5.479c1.46,2.349,2.197,5.018,2.201,7.982l-1.935,0.001c-0.003-3.906-1.44-7.125-4.321-9.668
		c-2.868-2.544-6.591-3.813-11.159-3.809c-4.592,0.004-8.302,1.037-11.14,3.085c-2.827,2.047-4.244,4.608-4.241,7.694
		c0.002,3.134,1.243,5.656,3.706,7.577c2.464,1.907,6.531,3.593,12.202,5.056c5.67,1.464,9.824,3.173,12.459,5.105
		c3.345,2.458,5.026,5.75,5.03,9.889c0.003,2.632-0.741,4.959-2.221,6.982c-1.479,2.021-3.583,3.578-6.301,4.684
		c-2.729,1.104-5.791,1.659-9.182,1.663c-3.784,0.004-7.177-0.619-10.19-1.876c-3.026-1.245-5.293-3.03-6.813-5.355
		c-1.521-2.313-2.284-5.055-2.287-8.214l1.947-0.001c0.004,4.285,1.599,7.602,4.81,9.974c3.211,2.361,7.388,3.544,12.531,3.538
		c4.567-0.005,8.325-1.05,11.287-3.146C307.24,309.649,308.717,306.917,308.713,303.574L308.713,303.574z M431.996,355.809
		c0.468,2.814-3.459,3.922-4.838,1.109c-0.957-2.083-2-4.104-2.93-6.177l-0.661-1.367c-0.266,0.338-3.738,6.319-4.273,7.199
		c-0.548,0.903-1.486,0.759-1.893,0.244c-0.377-0.479-0.41-2.003-0.488-2.737l-1.258-24.904c-0.311-2.942,1.058-2.581,2.646-1.101
		c1.879,1.751,3.834,3.747,5.722,5.525l2.854,2.735c1.364,1.306,3.13,2.953,4.423,4.261c0.979,0.988,2.562,2.386,3.511,3.363
		c0.452,0.465,2.41,2.157,2.552,2.656c0.151,0.54-0.062,0.991-0.384,1.233c-0.57,0.426-2.132,0.104-2.866,0.053l-5.948-0.482
		c0.146,0.422,0.485,1.089,0.767,1.68c0.535,1.127,1.017,2.218,1.579,3.343C430.791,353.002,431.915,355.318,431.996,355.809
		L431.996,355.809z M203.537,353.475l2.117-13.738l4.287-0.579l-3.906,19.328l-3.599,0.487l-8.944-17.594l4.299-0.581
		L203.537,353.475L203.537,353.475z M223.2,356.516c-2.626,0.356-4.87-0.184-6.725-1.618c-1.861-1.438-2.974-3.527-3.347-6.285
		l-0.069-0.51c-0.25-1.844-0.116-3.538,0.398-5.084c0.515-1.546,1.364-2.812,2.542-3.796c1.171-0.983,2.551-1.579,4.135-1.792
		c2.51-0.341,4.564,0.2,6.15,1.618c1.591,1.416,2.58,3.595,2.977,6.532l0.226,1.669l-12.062,1.632
		c0.333,1.509,1.004,2.652,2.016,3.416c1.017,0.771,2.195,1.062,3.552,0.878c1.898-0.257,3.344-1.234,4.33-2.934l2.525,1.829
		c-0.59,1.206-1.465,2.197-2.617,2.969C226.077,355.819,224.737,356.309,223.2,356.516L223.2,356.516z M220.567,340.757
		c1.146-0.155,2.091,0.08,2.84,0.701c0.743,0.625,1.258,1.628,1.532,3.002l0.042,0.31l-7.898,1.067c0-1.447,0.298-2.621,0.89-3.514
		C218.563,341.432,219.431,340.911,220.567,340.757L220.567,340.757z M240.96,350.747c1.037-0.139,1.853-0.56,2.458-1.251
		c0.6-0.699,0.86-1.492,0.786-2.39l3.908-0.528c0.11,1.16-0.101,2.279-0.642,3.367c-0.535,1.085-1.337,1.996-2.406,2.733
		c-1.076,0.733-2.276,1.189-3.604,1.371c-2.581,0.348-4.744-0.215-6.484-1.682c-1.735-1.468-2.804-3.678-3.204-6.626l-0.057-0.423
		c-0.378-2.809,0.067-5.163,1.336-7.056c1.275-1.892,3.211-3.014,5.803-3.363c2.196-0.297,4.071,0.101,5.624,1.197
		c1.559,1.087,2.509,2.674,2.861,4.749l-3.909,0.527c-0.189-1.054-0.668-1.877-1.437-2.468s-1.676-0.818-2.724-0.676
		c-1.34,0.181-2.311,0.812-2.907,1.881c-0.597,1.071-0.764,2.596-0.508,4.576l0.09,0.67c0.271,2.004,0.833,3.446,1.689,4.333
		C238.488,350.576,239.598,350.933,240.96,350.747L240.96,350.747z M254.167,328.607l0.607,4.49l3.255-0.439l0.415,3.068
		l-3.255,0.441l1.394,10.311c0.095,0.705,0.304,1.197,0.625,1.47c0.317,0.275,0.838,0.367,1.555,0.27
		c0.478-0.065,0.954-0.188,1.427-0.365l0.433,3.21c-0.908,0.388-1.798,0.641-2.678,0.759c-3.186,0.431-5.014-1.113-5.49-4.633
		l-1.414-10.459L248,337.14l-0.415-3.069l3.041-0.411l-0.607-4.491L254.167,328.607L254.167,328.607z M261.642,341.398
		c-0.244-1.811-0.104-3.49,0.417-5.038c0.521-1.548,1.378-2.796,2.571-3.752c1.188-0.955,2.626-1.546,4.309-1.774
		c2.493-0.337,4.623,0.192,6.396,1.586c1.766,1.398,2.892,3.411,3.377,6.044l0.149,0.97c0.248,1.823,0.118,3.495-0.388,5.022
		c-0.511,1.535-1.357,2.775-2.556,3.738c-1.198,0.963-2.648,1.555-4.355,1.786c-2.604,0.353-4.807-0.234-6.607-1.759
		c-1.796-1.523-2.895-3.73-3.286-6.62L261.642,341.398L261.642,341.398z M265.837,341.191c-0.288-2.136-0.104-3.798,0.543-4.981
		c0.652-1.186,1.657-1.867,3.008-2.051c1.375-0.185,2.537,0.214,3.489,1.196c0.952,0.986,1.553,2.411,1.806,4.28
		c0.284,2.104,0.111,3.758-0.522,4.958c-0.633,1.196-1.649,1.89-3.046,2.079c-1.397,0.188-2.565-0.201-3.497-1.17
		C266.691,344.531,266.095,343.098,265.837,341.191L265.837,341.191z M291.27,332.021c-0.559-0.013-1.125,0.018-1.707,0.095
		c-1.899,0.257-3.082,1.157-3.542,2.703l1.707,12.628l-4.147,0.562l-2.496-18.466l3.961-0.535l0.378,2.05
		c0.785-1.739,2.069-2.729,3.84-2.97c0.593-0.08,1.094-0.065,1.499,0.041L291.27,332.021z"/>
</g>
</svg>
