<?xml version="1.0" encoding="iso-8859-1"?>
<!-- Generator: Adobe Illustrator 16.0.0, SVG Export Plug-In . SVG Version: 6.00 Build 0)  -->
<!DOCTYPE svg PUBLIC "-//W3C//DTD SVG 1.1//EN" "http://www.w3.org/Graphics/SVG/1.1/DTD/svg11.dtd">
<svg version="1.1" id="svg" xmlns="http://www.w3.org/2000/svg" xmlns:xlink="http://www.w3.org/1999/xlink" x="0px"
	 y="0px" width="338.184px" height="148.637px" viewBox="-136.409 470.818 338.184 148.637"
	 style="enable-background:new -136.409 470.818 338.184 148.637;" xml:space="preserve">
<title>未命名</title>
<desc>Drawing exported from Concepts: Smarter Sketching</desc>
		<path id="STROKE_37A50290-4D91-4566-9844-ED1546184482" style="fill:none;stroke:#D80000;stroke-width:2;stroke-linecap:round;stroke-linejoin:round;stroke-opacity:0.001;" d="
		M-96.318,562.455c0.364-2-0.182-6.818-1.636-14.455s-2.364-11.637-2.727-12l-0.545-0.545"/>
	
		<path id="STROKE_0F84D678-D68C-4C10-8C25-E81A297D892C" style="fill:none;stroke:#D80000;stroke-width:2;stroke-linecap:round;stroke-linejoin:round;stroke-opacity:0.008;" d="
		M-51.863,577.728c-0.909-0.728-2.045-1.637-3.409-2.728c-1.364-1.091-5.091-4.772-11.182-11.045
		c-6.091-6.273-10.682-11.637-13.772-16.092c-3.091-4.454-5.228-7.954-6.409-10.5c-1.182-2.545-1.773-4.136-1.773-4.772
		c0-0.636,2.545,1.909,7.637,7.637c5.091,5.728,10.5,12.228,16.227,19.5s10,12.909,12.818,16.909c2.817,4,4.546,6.318,5.182,6.954
		c0.636,0.637-0.272-0.909-2.728-4.636c-2.454-3.728-6.5-9.864-12.136-18.409c-5.636-8.546-8.5-13.455-8.591-14.728
		s-0.318-2.091-0.682-2.455l-0.545-0.545"/>
	
		<path id="STROKE_E4DC94D9-2069-45DB-9CA7-0CD8F796104B" style="fill:none;stroke:#D80000;stroke-width:42.169;stroke-linecap:round;stroke-linejoin:round;stroke-opacity:0.002;" d="
		M-82.136,571.455c-0.364-2-0.591-3.546-0.682-4.637c-0.091-1.091-0.363-3.818-0.818-8.182c-0.455-4.364-0.682-6.909-0.682-7.637
		s0.773-0.818,2.318-0.272c1.545,0.545,4.273,3.136,8.182,7.772c3.909,4.637,6.364,7.546,7.364,8.728s2.045,2.409,3.136,3.682
		c1.091,1.272,2.137,2.363,3.137,3.272s1.955,1.864,2.863,2.864c0.909,1,1.728,1.863,2.455,2.591
		c0.728,0.728,1.364,1.409,1.909,2.045c0.545,0.637,1.045,1.091,1.5,1.364c0.455,0.272,0.818,0.454,1.091,0.545
		s0.5,0.137,0.683,0.137c0.182,0,0.408,0,0.682,0c0.272,0,0.5,0,0.682,0s0.363-0.137,0.545-0.409s0.409-0.728,0.682-1.363
		c0.273-0.637,0.546-1.364,0.818-2.183c0.273-0.817,0.455-1.908,0.546-3.272c0.091-1.363,0.182-2.863,0.272-4.5
		c0.092-1.636,0.182-3.318,0.273-5.045c0.09-1.728,0.227-3.183,0.408-4.364s0.41-2.363,0.682-3.545
		c0.273-1.183,0.864-2.046,1.773-2.591c0.908-0.546,2.545-0.818,4.908-0.818c2.364,0,4.955,0.182,7.773,0.545
		c2.818,0.364,4.409,0.728,4.773,1.091l0.545,0.546"/>
		<path id="STROKE_32642A04-DB09-4B33-BA68-D2C9539D0170" style="fill:none;stroke:#5A554F;stroke-width:8.823;stroke-linecap:round;stroke-linejoin:round;" d="
		M-105.318,550.182c2.364,5.455,4.591,8.182,6.682,8.182s9.182-4.317,21.272-12.954c12.091-8.637,19.364-13.728,21.818-15.272
		c2.455-1.546,3.091-2.455,1.909-2.728L-55.409,527"/>
	
		<path id="STROKE_F720AEBB-9EA9-4E5A-9317-F6BC73C5D073" style="fill:none;stroke:#5A554F;stroke-width:8.823;stroke-linecap:round;stroke-linejoin:round;" d="
		M-81.863,516.091c-0.909,2.364-1.363,7.5-1.363,15.409s-0.409,13.5-1.228,16.772c-0.818,3.273-2.227,7.455-4.227,12.546
		s-3.864,9.546-5.591,13.363c-1.727,3.818-3.909,7.909-6.545,12.273c-2.636,4.363-4.636,7.227-6,8.591
		c-1.363,1.363-2.591,2-3.682,1.909l-1.636-0.137"/>
	
		<path id="STROKE_5DB73403-08BC-4FFC-8013-C1DB2E14C3E4" style="fill:none;stroke:#5A554F;stroke-width:8.823;stroke-linecap:round;stroke-linejoin:round;" d="
		M-92.61,570.405c6.074-2.755,12.338-6.542,18.792-11.359c6.455-4.818,11.818-8.409,16.091-10.773c4.272-2.363,6.272-2.227,6,0.409
		c-0.273,2.637-1.045,5.728-2.318,9.273c-1.273,3.545-2.5,6.545-3.682,9c-1.182,2.454-2.818,5.182-4.909,8.182
		s-4.909,6.272-8.455,9.818c-3.545,3.545-6.409,6-8.591,7.363c-2.182,1.363-4.864,2.272-8.045,2.728
		c-3.182,0.454-7.08,0.477-11.693,0.068l-6.92-0.614"/>
	
		<path id="STROKE_7DD3B50E-7B83-44ED-A2C5-53638DA6953E" style="fill:none;stroke:#5A554F;stroke-width:8.823;stroke-linecap:round;stroke-linejoin:round;" d="
		M-80.481,563.69c0.897,3.176,2.8,6.265,5.709,9.265c2.909,3,5.272,5.272,7.091,6.817c1.818,1.546,4.272,3.455,7.363,5.728
		c3.091,2.272,5.318,3.728,6.682,4.364c1.364,0.636,3.318,1.182,5.863,1.636c2.546,0.455,5.728,0.864,9.546,1.228
		c3.817,0.363,7,0.545,9.546,0.545h3.818"/>
	
		<path id="STROKE_FA7A4258-A582-4C35-AF0E-05CB42D04E2B" style="fill:none;stroke:#5A554F;stroke-width:8.823;stroke-linecap:round;stroke-linejoin:round;" d="
		M-19.409,550.455c3.092-0.909,7.864-3.546,14.318-7.909c6.455-4.364,11.683-7.683,15.683-9.955s7.546-3.545,10.636-3.818
		c3.092-0.272,6,1.546,8.728,5.455s4.954,8.228,6.683,12.954c1.727,4.728,2.682,8.909,2.863,12.546c0.182,3.636,0.182,6.728,0,9.272
		c-0.182,2.546-1.637,6.091-4.363,10.637c-2.729,4.545-5.5,7.954-8.318,10.228c-2.818,2.272-4.955,3.545-6.41,3.817
		c-1.454,0.273-2.727-0.045-3.817-0.954s-3.091-3.091-6-6.546c-2.909-3.454-5.228-6.636-6.954-9.545l-2.592-4.364"/>
	
		<path id="STROKE_CE1D312F-3901-4BA6-8856-D24155809028" style="fill:none;stroke:#5A554F;stroke-width:8.823;stroke-linecap:round;stroke-linejoin:round;" d="
		M9.228,512c-1.272,1.637-1.954,3.955-2.045,6.955s-0.5,7.317-1.228,12.954s-1.5,10-2.317,13.091c-0.818,3.091-1.729,6-2.729,8.728
		s-2.771,7.045-5.317,12.954s-4.228,10.046-5.046,12.409c-0.818,2.364-2.182,4.818-4.091,7.364
		c-1.909,2.545-4.272,4.317-7.091,5.317l-4.227,1.5"/>
	
		<path id="STROKE_C85C3C3B-17AC-4FB6-9DE3-47FB1120DC26" style="fill:none;stroke:#5A554F;stroke-width:8.823;stroke-linecap:round;stroke-linejoin:round;" d=" M-17.772,525.091c3.455,2.364,6.363,4,8.728,4.909s4,1.591,4.909,2.046c0.909,0.454,1.545,0.863,1.909,1.227l0.546,0.546"/> 

		<path id="STROKE_07F432A6-6E37-4EED-8068-DFFE6218DDCB" style="fill:none;stroke:#5A554F;stroke-width:8.823;stroke-linecap:round;stroke-linejoin:round;" d=" M25.046,547.728c1.273,3.272,2.409,5.545,3.409,6.818c1,1.272,2.318,2.591,3.954,3.954c1.637,1.363,3.137,2.228,4.5,2.591 l2.046,0.546"/>
	
		<path id="STROKE_0D8EBD3D-5DC4-46DE-ACF8-1D3F820E1C7C" style="fill:none;stroke:#5A554F;stroke-width:8.823;stroke-linecap:round;stroke-linejoin:round;" d=" M56.683,514.182c7.818-2.727,12.909-4.591,15.273-5.591c2.363-1,4.636-1.636,6.817-1.909c2.183-0.272,3.136,1.091,2.864,4.091 c-0.273,3-2.318,7.409-6.137,13.228s-6.637,10.5-8.455,14.046c-1.818,3.545-3.227,6.954-4.227,10.227 c-1,3.273-0.818,4.864,0.545,4.773s4.273-1.228,8.728-3.409s7.591-4.228,9.409-6.137l2.727-2.863"/>
	
		<path id="STROKE_4DEA6039-CCED-4A33-9E1A-41DC9FE68A3E" style="fill:none;stroke:#5A554F;stroke-width:8.823;stroke-linecap:round;stroke-linejoin:round;" d="
		M72.228,529.106c9.818-1.768,16.637-2.743,20.455-2.925s5.818,0.909,6,3.273c0.182,2.363-0.045,4.591-0.682,6.682
		s-3,6.136-7.092,12.136c-4.09,6-8.5,11.364-13.227,16.091c-4.727,4.728-9.955,9.683-15.682,14.864
		c-5.728,5.182-8.592,8.137-8.592,8.863c0,0.728,4.137,1.091,12.41,1.091c8.272,0,14.408-0.136,18.408-0.409
		c4-0.272,8.682-1.091,14.047-2.454c5.363-1.363,8.682-2.591,9.953-3.682l1.91-1.637"/>
	
		<path id="STROKE_6EBB3200-B9EB-403A-B0B9-15E834E73A2E" style="fill:none;stroke:#5A554F;stroke-width:8.823;stroke-linecap:round;stroke-linejoin:round;" d=" M130.319,511.728c0,3.091,0.863,4.909,2.59,5.454c1.729,0.546,2.773,1.046,3.137,1.5c0.363,0.455,0.637,1.091,0.818,1.909 l0.273,1.228"/>
	
		<path id="STROKE_BD8FAB86-D74D-4CB0-8BFF-DFCBD61208CB" style="fill:none;stroke:#5A554F;stroke-width:8.823;stroke-linecap:round;stroke-linejoin:round;" d=" M114.501,540.363c4.363-0.727,8.182-1.545,11.455-2.454c3.271-0.909,5.59-1.409,6.953-1.5c1.365-0.091,2.092,0.591,2.184,2.046 c0.09,1.454-0.137,3.091-0.684,4.908c-0.545,1.818-1.682,4.409-3.408,7.773c-1.727,3.363-3.137,6.727-4.227,10.091 c-1.092,3.363-1.729,6.637-1.91,9.818s-0.182,5.045,0,5.591c0.182,0.545,1.045,0.863,2.592,0.954c1.545,0.091,3.637-0.909,6.271-3 l3.955-3.136"/>
	
		<path id="STROKE_FB871322-35BD-4386-A305-885A33822BB5" style="fill:none;stroke:#5A554F;stroke-width:8.823;stroke-linecap:round;stroke-linejoin:round;" d=" M140.138,554.272c0.182,7.091,0.727,12,1.637,14.728c0.908,2.728,1.682,4.818,2.318,6.272c0.635,1.455,1.5,2.818,2.59,4.092 c1.092,1.272,2.045,2,2.863,2.182l1.229,0.272"/>
	
		<path id="STROKE_D3E21E2F-692D-4583-A4D5-DF256AE415E8" style="fill:none;stroke:#5A554F;stroke-width:8.823;stroke-linecap:round;stroke-linejoin:round;" d=" M155.956,546.909c0.727-2.182,2.682-3.863,5.863-5.046c3.182-1.182,5.545-1.908,7.09-2.182c1.547-0.272,2.366,0.455,2.456,2.182 c0.092,1.728,0.137,8.773,0.137,21.137c0,12.364-0.273,19-0.818,19.909s-1.364,1.409-2.456,1.5 c-1.09,0.091-2.182-0.228-3.271-0.954c-1.092-0.728-2.229-2.637-3.41-5.728s-2.227-6.637-3.137-10.637l-1.363-6"/>
	
		<path id="STROKE_BD00EC24-D8A3-48DB-8A89-A8A1D16328CD" style="fill:none;stroke:#5A554F;stroke-width:8.823;stroke-linecap:round;stroke-linejoin:round;" d=" M166.864,522.091c-2.908,3.272-4.182,7.091-3.818,11.455c0.363,4.363,0.547,8.363,0.547,12c0,3.636-0.184,7-0.547,10.091 s-2.227,7.909-5.59,14.454c-3.363,6.546-6.182,11.455-8.455,14.728s-4.182,5.454-5.727,6.546c-1.547,1.091-3.682,2.227-6.41,3.408 c-2.727,1.183-5.09,2.409-7.09,3.683l-3,1.909"/>
		<script xlink:href="//cdn.bootcss.com/vivus/0.4.0/vivus.min.js" type="application/ecmascript"></script>
		<script type="application/ecmascript">
		new Vivus('svg', {
		type:"oneByOne",
		duration: 300});
		</script>
</svg>
