<?xml version="1.0" encoding="UTF-8" standalone="no"?>
<!-- Generator: Adobe Illustrator 16.0.0, SVG Export Plug-In . SVG Version: 6.00 Build 0)  -->
<svg xmlns:dc="http://purl.org/dc/elements/1.1/" xmlns:cc="http://creativecommons.org/ns#" xmlns:rdf="http://www.w3.org/1999/02/22-rdf-syntax-ns#" xmlns:svg="http://www.w3.org/2000/svg" xmlns="http://www.w3.org/2000/svg" xmlns:xlink="http://www.w3.org/1999/xlink" xmlns:sodipodi="http://sodipodi.sourceforge.net/DTD/sodipodi-0.dtd" xmlns:inkscape="http://www.inkscape.org/namespaces/inkscape" version="1.1" id="Layer_1" x="0px" y="0px" width="500px" height="350px" viewBox="0 0 500 350" style="enable-background:new 0 0 500 350;" xml:space="preserve" inkscape:version="0.91 r13725" sodipodi:docname="绵羊.svg">
    <metadata id="metadata8693">
        <rdf:RDF>
            <cc:Work rdf:about="">
                <dc:format>image/svg+xml</dc:format>
                <dc:type rdf:resource="http://purl.org/dc/dcmitype/StillImage" />
            </cc:Work>
        </rdf:RDF>
    </metadata>
    <defs id="defs8691" />
    <sodipodi:namedview pagecolor="#ffffff" bordercolor="#666666" borderopacity="1" objecttolerance="10" gridtolerance="10" guidetolerance="10" inkscape:pageopacity="0" inkscape:pageshadow="2" inkscape:window-width="1366" inkscape:window-height="719" id="namedview8689" showgrid="false" inkscape:zoom="1.1172287" inkscape:cx="179.81072" inkscape:cy="211.88828" inkscape:window-x="0" inkscape:window-y="1" inkscape:window-maximized="1" inkscape:current-layer="Layer_1" />
    <path id="heart" style="fill:#ED1C24;" d="M297.096,105.954c-1.511,3.313-2.047,6.824-2,10.442c0.037,2.831,0.734,5.477,2.172,7.922  c1.559,2.65,3.688,4.795,6.188,6.523c2.706,1.872,5.503,3.609,8.3,5.34c4.747,2.93,8.935,6.485,12.343,10.918  c0.88,1.146,1.667,2.355,2.164,3.625c0.613-0.984,1.162-2.032,1.864-2.971c3.171-4.25,7.009-7.818,11.354-10.827  c2.54-1.762,5.207-3.342,7.79-5.045c2.557-1.687,4.94-3.577,6.843-6.016c1.892-2.431,3.016-5.167,3.298-8.242  c0.207-2.282,0.052-4.55-0.382-6.794c-0.702-3.646-2.112-6.969-4.774-9.633c-3.66-3.668-8.081-5.041-13.178-4.096  c-3.406,0.637-6.229,2.372-8.608,4.851c-1.786,1.856-3.116,4.013-4.18,6.443c-0.096-0.201-0.161-0.334-0.223-0.471  c-1.524-3.32-3.575-6.241-6.575-8.392c-3.983-2.857-8.361-3.798-13.085-2.286C301.959,98.667,299.001,101.781,297.096,105.954z" />
    <line id="earth" style="fill:none;stroke:#020202;stroke-width:8;stroke-miterlimit:10;" x1="-0.06" y1="270.15" x2="499.94" y2="270.15" />
    <script type="application/ecmascript" xlink:href="//cdn.bootcss.com/snap.svg/0.4.1/snap.svg-min.js" id="script8685" />
    <script xlink:href="mianyang.js" id="script8687" type="application/ecmascript" />
    <path inkscape:connector-curvature="0" id="minHeartRight" style="fill:#ed1c24" d="m -0.50031827,-6.0979442 c 0.622501,-1.452625 0.843326,-2.992049 0.823968,-4.5783968 -0.01526,-1.241284 -0.302394,-2.401446 -0.894831,-3.473478 -0.64227803,-1.161914 -1.51938603,-2.102407 -2.54934503,-2.860066 -1.114829,-0.820795 -2.267148,-1.582402 -3.419456,-2.34138 -1.955682,-1.284683 -3.6810697,-2.843411 -5.0851027,-4.787101 -0.362543,-0.502475 -0.686777,-1.03257 -0.891533,-1.58941 -0.252543,0.431443 -0.47872,0.890951 -0.767937,1.302657 -1.306395,1.863455 -2.887583,3.427883 -4.677644,4.747206 -1.046437,0.772561 -2.145197,1.465332 -3.209347,2.212025 -1.053444,0.739685 -2.035197,1.568375 -2.819202,2.637779 -0.77947,1.06589 -1.242541,2.265515 -1.35872,3.613778 -0.08523,1.000567 -0.02139,1.9949938 0.157378,2.9788968 0.289216,1.598624 0.87011,3.055629 1.966806,4.223686 1.507863,1.60826 3.329233,2.210273 5.429115,1.795928 1.403206,-0.279302 2.56623,-1.040032 3.546339,-2.126967 0.735798,-0.813788 1.283738,-1.759548 1.722088,-2.825005 0.03955,0.08814 0.06632,0.146453 0.0919,0.206518 0.627853,1.455686 1.472835,2.736432 2.7087857,3.679553 1.640927,1.252682 3.444585,1.665275 5.390787,1.002321 1.832506,-0.623491 3.051142,-1.988852 3.83597503,-3.818544 z" inkscape:label="#heart-6">
        <animateMotion begin="6s" dur="1s" repeatDur="indefinite" rotate="auto">
            <mpath xlink:href="#PathRight" />
        </animateMotion>
        <animate attributeName="fill-opacity" animateType="XML" begin="6s" dur="1s" from="0" to="1" repeatDur="indefinite"></animate>
    </path>
    <path inkscape:connector-curvature="0" id="minHeartLeft" style="fill:#ed1c24" d="m -23.724099,-20.564198 c -0.57916,1.34319 -0.78461,2.76664 -0.7666,4.23348 0.0142,1.14777 0.28134,2.220529 0.83253,3.211799 0.59756,1.07438 1.4136,1.94402 2.37185,2.6446 1.03721,0.7589605 2.1093,1.4631915 3.18138,2.1649915 1.81952,1.1879 3.424781,2.6292 4.731061,4.42646 0.3373,0.46462 0.63896,0.95478 0.82946,1.46967 0.23496,-0.39894 0.44539,-0.82383 0.71447,-1.20452 1.21544,-1.72307 2.6865398,-3.16964 4.3519698,-4.38957 0.97358,-0.71436 1.995839,-1.354941 2.985899,-2.0453815 0.9801,-0.68396 1.8935,-1.45022 2.62292,-2.43906 0.7252,-0.98559 1.15602997,-2.09484 1.26411997,-3.341529 0.0793,-0.92519 0.0199,-1.8447 -0.14642,-2.75448 -0.26907997,-1.47819 -0.80952997,-2.82543 -1.82986997,-3.90549 -1.40288,-1.4871 -3.09744,-2.04376 -5.051119,-1.66063 -1.30551,0.25826 -2.3875598,0.96168 -3.2994298,1.96673 -0.68457,0.75248 -1.19436,1.62699 -1.60219,2.61218 -0.0368,-0.0815 -0.0617,-0.13542 -0.0855,-0.19096 -0.58414,-1.34602 -1.37029,-2.53028 -2.520191,-3.40235 -1.52668,-1.15831 -3.20476,-1.53982 -5.01546,-0.92681 -1.70492,0.57652 -2.83871,1.83902 -3.5689,3.53087 z" inkscape:label="#heart-6" inkscape:transform-center-x="-191.54538" inkscape:transform-center-y="-8.0556469">
        <animateMotion begin="6s" dur="1s" repeatDur="indefinite" rotate="auto">
            <mpath xlink:href="#PathLeft" />
        </animateMotion>
        <animate attributeName="fill-opacity" animateType="XML" begin="6s" dur="1s" from="0" to="1" repeatDur="indefinite"></animate>
    </path>
    <path style="fill:none;fill-rule:evenodd;stroke:none;stroke-width:1px;stroke-linecap:butt;stroke-linejoin:miter;stroke-opacity:1" d="m 239.23697,238.42444 c 3.16077,-51.77898 7.20996,-103.03861 108.30369,-97.57018" id="PathLeft" inkscape:connector-curvature="0" sodipodi:nodetypes="cc" inkscape:label="#path9531" />
    <g id="g8603" transform="translate(-0.89508005,-2.6852126)">
        <title id="title8605">Layer 1</title>
        <path id="svg_1" style="fill:#ffde17" d="m 418.815,177.011 c -0.915,-0.374 -1.889,-0.587 -2.875,-0.635 0.412,0.674 0.687,1.429 0.714,2.181 0.643,-0.521 1.382,-1.077 2.161,-1.546 z" inkscape:connector-curvature="0" />
        <path id="svg_2" style="fill:#ffde17" d="m 261.443,117.208 c 0,0.617 0.074,1.232 0.205,1.836 0.08,-1.823 0.281,-3.654 0.606,-5.49 -0.52,1.145 -0.811,2.397 -0.811,3.654 z" inkscape:connector-curvature="0" />
        <path id="svg_3" style="fill:#fff200" d="m 188.925,267.085 0.141,0 c -0.002,-0.013 -0.004,-0.022 -0.007,-0.033 -0.044,0.009 -0.086,0.024 -0.134,0.033 z" inkscape:connector-curvature="0" />
        <path id="svg_4" d="m 218.903,266.975 c -0.011,0.072 -0.008,0.147 -0.022,0.219 -0.071,0.326 -0.162,0.646 -0.287,0.941 -0.014,0.037 -0.032,0.071 -0.049,0.109 0.226,-0.074 0.438,-0.168 0.636,-0.277 -0.117,-0.328 -0.208,-0.667 -0.278,-0.992 z" inkscape:connector-curvature="0" />
        <g id="min">
            <animateTransform type="translate" fill="freeze" restart="always" calcMode="linear" additive="replace" accumulate="none" values="-150,0;30,0" dur="5s" begin="0s" attributeName="transform" />
            <path id="svg_6" style="fill:#ffde17" d="m 205.899,260.546 c -0.115,-0.024 -0.227,-0.054 -0.324,-0.082 0.047,0.087 0.077,0.175 0.12,0.263 0.07,-0.061 0.138,-0.118 0.204,-0.181 l 0,0 z" inkscape:connector-curvature="0" />
            <path id="svg_7" style="fill:#ffde17" d="m 233.682,180.904 c 0.56,0.002 1.161,0.205 1.708,0.463 -0.36,-1.586 -1.15,-3.074 -2.286,-4.233 0.641,1.104 0.861,2.434 0.578,3.77 z" inkscape:connector-curvature="0" />
            <path id="svg_8" style="fill:#ffde17" d="m 227.095,174.52 c -0.087,-0.002 -0.173,-0.013 -0.261,-0.013 -1.349,0 -2.696,0.333 -3.909,0.931 0.301,0.382 0.556,0.814 0.744,1.283 0.687,-1.296 1.99,-1.993 3.426,-2.201 z" inkscape:connector-curvature="0" />
            <path id="svg_10" style="fill:#ffffff" d="m 218.881,267.193 c 0.014,-0.07 0.011,-0.146 0.022,-0.219 -0.1,-0.476 -0.153,-0.918 -0.163,-1.234 -0.01,-0.303 0.01,-0.604 0.042,-0.901 -0.065,-0.22 -0.142,-0.433 -0.236,-0.636 -0.143,-0.303 -0.319,-0.581 -0.504,-0.834 -0.101,-0.123 -0.198,-0.241 -0.293,-0.357 -0.107,-0.104 -0.211,-0.21 -0.311,-0.309 -0.418,-0.383 -0.828,-0.645 -1.128,-0.807 -0.306,-0.158 -0.489,-0.232 -0.489,-0.232 0,0 0.08,0.158 0.238,0.404 0.081,0.123 0.153,0.285 0.259,0.451 0.095,0.172 0.192,0.369 0.293,0.576 0.047,0.104 0.098,0.215 0.148,0.327 0.044,0.111 0.089,0.229 0.136,0.351 0.086,0.24 0.163,0.49 0.229,0.752 0.028,0.133 0.057,0.265 0.085,0.397 0.02,0.136 0.041,0.271 0.061,0.41 0.023,0.276 0.054,0.56 0.045,0.843 0.008,0.809 -0.131,1.626 -0.296,2.356 0.53,-0.048 1.052,-0.136 1.524,-0.289 0.017,-0.038 0.035,-0.072 0.049,-0.109 0.129,-0.295 0.22,-0.613 0.289,-0.94 l 0,0 z" inkscape:connector-curvature="0" />
            <path id="svg_13" style="fill:#ffffff" d="m 188.869,265.686 c -0.034,-1.067 0.215,-2.112 0.639,-3.09 -0.111,-0.197 -0.218,-0.397 -0.345,-0.57 -0.101,-0.123 -0.199,-0.241 -0.294,-0.355 -0.107,-0.107 -0.21,-0.211 -0.31,-0.311 -0.419,-0.383 -0.828,-0.645 -1.128,-0.807 -0.306,-0.158 -0.49,-0.232 -0.49,-0.232 0,0 0.083,0.158 0.239,0.404 0.081,0.123 0.153,0.285 0.26,0.451 0.094,0.174 0.19,0.369 0.293,0.577 0.047,0.104 0.096,0.214 0.147,0.327 0.045,0.111 0.089,0.229 0.136,0.35 0.086,0.24 0.164,0.491 0.23,0.752 0.029,0.133 0.056,0.267 0.086,0.398 0.02,0.136 0.039,0.271 0.06,0.408 0.024,0.279 0.055,0.56 0.046,0.844 0.008,0.807 -0.131,1.628 -0.297,2.357 0.265,-0.023 0.528,-0.06 0.785,-0.104 0.046,-0.009 0.088,-0.024 0.134,-0.033 -0.121,-0.525 -0.181,-1.021 -0.191,-1.366 z" inkscape:connector-curvature="0" />
            <g id="minLeft">
                <animateTransform type="translate" fill="remove" restart="always" calcMode="linear" additive="replace" accumulate="none" repeatDur="5" values="-3,0;3,0;-3,0" dur="0.5s" begin="0s" attributeName="transform" />
                <path id="svg_15" d="m 224.744,256.844 c -0.24,0.131 -0.474,0.271 -0.703,0.426 -0.803,1.379 -1.848,2.604 -3.297,3.14 -0.38,0.477 -0.725,0.991 -1.019,1.534 -0.489,0.902 -0.831,1.882 -0.942,2.896 -0.033,0.299 -0.052,0.602 -0.042,0.901 0.01,0.317 0.063,0.761 0.163,1.233 0.069,0.325 0.161,0.664 0.278,0.992 0.329,0.924 0.859,1.754 1.655,1.868 2.53,0.364 5.143,-0.021 7.689,-0.022 0.931,0 2.149,0.08 3.354,0.018 0.256,-0.958 0.479,-2.035 0.51,-3.104 0.028,-0.375 0.001,-0.746 -0.017,-1.112 -0.02,-0.185 -0.039,-0.364 -0.057,-0.546 -0.032,-0.18 -0.063,-0.354 -0.093,-0.528 -0.075,-0.349 -0.163,-0.687 -0.265,-1.008 -0.055,-0.159 -0.109,-0.315 -0.161,-0.468 -0.063,-0.15 -0.123,-0.299 -0.181,-0.438 -0.123,-0.281 -0.241,-0.545 -0.357,-0.777 -0.132,-0.226 -0.219,-0.443 -0.32,-0.607 -0.195,-0.336 -0.294,-0.549 -0.294,-0.549 0,0 0.238,0.108 0.634,0.334 0.388,0.229 0.916,0.596 1.449,1.121 0.127,0.137 0.258,0.276 0.394,0.426 0.119,0.156 0.243,0.316 0.37,0.482 0.233,0.346 0.45,0.725 0.625,1.133 0.169,0.404 0.306,0.838 0.383,1.283 0.078,0.443 0.113,0.899 0.093,1.354 -0.017,0.451 -0.086,0.896 -0.188,1.328 -0.11,0.428 -0.247,0.843 -0.425,1.229 -0.021,0.049 -0.047,0.094 -0.07,0.143 1.221,-0.352 2.197,-1.062 2.518,-2.437 0.026,-0.108 0.056,-0.215 0.073,-0.333 0.261,-1.818 -0.042,-3.671 -0.66,-5.377 -0.421,-1.165 -1.361,-2.423 -2.266,-3.255 -0.338,-0.312 -0.72,-0.583 -1.12,-0.83 -2.183,1.186 -5.454,0.967 -7.711,-0.45 l 0,0 z" inkscape:connector-curvature="0" />
                <path id="svg_16" style="fill:#ffffff" d="m 234.404,268.15 c 0.102,-0.433 0.171,-0.877 0.188,-1.328 0.02,-0.451 -0.016,-0.907 -0.093,-1.354 -0.077,-0.443 -0.214,-0.878 -0.383,-1.283 -0.175,-0.408 -0.391,-0.785 -0.625,-1.131 -0.126,-0.166 -0.25,-0.328 -0.37,-0.484 -0.136,-0.146 -0.267,-0.289 -0.394,-0.426 -0.533,-0.525 -1.061,-0.893 -1.449,-1.121 -0.396,-0.225 -0.634,-0.332 -0.634,-0.332 0,0 0.099,0.213 0.294,0.547 0.102,0.166 0.188,0.385 0.32,0.607 0.116,0.233 0.234,0.497 0.357,0.778 0.058,0.142 0.118,0.287 0.181,0.438 0.051,0.15 0.106,0.309 0.161,0.469 0.102,0.322 0.19,0.658 0.265,1.006 0.03,0.175 0.062,0.352 0.093,0.531 0.018,0.18 0.038,0.359 0.057,0.545 0.018,0.365 0.045,0.736 0.017,1.111 -0.03,1.066 -0.254,2.145 -0.51,3.104 0.701,-0.039 1.396,-0.127 2.029,-0.309 0.023,-0.049 0.048,-0.094 0.07,-0.143 0.181,-0.383 0.316,-0.797 0.426,-1.225 l 0,0 z" inkscape:connector-curvature="0" />
                <path id="svg_17" d="m 205.969,261.318 c -0.071,-0.195 -0.175,-0.396 -0.272,-0.594 -0.043,-0.089 -0.073,-0.176 -0.12,-0.263 -0.002,-0.001 -0.005,-0.001 -0.008,-0.002 -1.127,-0.347 -1.856,-2.437 -2.926,-1.758 -1.522,0.963 -2.663,2.303 -4.418,2.862 -2.555,0.816 -4.919,-0.477 -6.163,-2.562 -0.388,0.4 -0.756,0.812 -1.091,1.221 -0.065,0.08 -0.125,0.166 -0.189,0.248 -0.503,0.648 -0.941,1.363 -1.271,2.123 -0.424,0.977 -0.673,2.021 -0.639,3.09 0.011,0.348 0.071,0.842 0.191,1.366 0.002,0.013 0.004,0.021 0.007,0.033 0.278,1.196 0.867,2.546 1.897,2.692 2.53,0.365 5.143,-0.019 7.69,-0.021 0.93,0 2.148,0.08 3.354,0.017 0.255,-0.957 0.479,-2.033 0.51,-3.103 0.029,-0.374 0,-0.747 -0.017,-1.112 -0.02,-0.185 -0.039,-0.365 -0.057,-0.545 -0.032,-0.18 -0.063,-0.355 -0.093,-0.529 -0.074,-0.35 -0.165,-0.686 -0.264,-1.008 -0.058,-0.16 -0.111,-0.316 -0.163,-0.469 -0.062,-0.15 -0.123,-0.298 -0.181,-0.438 -0.122,-0.28 -0.24,-0.545 -0.355,-0.778 -0.133,-0.226 -0.22,-0.442 -0.322,-0.608 -0.193,-0.334 -0.294,-0.547 -0.294,-0.547 0,0 0.239,0.107 0.635,0.333 0.388,0.229 0.916,0.595 1.449,1.121 0.125,0.136 0.257,0.276 0.395,0.425 0.119,0.157 0.242,0.319 0.37,0.486 0.232,0.343 0.449,0.723 0.623,1.129 0.169,0.406 0.307,0.839 0.383,1.285 0.079,0.443 0.112,0.9 0.094,1.352 -0.018,0.452 -0.085,0.897 -0.188,1.328 -0.11,0.43 -0.246,0.844 -0.425,1.229 -0.021,0.051 -0.047,0.095 -0.07,0.143 1.205,-0.346 2.172,-1.041 2.506,-2.38 0.031,-0.126 0.065,-0.25 0.084,-0.388 0.259,-1.818 -0.044,-3.669 -0.662,-5.378 l 0,0 z" inkscape:connector-curvature="0" />
                <path id="svg_18" style="fill:#ffffff" d="m 204.533,268.096 c 0.103,-0.432 0.17,-0.878 0.188,-1.328 0.019,-0.451 -0.015,-0.908 -0.094,-1.353 -0.077,-0.446 -0.214,-0.88 -0.383,-1.285 -0.174,-0.407 -0.39,-0.786 -0.623,-1.129 -0.128,-0.167 -0.25,-0.329 -0.37,-0.485 -0.137,-0.147 -0.269,-0.289 -0.395,-0.426 -0.534,-0.525 -1.061,-0.893 -1.449,-1.121 -0.396,-0.227 -0.635,-0.332 -0.635,-0.332 0,0 0.101,0.211 0.294,0.547 0.102,0.166 0.189,0.383 0.322,0.607 0.115,0.232 0.233,0.498 0.355,0.779 0.059,0.14 0.119,0.285 0.181,0.438 0.051,0.15 0.105,0.309 0.163,0.469 0.099,0.322 0.19,0.658 0.264,1.006 0.03,0.175 0.061,0.354 0.093,0.531 0.018,0.18 0.038,0.36 0.057,0.545 0.017,0.365 0.046,0.738 0.017,1.112 -0.031,1.067 -0.255,2.144 -0.51,3.103 0.7,-0.039 1.396,-0.127 2.029,-0.309 0.023,-0.048 0.048,-0.092 0.07,-0.143 0.18,-0.384 0.315,-0.799 0.426,-1.226 l 0,0 z" inkscape:connector-curvature="0" />
            </g>
            <path id="svg_19" style="fill:#ffffff" d="m 223.455,231.688 c -1.512,-1.11 -2.88,-2.35 -4.118,-3.683 -1.842,1.815 -5.074,2.474 -7.351,1.47 -1.076,3.241 -4.98,2.758 -7.667,1.142 -3.468,-2.089 -4.781,-6.113 -2.254,-9.153 -2.954,-1.195 -5.106,-3.205 -5.369,-6.63 -0.214,-2.788 0.814,-5.062 3.143,-6.024 -1.288,-1.009 -2.176,-2.277 -2.51,-3.781 -0.325,0.629 -0.594,1.265 -0.8,1.863 -0.104,0.303 -0.594,0.383 -0.766,0.098 -1.838,-3.072 -4.76,-4.896 -8.36,-3.422 -2.754,1.129 -2.163,5.377 -2.419,7.744 -0.038,0.354 -0.417,0.43 -0.677,0.276 -2.622,-1.528 -5.507,-2.021 -6.687,1.331 -0.883,2.512 -0.365,5.626 0.363,8.104 0.114,0.393 -0.212,0.754 -0.616,0.608 -6.597,-2.362 -9.207,5.579 -4.317,9.38 0.421,0.328 0.128,1.021 -0.4,0.954 -3.138,-0.407 -3.452,3.149 -2.735,5.388 0.943,2.947 3.351,4.772 5.702,6.569 0.546,0.416 0.147,1.245 -0.497,1.188 -2.673,-0.24 -2.208,3.529 -1.272,5 1.341,2.109 5.479,2.51 7.71,2.437 0.54,-0.017 1.052,0.606 0.623,1.093 -2.248,2.539 -0.254,4.926 2.728,4.906 2.36,-0.016 4.716,-0.967 6.873,-1.838 0.309,-0.125 0.75,0.023 0.853,0.365 1.186,3.961 4.926,4.031 7.772,1.711 1.111,-0.904 2.776,-2.555 4.045,-1.098 0.694,0.797 1.062,1.549 2.198,1.744 0.938,0.16 1.913,0.096 2.854,0.014 1.35,-0.114 5.202,-0.58 4.725,-2.637 -0.131,-0.798 1.042,-0.906 1.218,-0.152 0.324,1.992 2.319,2.859 4.142,2.84 2.047,-0.021 3.309,-2.453 4.062,-4.014 0.155,-0.32 0.614,-0.519 0.911,-0.24 2.759,2.561 9.729,2.604 9.042,-2.537 -0.073,-0.553 0.641,-0.811 0.973,-0.391 2.624,3.303 4.865,-2.014 5.366,-4.275 0.06,-0.27 0.269,-0.448 0.553,-0.422 2.549,0.242 4.684,-0.375 5.973,-2.748 0.914,-1.684 0.735,-4.818 -1.554,-5.168 -0.377,-0.061 -0.429,-0.563 -0.089,-0.717 1.376,-0.617 2.191,-2.141 2.435,-3.787 -7.908,3.747 -17.026,1.479 -23.806,-3.508 z" inkscape:connector-curvature="0" />
            <path id="svg_20" d="m 180.379,253.895 c -0.787,1.586 -0.73,3.541 0.583,4.765 0.252,0.233 0.535,0.45 0.885,0.623 2.39,1.175 5.282,0.545 7.866,-0.365 0.668,-0.235 1.316,-0.487 1.929,-0.735 0.12,0.286 0.261,0.562 0.418,0.824 1.244,2.088 3.608,3.381 6.163,2.562 1.755,-0.562 2.896,-1.899 4.418,-2.862 1.07,-0.679 1.799,1.412 2.926,1.758 0.002,0.001 0.005,0.001 0.008,0.002 0.097,0.029 0.209,0.058 0.324,0.082 0.785,0.179 1.959,0.265 3.227,0.207 2.296,-0.103 4.878,-0.675 5.921,-2.047 0.895,1.188 2.368,1.929 3.914,1.981 0.085,0.004 0.169,0.015 0.254,0.013 0.558,-0.009 1.061,-0.12 1.528,-0.293 1.449,-0.535 2.494,-1.761 3.297,-3.14 0.124,-0.211 0.245,-0.426 0.358,-0.643 0.11,0.078 0.23,0.145 0.345,0.217 2.258,1.417 5.529,1.637 7.711,0.446 1.222,-0.665 2.104,-1.763 2.257,-3.351 2.875,2.063 5.345,-2.336 6.1,-5.326 3.027,0.117 5.774,-1.047 6.72,-4.205 0.573,-1.918 0.177,-4.4 -1.673,-5.213 1.187,-0.955 1.88,-2.629 2.042,-4.332 -0.188,0.097 -0.371,0.205 -0.56,0.297 -0.027,0.014 -0.056,0.021 -0.083,0.035 -0.243,1.646 -1.059,3.17 -2.435,3.787 -0.339,0.151 -0.288,0.656 0.089,0.717 2.289,0.35 2.468,3.484 1.554,5.168 -1.289,2.373 -3.423,2.99 -5.973,2.748 -0.284,-0.026 -0.493,0.152 -0.553,0.423 -0.5,2.263 -2.742,7.577 -5.366,4.274 -0.332,-0.418 -1.046,-0.162 -0.973,0.391 0.687,5.145 -6.283,5.098 -9.042,2.537 -0.297,-0.276 -0.756,-0.08 -0.911,0.24 -0.753,1.561 -2.015,3.99 -4.062,4.014 -1.822,0.021 -3.818,-0.848 -4.142,-2.84 -0.176,-0.754 -1.349,-0.646 -1.218,0.152 0.477,2.057 -3.375,2.521 -4.725,2.637 -0.941,0.082 -1.916,0.146 -2.854,-0.014 -1.136,-0.195 -1.504,-0.947 -2.198,-1.744 -1.269,-1.457 -2.934,0.191 -4.045,1.098 -2.846,2.32 -6.587,2.25 -7.772,-1.711 -0.102,-0.342 -0.544,-0.49 -0.853,-0.365 -2.156,0.871 -4.513,1.822 -6.873,1.838 -2.982,0.02 -4.976,-2.367 -2.728,-4.906 0.429,-0.483 -0.083,-1.108 -0.623,-1.093 -2.23,0.073 -6.369,-0.325 -7.71,-2.437 -0.935,-1.471 -1.401,-5.239 1.272,-5 0.645,0.057 1.043,-0.772 0.497,-1.188 -2.351,-1.797 -4.759,-3.622 -5.702,-6.569 -0.716,-2.235 -0.403,-5.795 2.735,-5.388 0.528,0.067 0.821,-0.626 0.4,-0.954 -4.89,-3.801 -2.28,-11.742 4.317,-9.38 0.404,0.146 0.73,-0.218 0.616,-0.608 -0.728,-2.479 -1.247,-5.594 -0.363,-8.104 1.18,-3.352 4.065,-2.859 6.687,-1.331 0.26,0.149 0.64,0.075 0.677,-0.276 0.256,-2.367 -0.335,-6.615 2.419,-7.744 3.6,-1.477 6.522,0.35 8.36,3.422 0.172,0.285 0.662,0.205 0.766,-0.098 0.206,-0.601 0.475,-1.234 0.8,-1.863 -0.112,-0.502 -0.152,-1.035 -0.133,-1.59 -0.464,0.717 -0.86,1.496 -1.188,2.312 -0.86,-1.216 -1.976,-2.271 -3.252,-2.938 -1.533,-0.799 -3.299,-1.028 -5.147,-0.269 -2.442,1.007 -3.009,3.052 -3.221,5.282 -0.086,0.904 -0.115,1.84 -0.185,2.75 -2.355,-1.225 -5.477,-1.898 -6.912,0.99 -1.342,2.705 -1.101,6.033 -0.403,8.938 -1.46,-0.379 -3.006,-0.357 -4.316,0.17 -1.189,0.479 -2.187,1.376 -2.724,2.818 -0.903,2.425 -0.398,4.881 1.057,6.814 0.159,0.213 0.319,0.422 0.5,0.618 -2.157,0.416 -3.206,2.679 -2.968,5.058 0.352,3.508 2.629,5.922 5.181,8.039 -0.542,0.24 -0.95,0.649 -1.257,1.146 -0.717,1.151 -0.824,2.813 -0.357,4.233 0.045,0.137 0.102,0.265 0.157,0.395 1.269,2.997 5.053,3.979 8.222,4.101 l 0,0 z" inkscape:connector-curvature="0" />
            <path id="svg_21" style="fill:#eecfdc" d="m 220.775,198.678 c 0.04,0.148 0.094,0.357 0.17,0.648 0.397,1.521 0.815,3.037 1.161,4.572 0.188,0.838 0.383,1.674 0.576,2.51 0.062,0.27 0.476,1.947 0.559,2.334 0.32,1.145 0.672,2.279 1.053,3.406 0.465,1.371 1.008,2.715 1.588,4.041 0.249,0.566 0.522,1.125 0.795,1.683 0.124,0.247 0.254,0.491 0.382,0.735 0.037,0.062 0.076,0.129 0.123,0.209 0.733,1.229 1.612,2.375 2.522,3.478 0.219,0.261 0.446,0.513 0.675,0.765 0.58,0.56 1.138,1.133 1.736,1.672 1.051,0.947 2.18,1.854 3.288,2.734 0.389,0.309 0.802,0.585 1.209,0.869 0.035,0.023 0.057,0.041 0.087,0.062 0.448,0.242 0.905,0.471 1.371,0.684 0.556,0.152 1.112,0.309 1.668,0.47 0.114,0.033 0.698,0.151 1.023,0.218 -0.091,-0.02 -0.208,-0.041 -0.372,-0.074 2.462,0.482 4.887,1.109 7.335,1.645 0.626,-1.181 1.186,-2.393 1.54,-3.768 0.842,-3.275 0.384,-6.625 -1.287,-9.551 -0.095,-0.168 -0.069,-0.338 0.012,-0.472 -1.417,0.761 -4.117,0.709 -4.958,-0.698 -0.122,-0.207 -0.032,-0.442 0.209,-0.492 0.805,-0.159 1.415,0.248 2.215,0.403 0.759,0.147 1.563,0.029 2.271,-0.262 0.685,-0.281 1.199,-0.894 1.627,-1.47 0.41,-0.551 0.556,-1.313 1.14,-1.689 0.021,-0.014 0.055,-0.009 0.063,0.02 0.383,1.308 -1.164,3.188 -2.208,3.959 0.12,-0.006 0.239,0.041 0.323,0.186 2.42,4.146 2.444,9.768 0.075,14.038 0.478,0.099 0.955,0.201 1.436,0.288 0.229,0.042 0.452,0.095 0.673,0.152 5.983,-4.446 9.992,-11.948 9.742,-19.209 -0.367,-10.646 -10.864,-15.146 -19.224,-18.979 -0.025,0.026 -0.055,0.051 -0.089,0.07 -0.193,0.104 -0.414,0.093 -0.643,0.018 -0.413,0.757 -2.097,0.58 -2.747,0.386 -1.249,-0.373 -2.033,-1.449 -2.234,-2.709 -0.115,-0.724 0.599,-1.494 1.345,-1.336 0.075,0.018 0.139,0.038 0.203,0.062 -0.107,-0.168 -0.214,-0.336 -0.321,-0.498 -0.013,0.041 -0.065,0.073 -0.102,0.039 -0.021,-0.021 -0.043,-0.041 -0.065,-0.062 -0.846,0.432 -1.881,0.535 -2.943,0.17 0.011,0.018 0.025,0.029 0.035,0.049 0.032,0.053 0.01,0.119 -0.055,0.131 -3.019,0.439 -7.308,-0.705 -8.744,2.875 -0.884,2.205 -3.244,2.594 -5.176,1.754 0.26,1.107 0.511,2.222 0.786,3.328 0.067,0.26 0.118,0.457 0.152,0.606 l 0,0 z m 13.356,-3.004 c -0.14,1.475 -1.222,2.508 -2.598,2.85 -3.4,0.851 -5.086,-4.282 -2.671,-6.278 0.942,-0.778 2.473,-0.804 3.508,-0.224 1.347,0.751 1.903,2.151 1.761,3.652 l 0,0 z" inkscape:connector-curvature="0" />
            <path id="svg_22" style="fill:#eecfdc" d="m 250.107,232.531 c -0.056,0.037 -0.11,0.078 -0.167,0.115 0.058,-0.037 0.111,-0.078 0.167,-0.115 z" inkscape:connector-curvature="0" />
            <path id="svg_23" style="fill:#eecfdc" d="m 248.524,233.51 c -0.098,0.055 -0.194,0.111 -0.292,0.165 0.099,-0.054 0.196,-0.111 0.292,-0.165 z" inkscape:connector-curvature="0" />
            <path id="svg_24" style="fill:#eecfdc" d="m 246.763,234.395 c -0.105,0.047 -0.211,0.092 -0.316,0.138 0.104,-0.047 0.21,-0.092 0.316,-0.138 z" inkscape:connector-curvature="0" />
            <path id="svg_25" style="fill:#eecfdc" d="m 244.892,235.111 c -0.082,0.024 -0.165,0.049 -0.247,0.074 0.082,-0.025 0.165,-0.046 0.247,-0.074 z" inkscape:connector-curvature="0" />
            <path id="svg_26" style="fill:#eea7c5" d="m 248.747,231.539 c -0.616,1.111 -1.396,2.126 -2.337,3.005 0.012,-0.005 0.024,-0.009 0.037,-0.015 0.105,-0.045 0.211,-0.09 0.316,-0.135 0.498,-0.223 0.989,-0.459 1.47,-0.722 0.098,-0.055 0.195,-0.108 0.292,-0.165 0.481,-0.271 0.955,-0.555 1.416,-0.861 0.056,-0.037 0.111,-0.078 0.167,-0.115 0.255,-0.174 0.5,-0.365 0.748,-0.551 -0.221,-0.061 -0.444,-0.111 -0.672,-0.154 -0.483,-0.086 -0.959,-0.189 -1.437,-0.287 z" inkscape:connector-curvature="0" />
            <path id="svg_27" style="fill:#eea7c5" d="m 226.833,232.732 c -1.328,-1.342 -1.808,-3.649 -1.569,-5.481 -0.112,-0.021 -0.224,-0.048 -0.338,-0.082 -0.806,-0.239 -1.784,-1.16 -1.447,-2.065 0.06,-0.16 0.244,-0.218 0.395,-0.164 0.535,0.19 0.839,0.771 1.242,1.146 0.16,0.148 0.334,0.257 0.52,0.33 0.147,-0.042 0.314,-0.006 0.407,0.104 0.449,0.063 0.926,-0.021 1.361,-0.192 0.234,-0.093 0.436,0.243 0.219,0.392 -0.513,0.35 -1.043,0.547 -1.6,0.583 -0.337,2.581 0.917,4.957 3.022,6.443 0.032,0.022 0.008,0.071 -0.027,0.067 -0.065,-0.009 -0.125,-0.024 -0.188,-0.037 4.373,2.043 9.264,2.854 14.112,1.857 0.576,-0.117 1.142,-0.271 1.702,-0.443 0.083,-0.024 0.166,-0.049 0.247,-0.076 0.328,-0.104 0.646,-0.236 0.968,-0.359 0.605,-1.188 1.267,-2.287 1.866,-3.415 -2.448,-0.532 -4.874,-1.16 -7.335,-1.644 0.164,0.031 0.28,0.056 0.372,0.072 -0.325,-0.063 -0.909,-0.184 -1.023,-0.217 -0.556,-0.16 -1.112,-0.316 -1.668,-0.47 -0.465,-0.214 -0.923,-0.44 -1.371,-0.685 -0.03,-0.021 -0.052,-0.037 -0.087,-0.062 -0.407,-0.284 -0.82,-0.562 -1.209,-0.869 -1.108,-0.881 -2.236,-1.787 -3.288,-2.732 -0.599,-0.539 -1.156,-1.113 -1.736,-1.672 -0.229,-0.254 -0.456,-0.506 -0.675,-0.767 -0.91,-1.104 -1.789,-2.247 -2.522,-3.479 -0.047,-0.08 -0.086,-0.146 -0.123,-0.209 -0.128,-0.244 -0.259,-0.487 -0.382,-0.733 -0.273,-0.56 -0.546,-1.114 -0.795,-1.685 -0.581,-1.326 -1.123,-2.67 -1.588,-4.041 -0.381,-1.125 -0.733,-2.262 -1.053,-3.405 -0.083,-0.388 -0.497,-2.063 -0.559,-2.334 -0.193,-0.837 -0.388,-1.673 -0.576,-2.511 -0.346,-1.533 -0.764,-3.051 -1.161,-4.571 -0.076,-0.291 -0.13,-0.498 -0.17,-0.647 -0.036,-0.146 -0.085,-0.346 -0.151,-0.609 -0.275,-1.106 -0.526,-2.221 -0.786,-3.328 -0.275,-0.119 -0.542,-0.266 -0.793,-0.434 -0.078,0.939 -0.581,1.782 -1.267,2.463 1.163,0.803 1.355,4.059 0.417,4.967 1.611,2.117 2.537,6.34 0.835,7.844 1.89,1.236 3.304,3.361 3.274,5.646 -0.025,1.901 -0.86,3.727 -2.399,4.436 1.276,1.648 1.219,4.607 0.664,6.384 -0.131,0.419 -0.325,0.81 -0.566,1.167 1.97,2.174 4.286,4.055 6.829,5.517 l 0,0 z" inkscape:connector-curvature="0" />
            <path id="svg_28" d="m 236.787,189.822 c 0.037,0.035 0.089,0.002 0.102,-0.039 0.107,0.162 0.214,0.33 0.321,0.498 0.106,0.037 0.204,0.08 0.291,0.133 0.305,0.186 1.041,0.695 1.735,1.279 -0.771,-0.668 -1.484,-1.395 -2.205,-2.111 -0.1,0.064 -0.203,0.125 -0.31,0.179 0.022,0.02 0.044,0.041 0.066,0.061 z" inkscape:connector-curvature="0" />
            <path id="svg_29" d="m 240.735,193.674 c -0.015,0.08 -0.058,0.141 -0.093,0.205 0.229,0.075 0.449,0.087 0.643,-0.018 0.035,-0.021 0.064,-0.043 0.089,-0.07 8.36,3.836 18.856,8.333 19.224,18.98 0.25,7.26 -3.757,14.762 -9.742,19.209 -0.25,0.186 -0.493,0.377 -0.749,0.551 -0.056,0.037 -0.11,0.078 -0.167,0.115 -0.461,0.309 -0.935,0.592 -1.416,0.861 -0.098,0.057 -0.194,0.11 -0.292,0.165 -0.481,0.261 -0.972,0.499 -1.47,0.722 -0.105,0.045 -0.21,0.09 -0.316,0.135 -0.012,0.006 -0.024,0.01 -0.037,0.015 -0.145,0.136 -0.283,0.278 -0.436,0.407 -0.076,0.062 -0.203,-0.031 -0.157,-0.121 0.014,-0.027 0.028,-0.053 0.042,-0.08 -0.322,0.123 -0.64,0.256 -0.968,0.361 -0.082,0.025 -0.165,0.049 -0.247,0.074 -0.56,0.172 -1.126,0.325 -1.702,0.443 -4.848,0.996 -9.74,0.186 -14.112,-1.855 -0.806,-0.137 -1.469,-0.512 -1.997,-1.043 -2.543,-1.463 -4.859,-3.344 -6.83,-5.521 -0.192,0.286 -0.418,0.549 -0.666,0.794 1.238,1.333 2.606,2.569 4.118,3.685 6.781,4.985 15.898,7.254 23.803,3.508 0.028,-0.014 0.056,-0.021 0.083,-0.035 0.189,-0.092 0.373,-0.2 0.56,-0.297 3.512,-1.811 6.766,-4.641 9.221,-8.045 2.611,-3.621 4.316,-7.877 4.477,-12.203 0.047,-1.313 -0.037,-2.635 -0.293,-3.944 -0.572,-2.922 -1.801,-5.354 -3.455,-7.42 -3.611,-4.509 -9.294,-7.233 -14.92,-9.226 -0.503,-0.18 -1.006,-0.354 -1.506,-0.521 -0.167,-0.427 -0.623,-0.491 -0.977,-0.754 -0.201,-0.147 -0.386,-0.312 -0.568,-0.479 0.534,0.527 0.924,1.048 0.856,1.402 l 0,0 z" inkscape:connector-curvature="0" />
            <path id="svg_30" d="m 248.747,231.539 c 2.369,-4.271 2.345,-9.891 -0.075,-14.038 -0.084,-0.144 -0.203,-0.19 -0.323,-0.185 1.045,-0.771 2.592,-2.652 2.208,-3.959 -0.008,-0.027 -0.041,-0.031 -0.062,-0.021 -0.583,0.376 -0.73,1.14 -1.14,1.688 -0.428,0.576 -0.942,1.188 -1.627,1.471 -0.708,0.291 -1.511,0.408 -2.271,0.262 -0.8,-0.154 -1.41,-0.562 -2.215,-0.402 -0.241,0.049 -0.331,0.285 -0.209,0.49 0.841,1.408 3.541,1.459 4.958,0.699 -0.081,0.133 -0.107,0.305 -0.012,0.471 1.67,2.928 2.129,6.274 1.287,9.553 -0.354,1.375 -0.913,2.586 -1.54,3.767 -0.6,1.128 -1.261,2.229 -1.866,3.415 -0.014,0.027 -0.029,0.053 -0.042,0.08 -0.046,0.09 0.081,0.186 0.157,0.121 0.153,-0.129 0.291,-0.271 0.436,-0.407 0.94,-0.879 1.719,-1.894 2.336,-3.005 l 0,0 z" inkscape:connector-curvature="0" />
            <path id="svg_31" style="fill:#ffffff" d="m 213.125,198.061 c -2.62,1.609 -5.53,-0.547 -6.175,-3.384 -0.101,-0.44 -0.138,-0.938 -0.119,-1.437 -0.769,0.389 -1.471,1.08 -2.212,1.723 -0.416,0.359 -0.809,0.744 -1.188,1.143 -0.289,0.304 -1.079,0.996 -0.784,1.205 0.153,0.015 0.307,0.031 0.464,0.062 0.706,0.139 0.796,1.322 -0.004,1.33 -0.063,0.001 -0.113,-0.006 -0.172,0 -0.024,-0.006 -0.047,-0.006 -0.071,-0.01 -0.183,-0.008 -0.349,-0.025 -0.498,-0.055 -1.963,-0.07 -2.985,1.641 -3.594,3.405 -0.949,2.747 0.584,5.101 2.954,6.392 0.578,0.313 0.548,1.207 -0.177,1.312 -3.073,0.442 -3.704,2.78 -3.521,5.534 0.194,2.947 2.817,4.552 5.341,5.367 0.491,0.158 0.432,0.765 0.132,1.051 -2.596,2.478 -1.372,5.4 1.133,7.342 1.919,1.484 5.705,2.6 6.135,-0.794 0.07,-0.552 0.738,-0.817 1.172,-0.479 2.257,1.76 6.22,0.284 7.298,-2.274 0.599,-1.423 0.518,-5.295 -1.489,-5.575 -0.91,-0.148 -0.726,-1.554 0.188,-1.419 2.283,0.354 3.023,-1.935 2.841,-3.767 -0.211,-2.131 -2.091,-3.972 -3.984,-4.681 -0.748,-0.28 -0.423,-1.473 0.362,-1.346 1.987,0.319 1.616,-2.423 1.355,-3.578 -0.204,-0.901 -0.535,-1.849 -1.014,-2.642 -0.347,-0.571 -0.817,-1.071 -0.794,-1.736 0.162,0.044 0.425,0.035 0.618,0.09 0.481,0.133 0.55,-1.544 0.509,-1.757 -0.129,-0.687 -0.873,-1.031 -1.341,-1.353 -0.9,0.461 -2.396,0.777 -3.365,0.331 l 0,0 z" inkscape:connector-curvature="0" />
            <path id="svg_32" d="m 201.268,197.408 c -2.062,0.508 -3.473,2.584 -3.929,4.773 -0.09,0.432 -0.128,0.846 -0.142,1.25 -0.019,0.557 0.021,1.09 0.133,1.592 0.334,1.504 1.222,2.772 2.51,3.781 -2.329,0.961 -3.356,3.236 -3.143,6.024 0.262,3.425 2.415,5.435 5.369,6.63 -2.527,3.04 -1.213,7.064 2.254,9.152 2.686,1.617 6.59,2.103 7.667,-1.141 2.277,1.004 5.509,0.346 7.351,-1.47 0.248,-0.245 0.474,-0.508 0.666,-0.794 0.241,-0.357 0.435,-0.748 0.566,-1.167 0.555,-1.776 0.612,-4.735 -0.664,-6.384 1.54,-0.709 2.375,-2.532 2.399,-4.437 0.03,-2.284 -1.384,-4.409 -3.274,-5.646 1.702,-1.504 0.776,-5.729 -0.835,-7.844 0.938,-0.908 0.746,-4.164 -0.417,-4.967 -0.312,0.309 -0.658,0.588 -1.025,0.818 -0.078,0.05 -0.171,0.098 -0.264,0.145 0.468,0.32 1.212,0.668 1.341,1.354 0.041,0.213 -0.028,1.891 -0.509,1.757 -0.193,-0.054 -0.457,-0.046 -0.618,-0.09 -0.022,0.665 0.448,1.165 0.794,1.737 0.479,0.793 0.811,1.738 1.014,2.641 0.261,1.156 0.632,3.896 -1.355,3.578 -0.785,-0.127 -1.11,1.064 -0.362,1.346 1.893,0.709 3.772,2.551 3.984,4.68 0.182,1.832 -0.559,4.121 -2.841,3.768 -0.914,-0.137 -1.098,1.27 -0.188,1.419 2.007,0.278 2.088,4.153 1.489,5.576 -1.078,2.56 -5.041,4.032 -7.298,2.272 -0.434,-0.338 -1.102,-0.07 -1.172,0.48 -0.431,3.395 -4.216,2.279 -6.135,0.794 -2.505,-1.94 -3.729,-4.864 -1.133,-7.341 0.3,-0.287 0.359,-0.893 -0.132,-1.051 -2.523,-0.816 -5.146,-2.42 -5.341,-5.367 -0.182,-2.754 0.449,-5.092 3.521,-5.535 0.726,-0.105 0.755,-0.997 0.177,-1.312 -2.369,-1.289 -3.902,-3.643 -2.954,-6.39 0.609,-1.767 1.631,-3.478 3.594,-3.405 0.149,0.027 0.315,0.045 0.498,0.053 0.024,0.004 0.047,0.006 0.071,0.011 0.059,-0.007 0.109,0.002 0.172,0 0.801,-0.007 0.71,-1.19 0.004,-1.329 -0.158,-0.031 -0.311,-0.051 -0.464,-0.062 -0.295,-0.209 0.495,-0.902 0.784,-1.203 0.379,-0.398 0.772,-0.783 1.188,-1.145 0.741,-0.645 1.444,-1.334 2.212,-1.725 0.02,-0.504 0.105,-1.006 0.258,-1.454 -1.584,0.409 -3.012,1.733 -4.323,3.096 -0.038,0.039 -0.077,0.079 -0.115,0.118 -0.688,0.722 -1.309,1.66 -1.383,2.414 l 0,0 z" inkscape:connector-curvature="0" />
            <path id="svg_33" style="fill:#ffffff" d="m 208.084,194.576 c 0.306,0.957 0.898,1.83 1.711,2.425 0.745,0.544 1.701,0.526 2.61,0.388 -0.008,-0.016 -0.019,-0.029 -0.027,-0.045 -0.106,-0.225 0.077,-0.441 0.287,-0.486 0.531,-0.116 0.861,0.109 1.396,0.209 0.738,0.14 1.516,-0.086 2.183,-0.383 1.138,-0.508 1.851,-1.621 2.303,-2.758 -0.235,-0.203 -0.456,-0.424 -0.647,-0.672 -0.108,-0.141 -0.02,-0.383 0.167,-0.393 2.058,-0.117 4.617,2.697 5.909,-0.309 0.49,-1.14 0.999,-2.01 2.143,-2.58 1.32,-0.656 3.058,-0.801 4.501,-0.771 0.708,0.012 2.235,-0.03 2.942,0.506 2.407,-0.23 4.358,-1.131 3.946,-3.926 -0.168,-1.146 -0.872,-2.149 -1.772,-2.84 -0.975,-0.746 -2.343,-0.402 -3.217,-1.121 -0.125,-0.104 -0.188,-0.332 -0.058,-0.461 0.208,-0.207 0.453,-0.332 0.72,-0.398 0.125,-2.184 -1.149,-4.005 -3.232,-4.918 -2.525,-1.107 -4.562,0.331 -6.27,2.078 -0.155,0.158 -0.49,0.082 -0.439,-0.184 0.048,-0.252 0.12,-0.483 0.201,-0.707 -0.87,-1.574 -2.525,-2.702 -4.302,-1.676 -1.874,1.079 -1.503,3 -1.862,4.784 -0.082,0.408 -0.564,0.539 -0.835,0.218 -0.495,-0.589 -0.709,-1.266 -0.724,-1.957 -2.236,-1.379 -5.771,-3.423 -7.518,-0.359 -0.548,0.961 -0.56,2.181 -0.253,3.216 0.271,0.917 0.958,1.522 1.401,2.323 0.078,0.142 -0.029,0.271 -0.157,0.316 0.034,0.066 -0.058,0.147 -0.123,0.096 -0.042,-0.033 -0.08,-0.059 -0.121,-0.088 -0.5,-0.039 -0.914,-0.219 -1.246,-0.498 -1.015,0 -1.611,1.166 -1.562,2.549 0.036,1.019 0.467,1.959 1.084,2.75 0.502,0.642 1.141,0.998 1.807,1.322 0.349,0.032 0.74,0.164 1.179,0.418 0.09,0.053 0.11,0.146 0.081,0.217 0.105,0.062 0.211,0.121 0.314,0.188 0.236,0.154 0.119,0.571 -0.161,0.586 -0.73,0.038 -1.416,-0.14 -2.036,-0.464 -0.728,0.706 -0.671,2.315 -0.323,3.405 l 0,0 z" inkscape:connector-curvature="0" />
            <path id="svg_34" d="m 206.951,194.677 c 0.645,2.837 3.555,4.993 6.175,3.384 0.968,0.446 2.465,0.131 3.364,-0.328 0.092,-0.047 0.186,-0.094 0.264,-0.145 0.368,-0.232 0.714,-0.512 1.025,-0.818 0.687,-0.681 1.189,-1.521 1.267,-2.463 0.252,0.168 0.519,0.312 0.793,0.433 1.932,0.841 4.292,0.45 5.176,-1.755 1.437,-3.579 5.726,-2.434 8.744,-2.875 0.065,-0.01 0.087,-0.077 0.055,-0.131 -0.01,-0.018 -0.024,-0.03 -0.035,-0.047 1.062,0.365 2.097,0.262 2.943,-0.17 0.107,-0.055 0.209,-0.115 0.31,-0.18 1.196,-0.77 1.919,-2.239 1.61,-3.941 -0.255,-1.408 -0.968,-2.811 -2.163,-3.649 -0.293,-0.207 -0.678,-0.429 -1.089,-0.623 -0.546,-0.257 -1.147,-0.459 -1.708,-0.463 0.284,-1.337 0.062,-2.666 -0.579,-3.771 -0.626,-1.077 -1.654,-1.94 -3.015,-2.371 -0.963,-0.304 -2.009,-0.386 -2.994,-0.243 -1.436,0.208 -2.737,0.905 -3.426,2.201 -0.188,-0.469 -0.443,-0.899 -0.744,-1.283 -0.991,-1.258 -2.532,-1.937 -4.266,-1.219 -1.549,0.641 -2.879,2.433 -2.943,4.177 -2.389,-1.936 -6.08,-4.374 -8.407,-1.024 -0.893,1.285 -1.121,4.262 -0.009,5.795 -1.017,0.047 -1.882,0.937 -1.988,2.378 -0.133,1.819 0.835,3.971 2.387,5.169 -0.268,0.272 -0.464,0.65 -0.607,1.07 -0.153,0.45 -0.239,0.95 -0.258,1.457 -0.021,0.496 0.017,0.994 0.118,1.435 l 0,0 z m 3.49,-3.04 c 0.28,-0.015 0.397,-0.432 0.161,-0.586 -0.103,-0.068 -0.208,-0.128 -0.314,-0.189 0.029,-0.068 0.009,-0.163 -0.081,-0.217 -0.438,-0.254 -0.83,-0.385 -1.179,-0.418 -0.666,-0.324 -1.305,-0.682 -1.807,-1.321 -0.617,-0.791 -1.048,-1.731 -1.084,-2.75 -0.049,-1.384 0.547,-2.55 1.562,-2.55 0.333,0.281 0.746,0.459 1.246,0.498 0.041,0.03 0.08,0.056 0.121,0.088 0.065,0.054 0.157,-0.026 0.123,-0.096 0.128,-0.047 0.235,-0.176 0.157,-0.315 -0.443,-0.802 -1.13,-1.406 -1.401,-2.323 -0.307,-1.035 -0.295,-2.255 0.253,-3.216 1.746,-3.062 5.281,-1.021 7.518,0.358 0.015,0.692 0.229,1.369 0.724,1.957 0.271,0.322 0.753,0.191 0.835,-0.217 0.359,-1.783 -0.011,-3.705 1.862,-4.785 1.777,-1.023 3.433,0.103 4.302,1.676 -0.081,0.225 -0.153,0.455 -0.201,0.707 -0.051,0.267 0.284,0.343 0.439,0.185 1.708,-1.747 3.745,-3.185 6.27,-2.078 2.083,0.913 3.356,2.733 3.232,4.918 -0.267,0.065 -0.513,0.19 -0.72,0.397 -0.13,0.13 -0.067,0.357 0.058,0.461 0.874,0.72 2.243,0.375 3.217,1.121 0.901,0.689 1.604,1.695 1.772,2.841 0.412,2.795 -1.539,3.694 -3.946,3.926 -0.707,-0.536 -2.234,-0.494 -2.942,-0.506 -1.443,-0.027 -3.181,0.114 -4.501,0.772 -1.144,0.569 -1.653,1.439 -2.143,2.58 -1.292,3.004 -3.851,0.188 -5.909,0.307 -0.187,0.011 -0.276,0.253 -0.167,0.394 0.191,0.248 0.412,0.47 0.647,0.672 -0.452,1.138 -1.165,2.25 -2.303,2.757 -0.667,0.299 -1.445,0.521 -2.183,0.385 -0.534,-0.101 -0.864,-0.326 -1.396,-0.209 -0.21,0.045 -0.393,0.262 -0.287,0.486 0.008,0.016 0.019,0.028 0.027,0.045 -0.91,0.139 -1.865,0.155 -2.61,-0.389 -0.813,-0.595 -1.406,-1.468 -1.711,-2.425 -0.348,-1.091 -0.406,-2.699 0.321,-3.403 0.622,0.322 1.308,0.5 2.038,0.462 l 0,0 z" inkscape:connector-curvature="0" />
            <path id="svg_35" d="m 228.862,192.242 c -2.415,1.998 -0.729,7.13 2.671,6.281 1.376,-0.344 2.458,-1.375 2.598,-2.852 0.142,-1.501 -0.415,-2.898 -1.761,-3.652 -1.035,-0.578 -2.565,-0.554 -3.508,0.223 l 0,0 z m 2.118,1.399 c 0.023,0.082 0.046,0.159 0.066,0.236 0.097,0.209 0.153,0.438 0.151,0.713 -0.003,0.43 -0.326,1.018 -0.746,1.127 -0.088,0.021 -0.169,0.038 -0.251,0.049 -0.011,0.002 -0.022,0.008 -0.034,0.008 -0.02,0.002 -0.039,0.002 -0.057,0.004 -0.016,0 -0.033,0.002 -0.048,0.002 -0.039,0.003 -0.078,0.005 -0.116,0.007 -0.554,0.022 -0.91,-0.284 -1.04,-0.812 -0.026,-0.104 -0.046,-0.197 -0.061,-0.289 -0.045,-0.143 -0.067,-0.295 -0.053,-0.467 0.014,-0.172 0.078,-0.318 0.169,-0.449 0.027,-0.059 0.055,-0.117 0.081,-0.174 0.226,-0.502 0.945,-0.811 1.423,-0.447 0.239,0.078 0.443,0.246 0.516,0.492 z" inkscape:connector-curvature="0" />
            <path id="svg_36" style="fill:#ffffff" d="m 229.042,193.596 c -0.025,0.057 -0.053,0.115 -0.081,0.174 -0.091,0.131 -0.155,0.277 -0.169,0.449 -0.014,0.172 0.008,0.324 0.053,0.467 0.015,0.092 0.034,0.188 0.061,0.289 0.13,0.525 0.485,0.834 1.04,0.812 0.039,-0.002 0.078,-0.004 0.116,-0.007 0.016,0 0.032,-0.002 0.048,-0.002 0.019,-0.002 0.038,-0.002 0.057,-0.004 0.012,0 0.023,-0.006 0.034,-0.008 0.082,-0.011 0.164,-0.026 0.251,-0.049 0.42,-0.109 0.743,-0.697 0.746,-1.127 0.002,-0.273 -0.054,-0.504 -0.151,-0.713 -0.02,-0.077 -0.042,-0.154 -0.066,-0.236 -0.074,-0.246 -0.278,-0.414 -0.517,-0.492 -0.479,-0.364 -1.196,-0.055 -1.422,0.447 l 0,0 z" inkscape:connector-curvature="0" />
            <path id="svg_37" d="m 237.209,190.281 c -0.064,-0.023 -0.128,-0.047 -0.203,-0.062 -0.746,-0.158 -1.46,0.613 -1.345,1.336 0.201,1.26 0.985,2.336 2.234,2.709 0.65,0.195 2.333,0.371 2.747,-0.385 0.035,-0.064 0.078,-0.125 0.093,-0.205 0.067,-0.354 -0.323,-0.875 -0.858,-1.398 -0.199,-0.195 -0.417,-0.393 -0.642,-0.58 -0.694,-0.586 -1.431,-1.096 -1.735,-1.279 -0.086,-0.056 -0.185,-0.099 -0.291,-0.136 l 0,0 z m -0.77,1.287 c -0.209,-0.772 1.134,-0.547 1.308,0.063 0.328,1.148 -1.08,0.762 -1.308,-0.063 z" inkscape:connector-curvature="0" />
            <path id="svg_38" style="fill:#ffffff" d="m 236.439,191.568 c 0.228,0.824 1.635,1.211 1.308,0.063 -0.173,-0.61 -1.518,-0.836 -1.308,-0.063 z" inkscape:connector-curvature="0" />
            <path id="svg_39" d="m 229.018,233.811 c 0.035,0.004 0.06,-0.045 0.027,-0.067 -2.105,-1.486 -3.36,-3.862 -3.022,-6.443 0.557,-0.036 1.087,-0.233 1.6,-0.583 0.217,-0.146 0.015,-0.482 -0.219,-0.392 -0.435,0.171 -0.912,0.258 -1.361,0.192 -0.093,-0.108 -0.26,-0.146 -0.407,-0.104 -0.185,-0.073 -0.36,-0.182 -0.52,-0.33 -0.403,-0.376 -0.708,-0.955 -1.242,-1.146 -0.151,-0.054 -0.335,0.004 -0.395,0.164 -0.337,0.905 0.641,1.826 1.447,2.065 0.114,0.034 0.227,0.062 0.338,0.082 -0.239,1.832 0.241,4.142 1.569,5.481 0.528,0.531 1.191,0.906 1.997,1.041 0.064,0.012 0.123,0.032 0.188,0.04 l 0,0 z" inkscape:connector-curvature="0" />
            <g id="minRight">
                <animateTransform type="translate" fill="remove" restart="always" calcMode="linear" additive="replace" accumulate="none" repeatDur="5" values="3,0;-3,0;3,0" dur="0.5s" begin="0s" attributeName="transform" />
                <path id="svg_9" d="m 217.317,266.177 c 0.009,-0.284 -0.021,-0.565 -0.045,-0.843 -0.021,-0.139 -0.041,-0.275 -0.061,-0.41 -0.029,-0.135 -0.057,-0.266 -0.085,-0.398 -0.067,-0.26 -0.144,-0.512 -0.229,-0.752 -0.047,-0.119 -0.092,-0.235 -0.136,-0.35 -0.051,-0.113 -0.101,-0.223 -0.148,-0.326 -0.101,-0.209 -0.198,-0.406 -0.293,-0.578 -0.106,-0.166 -0.179,-0.328 -0.259,-0.451 -0.158,-0.245 -0.238,-0.403 -0.238,-0.403 0,0 0.183,0.074 0.489,0.231 0.3,0.162 0.71,0.424 1.128,0.808 0.1,0.099 0.203,0.2 0.311,0.31 0.095,0.115 0.193,0.233 0.293,0.356 0.186,0.253 0.361,0.53 0.504,0.834 0.094,0.203 0.171,0.416 0.236,0.636 0.111,-1.015 0.453,-1.992 0.942,-2.896 -0.184,-0.424 -0.45,-0.854 -0.763,-1.254 -1.546,-0.055 -3.019,-0.793 -3.914,-1.981 -1.043,1.372 -3.625,1.944 -5.921,2.047 -0.259,0.294 -0.506,0.593 -0.73,0.888 -0.901,1.188 -1.536,2.676 -1.428,4.189 0.022,0.312 0.104,0.777 0.252,1.255 0.261,0.839 0.728,1.702 1.452,1.779 1.924,0.2 3.888,-0.166 5.814,-0.243 0.704,-0.027 1.626,-0.003 2.535,-0.087 0.164,-0.735 0.303,-1.554 0.294,-2.361 l 0,0 z" inkscape:connector-curvature="0" />
                <g id="svg_11">
                    <path id="svg_12" d="m 179.792,267.52 c 1.924,0.203 3.888,-0.164 5.813,-0.24 0.703,-0.027 1.625,-0.004 2.535,-0.088 0.166,-0.729 0.305,-1.553 0.297,-2.357 0.009,-0.284 -0.022,-0.562 -0.046,-0.843 -0.021,-0.138 -0.04,-0.273 -0.06,-0.409 -0.03,-0.134 -0.057,-0.268 -0.086,-0.398 -0.066,-0.261 -0.144,-0.512 -0.23,-0.752 -0.047,-0.119 -0.091,-0.236 -0.136,-0.35 -0.051,-0.113 -0.101,-0.225 -0.147,-0.327 -0.103,-0.208 -0.199,-0.403 -0.293,-0.577 -0.106,-0.166 -0.179,-0.328 -0.26,-0.451 -0.157,-0.246 -0.239,-0.404 -0.239,-0.404 0,0 0.184,0.076 0.49,0.232 0.301,0.162 0.709,0.424 1.128,0.807 0.1,0.1 0.203,0.201 0.31,0.311 0.095,0.115 0.193,0.232 0.294,0.355 0.127,0.174 0.234,0.375 0.345,0.57 0.33,-0.76 0.768,-1.475 1.271,-2.123 -0.256,-0.541 -0.639,-1.086 -1.067,-1.558 -2.583,0.91 -5.476,1.54 -7.866,0.365 -0.35,-0.173 -0.632,-0.39 -0.885,-0.623 -0.542,0.514 -1.026,1.086 -1.446,1.64 -0.902,1.188 -1.536,2.676 -1.428,4.188 0.025,0.363 0.136,0.938 0.334,1.49 0.15,0.416 0.349,0.817 0.61,1.108 0.216,0.236 0.467,0.402 0.762,0.434 l 0,0 z" inkscape:connector-curvature="0" />
                </g>
            </g>
        </g>
        <g id="big">
            <animateTransform type="translate" fill="freeze" restart="always" calcMode="linear" additive="replace" accumulate="none" values="120,0;0,0" dur="5s" begin="0s" attributeName="transform" />
            <path id="svg_41" style="fill:#ffde17" d="m 443.302,267.245 0.144,0 c -0.046,-0.009 -0.088,-0.024 -0.136,-0.033 -0.003,0.011 -0.005,0.02 -0.008,0.033 z" inkscape:connector-curvature="0" />
            <path id="svg_42" d="m 413.487,267.354 c -0.014,-0.062 -0.021,-0.127 -0.028,-0.188 -0.068,0.314 -0.158,0.646 -0.271,0.964 0.197,0.109 0.409,0.202 0.637,0.274 -0.019,-0.036 -0.034,-0.07 -0.049,-0.107 -0.128,-0.299 -0.217,-0.617 -0.289,-0.943 l 0,0 z" inkscape:connector-curvature="0" />
            <g id="svg_43">
                <path id="svg_44" style="fill:#fff200" d="m 407.625,257.004 c 0.24,0.131 0.475,0.271 0.704,0.426 -0.124,-0.212 -0.245,-0.426 -0.358,-0.643 -0.11,0.078 -0.231,0.145 -0.346,0.217 z" inkscape:connector-curvature="0" />
                <path id="svg_45" style="fill:#ffffff" d="m 415.051,266.337 c -0.009,-0.284 0.021,-0.565 0.045,-0.843 0.021,-0.139 0.041,-0.275 0.062,-0.41 0.026,-0.135 0.058,-0.266 0.085,-0.398 0.065,-0.261 0.145,-0.512 0.229,-0.752 0.047,-0.119 0.094,-0.235 0.138,-0.35 0.051,-0.113 0.101,-0.223 0.146,-0.327 0.103,-0.208 0.198,-0.405 0.293,-0.577 0.106,-0.166 0.179,-0.328 0.259,-0.451 0.158,-0.246 0.238,-0.403 0.238,-0.403 0,0 -0.183,0.073 -0.488,0.231 -0.3,0.162 -0.71,0.424 -1.128,0.808 -0.1,0.099 -0.201,0.2 -0.311,0.309 -0.095,0.116 -0.192,0.234 -0.294,0.356 -0.188,0.254 -0.361,0.531 -0.504,0.835 -0.095,0.202 -0.17,0.415 -0.236,0.635 0.033,0.299 0.053,0.601 0.043,0.901 -0.011,0.324 -0.063,0.777 -0.17,1.266 0.01,0.062 0.017,0.127 0.028,0.188 0.069,0.326 0.161,0.646 0.286,0.941 0.015,0.037 0.03,0.071 0.049,0.109 0.473,0.154 0.995,0.242 1.523,0.289 -0.161,-0.731 -0.301,-1.549 -0.293,-2.357 l 0,0 z" inkscape:connector-curvature="0" />
                <g id="bigRight">
                    <animateTransform type="translate" fill="remove" restart="always" calcMode="linear" additive="replace" accumulate="none" repeatDur="5" values="-3,0;3,0;-3,0" dur="1s" begin="0s" attributeName="transform" />
                    <path id="svg_47" d="m 424.721,262.997 c -0.215,-0.422 -0.466,-0.825 -0.748,-1.196 -0.224,-0.295 -0.471,-0.594 -0.729,-0.888 -2.296,-0.103 -4.878,-0.675 -5.921,-2.047 -0.896,1.188 -2.368,1.929 -3.914,1.983 -0.313,0.398 -0.58,0.83 -0.766,1.252 0.489,0.902 0.831,1.883 0.942,2.896 0.066,-0.218 0.143,-0.433 0.236,-0.636 0.143,-0.301 0.316,-0.58 0.504,-0.834 0.102,-0.123 0.199,-0.24 0.294,-0.356 0.105,-0.106 0.211,-0.21 0.311,-0.31 0.418,-0.383 0.828,-0.645 1.128,-0.805 0.308,-0.158 0.488,-0.234 0.488,-0.234 0,0 -0.08,0.158 -0.238,0.406 -0.08,0.121 -0.15,0.285 -0.259,0.449 -0.095,0.174 -0.19,0.369 -0.293,0.577 -0.048,0.104 -0.098,0.214 -0.146,0.327 -0.044,0.111 -0.091,0.229 -0.138,0.352 -0.086,0.238 -0.163,0.489 -0.229,0.752 -0.027,0.133 -0.059,0.264 -0.085,0.396 -0.021,0.135 -0.04,0.271 -0.062,0.41 -0.021,0.275 -0.054,0.559 -0.045,0.843 -0.008,0.808 0.132,1.626 0.297,2.356 0.908,0.084 1.831,0.061 2.535,0.086 1.926,0.078 3.893,0.445 5.814,0.244 0.725,-0.078 1.189,-0.939 1.451,-1.778 0.146,-0.478 0.229,-0.943 0.252,-1.257 0.075,-1.036 -0.207,-2.061 -0.679,-2.988 l 0,0 z" inkscape:connector-curvature="0" />
                    <path id="svg_48" d="m 451.407,258.816 c -0.253,0.233 -0.535,0.453 -0.885,0.625 -2.391,1.174 -5.282,0.545 -7.866,-0.366 -0.43,0.472 -0.812,1.016 -1.066,1.557 0.504,0.649 0.941,1.364 1.271,2.124 0.109,-0.195 0.219,-0.398 0.346,-0.57 0.1,-0.123 0.198,-0.242 0.293,-0.355 0.107,-0.107 0.211,-0.211 0.311,-0.311 0.421,-0.383 0.828,-0.645 1.131,-0.807 0.305,-0.158 0.487,-0.232 0.487,-0.232 0,0 -0.083,0.158 -0.237,0.404 -0.081,0.122 -0.153,0.285 -0.262,0.451 -0.094,0.173 -0.188,0.369 -0.293,0.577 -0.047,0.104 -0.096,0.214 -0.146,0.327 -0.045,0.111 -0.089,0.229 -0.137,0.35 -0.087,0.24 -0.163,0.491 -0.229,0.752 -0.029,0.133 -0.057,0.266 -0.086,0.398 -0.021,0.136 -0.039,0.271 -0.061,0.408 -0.023,0.277 -0.056,0.56 -0.047,0.844 -0.008,0.807 0.133,1.628 0.298,2.357 0.909,0.086 1.831,0.061 2.534,0.088 1.928,0.078 3.891,0.442 5.812,0.242 0.296,-0.031 0.547,-0.197 0.761,-0.437 0.608,-0.677 0.899,-1.962 0.944,-2.601 0.104,-1.463 -0.486,-2.896 -1.34,-4.063 -0.03,-0.041 -0.06,-0.084 -0.09,-0.124 -0.417,-0.552 -0.902,-1.122 -1.443,-1.638 l 0,0 z" inkscape:connector-curvature="0" />
                </g>
                <path id="svg_49" style="fill:#ffffff" d="m 443.932,264.992 c -0.009,-0.284 0.021,-0.564 0.046,-0.844 0.021,-0.137 0.04,-0.272 0.062,-0.408 0.029,-0.135 0.057,-0.268 0.086,-0.398 0.066,-0.261 0.145,-0.512 0.229,-0.752 0.049,-0.119 0.093,-0.236 0.138,-0.35 0.052,-0.113 0.101,-0.223 0.146,-0.327 0.104,-0.208 0.199,-0.404 0.293,-0.577 0.106,-0.166 0.181,-0.329 0.262,-0.451 0.154,-0.246 0.237,-0.404 0.237,-0.404 0,0 -0.185,0.074 -0.487,0.232 -0.303,0.162 -0.71,0.424 -1.131,0.807 -0.1,0.1 -0.201,0.201 -0.311,0.311 -0.095,0.113 -0.193,0.232 -0.293,0.355 -0.127,0.172 -0.234,0.375 -0.346,0.57 0.424,0.977 0.673,2.021 0.639,3.09 -0.011,0.346 -0.071,0.842 -0.19,1.366 0.048,0.009 0.09,0.024 0.136,0.033 0.257,0.047 0.521,0.081 0.783,0.104 -0.169,-0.729 -0.307,-1.55 -0.299,-2.357 l 0,0 z" inkscape:connector-curvature="0" />
                <path id="svg_50" style="fill:#ffffff" d="m 399.979,266.887 c -0.026,-0.375 -0.002,-0.746 0.019,-1.113 0.02,-0.184 0.039,-0.363 0.058,-0.545 0.031,-0.18 0.062,-0.354 0.095,-0.528 0.073,-0.349 0.161,-0.687 0.265,-1.009 0.055,-0.158 0.109,-0.314 0.161,-0.467 0.062,-0.15 0.123,-0.299 0.181,-0.438 0.123,-0.281 0.241,-0.545 0.357,-0.778 0.132,-0.225 0.219,-0.442 0.318,-0.606 0.194,-0.336 0.293,-0.549 0.293,-0.549 0,0 -0.235,0.108 -0.633,0.334 -0.389,0.229 -0.916,0.596 -1.449,1.121 -0.127,0.137 -0.258,0.276 -0.395,0.426 -0.119,0.156 -0.242,0.316 -0.369,0.482 -0.231,0.346 -0.449,0.725 -0.625,1.133 -0.168,0.404 -0.305,0.838 -0.383,1.282 -0.077,0.444 -0.112,0.899 -0.093,1.354 0.017,0.451 0.086,0.896 0.188,1.328 0.109,0.428 0.246,0.842 0.425,1.229 0.021,0.049 0.049,0.094 0.069,0.143 0.633,0.183 1.328,0.27 2.029,0.309 -0.258,-0.966 -0.481,-2.042 -0.511,-3.108 l 0,0 z" inkscape:connector-curvature="0" />
                <g id="bigLeft">
                    <animateTransform type="translate" fill="remove" restart="always" calcMode="linear" additive="replace" accumulate="none" repeatDur="5" values="3,0;-3,0;3,0" dur="1s" begin="0s" attributeName="transform" />
                    <path id="svg_52" d="m 396.529,261.535 c -0.619,1.706 -0.922,3.558 -0.66,5.377 0.017,0.118 0.047,0.225 0.072,0.333 0.318,1.375 1.297,2.085 2.518,2.437 -0.022,-0.049 -0.048,-0.094 -0.069,-0.143 -0.179,-0.387 -0.313,-0.801 -0.425,-1.229 -0.103,-0.434 -0.172,-0.877 -0.188,-1.328 -0.021,-0.452 0.016,-0.908 0.093,-1.354 0.078,-0.444 0.215,-0.878 0.383,-1.282 0.176,-0.408 0.392,-0.787 0.625,-1.133 0.127,-0.166 0.25,-0.326 0.369,-0.482 0.137,-0.147 0.268,-0.289 0.395,-0.426 0.533,-0.525 1.062,-0.894 1.449,-1.121 0.396,-0.226 0.633,-0.334 0.633,-0.334 0,0 -0.099,0.213 -0.293,0.549 -0.102,0.164 -0.188,0.384 -0.318,0.606 -0.116,0.233 -0.234,0.497 -0.357,0.778 -0.058,0.141 -0.117,0.285 -0.181,0.438 -0.054,0.15 -0.106,0.309 -0.161,0.467 -0.104,0.322 -0.189,0.66 -0.267,1.009 -0.028,0.174 -0.062,0.351 -0.093,0.528 -0.019,0.182 -0.038,0.361 -0.058,0.545 -0.021,0.367 -0.045,0.738 -0.019,1.113 0.03,1.066 0.256,2.145 0.512,3.102 1.205,0.064 2.424,-0.016 3.354,-0.016 2.546,0.004 5.159,0.387 7.689,0.022 0.795,-0.115 1.325,-0.944 1.653,-1.867 0.113,-0.319 0.203,-0.647 0.271,-0.964 0.104,-0.486 0.159,-0.939 0.17,-1.264 0.01,-0.306 -0.01,-0.604 -0.043,-0.903 -0.111,-1.013 -0.453,-1.991 -0.942,-2.896 -0.294,-0.543 -0.638,-1.06 -1.019,-1.535 -1.448,-0.535 -2.493,-1.76 -3.296,-3.139 -0.229,-0.152 -0.464,-0.295 -0.704,-0.426 -2.257,1.417 -5.529,1.636 -7.71,0.447 -0.37,0.228 -0.721,0.479 -1.038,0.763 -0.026,0.022 -0.057,0.043 -0.082,0.065 -0.901,0.839 -1.842,2.098 -2.263,3.263 l 0,0 z" inkscape:connector-curvature="0" />
                    <path id="svg_53" d="m 443.5,265.846 c 0.034,-1.068 -0.215,-2.113 -0.639,-3.09 -0.33,-0.76 -0.77,-1.475 -1.271,-2.124 -0.062,-0.082 -0.124,-0.167 -0.188,-0.247 -0.335,-0.406 -0.703,-0.818 -1.093,-1.221 -1.243,2.088 -3.606,3.381 -6.161,2.564 -1.758,-0.562 -2.896,-1.901 -4.421,-2.865 -1.067,-0.676 -1.799,1.412 -2.927,1.759 -0.002,10e-4 -0.005,10e-4 -0.008,0.002 -0.155,0.286 -0.29,0.573 -0.393,0.854 -0.157,0.436 -0.293,0.879 -0.405,1.33 -0.329,1.316 -0.448,2.69 -0.255,4.049 0.02,0.138 0.054,0.262 0.085,0.388 0.334,1.339 1.302,2.034 2.507,2.38 -0.023,-0.048 -0.049,-0.092 -0.07,-0.143 -0.179,-0.385 -0.312,-0.799 -0.425,-1.229 -0.103,-0.431 -0.171,-0.877 -0.188,-1.328 -0.021,-0.45 0.015,-0.905 0.094,-1.352 0.076,-0.446 0.214,-0.88 0.383,-1.285 0.174,-0.407 0.391,-0.786 0.623,-1.129 0.128,-0.167 0.25,-0.329 0.369,-0.486 0.138,-0.146 0.27,-0.289 0.395,-0.425 0.534,-0.525 1.062,-0.895 1.449,-1.121 0.396,-0.227 0.635,-0.333 0.635,-0.333 0,0 -0.1,0.212 -0.293,0.547 -0.103,0.166 -0.188,0.386 -0.32,0.608 -0.115,0.232 -0.233,0.498 -0.355,0.777 -0.059,0.142 -0.119,0.287 -0.182,0.438 -0.053,0.151 -0.104,0.308 -0.162,0.47 -0.102,0.321 -0.189,0.657 -0.266,1.006 -0.028,0.174 -0.061,0.353 -0.094,0.53 -0.018,0.179 -0.037,0.36 -0.057,0.544 -0.02,0.366 -0.046,0.739 -0.02,1.113 0.031,1.066 0.256,2.145 0.513,3.102 1.205,0.064 2.425,-0.016 3.354,-0.016 2.547,0.004 5.16,0.389 7.69,0.021 1.028,-0.147 1.617,-1.496 1.896,-2.693 0.003,-0.012 0.005,-0.021 0.008,-0.033 0.121,-0.52 0.181,-1.017 0.192,-1.362 l 0,0 z" inkscape:connector-curvature="0" />
                </g>
                <path id="svg_54" style="fill:#ffffff" d="m 429.85,266.831 c -0.026,-0.374 0,-0.747 0.02,-1.113 0.02,-0.184 0.039,-0.364 0.057,-0.544 0.033,-0.18 0.063,-0.357 0.094,-0.531 0.074,-0.348 0.164,-0.684 0.266,-1.006 0.058,-0.16 0.109,-0.316 0.162,-0.469 0.062,-0.15 0.123,-0.298 0.182,-0.438 0.122,-0.281 0.24,-0.547 0.355,-0.779 0.133,-0.225 0.22,-0.442 0.32,-0.608 0.193,-0.335 0.293,-0.547 0.293,-0.547 0,0 -0.236,0.106 -0.635,0.333 -0.388,0.229 -0.915,0.596 -1.449,1.121 -0.125,0.136 -0.257,0.277 -0.395,0.425 -0.119,0.157 -0.241,0.319 -0.369,0.486 -0.232,0.343 -0.449,0.722 -0.623,1.129 -0.169,0.405 -0.307,0.839 -0.383,1.285 -0.079,0.444 -0.112,0.899 -0.094,1.352 0.018,0.451 0.086,0.897 0.188,1.328 0.11,0.429 0.246,0.843 0.425,1.229 0.021,0.05 0.048,0.094 0.07,0.142 0.633,0.183 1.328,0.269 2.028,0.308 -0.257,-0.959 -0.481,-2.036 -0.512,-3.103 l 0,0 z" inkscape:connector-curvature="0" />
                <path id="svg_55" style="fill:#58595b" d="m 432.53,208.966 c 2.329,0.962 3.354,3.237 3.143,6.025 -0.263,3.425 -2.415,5.434 -5.368,6.63 2.526,3.04 1.213,7.066 -2.255,9.154 -2.687,1.617 -6.591,2.101 -7.667,-1.143 -2.274,1.006 -5.509,0.348 -7.351,-1.47 -1.237,1.333 -2.606,2.569 -4.118,3.685 -6.78,4.985 -15.897,7.254 -23.803,3.508 0.242,1.646 1.06,3.17 2.436,3.787 0.339,0.151 0.287,0.656 -0.09,0.717 -2.289,0.35 -2.468,3.483 -1.554,5.168 1.289,2.373 3.423,2.99 5.973,2.748 0.284,-0.026 0.493,0.151 0.553,0.423 0.501,2.263 2.742,7.577 5.366,4.274 0.331,-0.418 1.045,-0.162 0.973,0.391 -0.688,5.144 6.282,5.098 9.041,2.537 0.3,-0.276 0.759,-0.08 0.912,0.24 0.752,1.561 2.016,3.989 4.062,4.014 1.82,0.021 3.816,-0.848 4.143,-2.84 0.176,-0.754 1.351,-0.646 1.218,0.151 -0.478,2.058 3.375,2.521 4.728,2.638 0.938,0.082 1.916,0.146 2.854,-0.015 1.138,-0.194 1.504,-0.946 2.197,-1.743 1.271,-1.457 2.936,0.191 4.046,1.098 2.847,2.32 6.587,2.25 7.772,-1.711 0.102,-0.342 0.544,-0.49 0.853,-0.365 2.156,0.871 4.513,1.822 6.872,1.838 2.982,0.02 4.978,-2.367 2.729,-4.906 -0.432,-0.484 0.082,-1.109 0.622,-1.093 2.229,0.073 6.367,-0.325 7.71,-2.437 0.936,-1.471 1.399,-5.239 -1.271,-5 -0.645,0.057 -1.043,-0.772 -0.498,-1.188 2.354,-1.797 4.76,-3.622 5.702,-6.569 0.716,-2.236 0.403,-5.795 -2.735,-5.388 -0.526,0.067 -0.819,-0.626 -0.398,-0.954 4.891,-3.801 2.277,-11.742 -4.316,-9.38 -0.403,0.146 -0.729,-0.218 -0.616,-0.608 0.729,-2.479 1.247,-5.595 0.363,-8.104 -1.181,-3.352 -4.064,-2.859 -6.687,-1.331 -0.262,0.149 -0.643,0.075 -0.68,-0.276 -0.256,-2.367 0.335,-6.615 -2.42,-7.744 -3.6,-1.477 -6.521,0.35 -8.357,3.422 -0.173,0.285 -0.662,0.205 -0.768,-0.099 -0.206,-0.6 -0.475,-1.233 -0.8,-1.862 -0.34,1.5 -1.228,2.77 -2.516,3.778 l 0,0 z" inkscape:connector-curvature="0" />
                <path id="svg_56" d="m 408.329,257.43 c 0.803,1.379 1.848,2.604 3.296,3.139 0.468,0.174 0.97,0.285 1.528,0.293 0.085,0.003 0.169,-0.008 0.254,-0.012 1.546,-0.055 3.019,-0.793 3.914,-1.981 1.043,1.372 3.625,1.944 5.921,2.047 1.453,0.063 2.792,-0.06 3.551,-0.289 0.003,-0.001 0.006,-0.001 0.008,-0.002 1.128,-0.347 1.857,-2.437 2.927,-1.758 1.522,0.963 2.663,2.303 4.421,2.862 2.555,0.816 4.918,-0.477 6.161,-2.562 0.156,-0.266 0.301,-0.538 0.418,-0.824 0.612,0.247 1.263,0.5 1.931,0.735 2.584,0.909 5.478,1.54 7.866,0.364 0.35,-0.172 0.632,-0.39 0.885,-0.623 0.683,-0.635 1.023,-1.463 1.083,-2.342 0.053,-0.812 -0.122,-1.66 -0.5,-2.422 3.306,-0.127 7.289,-1.184 8.375,-4.494 0.666,-2.026 0.189,-4.574 -1.614,-5.377 2.552,-2.119 4.829,-4.531 5.181,-8.039 0.238,-2.381 -0.811,-4.642 -2.968,-5.058 1.839,-2.013 2.56,-4.746 1.559,-7.435 -1.132,-3.031 -4.257,-3.711 -7.04,-2.988 0.695,-2.903 0.938,-6.23 -0.403,-8.938 -1.437,-2.891 -4.559,-2.217 -6.912,-0.99 -0.243,-3.156 0.026,-6.618 -3.405,-8.032 -3.387,-1.396 -6.506,0.53 -8.397,3.204 -0.327,-0.816 -0.726,-1.598 -1.188,-2.313 0.021,0.556 -0.021,1.087 -0.133,1.591 0.325,0.629 0.594,1.265 0.8,1.862 0.104,0.302 0.595,0.382 0.768,0.097 1.838,-3.072 4.76,-4.896 8.357,-3.422 2.755,1.129 2.164,5.377 2.42,7.745 0.037,0.353 0.418,0.429 0.68,0.277 2.62,-1.528 5.506,-2.019 6.687,1.331 0.884,2.511 0.364,5.626 -0.363,8.105 -0.112,0.391 0.213,0.752 0.616,0.606 6.597,-2.362 9.207,5.579 4.316,9.38 -0.421,0.328 -0.128,1.021 0.398,0.954 3.141,-0.407 3.451,3.149 2.735,5.388 -0.942,2.947 -3.351,4.771 -5.702,6.569 -0.545,0.416 -0.146,1.245 0.498,1.188 2.673,-0.238 2.207,3.53 1.271,5.002 -1.343,2.108 -5.479,2.508 -7.709,2.436 -0.541,-0.018 -1.055,0.607 -0.623,1.093 2.248,2.539 0.254,4.925 -2.729,4.906 -2.359,-0.015 -4.716,-0.968 -6.872,-1.839 -0.309,-0.125 -0.751,0.023 -0.853,0.365 -1.188,3.963 -4.928,4.03 -7.772,1.713 -1.11,-0.905 -2.774,-2.557 -4.046,-1.1 -0.693,0.797 -1.062,1.551 -2.197,1.744 -0.938,0.161 -1.913,0.096 -2.854,0.016 -1.353,-0.115 -5.203,-0.582 -4.728,-2.639 0.133,-0.797 -1.042,-0.904 -1.218,-0.15 -0.324,1.992 -2.319,2.857 -4.143,2.838 -2.047,-0.021 -3.311,-2.453 -4.062,-4.014 -0.153,-0.318 -0.612,-0.518 -0.912,-0.24 -2.759,2.562 -9.729,2.605 -9.041,-2.537 0.072,-0.551 -0.642,-0.81 -0.973,-0.392 -2.624,3.304 -4.865,-2.012 -5.366,-4.272 -0.06,-0.271 -0.269,-0.449 -0.553,-0.424 -2.55,0.242 -4.684,-0.375 -5.973,-2.746 -0.914,-1.686 -0.735,-4.819 1.554,-5.17 0.377,-0.06 0.429,-0.562 0.09,-0.717 -1.376,-0.615 -2.189,-2.14 -2.436,-3.785 -0.027,-0.016 -0.058,-0.022 -0.083,-0.037 -0.188,-0.09 -0.373,-0.199 -0.562,-0.297 0.161,1.705 0.854,3.377 2.041,4.332 -1.85,0.812 -2.246,3.297 -1.672,5.215 0.945,3.156 3.691,4.32 6.719,4.205 0.756,2.988 3.228,7.391 6.103,5.324 0.15,1.588 1.035,2.686 2.258,3.352 2.182,1.191 5.454,0.972 7.711,-0.445" inkscape:connector-curvature="0" />
                <path id="svg_57" style="fill:#eecfdc" d="m 382.426,232.805 c -0.055,-0.035 -0.105,-0.074 -0.16,-0.109 0.053,0.034 0.105,0.074 0.16,0.109 z" inkscape:connector-curvature="0" />
                <path id="svg_58" style="fill:#eecfdc" d="m 384.137,233.834 c -0.098,-0.053 -0.191,-0.109 -0.291,-0.163 0.097,0.054 0.192,0.11 0.291,0.163 z" inkscape:connector-curvature="0" />
                <path id="svg_59" style="fill:#eecfdc" d="m 383.623,231.699 c -2.369,-4.272 -2.346,-9.891 0.074,-14.038 0.084,-0.144 0.203,-0.19 0.321,-0.185 -1.046,-0.771 -2.593,-2.652 -2.208,-3.959 0.01,-0.027 0.042,-0.031 0.062,-0.021 0.584,0.376 0.729,1.14 1.141,1.688 0.43,0.576 0.941,1.188 1.627,1.471 0.707,0.291 1.513,0.408 2.271,0.262 0.801,-0.154 1.41,-0.562 2.215,-0.402 0.242,0.049 0.332,0.284 0.21,0.49 -0.841,1.408 -3.541,1.459 -4.958,0.699 0.08,0.133 0.107,0.304 0.012,0.471 -1.67,2.928 -2.129,6.274 -1.287,9.553 0.354,1.375 0.913,2.586 1.54,3.767 2.448,-0.533 4.874,-1.16 7.335,-1.644 -0.161,0.031 -0.277,0.056 -0.369,0.072 0.322,-0.064 0.907,-0.184 1.021,-0.217 0.556,-0.161 1.111,-0.314 1.668,-0.471 0.465,-0.213 0.922,-0.439 1.37,-0.684 0.03,-0.021 0.052,-0.037 0.087,-0.062 0.406,-0.284 0.82,-0.562 1.209,-0.869 1.107,-0.881 2.236,-1.787 3.287,-2.733 0.6,-0.539 1.156,-1.113 1.736,-1.673 0.229,-0.252 0.457,-0.505 0.676,-0.765 0.91,-1.104 1.789,-2.247 2.521,-3.479 0.049,-0.08 0.086,-0.146 0.123,-0.209 0.129,-0.244 0.261,-0.488 0.385,-0.736 0.271,-0.557 0.545,-1.112 0.795,-1.682 0.58,-1.326 1.123,-2.671 1.588,-4.041 0.381,-1.127 0.73,-2.263 1.053,-3.406 0.084,-0.387 0.497,-2.063 0.559,-2.334 0.193,-0.836 0.391,-1.672 0.576,-2.51 0.348,-1.535 0.766,-3.052 1.162,-4.572 0.075,-0.291 0.13,-0.5 0.17,-0.647 0.035,-0.146 0.084,-0.346 0.15,-0.61 0.273,-1.105 0.524,-2.22 0.786,-3.328 -1.934,0.84 -4.291,0.451 -5.175,-1.754 -1.438,-3.58 -5.729,-2.435 -8.744,-2.875 -0.065,-0.011 -0.088,-0.078 -0.058,-0.131 0.013,-0.019 0.024,-0.031 0.035,-0.049 -1.062,0.366 -2.097,0.264 -2.941,-0.17 -0.021,0.021 -0.045,0.041 -0.064,0.062 -0.036,0.035 -0.089,0.004 -0.103,-0.037 -0.107,0.162 -0.216,0.33 -0.321,0.496 0.062,-0.022 0.129,-0.045 0.204,-0.062 0.746,-0.156 1.459,0.613 1.344,1.336 -0.201,1.262 -0.984,2.336 -2.233,2.709 -0.648,0.195 -2.334,0.371 -2.746,-0.385 -0.229,0.074 -0.448,0.087 -0.644,-0.02 -0.034,-0.02 -0.063,-0.043 -0.089,-0.068 -8.36,3.836 -18.856,8.333 -19.224,18.98 -0.25,7.258 3.757,14.762 9.741,19.207 0.223,-0.059 0.444,-0.111 0.675,-0.152 0.48,-0.082 0.957,-0.185 1.435,-0.283 l 0,0 z m 16.375,-39.517 c 1.035,-0.58 2.566,-0.557 3.508,0.224 2.415,1.995 0.729,7.129 -2.671,6.278 -1.376,-0.343 -2.458,-1.375 -2.598,-2.85 -0.141,-1.501 0.415,-2.9 1.761,-3.652 z" inkscape:connector-curvature="0" />
                <path id="svg_60" style="fill:#eecfdc" d="m 385.922,234.689 c -0.104,-0.045 -0.209,-0.09 -0.312,-0.135 0.103,0.048 0.207,0.092 0.312,0.135 z" inkscape:connector-curvature="0" />
                <path id="svg_61" style="fill:#eecfdc" d="m 387.724,235.346 c -0.081,-0.025 -0.163,-0.047 -0.242,-0.072 0.079,0.025 0.16,0.046 0.242,0.072 z" inkscape:connector-curvature="0" />
                <path id="svg_62" style="fill:#eea7c5" d="m 412.465,219.82 c -1.54,-0.709 -2.375,-2.532 -2.398,-4.437 -0.029,-2.284 1.385,-4.409 3.272,-5.646 -1.702,-1.504 -0.775,-5.729 0.835,-7.844 -0.937,-0.908 -0.744,-4.162 0.418,-4.968 -0.688,-0.68 -1.188,-1.521 -1.268,-2.462 -0.252,0.168 -0.521,0.312 -0.794,0.434 -0.262,1.107 -0.513,2.222 -0.786,3.328 -0.066,0.266 -0.115,0.463 -0.15,0.609 -0.04,0.148 -0.095,0.355 -0.17,0.646 -0.396,1.521 -0.814,3.039 -1.162,4.572 -0.188,0.838 -0.383,1.674 -0.576,2.51 -0.062,0.271 -0.475,1.947 -0.559,2.334 -0.32,1.146 -0.672,2.281 -1.053,3.406 -0.465,1.371 -1.008,2.715 -1.588,4.041 -0.25,0.568 -0.522,1.125 -0.795,1.685 -0.124,0.245 -0.256,0.489 -0.385,0.733 -0.037,0.062 -0.074,0.129 -0.123,0.209 -0.73,1.23 -1.609,2.375 -2.521,3.479 -0.219,0.26 -0.446,0.513 -0.676,0.765 -0.58,0.561 -1.139,1.135 -1.736,1.674 -1.051,0.945 -2.18,1.854 -3.287,2.732 -0.389,0.311 -0.803,0.585 -1.209,0.869 -0.035,0.023 -0.057,0.041 -0.087,0.062 -0.448,0.242 -0.905,0.471 -1.37,0.685 -0.557,0.153 -1.112,0.309 -1.668,0.47 -0.114,0.033 -0.699,0.15 -1.021,0.217 0.092,-0.019 0.208,-0.041 0.369,-0.072 -2.461,0.481 -4.887,1.108 -7.335,1.644 0.602,1.128 1.263,2.229 1.867,3.415 0.321,0.123 0.643,0.256 0.971,0.361 0.079,0.025 0.161,0.047 0.242,0.072 0.562,0.174 1.128,0.327 1.704,0.445 4.85,0.996 9.739,0.186 14.111,-1.855 -0.062,0.011 -0.122,0.026 -0.188,0.035 -0.033,0.004 -0.06,-0.046 -0.025,-0.068 2.104,-1.485 3.357,-3.861 3.021,-6.442 -0.557,-0.037 -1.087,-0.233 -1.6,-0.583 -0.217,-0.146 -0.016,-0.482 0.22,-0.393 0.437,0.172 0.911,0.259 1.36,0.193 0.093,-0.109 0.26,-0.146 0.407,-0.104 0.186,-0.073 0.357,-0.182 0.52,-0.33 0.402,-0.376 0.707,-0.955 1.242,-1.146 0.148,-0.054 0.335,0.004 0.395,0.164 0.338,0.905 -0.641,1.825 -1.445,2.065 -0.113,0.034 -0.229,0.062 -0.34,0.082 0.238,1.832 -0.239,4.14 -1.566,5.479 2.543,-1.461 4.857,-3.343 6.829,-5.521 -0.24,-0.358 -0.437,-0.748 -0.565,-1.167 -0.556,-1.769 -0.614,-4.728 0.663,-6.377 l 0,0 z" inkscape:connector-curvature="0" />
                <path id="svg_63" style="fill:#eea7c5" d="m 383.623,231.699 c -0.479,0.098 -0.955,0.201 -1.438,0.287 -0.229,0.043 -0.45,0.096 -0.673,0.154 0.249,0.186 0.494,0.379 0.751,0.553 0.055,0.037 0.105,0.076 0.16,0.111 0.462,0.31 0.938,0.594 1.42,0.864 0.1,0.056 0.193,0.108 0.291,0.163 0.481,0.262 0.976,0.501 1.475,0.723 0.104,0.045 0.208,0.09 0.312,0.135 0.012,0.006 0.025,0.01 0.038,0.015 -0.94,-0.879 -1.72,-1.893 -2.336,-3.005 l 0,0 z" inkscape:connector-curvature="0" />
                <path id="svg_64" d="m 395.159,190.441 c 0.105,-0.168 0.214,-0.336 0.321,-0.498 0.014,0.041 0.064,0.074 0.103,0.039 0.021,-0.021 0.043,-0.041 0.064,-0.062 -0.106,-0.054 -0.21,-0.113 -0.312,-0.18 -0.721,0.72 -1.434,1.445 -2.206,2.113 0.695,-0.584 1.434,-1.097 1.737,-1.28 0.089,-0.052 0.188,-0.094 0.293,-0.132 l 0,0 z" inkscape:connector-curvature="0" />
                <path id="svg_65" d="m 385.111,235.355 c 7.903,3.746 17.021,1.479 23.803,-3.508 1.512,-1.113 2.881,-2.352 4.118,-3.685 -0.248,-0.245 -0.477,-0.509 -0.666,-0.794 -1.97,2.178 -4.286,4.061 -6.829,5.521 -0.528,0.531 -1.192,0.907 -1.998,1.043 -4.372,2.041 -9.264,2.854 -14.111,1.855 -0.576,-0.118 -1.144,-0.271 -1.704,-0.444 -0.082,-0.024 -0.163,-0.048 -0.242,-0.073 -0.328,-0.105 -0.647,-0.238 -0.971,-0.361 0.016,0.027 0.028,0.053 0.042,0.08 0.045,0.09 -0.081,0.185 -0.155,0.121 -0.153,-0.129 -0.291,-0.271 -0.438,-0.407 -0.013,-0.005 -0.026,-0.009 -0.038,-0.015 -0.104,-0.045 -0.209,-0.09 -0.312,-0.135 -0.499,-0.222 -0.991,-0.459 -1.475,-0.723 -0.099,-0.053 -0.191,-0.107 -0.291,-0.163 -0.48,-0.271 -0.958,-0.558 -1.42,-0.864 -0.055,-0.035 -0.104,-0.074 -0.16,-0.111 -0.257,-0.174 -0.502,-0.367 -0.751,-0.553 -5.984,-4.447 -9.992,-11.949 -9.742,-19.209 0.366,-10.647 10.862,-15.146 19.225,-18.98 0.022,0.027 0.055,0.051 0.089,0.07 0.193,0.104 0.414,0.093 0.644,0.018 -0.034,-0.064 -0.077,-0.125 -0.094,-0.205 -0.065,-0.354 0.323,-0.875 0.858,-1.4 -0.185,0.166 -0.367,0.33 -0.568,0.479 -0.354,0.263 -0.81,0.327 -0.977,0.754 -2.038,0.681 -4.107,1.45 -6.111,2.351 -6.511,2.924 -12.294,7.271 -13.77,14.813 -1.896,9.681 5.02,19.875 13.4,24.192 0.188,0.097 0.371,0.205 0.562,0.297 0.027,0.015 0.055,0.024 0.082,0.036 l 0,0 z" inkscape:connector-curvature="0" />
                <path id="svg_66" d="m 384.644,231.495 c -0.627,-1.181 -1.186,-2.392 -1.54,-3.767 -0.842,-3.276 -0.383,-6.625 1.287,-9.553 0.098,-0.167 0.068,-0.338 -0.012,-0.471 1.417,0.76 4.117,0.709 4.958,-0.699 0.122,-0.206 0.032,-0.441 -0.21,-0.49 -0.805,-0.16 -1.414,0.248 -2.215,0.402 -0.759,0.146 -1.562,0.029 -2.271,-0.262 -0.686,-0.281 -1.197,-0.895 -1.627,-1.471 -0.408,-0.551 -0.557,-1.312 -1.141,-1.688 -0.021,-0.015 -0.055,-0.009 -0.062,0.021 -0.386,1.307 1.161,3.188 2.207,3.959 -0.118,-0.006 -0.237,0.041 -0.321,0.185 -2.42,4.147 -2.443,9.766 -0.074,14.038 0.616,1.111 1.396,2.126 2.337,3.005 0.146,0.136 0.282,0.278 0.438,0.407 0.074,0.062 0.2,-0.031 0.155,-0.121 -0.014,-0.027 -0.026,-0.053 -0.042,-0.08 -0.607,-1.185 -1.268,-2.287 -1.867,-3.415 l 0,0 z" inkscape:connector-curvature="0" />
                <path id="svg_67" style="fill:#58595b" d="m 414.539,199.244 c -0.041,0.213 0.029,1.89 0.51,1.757 0.193,-0.054 0.457,-0.046 0.618,-0.09 0.022,0.665 -0.448,1.165 -0.794,1.737 -0.48,0.793 -0.811,1.738 -1.015,2.641 -0.263,1.156 -0.634,3.896 1.354,3.578 0.785,-0.127 1.11,1.064 0.362,1.346 -1.896,0.709 -3.772,2.551 -3.983,4.68 -0.183,1.832 0.561,4.121 2.841,3.768 0.913,-0.137 1.1,1.27 0.188,1.419 -2.008,0.278 -2.089,4.153 -1.49,5.576 1.078,2.56 5.041,4.032 7.299,2.272 0.436,-0.338 1.104,-0.07 1.172,0.48 0.432,3.394 4.217,2.279 6.137,0.794 2.505,-1.94 3.729,-4.864 1.133,-7.341 -0.3,-0.287 -0.359,-0.894 0.132,-1.051 2.523,-0.816 5.146,-2.42 5.341,-5.367 0.184,-2.754 -0.449,-5.092 -3.521,-5.535 -0.728,-0.105 -0.755,-0.997 -0.18,-1.312 2.369,-1.289 3.902,-3.643 2.954,-6.39 -0.606,-1.767 -1.631,-3.478 -3.595,-3.405 -0.148,0.027 -0.312,0.045 -0.498,0.053 -0.021,0.004 -0.047,0.006 -0.07,0.012 -0.059,-0.008 -0.107,10e-4 -0.172,0 -0.801,-0.008 -0.711,-1.191 -0.004,-1.33 0.157,-0.031 0.312,-0.051 0.464,-0.062 0.296,-0.209 -0.495,-0.902 -0.782,-1.203 -0.381,-0.398 -0.771,-0.783 -1.188,-1.145 -0.741,-0.645 -1.444,-1.334 -2.212,-1.725 0.019,0.498 -0.02,0.996 -0.119,1.438 -0.645,2.837 -3.555,4.993 -6.175,3.384 -0.969,0.446 -2.466,0.131 -3.363,-0.328 -0.471,0.318 -1.214,0.664 -1.344,1.349 l 0,0 z" inkscape:connector-curvature="0" />
                <path id="svg_68" d="m 427.75,195.123 c 0.416,0.359 0.809,0.744 1.188,1.143 0.289,0.303 1.08,0.995 0.784,1.205 -0.151,0.014 -0.307,0.031 -0.464,0.062 -0.707,0.139 -0.797,1.322 0.004,1.33 0.062,0.001 0.113,-0.006 0.172,0 0.023,-0.006 0.049,-0.006 0.07,-0.01 0.184,-0.008 0.35,-0.025 0.498,-0.055 1.964,-0.07 2.986,1.641 3.595,3.405 0.948,2.747 -0.585,5.101 -2.954,6.392 -0.575,0.313 -0.548,1.205 0.18,1.312 3.07,0.442 3.703,2.78 3.521,5.534 -0.192,2.947 -2.815,4.552 -5.341,5.367 -0.491,0.158 -0.432,0.765 -0.132,1.051 2.596,2.478 1.372,5.399 -1.133,7.342 -1.92,1.484 -5.705,2.6 -6.137,-0.794 -0.068,-0.552 -0.736,-0.818 -1.172,-0.48 -2.258,1.761 -6.221,0.285 -7.299,-2.274 -0.599,-1.422 -0.518,-5.295 1.49,-5.574 0.909,-0.15 0.725,-1.555 -0.188,-1.419 -2.28,0.354 -3.021,-1.935 -2.841,-3.767 0.211,-2.131 2.09,-3.972 3.983,-4.681 0.748,-0.28 0.423,-1.474 -0.362,-1.346 -1.986,0.319 -1.615,-2.423 -1.354,-3.578 0.202,-0.901 0.532,-1.849 1.015,-2.642 0.346,-0.571 0.816,-1.071 0.794,-1.736 -0.161,0.044 -0.425,0.035 -0.618,0.09 -0.479,0.133 -0.551,-1.544 -0.51,-1.757 0.13,-0.687 0.873,-1.031 1.342,-1.353 -0.093,-0.049 -0.186,-0.096 -0.264,-0.146 -0.368,-0.231 -0.714,-0.513 -1.025,-0.819 -1.162,0.805 -1.354,4.059 -0.418,4.967 -1.611,2.116 -2.537,6.34 -0.835,7.844 -1.89,1.238 -3.304,3.361 -3.272,5.646 0.023,1.902 0.858,3.727 2.398,4.436 -1.274,1.647 -1.219,4.606 -0.664,6.385 0.131,0.419 0.325,0.809 0.565,1.167 0.189,0.286 0.418,0.549 0.666,0.794 1.842,1.814 5.073,2.475 7.351,1.47 1.076,3.241 4.98,2.759 7.667,1.142 3.468,-2.088 4.781,-6.113 2.255,-9.153 2.953,-1.196 5.105,-3.205 5.368,-6.63 0.214,-2.788 -0.812,-5.062 -3.143,-6.025 1.288,-1.008 2.176,-2.277 2.51,-3.779 0.112,-0.504 0.152,-1.035 0.133,-1.59 -0.014,-0.406 -0.052,-0.82 -0.142,-1.254 -0.456,-2.188 -1.867,-4.267 -3.932,-4.771 -0.073,-0.754 -0.694,-1.693 -1.385,-2.411 -1.342,-1.4 -2.807,-2.792 -4.438,-3.214 0.151,0.449 0.237,0.951 0.259,1.455 0.771,0.385 1.474,1.076 2.215,1.719 l 0,0 z" inkscape:connector-curvature="0" />
                <path id="svg_69" style="fill:#58595b" d="m 398.807,189.867 c 0.707,-0.536 2.233,-0.494 2.941,-0.506 1.443,-0.027 3.182,0.115 4.502,0.771 1.145,0.57 1.652,1.44 2.143,2.58 1.292,3.005 3.853,0.188 5.908,0.309 0.188,0.01 0.276,0.252 0.168,0.393 -0.189,0.248 -0.412,0.469 -0.646,0.672 0.451,1.137 1.164,2.25 2.303,2.757 0.666,0.298 1.445,0.521 2.183,0.384 0.534,-0.1 0.864,-0.326 1.396,-0.209 0.211,0.045 0.393,0.264 0.287,0.486 -0.008,0.016 -0.021,0.029 -0.027,0.045 0.91,0.139 1.865,0.156 2.61,-0.388 0.812,-0.595 1.405,-1.468 1.712,-2.425 0.348,-1.09 0.406,-2.699 -0.322,-3.403 -0.619,0.324 -1.305,0.502 -2.035,0.464 -0.278,-0.015 -0.396,-0.432 -0.162,-0.586 0.104,-0.068 0.209,-0.128 0.314,-0.189 -0.029,-0.068 -0.01,-0.164 0.081,-0.217 0.438,-0.254 0.829,-0.385 1.179,-0.418 0.666,-0.324 1.307,-0.682 1.809,-1.322 0.615,-0.791 1.049,-1.73 1.084,-2.75 0.049,-1.383 -0.549,-2.549 -1.562,-2.549 -0.332,0.28 -0.746,0.459 -1.246,0.498 -0.041,0.03 -0.08,0.055 -0.121,0.088 -0.062,0.055 -0.154,-0.026 -0.123,-0.096 -0.127,-0.047 -0.232,-0.176 -0.154,-0.316 0.44,-0.801 1.13,-1.405 1.398,-2.322 0.309,-1.035 0.296,-2.256 -0.252,-3.217 -1.746,-3.062 -5.281,-1.02 -7.518,0.359 -0.018,0.692 -0.229,1.369 -0.727,1.957 -0.271,0.322 -0.754,0.191 -0.836,-0.217 -0.357,-1.784 0.014,-3.705 -1.859,-4.785 -1.777,-1.024 -3.436,0.102 -4.305,1.676 0.081,0.225 0.152,0.455 0.201,0.707 0.051,0.267 -0.285,0.342 -0.438,0.185 -1.709,-1.747 -3.745,-3.185 -6.271,-2.078 -2.083,0.913 -3.354,2.733 -3.229,4.918 0.267,0.065 0.512,0.19 0.72,0.397 0.13,0.129 0.066,0.357 -0.059,0.461 -0.874,0.72 -2.241,0.375 -3.218,1.121 -0.899,0.689 -1.604,1.694 -1.771,2.84 -0.418,2.794 1.533,3.695 3.942,3.925 z" inkscape:connector-curvature="0" />
                <path id="svg_70" d="m 395.338,189.741 c 0.103,0.065 0.203,0.126 0.312,0.18 0.847,0.433 1.881,0.536 2.941,0.17 -0.011,0.017 -0.022,0.03 -0.035,0.048 -0.03,0.053 -0.01,0.121 0.058,0.131 3.018,0.441 7.307,-0.705 8.744,2.875 0.884,2.205 3.241,2.594 5.175,1.754 0.273,-0.119 0.542,-0.264 0.794,-0.432 0.078,0.939 0.58,1.782 1.268,2.463 0.312,0.309 0.657,0.586 1.025,0.818 0.078,0.05 0.171,0.097 0.264,0.145 0.897,0.459 2.396,0.774 3.363,0.327 2.62,1.61 5.53,-0.546 6.175,-3.383 0.103,-0.44 0.138,-0.938 0.119,-1.437 -0.021,-0.506 -0.105,-1.006 -0.259,-1.457 -0.145,-0.42 -0.34,-0.797 -0.607,-1.07 1.552,-1.199 2.521,-3.35 2.387,-5.169 -0.104,-1.442 -0.971,-2.331 -1.986,-2.378 1.11,-1.533 0.885,-4.51 -0.01,-5.795 -1.7,-2.446 -4.13,-1.799 -6.245,-0.521 -0.779,0.471 -1.521,1.025 -2.161,1.547 -0.027,-0.752 -0.301,-1.508 -0.714,-2.182 -0.549,-0.889 -1.351,-1.632 -2.229,-1.997 -2.262,-0.937 -4.204,0.494 -5.01,2.501 -1.161,-2.185 -4.055,-2.705 -6.42,-1.958 -2.754,0.871 -4.154,3.5 -3.596,6.142 -0.98,0.006 -2.112,0.604 -2.797,1.084 -1.193,0.842 -1.905,2.244 -2.162,3.65 -0.043,0.237 -0.06,0.467 -0.062,0.693 -0.034,1.406 0.639,2.589 1.668,3.251 l 0,0 z m -0.479,-3.8 c 0.168,-1.146 0.872,-2.149 1.771,-2.84 0.977,-0.746 2.343,-0.402 3.217,-1.121 0.125,-0.104 0.188,-0.332 0.06,-0.461 -0.208,-0.207 -0.453,-0.332 -0.72,-0.398 -0.125,-2.184 1.146,-4.005 3.229,-4.918 2.525,-1.107 4.562,0.331 6.271,2.078 0.152,0.158 0.488,0.082 0.438,-0.184 -0.049,-0.252 -0.12,-0.483 -0.201,-0.707 0.869,-1.574 2.525,-2.702 4.304,-1.677 1.873,1.08 1.503,3 1.86,4.785 0.082,0.408 0.564,0.539 0.836,0.217 0.495,-0.588 0.709,-1.265 0.727,-1.957 2.234,-1.379 5.771,-3.422 7.518,-0.358 0.548,0.961 0.56,2.181 0.252,3.216 -0.271,0.917 -0.958,1.522 -1.398,2.323 -0.078,0.142 0.027,0.271 0.154,0.315 -0.032,0.067 0.061,0.147 0.123,0.097 0.041,-0.033 0.08,-0.059 0.121,-0.088 0.5,-0.039 0.914,-0.219 1.246,-0.498 1.016,0 1.611,1.166 1.562,2.549 -0.035,1.019 -0.469,1.959 -1.085,2.75 -0.502,0.642 -1.142,0.998 -1.808,1.321 -0.35,0.033 -0.74,0.164 -1.179,0.419 -0.091,0.053 -0.11,0.146 -0.081,0.217 -0.105,0.062 -0.211,0.121 -0.314,0.188 -0.233,0.154 -0.116,0.571 0.162,0.586 0.73,0.038 1.416,-0.14 2.035,-0.464 0.729,0.704 0.67,2.312 0.322,3.402 -0.309,0.957 -0.898,1.83 -1.712,2.426 -0.745,0.544 -1.7,0.525 -2.61,0.388 0.008,-0.016 0.021,-0.028 0.027,-0.045 0.104,-0.226 -0.076,-0.44 -0.287,-0.485 -0.531,-0.117 -0.861,0.108 -1.396,0.209 -0.735,0.139 -1.517,-0.086 -2.183,-0.385 -1.139,-0.507 -1.852,-1.619 -2.303,-2.757 0.232,-0.203 0.455,-0.424 0.646,-0.672 0.108,-0.142 0.021,-0.384 -0.168,-0.394 -2.058,-0.117 -4.616,2.697 -5.908,-0.308 -0.488,-1.14 -0.999,-2.01 -2.143,-2.58 -1.32,-0.657 -3.06,-0.801 -4.502,-0.772 -0.708,0.013 -2.234,-0.029 -2.941,0.507 -2.403,-0.228 -4.354,-1.129 -3.942,-3.924 z" inkscape:connector-curvature="0" />
                <path id="svg_71" d="m 400.835,198.684 c 3.4,0.851 5.086,-4.283 2.671,-6.279 -0.939,-0.777 -2.473,-0.803 -3.508,-0.223 -1.346,0.752 -1.902,2.151 -1.761,3.652 0.14,1.475 1.222,2.507 2.598,2.85 l 0,0 z m 0.487,-4.647 c 0.02,-0.077 0.043,-0.155 0.064,-0.236 0.074,-0.246 0.278,-0.414 0.519,-0.492 0.478,-0.363 1.194,-0.055 1.423,0.447 0.023,0.057 0.053,0.115 0.08,0.174 0.092,0.131 0.156,0.277 0.17,0.449 0.014,0.171 -0.009,0.324 -0.054,0.467 -0.017,0.092 -0.034,0.188 -0.062,0.289 -0.13,0.525 -0.484,0.834 -1.04,0.811 -0.038,-0.002 -0.077,-0.004 -0.115,-0.006 -0.016,0 -0.031,-0.002 -0.049,-0.002 -0.019,-0.002 -0.037,-0.002 -0.057,-0.004 -0.012,0 -0.023,-0.006 -0.035,-0.008 -0.082,-0.011 -0.163,-0.027 -0.251,-0.049 -0.42,-0.109 -0.743,-0.697 -0.745,-1.127 0,-0.273 0.056,-0.504 0.152,-0.713 l 0,0 z" inkscape:connector-curvature="0" />
                <path id="svg_72" style="fill:#ffffff" d="m 401.917,195.877 c 0.088,0.021 0.169,0.038 0.251,0.049 0.012,0.002 0.023,0.008 0.035,0.008 0.02,0.002 0.038,0.002 0.057,0.004 0.018,0 0.033,0.002 0.049,0.002 0.038,0.002 0.077,0.004 0.115,0.006 0.555,0.023 0.91,-0.283 1.04,-0.811 0.026,-0.104 0.046,-0.197 0.062,-0.289 0.045,-0.143 0.065,-0.296 0.054,-0.467 -0.014,-0.172 -0.078,-0.318 -0.17,-0.449 -0.027,-0.059 -0.057,-0.117 -0.08,-0.174 -0.229,-0.502 -0.945,-0.811 -1.423,-0.447 -0.238,0.078 -0.442,0.246 -0.519,0.492 -0.021,0.081 -0.047,0.159 -0.064,0.236 -0.099,0.209 -0.152,0.438 -0.15,0.713 0,0.43 0.323,1.018 0.743,1.127 l 0,0 z" inkscape:connector-curvature="0" />
                <path id="svg_73" d="m 394.474,194.424 c 1.249,-0.373 2.032,-1.449 2.233,-2.709 0.115,-0.723 -0.598,-1.494 -1.344,-1.336 -0.075,0.018 -0.142,0.039 -0.204,0.062 -0.105,0.037 -0.204,0.08 -0.29,0.133 -0.308,0.186 -1.042,0.695 -1.737,1.281 -0.223,0.188 -0.438,0.383 -0.64,0.578 -0.535,0.523 -0.926,1.045 -0.858,1.398 0.017,0.08 0.06,0.141 0.094,0.205 0.412,0.759 2.095,0.583 2.746,0.388 l 0,0 z m 1.456,-2.695 c -0.228,0.824 -1.635,1.211 -1.309,0.064 0.175,-0.611 1.518,-0.838 1.309,-0.064 z" inkscape:connector-curvature="0" />
                <path id="svg_74" style="fill:#ffffff" d="m 394.621,191.793 c -0.326,1.146 1.081,0.76 1.309,-0.064 0.209,-0.774 -1.134,-0.547 -1.309,0.064 z" inkscape:connector-curvature="0" />
                <path id="svg_75" d="m 407.105,227.41 c 0.109,-0.021 0.225,-0.049 0.338,-0.082 0.807,-0.24 1.785,-1.16 1.445,-2.064 -0.06,-0.16 -0.242,-0.219 -0.395,-0.164 -0.535,0.189 -0.84,0.771 -1.242,1.146 -0.16,0.146 -0.334,0.257 -0.52,0.33 -0.147,-0.042 -0.314,-0.008 -0.407,0.104 -0.449,0.063 -0.926,-0.021 -1.36,-0.193 -0.232,-0.092 -0.437,0.246 -0.22,0.393 0.513,0.348 1.043,0.546 1.6,0.583 0.337,2.581 -0.917,4.957 -3.021,6.444 -0.032,0.021 -0.008,0.07 0.025,0.066 0.065,-0.009 0.125,-0.025 0.188,-0.035 0.806,-0.136 1.47,-0.512 1.998,-1.043 1.33,-1.345 1.81,-3.653 1.571,-5.485 l 0,0 z" inkscape:connector-curvature="0" />
            </g>
        </g>
    </g>
    <path style="fill:none;fill-rule:evenodd;stroke:none;stroke-width:1px;stroke-linecap:butt;stroke-linejoin:miter;stroke-opacity:1" d="m 416.20843,219.3195 c 4.80538,-63.51353 -12.0028,-107.43978 -83.24169,-102.03819" id="PathRight" inkscape:connector-curvature="0" sodipodi:nodetypes="cc" />
</svg>
